<svg width="75" height="87" viewBox="0 0 75 87" fill="none" xmlns="http://www.w3.org/2000/svg">
<g filter="url(#filter0_d)">
<path d="M4.35254 -7.62939e-06L70.1125 -7.62939e-06V46.0814L4.35254 46.0814L4.35254 -7.62939e-06Z" fill="#F9DB6D"/>
<path d="M37.9036 78.6923C12.9148 68.2833 5.29755 52.6698 4.61255 46.1642L70.3726 46.1642C68.7286 65.681 43.2466 75.8461 37.9036 78.6923Z" fill="#F9DB6D"/>
<path d="M47.9965 9.54718C48.0867 9.59207 48.1689 9.64756 48.2326 9.72164L48.2326 9.72428C48.2963 9.75332 48.3599 9.7797 48.4235 9.80874C48.275 9.70302 48.1238 9.6026 47.97 9.51013C47.9806 9.52336 47.9886 9.53395 47.9965 9.54718Z" fill="#040001"/>
<path d="M47.861 9.35708C47.9273 9.38876 47.9936 9.42044 48.0652 9.45475C48.0015 9.40453 47.9352 9.35695 47.8742 9.30672C47.8238 9.26706 47.7787 9.2433 47.7336 9.22748C47.7787 9.26184 47.8212 9.30681 47.861 9.35708Z" fill="#040001"/>
<path d="M48.6143 12.7366C48.6305 12.7392 48.644 12.7446 48.6575 12.7473C48.6548 12.7419 48.6521 12.7365 48.6494 12.7311C48.6413 12.7311 48.6278 12.7338 48.6143 12.7366Z" fill="#040001"/>
<path d="M47.501 9.50317C47.5223 9.55083 47.5488 9.60112 47.5966 9.64873C47.6656 9.7228 47.7399 9.7942 47.8169 9.8603C48.0238 10.0348 48.2413 10.1987 48.4615 10.3573C48.5225 10.4022 48.5862 10.4445 48.6499 10.4894C48.557 10.3916 48.4614 10.2937 48.3579 10.2012C48.0899 9.95787 47.7478 9.76769 47.501 9.50317Z" fill="#040001"/>
<path d="M47.9065 9.6694C47.7898 9.59541 47.6758 9.51877 47.5644 9.43683C47.5511 9.42626 47.5564 9.41035 47.5643 9.40504C47.5351 9.3839 47.5033 9.36276 47.4741 9.34161C47.4741 9.34956 47.4741 9.35751 47.4742 9.36546C47.5989 9.50566 47.7581 9.61136 47.9251 9.70381C47.9198 9.69322 47.9119 9.68263 47.9065 9.6694Z" fill="#040001"/>
<path d="M46.428 15.6942C46.4989 15.3311 46.4319 14.865 46.4526 14.5947C46.476 14.3191 46.5683 14.0752 46.6977 13.8471C46.7056 13.8074 46.7135 13.7703 46.7266 13.7332C46.6976 13.7756 46.6685 13.818 46.6421 13.8631C46.5628 13.9957 46.4915 14.1336 46.4229 14.2742C46.3946 14.7484 46.4537 15.2226 46.428 15.6942Z" fill="#040001"/>
<path d="M46.7092 15.7754C46.8808 15.4333 46.7368 14.8613 46.6882 14.3527C46.6437 14.6733 46.6576 14.9965 46.637 15.3622C46.6686 15.2403 46.6896 15.1184 46.6787 14.9859C46.676 14.9568 46.7263 14.9487 46.7317 14.9779C46.7611 15.1394 46.7534 15.2958 46.7352 15.4574C46.7247 15.5555 46.7302 15.6747 46.7092 15.7754Z" fill="#040001"/>
<path d="M47.9253 12.7165C47.7133 12.6479 47.4933 12.598 47.2944 12.5003C47.1565 12.429 47.0133 12.3657 46.8702 12.305C46.8304 12.3156 46.7881 12.3263 46.7483 12.3396C47.1276 12.5536 47.5807 12.6164 47.9916 12.7481C47.9677 12.7349 47.9492 12.7244 47.9253 12.7165Z" fill="#040001"/>
<path d="M49.26 10.8328C49.2201 10.756 49.1697 10.6766 49.1006 10.5919C48.9918 10.4544 48.8697 10.338 48.7371 10.2322C48.883 10.3698 49.0131 10.5232 49.1405 10.6766C49.183 10.7269 49.2228 10.7798 49.26 10.8328Z" fill="#040001"/>
<path d="M47.5934 9.21397C47.5325 9.22997 47.4928 9.27243 47.477 9.3334C47.5778 9.38621 47.6944 9.42311 47.8084 9.4653C47.7473 9.34618 47.6809 9.24297 47.5934 9.21397Z" fill="#040001"/>
<path d="M51.202 9.22882C51.2232 9.27383 51.2445 9.31883 51.2631 9.36383C51.2576 9.23137 51.2547 9.09891 51.2466 8.9691C51.2328 8.68034 51.1555 8.42084 51.0703 8.15869C51.1 8.49246 51.1086 8.82893 51.2071 9.15463C51.2151 9.18376 51.2125 9.20761 51.202 9.22882Z" fill="#040001"/>
<path d="M51.5866 9.59412C51.6076 9.49076 51.5968 9.3636 51.631 9.26287C51.5191 8.8895 51.3781 8.52676 51.2026 8.17999C51.4367 8.69887 51.5516 9.2842 51.5208 9.85387C51.5551 9.76373 51.5734 9.66038 51.5866 9.59412Z" fill="#040001"/>
<path d="M48.7924 6.17421C48.7893 6.17422 48.7861 6.17423 48.783 6.17108C48.7861 6.17423 48.7893 6.17422 48.7893 6.17737C48.7893 6.17737 48.7924 6.17736 48.7924 6.17421Z" fill="#040001"/>
<path d="M51.8403 10.9927C51.7766 10.9292 51.6971 10.8816 51.6096 10.8579C51.538 10.8395 51.4532 10.829 51.3738 10.8398C51.5619 10.8368 51.7528 10.9372 51.8961 11.0879C51.8855 11.0535 51.8722 11.0217 51.8403 10.9927Z" fill="#040001"/>
<path d="M46.3049 14.8307C46.31 14.7194 46.3151 14.6108 46.3255 14.4995C46.315 14.5286 46.3044 14.5604 46.2965 14.5896C46.2992 14.5949 46.3045 14.5975 46.3045 14.6055C46.3073 14.6797 46.3074 14.7565 46.3049 14.8307Z" fill="#040001"/>
<path d="M51.6119 10.3444C51.5615 10.3551 51.5139 10.3711 51.4689 10.3897C51.4636 10.4109 51.4583 10.4321 51.4531 10.4533C51.5272 10.4214 51.604 10.3974 51.6808 10.4026C51.7259 10.4051 51.7762 10.4156 51.8266 10.4368C51.8213 10.4156 51.8133 10.397 51.7947 10.3812C51.7443 10.3389 51.6728 10.3337 51.6119 10.3444Z" fill="#040001"/>
<path d="M51.7332 10.0362C51.7411 9.99913 51.7728 9.97788 51.8073 9.97517C51.7966 9.91955 51.7832 9.86394 51.7699 9.80567C51.7673 9.82687 51.7646 9.84807 51.7594 9.86928C51.7304 9.96735 51.6643 10.0496 51.5982 10.1318C51.6644 10.1079 51.7226 10.0786 51.7332 10.0362Z" fill="#040001"/>
<path d="M49.9151 6.57131C49.8859 6.54222 49.8594 6.51312 49.8275 6.48668C49.4986 6.2117 49.154 6.11692 48.759 5.99572L48.7564 5.99837C48.9235 6.13585 49.2813 6.21738 49.4245 6.28337C49.5995 6.36255 49.7586 6.46295 49.9151 6.57131Z" fill="#040001"/>
<path d="M49.1084 5.93418C48.9839 5.91849 48.8991 5.92128 48.8408 5.93993C49.1271 5.98448 49.3788 6.0132 49.6227 6.13465C49.4557 6.03161 49.2833 5.95772 49.1084 5.93418Z" fill="#040001"/>
<path d="M49.0932 6.27369C49.0667 6.26314 49.0375 6.25524 49.0084 6.2447C49.0004 6.25266 48.9898 6.25797 48.9766 6.26329C49.4964 6.59622 50.0665 6.83634 50.4647 7.32845C50.5842 7.47661 50.7038 7.70161 50.7253 7.89498C50.7549 8.14927 50.803 8.37438 50.8696 8.58887C50.8211 8.09882 50.8282 7.60867 50.4274 7.21195C50.1647 6.95011 49.7375 6.59052 49.3106 6.36605C49.239 6.33173 49.1674 6.29741 49.0932 6.27369Z" fill="#040001"/>
<path d="M50.5248 10.0121C50.4825 10.0413 50.4375 10.0626 50.3925 10.0892C50.6547 10.0252 50.763 9.86866 50.9083 9.60347C50.9189 9.58491 50.9321 9.57694 50.9453 9.56897C50.9346 9.51865 50.9213 9.47098 50.9027 9.42332C50.8554 9.6539 50.7048 9.87935 50.5248 10.0121Z" fill="#040001"/>
<path d="M39.6187 12.4287C39.6134 12.4101 39.6186 12.3969 39.6266 12.3889C39.5815 12.3572 39.539 12.3334 39.4993 12.3149C39.5631 12.4817 39.6402 12.6353 39.7359 12.7782C39.6906 12.6617 39.6507 12.5452 39.6187 12.4287Z" fill="#040001"/>
<path d="M28.1216 37.6706C28.1858 38.0229 28.1785 38.4203 28.1924 38.7859C28.2659 38.4201 28.3474 38.0491 28.1455 37.7076C28.1375 37.6944 28.1295 37.6812 28.1216 37.6706Z" fill="#040001"/>
<path d="M28.2637 38.9705C28.2657 38.9705 28.2657 38.9684 28.2677 38.9684C28.2657 38.9684 28.2657 38.9705 28.2637 38.9705Z" fill="#040001"/>
<path d="M28.4888 38.7594C28.4919 38.7594 28.4919 38.7594 28.4951 38.7626C28.4951 38.7594 28.4951 38.7563 28.4951 38.7531C28.4919 38.7531 28.4888 38.7563 28.4888 38.7594Z" fill="#040001"/>
<path d="M46.1745 15.8056C46.1716 15.8143 46.1716 15.8201 46.1687 15.8288C46.1745 15.8288 46.1774 15.8316 46.1803 15.8316C46.1774 15.823 46.1774 15.8143 46.1745 15.8056Z" fill="#040001"/>
<path d="M32.0725 14.8947C32.0725 14.8973 32.0725 14.9 32.0725 14.9C32.0779 14.9107 32.0832 14.9213 32.0886 14.932C32.0832 14.9187 32.0779 14.908 32.0725 14.8947Z" fill="#040001"/>
<path d="M28.6304 37.7515C28.7631 37.8838 28.8561 38.0611 28.9226 38.2385C28.9918 38.4239 29.0478 38.6066 29.1011 38.7919C29.1808 38.9481 29.2712 39.099 29.3642 39.2472C29.2652 38.6857 29.0974 38.1746 28.6649 37.7753C28.6542 37.7674 28.6436 37.7595 28.6304 37.7515Z" fill="#040001"/>
<path d="M33.3839 16.6199C33.5564 16.7759 33.7288 16.908 33.8986 17.0031C33.9224 17.0163 33.9463 17.0242 33.9675 17.0375C33.5988 16.752 33.267 16.4107 32.9776 16.0536C32.8475 15.8895 32.7015 15.7229 32.5608 15.5509C32.6352 15.7018 32.715 15.85 32.8159 15.985C32.9885 16.2178 33.1928 16.4109 33.3839 16.6199Z" fill="#040001"/>
<path d="M28.6915 38.0638C28.6943 38.1141 28.6944 38.1671 28.6865 38.2227C28.6865 38.228 28.6839 38.2333 28.6839 38.2413C28.7054 38.4479 28.7456 38.6863 28.8678 38.8556C28.8784 38.8689 28.889 38.8821 28.9023 38.8953C28.8942 38.8556 28.8809 38.8185 28.8756 38.7788C28.8328 38.5669 28.79 38.2967 28.6915 38.0638Z" fill="#040001"/>
<path d="M28.589 38.5728C28.6024 38.684 28.6159 38.8032 28.7114 38.8613C28.714 38.8613 28.7193 38.864 28.722 38.864C28.6714 38.7475 28.6368 38.6257 28.6207 38.4932C28.6101 38.5197 28.5996 38.5463 28.589 38.5728Z" fill="#040001"/>
<path d="M28.4049 37.7994C28.4288 37.8576 28.4501 37.9185 28.4609 37.9847C28.4983 38.2099 28.4405 38.4643 28.3614 38.6976C28.4988 38.4827 28.5805 38.223 28.4979 37.982C28.4766 37.9158 28.4421 37.8576 28.4049 37.7994Z" fill="#040001"/>
<path d="M32.3064 15.3023C32.3409 15.3579 32.3781 15.4134 32.4126 15.4664C32.3807 15.3896 32.3515 15.3155 32.3222 15.2387C32.3036 15.2096 32.2876 15.1831 32.269 15.154C32.2824 15.1964 32.2957 15.2414 32.3064 15.2837C32.3117 15.2917 32.309 15.297 32.3064 15.3023Z" fill="#040001"/>
<path d="M40.8449 13.6765C40.7494 13.5522 40.6485 13.4305 40.5396 13.3035C40.5157 13.277 40.4653 13.2162 40.3989 13.1395C40.6752 13.5761 40.9224 14.0394 41.1113 14.5212C41.0711 14.2272 40.9938 13.9386 40.8449 13.6765Z" fill="#040001"/>
<path d="M40.144 12.8992C40.1361 12.8833 40.1413 12.8701 40.1466 12.8595C40.0219 12.7272 39.8839 12.5923 39.7512 12.4839C39.9081 12.8308 40.1497 13.1377 40.3887 13.4419C40.3116 13.2593 40.2291 13.0792 40.144 12.8992Z" fill="#040001"/>
<path d="M35.9979 17.5425C35.9926 17.5293 35.9846 17.5134 35.9793 17.5001C35.9314 17.4101 35.8862 17.3201 35.7908 17.2753C35.7855 17.2726 35.7828 17.2673 35.7802 17.262C35.7616 17.2541 35.743 17.2488 35.7245 17.2409C35.7165 17.2409 35.7059 17.241 35.698 17.241C35.7935 17.3229 35.8361 17.4315 35.9051 17.5241C35.9343 17.532 35.9661 17.5372 35.9979 17.5425Z" fill="#040001"/>
<path d="M51.9049 11.5088C51.8888 11.4055 51.8462 11.3049 51.7533 11.2097C51.5888 11.0404 51.3926 10.9745 51.1648 10.9908C51.4748 11.0062 51.7666 11.2203 51.9049 11.5088Z" fill="#040001"/>
<path d="M41.4945 15.3001C41.4785 15.2683 41.4679 15.2392 41.4625 15.2207C41.3587 14.9162 41.329 14.5983 41.2516 14.2885C41.249 14.2805 41.2516 14.2726 41.2569 14.2673C41.1958 14.1667 41.1294 14.0688 41.063 13.9682C41.1454 14.1482 41.2067 14.3362 41.2574 14.5322C41.308 14.7255 41.3114 15.168 41.4945 15.3001Z" fill="#040001"/>
<path d="M41.5919 15.1381C41.5999 15.1646 41.6132 15.1911 41.6238 15.2175C41.5918 15.0931 41.5571 14.9686 41.5146 14.8521C41.5066 14.8283 41.5304 14.815 41.5489 14.8229C41.5011 14.7144 41.4479 14.6085 41.3921 14.5052C41.4374 14.635 41.4694 14.7674 41.5146 14.9024C41.5413 14.9819 41.5653 15.0613 41.5919 15.1381Z" fill="#040001"/>
<path d="M35.4758 17.382C35.4387 17.3635 35.4016 17.3503 35.3618 17.3345C35.4334 17.3767 35.5024 17.419 35.574 17.4613C35.5474 17.4295 35.5182 17.4004 35.4758 17.382Z" fill="#040001"/>
<path d="M39.5213 12.7386C39.4601 12.5903 39.4175 12.4394 39.4146 12.283C39.3828 12.2751 39.3563 12.2752 39.3298 12.2779C39.3273 12.3865 39.3514 12.4951 39.3966 12.601C39.4364 12.6486 39.4762 12.6936 39.5213 12.7386Z" fill="#040001"/>
<path d="M33.4951 17.9182L33.4924 17.9182C33.5057 17.9553 33.5138 17.9897 33.5191 18.0294C33.6283 18.3684 33.6343 18.7658 33.8811 19.0276C34.1413 19.3054 34.5438 19.2199 34.8619 19.3121C34.8035 19.2592 34.7425 19.209 34.6656 19.1641C34.5144 19.0742 34.3659 18.9977 34.2438 18.8654C34.2226 18.8416 34.257 18.8098 34.2782 18.8309C34.4879 19.0505 34.8563 19.1267 35.0739 19.3382C35.0473 19.2826 35.0181 19.2297 34.973 19.1794C34.8907 19.0895 34.8057 19.0049 34.7155 18.9229C34.6996 18.9097 34.7234 18.8884 34.7367 18.9017C34.8932 19.0233 35.1319 19.1924 35.1985 19.4043C35.2091 19.4016 35.2197 19.3989 35.2277 19.3963C35.1905 19.3645 35.1666 19.3195 35.1532 19.2613C35.1479 19.2295 35.1876 19.2188 35.1983 19.2479C35.2142 19.285 35.2328 19.3115 35.2567 19.33C35.2115 19.2241 35.1663 19.1182 35.1025 19.0203C35.0919 19.0017 35.1183 18.9805 35.1343 18.9964C35.2245 19.1075 35.3095 19.2292 35.3627 19.3616C35.5031 19.3295 35.6461 19.3028 35.7918 19.2814C35.7069 19.2365 35.6326 19.1677 35.5663 19.1042C35.2876 18.8345 35.0594 18.607 34.6672 18.5335C34.1795 18.4469 33.7581 18.3205 33.4951 17.9182Z" fill="#040001"/>
<path d="M34.9086 17.3671C34.9165 17.3697 34.9218 17.3697 34.9297 17.3697C34.5452 17.1346 34.1923 16.8464 33.8474 16.5423C33.5953 16.3228 33.3433 16.106 33.0991 15.8812C33.6168 16.4871 34.2111 16.9709 34.9086 17.3671Z" fill="#040001"/>
<path d="M29.1473 38.1135C29.1367 38.1056 29.1234 38.0977 29.1128 38.0897C29.2562 38.259 29.3704 38.4549 29.4397 38.6694C29.5276 38.9448 29.5546 39.2362 29.6477 39.5062C29.709 39.6889 29.802 39.8477 29.895 40.0092C29.8442 39.7523 29.8491 39.4873 29.7824 39.2252C29.673 38.7935 29.4472 38.4362 29.1473 38.1135Z" fill="#040001"/>
<path d="M47.1018 16.2463C47.1038 16.2463 47.1038 16.2463 47.1059 16.2484C47.1059 16.2463 47.1038 16.2463 47.1038 16.2443C47.1018 16.2443 47.1018 16.2463 47.1018 16.2463Z" fill="#040001"/>
<path d="M49.3213 16.5449C49.3186 16.5421 49.3158 16.5394 49.313 16.5366C49.3048 16.5394 49.2965 16.5422 49.291 16.5449C49.302 16.5449 49.3103 16.5449 49.3213 16.5449Z" fill="#040001"/>
<path d="M47.0842 13.4962C47.1055 13.5598 47.1083 13.6286 47.1031 13.6949C47.1216 13.6525 47.1427 13.61 47.1585 13.565C47.132 13.5359 47.1081 13.5121 47.0842 13.4962Z" fill="#040001"/>
<path d="M50.2721 14.0185C50.2375 13.9072 50.1922 13.7987 50.1338 13.6981C50.1737 13.8014 50.2083 13.9099 50.235 14.0185C50.2483 14.0158 50.2615 14.0158 50.2721 14.0185Z" fill="#040001"/>
<path d="M49.6256 14.0515C49.6284 14.1443 49.6233 14.237 49.6128 14.3297C49.5998 14.4357 49.5242 15.1803 49.3659 15.5303C49.3131 15.6841 49.2498 15.8299 49.1732 15.9652C49.636 15.4716 49.7778 14.7216 49.6256 14.0515Z" fill="#040001"/>
<path d="M50.7923 14.5794C50.793 14.961 50.6877 15.3665 50.4949 15.7165C50.7566 15.4008 50.8804 14.9979 50.7923 14.5794Z" fill="#040001"/>
<path d="M49.012 14.5029C49.012 14.4948 49.0093 14.4867 49.0066 14.4786C49.0093 14.4948 49.012 14.5137 49.0148 14.5299C49.0148 14.5218 49.012 14.511 49.012 14.5029Z" fill="#040001"/>
<path d="M46.9492 13.6107C46.9333 13.6372 46.9175 13.6664 46.9043 13.6929C46.8515 13.8334 46.8279 13.9792 46.8202 14.1249C46.8334 14.0931 46.8466 14.0586 46.8571 14.0268C46.9046 13.8863 46.9415 13.7538 46.9492 13.6107Z" fill="#040001"/>
<path d="M46.8524 15.6941C46.8497 15.6859 46.8469 15.6776 46.8469 15.6694C46.8442 15.6804 46.8414 15.6914 46.8387 15.7024C46.8442 15.6969 46.8497 15.6969 46.8524 15.6941Z" fill="#040001"/>
<path d="M49.0066 14.4787C48.9286 13.7556 48.5883 13.1123 47.7746 12.8673C47.4459 12.7672 47.1304 12.6803 46.8467 12.5219L46.8467 12.5245C47.2975 12.7913 47.8568 12.9493 48.2521 13.2692C48.6395 13.5838 48.9369 13.9728 49.0066 14.4787Z" fill="#040001"/>
<path d="M51.5906 11.9149C51.2158 11.2002 50.426 11.0188 49.8041 11.4808C50.1191 11.2736 50.6012 11.2543 50.9698 11.4603C51.2112 11.5924 51.4553 11.8065 51.6544 12.0632C51.6331 12.0076 51.6119 11.9573 51.5906 11.9149Z" fill="#040001"/>
<path d="M51.5419 12.9247C51.5312 12.8664 51.5179 12.8082 51.5019 12.7526C51.4913 12.7499 51.4833 12.742 51.4753 12.7341C51.4993 12.7976 51.5232 12.8612 51.5419 12.9247Z" fill="#040001"/>
<path d="M53.221 12.5589C53.2588 12.548 53.2993 12.5452 53.3372 12.5397C53.302 12.5344 53.2615 12.5426 53.221 12.5589Z" fill="#040001"/>
<path d="M51.6095 10.5662C51.5247 10.5743 51.4532 10.6035 51.3818 10.6407C51.3712 10.662 51.3606 10.6805 51.3501 10.6991C51.4613 10.6724 51.5805 10.6722 51.6574 10.6906C51.7343 10.7117 51.8377 10.7618 51.9252 10.8306C51.9225 10.8094 51.9198 10.7855 51.9198 10.7643C51.8349 10.6585 51.787 10.5526 51.6095 10.5662Z" fill="#040001"/>
<path d="M50.5323 12.7091C50.5138 12.733 50.4846 12.7489 50.4449 12.749C50.6729 12.8625 50.8666 13.0317 51.0075 13.2726C50.8852 13.0502 50.7286 12.8545 50.5323 12.7091Z" fill="#040001"/>
<path d="M51.1641 13.6301C51.1827 13.6884 51.204 13.7625 51.228 13.8499C51.2093 13.7731 51.188 13.7016 51.1641 13.6301Z" fill="#040001"/>
<path d="M51.1431 13.5684C51.1512 13.5873 51.1566 13.6088 51.162 13.6277C51.1566 13.6142 51.1512 13.5954 51.1485 13.5819C51.1485 13.5792 51.1458 13.5738 51.1431 13.5684Z" fill="#040001"/>
<path d="M51.1265 14.9465C51.1317 14.8935 51.1342 14.8378 51.1341 14.7822C51.1315 14.7849 51.1262 14.7875 51.1235 14.7875C51.1235 14.7902 51.1235 14.7902 51.1236 14.7928C51.1289 14.8432 51.129 14.8935 51.1265 14.9465Z" fill="#040001"/>
<path d="M50.902 13.6411C50.8514 13.5087 50.7982 13.4002 50.7557 13.334C50.5167 12.9874 50.1905 12.821 49.8301 12.7395C50.1774 12.8952 50.5301 13.0695 50.7426 13.3976C50.7851 13.4611 50.825 13.53 50.8648 13.5988C50.8754 13.6147 50.8887 13.6279 50.902 13.6411Z" fill="#040001"/>
<path d="M50.2437 8.2028C50.1823 7.89557 50.06 7.65468 49.845 7.40601C49.5264 7.03299 49.1761 6.69182 48.8496 6.32941C49.0037 6.55964 49.2717 6.82413 49.3673 6.94849C49.6009 7.23952 49.9806 7.71576 50.2437 8.2028Z" fill="#040001"/>
<path d="M49.8202 10.1216C49.8361 10.1216 49.8547 10.1216 49.8705 10.1215C49.95 10.0976 50.0268 10.0709 50.1009 10.039C50.0082 10.0736 49.9129 10.1003 49.8202 10.1216Z" fill="#040001"/>
<path d="M51.2011 10.2942C51.23 10.167 51.2219 10.0478 51.1925 9.93391C51.1741 10.0161 51.1398 10.0983 51.087 10.1805C50.6906 10.7879 50.0518 10.6194 49.4871 10.3766C49.7364 10.5643 50.0545 10.6538 50.3619 10.6692C50.6401 10.6846 51.1249 10.6441 51.2011 10.2942Z" fill="#040001"/>
<path d="M49.7715 11.0097C49.7715 11.0125 49.7743 11.0181 49.7743 11.0237C49.7799 11.0237 49.7827 11.0209 49.7883 11.0237C49.7799 11.0181 49.7771 11.0125 49.7715 11.0097Z" fill="#040001"/>
<path d="M50.558 9.27266C50.5343 9.32569 50.5078 9.37607 50.4735 9.42647C50.3917 9.61736 50.2197 9.77132 49.9258 9.87515C49.9814 9.86181 50.0397 9.84846 50.0953 9.82982C50.1006 9.82716 50.1033 9.8298 50.1086 9.82979C50.2039 9.78724 50.2939 9.73675 50.3759 9.67568C50.532 9.55354 50.5715 9.4157 50.558 9.27266Z" fill="#040001"/>
<path d="M49.6951 12.1781C49.6816 12.1916 49.6681 12.2025 49.6573 12.216C49.6735 12.216 49.687 12.2132 49.7032 12.2132C49.7167 12.2051 49.7275 12.1997 49.7383 12.1915C49.7221 12.1916 49.7086 12.1862 49.6951 12.1781Z" fill="#040001"/>
<path d="M50.6269 10.9522C50.7567 10.9254 50.8546 10.8855 50.934 10.8298C50.5368 10.9656 49.9803 10.8817 49.6328 10.6359C49.6541 10.673 49.6727 10.7127 49.6886 10.7524C49.946 10.9639 50.2852 11.019 50.6269 10.9522Z" fill="#040001"/>
<path d="M49.1384 12.526C49.1092 12.5446 49.0828 12.5605 49.0563 12.5765C49.1146 12.5684 49.1702 12.563 49.2285 12.5603C49.2285 12.5523 49.2311 12.5444 49.2417 12.5364C49.2655 12.5178 49.2893 12.4992 49.3131 12.4806C49.2628 12.4834 49.2178 12.4888 49.1701 12.4968C49.1595 12.5047 49.1516 12.518 49.1384 12.526Z" fill="#040001"/>
<path d="M49.3112 14.4781C49.29 14.4888 49.2662 14.4915 49.2423 14.4809C49.2692 14.7114 49.267 14.9445 49.2356 15.1724C49.2882 14.9471 49.3143 14.7113 49.3112 14.4781Z" fill="#040001"/>
<path d="M49.3748 10.2452C49.3774 10.2236 49.3855 10.202 49.3963 10.183C49.3558 10.1858 49.3125 10.1859 49.272 10.1859C49.2963 10.2075 49.318 10.2291 49.3397 10.2534C49.3505 10.2507 49.3613 10.2479 49.3748 10.2452Z" fill="#040001"/>
<path d="M48.9288 6.29741C48.9262 6.30006 48.9236 6.30537 48.9209 6.30802C49.2978 6.68094 49.7487 6.98485 50.0806 7.39759C50.216 7.56427 50.3726 7.74151 50.418 7.95868C50.4608 8.16791 50.4823 8.36393 50.5462 8.55988C50.5488 8.55988 50.5515 8.55987 50.5515 8.55987C50.5139 8.24201 50.545 7.87634 50.383 7.60903C50.0323 7.04001 49.4594 6.67802 48.9288 6.29741Z" fill="#040001"/>
<path d="M50.1559 12.6092C49.9623 12.5274 49.7371 12.4854 49.5198 12.4752C49.4722 12.4991 49.4272 12.523 49.3795 12.5496C49.6471 12.5412 49.9147 12.5646 50.1586 12.6357C50.1559 12.6277 50.1559 12.6198 50.1559 12.6092Z" fill="#040001"/>
<path d="M51.1128 12.8879C51.0172 12.7477 50.8819 12.626 50.728 12.5256C50.8713 12.6287 50.9987 12.7504 51.1128 12.8879Z" fill="#040001"/>
<path d="M49.4277 12.1945C49.4222 12.1919 49.4168 12.1865 49.4114 12.1838C49.398 12.2108 49.3791 12.2379 49.3656 12.2649C49.3845 12.2595 49.4034 12.2567 49.4224 12.254C49.4169 12.2405 49.4142 12.2243 49.4223 12.2081C49.4223 12.2027 49.425 12.2 49.4277 12.1945Z" fill="#040001"/>
<path d="M50.0258 14.2223C49.9485 13.9019 49.8339 13.5179 49.6188 13.2269C49.6002 13.2163 49.5817 13.2057 49.5604 13.1952C49.656 13.3222 49.7358 13.4625 49.7916 13.6107C50.2355 14.4525 50.0411 15.4225 49.343 16.1761C50.0101 15.8438 50.1886 14.9056 50.0258 14.2223Z" fill="#040001"/>
<path d="M48.7999 13.0509C48.7707 13.0218 48.813 12.9793 48.8448 13.0057C49.073 13.1908 49.235 13.4369 49.3441 13.7149C49.2507 13.2859 48.9798 12.9446 48.4497 12.7971C48.8343 13.0746 49.1053 13.4663 49.2438 13.9191C49.169 13.5801 49.0228 13.273 48.7999 13.0509Z" fill="#040001"/>
<path d="M49.2189 10.057C49.1659 10.0464 49.1129 10.0306 49.0625 10.0148C49.0864 10.0333 49.1102 10.0492 49.1341 10.0677C49.1606 10.065 49.1898 10.0623 49.2189 10.057Z" fill="#040001"/>
<path d="M49.4326 12.6818C49.5334 12.724 49.6315 12.7742 49.727 12.8376C49.7402 12.8429 49.7535 12.8482 49.7667 12.8535C49.7031 12.8165 49.6394 12.7795 49.5758 12.7425C49.5546 12.732 49.5519 12.7134 49.5519 12.6975C49.5121 12.6896 49.4724 12.6844 49.4326 12.6818Z" fill="#040001"/>
<path d="M48.3677 12.7368C48.3764 12.7426 48.3851 12.7484 48.3938 12.7512C48.3937 12.7455 48.3937 12.7426 48.3937 12.7397C48.385 12.7368 48.3764 12.7368 48.3677 12.7368Z" fill="#040001"/>
<path d="M50.2626 11.5228C50.0004 11.5524 49.8045 11.6719 49.7015 11.8549C50.0508 11.6053 50.5913 11.6043 51.0155 11.7864C50.798 11.6225 50.5354 11.4905 50.2626 11.5228Z" fill="#040001"/>
<path d="M50.6296 12.285C50.6163 12.2824 50.6031 12.2798 50.5872 12.2772C50.7065 12.3246 50.8284 12.3854 50.9425 12.4541C50.8602 12.3774 50.7568 12.3193 50.6296 12.285Z" fill="#040001"/>
<path d="M50.2791 10.3595C50.4116 10.3619 50.5493 10.3272 50.6658 10.2608C50.536 10.3114 50.3904 10.3381 50.2367 10.3543C50.2526 10.3569 50.2659 10.3595 50.2791 10.3595Z" fill="#040001"/>
<path d="M33.9539 21.1711C33.9596 21.174 33.9652 21.174 33.9681 21.1796C33.9681 21.174 33.9652 21.1654 33.9652 21.1598C33.9624 21.1626 33.9595 21.1655 33.9539 21.1711Z" fill="#040001"/>
<path d="M33.7603 21.3299C33.7846 21.3271 33.8089 21.3244 33.836 21.3216C33.836 21.3189 33.8359 21.3162 33.8359 21.3135C33.8305 21.3135 33.8251 21.3082 33.8197 21.3028C33.8008 21.3136 33.7819 21.3217 33.7603 21.3299Z" fill="#040001"/>
<path d="M46.4569 18.5182C46.7959 18.462 47.127 18.3899 47.4554 18.3072C47.6539 18.2353 47.8419 18.1449 48.0007 18.0466C47.9504 18.0573 47.8974 18.0653 47.8471 18.076C47.7305 18.0974 47.6113 18.1162 47.4921 18.1323C47.1639 18.2865 46.8065 18.4514 46.4569 18.5182C46.4542 18.5182 46.4542 18.5182 46.4569 18.5182Z" fill="#040001"/>
<path d="M48.4301 17.9797C48.4247 17.9852 48.4193 17.9879 48.4139 17.9933C48.4409 17.9851 48.4679 17.9743 48.4949 17.9634C48.476 17.9662 48.4571 17.9662 48.4382 17.9689C48.4355 17.9743 48.4328 17.977 48.4301 17.9797Z" fill="#040001"/>
<path d="M46.7885 17.7528C46.7857 17.742 46.7884 17.7339 46.7884 17.7258C46.7587 17.7231 46.729 17.7205 46.6992 17.7151C46.7263 17.7205 46.7452 17.7367 46.7614 17.7556C46.7641 17.7583 46.7696 17.7583 46.7723 17.761C46.7777 17.7583 46.7831 17.7555 46.7885 17.7528Z" fill="#040001"/>
<path d="M34.097 20.9954C34.1 20.9866 34.1029 20.9777 34.1059 20.9718C34.1 20.9777 34.0941 20.9836 34.0882 20.9925C34.0911 20.9925 34.0941 20.9925 34.097 20.9954Z" fill="#040001"/>
<path d="M34.5956 21.2936C34.6253 21.2909 34.6496 21.2584 34.6549 21.2314C34.6603 21.2152 34.6576 21.2016 34.6549 21.1908C34.6278 21.1882 34.6035 21.1963 34.5819 21.2153C34.5469 21.2424 34.5523 21.2694 34.5956 21.2936Z" fill="#040001"/>
<path d="M34.5366 21.3967L34.5383 21.395L34.5366 21.395L34.5366 21.3967Z" fill="#040001"/>
<path d="M34.2843 20.9343C34.279 20.9343 34.2764 20.9316 34.2711 20.9343C34.2499 20.9423 34.2314 20.9476 34.2102 20.9556C34.1864 20.998 34.1733 21.0457 34.1972 21.0854C34.2344 21.1437 34.3244 21.1223 34.3508 21.0666C34.3693 21.0295 34.3719 20.9845 34.3559 20.9474C34.3399 20.913 34.3108 20.9289 34.2843 20.9343Z" fill="#040001"/>
<path d="M34.4523 21.2552C34.4523 21.2524 34.4523 21.2467 34.4551 21.2439C34.4523 21.2495 34.4495 21.2552 34.4439 21.2608C34.4467 21.258 34.4495 21.2552 34.4523 21.2552Z" fill="#040001"/>
<path d="M29.5371 38.3832C29.5428 38.3888 29.5485 38.3945 29.5542 38.403C29.5542 38.4002 29.5513 38.3973 29.5513 38.3945C29.5456 38.3888 29.5428 38.386 29.5371 38.3832Z" fill="#040001"/>
<path d="M42.6934 17.8199C42.6457 17.7908 42.6085 17.7591 42.5714 17.7273C42.5503 17.8201 42.4763 17.9024 42.3122 17.9636C42.2777 17.9769 42.2407 17.9902 42.2036 18.0035C42.3969 17.9528 42.5929 17.9022 42.7915 17.8674C42.7571 17.8542 42.7252 17.8383 42.6934 17.8199Z" fill="#040001"/>
<path d="M44.5256 17.0616C43.6669 16.8883 42.9063 16.7995 42.1619 16.8034C42.2521 16.9225 42.3054 17.0522 42.3692 17.1819C42.3984 17.2322 42.4303 17.2825 42.4595 17.3354C42.7862 17.8038 43.4061 17.7657 43.9015 17.7595C44.4897 17.7532 45.4172 17.8894 45.7712 17.3033C45.3551 17.2271 44.939 17.1457 44.5256 17.0616Z" fill="#040001"/>
<path d="M41.9277 17.848C41.8112 17.9145 41.6842 17.973 41.5491 18.0236C41.7583 17.9676 41.9595 17.8824 42.1184 17.8265C42.4732 17.6961 42.3351 17.5188 42.189 17.2806C42.189 17.278 42.1864 17.278 42.1864 17.2753C42.1973 17.4979 42.1712 17.7072 41.9277 17.848Z" fill="#040001"/>
<path d="M45.2608 17.9155C45.2608 17.9261 45.2608 17.9367 45.2555 17.9473C45.2714 17.9394 45.29 17.9314 45.3058 17.9234C45.3429 17.9048 45.3958 17.8782 45.4541 17.849C45.3905 17.8729 45.327 17.8969 45.2608 17.9155Z" fill="#040001"/>
<path d="M41.7307 18.1978C41.7279 18.1978 41.7251 18.1978 41.7223 18.1951C41.7196 18.1951 41.7196 18.1951 41.7168 18.1951C41.7223 18.1951 41.7279 18.1978 41.7307 18.1978Z" fill="#040001"/>
<path d="M42.0638 18.2394C42.0612 18.2341 42.0612 18.2262 42.0638 18.2209C41.9605 18.2157 41.8571 18.208 41.7564 18.2002C41.7538 18.2002 41.7511 18.2002 41.7459 18.2028C41.8519 18.2159 41.9578 18.2263 42.0638 18.2394Z" fill="#040001"/>
<path d="M41.4542 18.2384C41.4515 18.2384 41.4489 18.241 41.4462 18.241C41.4145 18.2437 41.3853 18.2517 41.3535 18.2571C41.494 18.278 41.6344 18.2963 41.7749 18.3173C41.6689 18.2963 41.5602 18.2673 41.4542 18.2384Z" fill="#040001"/>
<path d="M46.4638 18.1765C46.6598 18.1232 46.8584 18.0646 47.0543 17.9768C47.0993 17.9555 47.1443 17.9396 47.1893 17.9209C47.1257 17.9184 47.0648 17.9132 47.0012 17.908C46.8424 18.0169 46.6651 18.102 46.4797 18.1686C46.4771 18.1712 46.4718 18.1739 46.4638 18.1765Z" fill="#040001"/>
<path d="M46.6938 17.7149C46.6505 17.7096 46.6073 17.707 46.564 17.7016C46.5613 17.7044 46.5586 17.7071 46.5559 17.7098C46.5775 17.7124 46.6019 17.7178 46.6235 17.7205C46.6316 17.7205 46.6397 17.7177 46.6478 17.715C46.6667 17.7096 46.6802 17.7123 46.6938 17.7149Z" fill="#040001"/>
<path d="M45.6622 18.6044C45.6437 18.5991 45.633 18.5859 45.6224 18.5753C45.5324 18.5967 45.437 18.6127 45.3443 18.6261C45.4582 18.6233 45.5722 18.6205 45.6834 18.6123C45.6755 18.607 45.6675 18.607 45.6622 18.6044Z" fill="#040001"/>
<path d="M36.4851 17.3403C36.6125 17.4514 36.7028 17.6102 36.809 17.7425C36.8514 17.7636 36.8939 17.79 36.9337 17.8165C36.8539 17.6444 36.745 17.4856 36.5806 17.4064C36.5647 17.3985 36.5673 17.3852 36.5752 17.372C36.5461 17.3641 36.5169 17.3509 36.4851 17.3403Z" fill="#040001"/>
<path d="M36.207 17.3383C36.3079 17.4308 36.3955 17.5419 36.4857 17.6398C36.499 17.6424 36.5122 17.6451 36.5281 17.6503C36.4803 17.5789 36.4325 17.5101 36.3715 17.4519C36.3211 17.4043 36.2654 17.3673 36.207 17.3383Z" fill="#040001"/>
<path d="M38.8967 17.9402C38.8835 17.9667 38.8703 17.9932 38.8571 18.0197C38.873 18.0435 38.8889 18.0647 38.9022 18.0885C38.9074 18.0408 38.9047 17.9905 38.8967 17.9402Z" fill="#040001"/>
<path d="M33.6922 24.9756C33.8881 24.8667 34.0866 24.7551 34.2851 24.6514C34.1157 24.7126 33.9462 24.7791 33.7874 24.8589C33.7557 24.8987 33.7239 24.9385 33.6922 24.9756Z" fill="#040001"/>
<path d="M38.781 18.2216C38.8023 18.2851 38.8263 18.354 38.8396 18.4228C38.8528 18.3751 38.866 18.3274 38.8765 18.277C38.8684 18.2108 38.8551 18.1473 38.8284 18.0837C38.8073 18.1314 38.7942 18.1765 38.781 18.2216Z" fill="#040001"/>
<path d="M36.04 17.4444C36.0644 17.4822 36.0915 17.5227 36.1159 17.5632C36.1321 17.5658 36.1484 17.5685 36.1646 17.5712C36.124 17.528 36.0806 17.4849 36.04 17.4444Z" fill="#040001"/>
<path d="M52.563 16.6369C52.5764 16.6288 52.5897 16.6208 52.603 16.6128C52.5923 16.6128 52.579 16.6128 52.5657 16.6128C52.5657 16.6209 52.5657 16.6289 52.563 16.6369Z" fill="#040001"/>
<path d="M34.8802 20.8721C34.814 20.8563 34.7503 20.8352 34.6841 20.8195C34.7451 20.8829 34.8114 20.8908 34.8802 20.8721Z" fill="#040001"/>
<path d="M37.2441 18.1496C37.2201 18.0728 37.1882 17.9987 37.151 17.9273C37.1324 17.9008 37.1138 17.8717 37.0952 17.8452C37.1377 17.9273 37.1723 18.0093 37.1963 18.0782C37.2122 18.102 37.2282 18.1258 37.2441 18.1496Z" fill="#040001"/>
<path d="M44.6647 15.7946C44.6647 15.786 44.6647 15.7773 44.6618 15.7686C44.6589 15.7773 44.656 15.786 44.6531 15.7947C44.656 15.7947 44.6589 15.7947 44.6647 15.7946Z" fill="#040001"/>
<path d="M44.4764 15.7134C44.4764 15.7106 44.4764 15.7106 44.4764 15.7078C44.4708 15.7134 44.468 15.719 44.4624 15.7246C44.468 15.7218 44.4736 15.719 44.4764 15.7134Z" fill="#040001"/>
<path d="M41.1473 16.8661C41.0414 16.8796 40.9381 16.893 40.8295 16.9117C40.2734 17.114 39.6802 17.266 39.2066 17.6113C39.2092 17.6113 39.2119 17.6113 39.2172 17.6113C39.9458 17.6021 41.0137 17.7142 41.1473 16.8661Z" fill="#040001"/>
<path d="M40.4292 17.7232C40.4077 17.726 40.3861 17.7314 40.3645 17.7341C40.3672 17.7395 40.3672 17.7449 40.3673 17.753C40.3861 17.7422 40.4077 17.7313 40.4292 17.7232Z" fill="#040001"/>
<path d="M40.0869 17.7721C40.1058 17.764 40.1436 17.7612 40.1815 17.7585C40.1842 17.7531 40.1869 17.7503 40.1923 17.7476C40.1463 17.7504 40.1031 17.7532 40.0571 17.7533C40.0599 17.7641 40.0653 17.7749 40.0653 17.783C40.0734 17.7803 40.0815 17.7775 40.0869 17.7721Z" fill="#040001"/>
<path d="M39.1996 18.1705C39.2446 18.1095 39.2868 18.0485 39.3053 17.9716C39.3289 17.8735 39.3023 17.8153 39.2122 17.7704C39.1804 17.7546 39.1406 17.7361 39.1008 17.7203C39.1884 17.8235 39.2337 17.9373 39.2127 18.0937C39.2075 18.1175 39.2022 18.144 39.1996 18.1705Z" fill="#040001"/>
<path d="M39.8931 17.8352C39.8507 17.83 39.8136 17.8195 39.7738 17.801C39.7765 17.8301 39.7713 17.8593 39.7608 17.8911C39.7265 18.0024 39.618 18.0741 39.536 18.1511C39.6419 18.1006 39.7424 18.0315 39.8165 17.944C39.8456 17.9121 39.872 17.875 39.8931 17.8352C39.8958 17.8352 39.8958 17.8352 39.8931 17.8352Z" fill="#040001"/>
<path d="M38.963 17.8342C39.0241 17.9427 39.0482 18.0858 39.0405 18.2235C39.0563 18.1864 39.0695 18.1467 39.0774 18.1016C39.101 17.9717 39.0743 17.8685 39.0185 17.7652C39.0079 17.7758 38.9974 17.7865 38.9868 17.7971C38.9789 17.8103 38.9709 17.8209 38.963 17.8342Z" fill="#040001"/>
<path d="M39.6149 17.8622C39.6413 17.8012 39.644 17.8224 39.5963 17.8251C39.5645 17.8252 39.5327 17.8279 39.5036 17.8253C39.493 17.8253 39.4877 17.8227 39.4771 17.82C39.4797 17.828 39.4824 17.8333 39.485 17.8386C39.501 17.8968 39.4958 17.9631 39.4801 18.0267C39.5303 17.9736 39.5885 17.9232 39.6149 17.8622Z" fill="#040001"/>
<path d="M43.0008 18.0051C43.0882 17.9996 43.1756 17.9915 43.2657 17.9861C43.2392 17.9835 43.21 17.9809 43.1835 17.9783C43.1226 17.9863 43.0617 17.9944 43.0008 18.0051Z" fill="#040001"/>
<path d="M39.5118 45.9334C39.5199 45.9334 39.528 45.9361 39.5361 45.9388C39.5334 45.9226 39.5334 45.9064 39.5306 45.8929C39.5252 45.9064 39.5199 45.9199 39.5118 45.9334Z" fill="#040001"/>
<path d="M38.5061 46.5864C38.4637 46.5679 38.4213 46.5574 38.3789 46.5442C38.6972 46.7715 38.8727 47.1236 39.0879 47.465C39.1197 47.5126 39.1543 47.5735 39.1941 47.6344C39.1462 47.5126 39.0983 47.3934 39.0452 47.2822C38.9202 47.0334 38.7792 46.7104 38.5061 46.5864Z" fill="#040001"/>
<path d="M37.2816 46.1566C37.4057 45.9338 37.5855 45.7401 37.7999 45.594C38.0089 45.4479 38.2181 45.3416 38.4697 45.3014C38.5571 45.288 38.6604 45.2773 38.7611 45.2612C38.6948 45.2586 38.6365 45.2534 38.5968 45.2535C38.3133 45.254 38.0298 45.2359 37.7837 45.4086C37.5826 45.5493 37.4398 45.7218 37.3315 45.918C37.3131 46.0002 37.2973 46.0771 37.2816 46.1566Z" fill="#040001"/>
<path d="M38.7631 46.4982C38.7181 46.4824 38.673 46.4666 38.6279 46.4534C38.7738 46.5247 38.9064 46.6331 39.0233 46.7839C39.2251 47.0459 39.3528 47.3689 39.4831 47.6707C39.5736 47.8772 39.6825 48.0651 39.7941 48.253C39.7354 47.9935 39.6819 47.7313 39.5649 47.4851C39.3761 47.088 39.1371 46.7307 38.7631 46.4982Z" fill="#040001"/>
<path d="M37.25 46.5512C37.3715 46.2861 37.5645 46.0818 37.8742 45.9329C38.1125 45.8185 38.372 45.7677 38.6263 45.6958C38.907 45.6158 39.0657 45.5096 39.1767 45.3213C38.9835 45.4408 38.7159 45.4545 38.4934 45.4814C37.8921 45.5487 37.4054 45.9999 37.2421 46.5645C37.2421 46.5565 37.2474 46.5539 37.25 46.5512Z" fill="#040001"/>
<path d="M39.3982 46.0916C39.4062 46.0969 39.4143 46.1049 39.4196 46.1103L39.4223 46.1076C39.4196 46.0969 39.4169 46.0862 39.4142 46.0755C39.4116 46.0809 39.4036 46.0862 39.3982 46.0916Z" fill="#040001"/>
<path d="M42.2835 18.263C43.1076 18.3252 43.9261 18.2364 44.7205 17.986C44.5563 17.9916 44.392 17.9892 44.241 17.9868C44.2331 18.0107 44.2172 18.0292 44.1854 18.0399C43.5499 18.2264 42.8479 18.2568 42.1669 18.2235C42.2067 18.2393 42.2438 18.2499 42.2835 18.263Z" fill="#040001"/>
<path d="M37.4737 46.9749C37.6697 46.9083 37.9161 46.9503 38.1469 47.1168C38.2159 47.167 38.2796 47.2278 38.338 47.2913C38.099 47.003 37.8046 46.8127 37.4737 46.9749Z" fill="#040001"/>
<path d="M39.4041 46.2776C39.4148 46.2856 39.4281 46.2935 39.4388 46.3015C39.4281 46.2909 39.4201 46.2829 39.4094 46.2722C39.4067 46.2749 39.4067 46.2749 39.4041 46.2776Z" fill="#040001"/>
<path d="M38.6743 45.8757C38.277 45.9558 37.9407 46.0518 37.6841 46.243C37.8667 46.1659 38.068 46.1258 38.2852 46.1042C38.5793 46.0772 39.1569 46.1345 39.2942 45.8163C39.3549 45.6785 39.3705 45.538 39.3888 45.4002C39.27 45.6601 39.0027 45.8089 38.6743 45.8757Z" fill="#040001"/>
<path d="M37.4155 45.5492C37.5556 45.3821 37.7276 45.244 37.9368 45.1589C38.1512 45.0711 38.3685 45.0681 38.5989 45.0544C38.6864 45.049 38.9222 45.0645 39.0679 45.0377C38.8425 44.9427 38.4399 44.9991 38.2333 45.0233C37.9816 45.0555 37.685 45.1302 37.476 45.2948C37.455 45.3796 37.4339 45.4644 37.4155 45.5492Z" fill="#040001"/>
<path d="M39.9121 50.7774C39.8849 50.3509 39.9557 49.9402 40.0769 49.5399C39.8944 49.6833 39.6772 49.7472 39.3697 49.6524C38.7786 49.4706 38.2665 49.0475 37.998 48.489C37.99 48.4731 38.0138 48.4572 38.0245 48.473C38.2849 48.9548 38.7228 49.3832 39.2662 49.5254C39.7353 49.6464 39.9444 49.4845 40.1638 49.2165C39.7933 49.437 39.2844 49.3452 38.921 49.0862C38.6584 48.8985 38.4753 48.7054 38.3449 48.4089C38.2705 48.2395 38.2066 48.0621 38.1188 47.898C38.0683 47.7921 38.0046 47.6968 37.9276 47.6069C37.6785 47.5834 37.5302 47.634 37.4827 47.7533C37.538 47.5042 37.7151 47.2972 37.9726 47.5617C38.2512 47.8474 38.3393 48.2367 38.5624 48.5596C38.8413 48.9644 39.4007 49.1913 39.8774 49.0819C39.525 49.0374 39.167 48.8659 38.9599 48.6013C38.7714 48.3578 38.6305 48.0905 38.4737 47.8258C38.3781 47.6617 38.2798 47.4791 38.147 47.3415C37.9321 47.1167 37.3139 46.6117 37.175 47.4916C37.1939 47.7008 37.234 47.9074 37.3032 48.114C37.6174 49.0513 38.3124 49.5429 38.7192 50.3768C38.8176 50.578 38.8735 50.7209 38.8843 50.8852C38.9685 50.5459 38.8938 50.1963 38.7502 49.8839C38.7422 49.868 38.766 49.8548 38.774 49.8706C39.0718 50.4874 39.19 51.4808 38.3558 51.6862C37.7867 51.9786 37.082 51.9931 36.4408 51.9889C35.7255 51.9848 34.9994 51.8721 34.292 51.8813C33.5078 51.8932 32.9018 52.2863 32.378 52.7853C32.267 52.9206 32.1506 53.0533 32.0396 53.1939C31.8942 53.3743 31.733 53.5971 31.6698 53.8277C31.6619 53.8543 31.6619 53.8755 31.6619 53.8966C31.6806 53.9602 31.7363 54.0104 31.8529 54.0314C31.996 54.0603 32.1365 54.0574 32.2741 54.0069C32.5204 53.919 32.748 53.7835 32.9863 53.6771C33.2695 53.5521 33.5689 53.5145 33.8103 53.7181C33.9051 53.4 34.0715 53.0553 34.445 53.0547C34.7576 53.0541 34.8338 52.6725 35.1251 52.5925C35.5065 52.4885 36.0154 52.6148 36.3995 52.6036C36.9267 52.5868 37.4618 52.5355 37.9891 52.5585C38.625 52.5865 39.9103 52.8201 40.4155 52.3132C40.4206 52.1913 40.3859 52.0642 40.3486 51.9451C40.1572 51.5745 39.9393 51.1933 39.9121 50.7774Z" fill="#040001"/>
<path d="M30.305 39.4604C30.3024 39.4869 30.2998 39.5161 30.2946 39.5426C30.3078 39.5532 30.3158 39.5664 30.3158 39.5876C30.3159 39.6353 30.3213 39.6856 30.3267 39.7333C30.3401 39.8074 30.3693 39.8763 30.4462 39.9159C30.4754 39.9317 30.5072 39.9449 30.539 39.9581C30.4965 39.8972 30.4567 39.8311 30.4274 39.7622C30.3822 39.6616 30.3449 39.561 30.305 39.4604Z" fill="#040001"/>
<path d="M37.1615 47.2311C37.1615 47.2446 37.1615 47.2581 37.1643 47.2743C37.1804 47.2365 37.1993 47.1986 37.2235 47.1688C37.2019 47.1878 37.1831 47.2067 37.1615 47.2311Z" fill="#040001"/>
<path d="M29.6912 38.5842C29.7549 38.6795 29.8134 38.7774 29.8639 38.886C30.0075 39.1983 30.0399 39.5666 30.0829 39.9188C30.1857 39.6113 30.2593 39.2562 30.0495 38.981C29.9406 38.8381 29.808 38.7191 29.6912 38.5842Z" fill="#040001"/>
<path d="M30.0493 38.7453C30.1475 38.8617 30.2299 38.9914 30.2752 39.1476C30.3842 39.362 30.4852 39.5818 30.6181 39.7829C30.719 39.939 30.8649 40.0686 30.9712 40.2221C30.8594 39.9043 30.7634 39.5389 30.5563 39.2717C30.4049 39.0732 30.2271 38.9146 30.0493 38.7453Z" fill="#040001"/>
<path d="M37.8127 44.7253C37.7911 44.7388 37.7695 44.7497 37.7506 44.7632C37.7506 44.7659 37.7533 44.7659 37.7533 44.7686C37.7857 44.7497 37.8181 44.7334 37.8532 44.7171C37.8424 44.7171 37.8262 44.7226 37.8127 44.7253Z" fill="#040001"/>
<path d="M37.664 44.8096C37.6611 44.8182 37.6582 44.824 37.6553 44.8327C37.664 44.8269 37.6727 44.8211 37.6813 44.8153C37.6755 44.8124 37.6669 44.8153 37.664 44.8096C37.664 44.8125 37.664 44.8096 37.664 44.8096Z" fill="#040001"/>
<path d="M37.5128 45.1281C37.7245 44.9846 37.9919 44.8967 38.2091 44.8619C38.2753 44.8512 38.3733 44.8325 38.4846 44.8164C38.1401 44.7773 37.809 44.8282 37.5233 45.0777C37.5206 45.091 37.518 45.1095 37.5128 45.1281Z" fill="#040001"/>
<path d="M37.5601 44.906C37.5736 44.8925 37.5898 44.8816 37.6033 44.8708C37.5925 44.8735 37.579 44.8708 37.5682 44.8682C37.5655 44.8817 37.5628 44.8952 37.5601 44.906Z" fill="#040001"/>
<path d="M38.9902 46.2645C38.932 46.2726 38.871 46.278 38.8101 46.2807C39.0354 46.3386 39.2422 46.439 39.4253 46.5817C39.3111 46.4441 39.1758 46.3357 38.9902 46.2645Z" fill="#040001"/>
<path d="M33.3455 27.8852C33.3455 27.8987 33.3456 27.9122 33.3456 27.9257C33.3617 27.9041 33.3752 27.8825 33.3886 27.8582C33.3751 27.8663 33.3617 27.8744 33.3455 27.8852Z" fill="#040001"/>
<path d="M41.7686 17.7582C41.9539 17.6466 42.0014 17.5193 42.0038 17.3842C41.8796 17.5672 41.6679 17.7133 41.4535 17.8462C41.3608 17.902 41.2603 17.9578 41.1544 18.0109C41.3821 17.947 41.5992 17.8618 41.7686 17.7582Z" fill="#040001"/>
<path d="M33.4351 27.8271C33.4379 27.8271 33.4435 27.8271 33.4491 27.8271C33.4491 27.8215 33.4519 27.8187 33.4519 27.8159C33.4463 27.8187 33.4407 27.8243 33.4351 27.8271Z" fill="#040001"/>
<path d="M37.8624 46.3756C37.8809 46.3729 37.8994 46.3676 37.918 46.3649C37.8597 46.365 37.804 46.3624 37.7458 46.3652C37.7325 46.3679 37.7166 46.3732 37.7034 46.3785C37.7564 46.3758 37.8094 46.373 37.8624 46.3756Z" fill="#040001"/>
<path d="M35.6846 29.4892C35.6926 29.4892 35.7006 29.4892 35.7086 29.4918C35.7139 29.4838 35.7166 29.4758 35.7219 29.4705C35.7086 29.4758 35.6979 29.4838 35.6846 29.4892Z" fill="#040001"/>
<path d="M36.9823 29.1489C36.9877 29.1488 36.9958 29.1488 37.0012 29.1488C37.0119 29.1299 37.0227 29.111 37.0334 29.0948C37.0173 29.111 36.9984 29.1299 36.9823 29.1489Z" fill="#040001"/>
<path d="M45.4674 18.0243C45.1073 18.1627 44.7048 18.2508 44.5035 18.3042C44.4717 18.3122 44.4558 18.283 44.4637 18.2592C44.0638 18.3685 43.6533 18.4354 43.24 18.4494C44.019 18.5116 44.7738 18.362 45.4886 18.0455C45.4807 18.0375 45.4727 18.0323 45.4674 18.0243Z" fill="#040001"/>
<path d="M44.7214 18.5212C44.732 18.5212 44.7452 18.5185 44.7558 18.5159C44.6949 18.5186 44.6366 18.5214 44.5757 18.5215L44.573 18.5215C44.6207 18.524 44.671 18.524 44.7214 18.5212Z" fill="#040001"/>
<path d="M41.5527 16.9609C41.5554 16.9849 41.5582 17.009 41.5582 17.0303C41.5662 17.0063 41.5741 16.9822 41.5821 16.9582C41.5714 16.9582 41.5634 16.9609 41.5527 16.9609Z" fill="#040001"/>
<path d="M41.5352 17.5386C41.5246 17.5545 41.5114 17.5704 41.5008 17.5863C41.5829 17.5226 41.6569 17.4563 41.7177 17.3873C41.6595 17.4483 41.5987 17.4987 41.5511 17.5306C41.5458 17.5306 41.5405 17.5333 41.5352 17.5386Z" fill="#040001"/>
<path d="M41.1877 17.3638C41.2255 17.3286 41.2579 17.288 41.2848 17.242C41.2767 17.2448 41.2686 17.2421 41.2605 17.2394C41.2416 17.2854 41.2174 17.3259 41.1877 17.3638Z" fill="#040001"/>
<path d="M26.8389 34.626C26.8551 34.6395 26.8713 34.6529 26.8875 34.6664C26.8902 34.661 26.8955 34.6529 26.8982 34.6475C26.8767 34.6422 26.8578 34.6341 26.8389 34.626Z" fill="#040001"/>
<path d="M37.9528 46.7462C37.9926 46.7541 38.035 46.762 38.0748 46.7752C37.8042 46.5981 37.4888 46.5457 37.2562 46.8322C37.2483 46.8508 37.2457 46.8746 37.2378 46.8958C37.444 46.665 37.693 46.6434 37.9528 46.7462Z" fill="#040001"/>
<path d="M28.3851 35.3669C28.3798 35.3776 28.3718 35.383 28.3638 35.391C28.3745 35.3936 28.3879 35.3963 28.3986 35.4016C28.3959 35.3909 28.3958 35.3802 28.3958 35.3696C28.3932 35.3669 28.3878 35.3669 28.3851 35.3669Z" fill="#040001"/>
<path d="M29.0685 35.3617C29.0792 35.3644 29.0925 35.3643 29.1032 35.367C29.0925 35.343 29.0791 35.319 29.071 35.295C29.0711 35.3163 29.0684 35.3404 29.0685 35.3617Z" fill="#040001"/>
<path d="M31.2146 27.8248C31.2147 27.8681 31.2228 27.9032 31.2445 27.9302C31.2363 27.8951 31.2255 27.8599 31.2146 27.8248Z" fill="#040001"/>
<path d="M28.7371 34.6176C28.7182 34.6257 28.6993 34.6338 28.6805 34.6392C28.6832 34.6419 28.6859 34.6446 28.6886 34.6473C28.694 34.6446 28.702 34.6419 28.7074 34.6365C28.7209 34.6311 28.729 34.6257 28.7371 34.6176Z" fill="#040001"/>
<path d="M28.4712 34.7132C28.474 34.7132 28.4795 34.7132 28.4823 34.7132C28.4823 34.7104 28.4823 34.7104 28.4851 34.7076C28.4795 34.7104 28.4767 34.7104 28.4712 34.7132Z" fill="#040001"/>
<path d="M59.0309 7.82468C58.6849 6.92712 58.1516 6.41935 57.5807 5.69969C57.4825 5.57534 57.3842 5.45363 57.2833 5.33193C57.1351 5.38782 56.9868 5.44637 56.8385 5.50226C57.3086 6.17705 57.834 6.64244 58.0471 7.31767C58.0337 7.23292 58.0177 7.14817 58.0043 7.06606C57.9512 7.01316 57.9379 6.9443 57.9483 6.86745C57.9509 6.84625 57.988 6.85148 57.9854 6.87268C57.9828 6.91508 57.9935 6.9495 58.0068 6.98392C58.02 6.97859 58.0333 6.98123 58.0386 6.99976C58.1453 7.43673 58.3292 8.05372 58.065 8.47808C58.0175 8.60533 57.9462 8.70878 57.8562 8.78577C58.1766 8.66335 58.3722 8.41662 58.316 8.05374C58.3133 8.03255 58.3424 8.02456 58.3477 8.04574C58.4172 8.40859 58.3011 8.63664 58.018 8.85967C57.9121 8.94199 57.7771 9.0058 57.6474 9.04841C57.9998 9.05841 58.3042 8.90158 58.5073 8.41374C58.502 8.4005 58.502 8.38725 58.5073 8.37399C58.7263 7.85963 58.4631 7.31697 58.1682 6.88297C58.155 6.86445 58.1841 6.8485 58.1974 6.86702C58.4417 7.19248 58.9039 7.93882 58.6344 8.36318C58.5135 8.93566 57.9921 9.23328 57.3933 9.20252C57.0594 9.18454 56.7467 9.11354 56.4391 8.9763C56.0918 8.82058 55.5454 8.45589 55.079 8.4143C55.0605 8.41433 55.0393 8.41437 55.0207 8.4144C54.9889 8.41446 54.9518 8.41452 54.9095 8.41459C54.8459 8.42265 54.7823 8.43601 54.7241 8.45995C55.085 8.79581 55.5436 8.96988 55.9441 9.23943C56.3233 9.39775 56.6471 9.72837 56.9865 9.93974C57.0104 9.95295 56.9893 9.99007 56.9654 9.97687C56.7665 9.86858 56.5835 9.74437 56.3952 9.63077C56.7429 9.9799 57.0482 10.3423 57.2821 10.7844C57.5638 11.3164 57.5358 11.9656 57.216 12.4377C57.216 12.4377 57.216 12.4377 57.2187 12.4351C57.5016 12.1008 57.7102 11.7215 57.72 11.2658C57.72 11.2393 57.7597 11.2393 57.7598 11.2658C57.763 11.5916 57.6629 11.9044 57.5044 12.1855C57.5943 12.0847 57.6815 11.968 57.7607 11.8274C57.7607 11.8248 57.7607 11.8248 57.7607 11.8221C57.795 11.6976 57.861 11.5809 57.9005 11.4563C57.9453 11.3131 57.9689 11.1674 57.966 11.0164C57.966 11.0084 57.9792 11.0084 57.9793 11.0163C57.9928 11.2044 58.0145 11.4746 57.9353 11.6761C57.9407 11.6894 57.9433 11.7052 57.9381 11.7212C57.785 12.0711 57.5444 12.3762 57.2454 12.5834C57.6849 12.3919 58.0366 12.0204 58.1867 11.4902C58.1946 11.4637 58.2344 11.4743 58.2291 11.5008C58.095 12.0918 57.6772 12.5747 57.1292 12.8247C56.7666 12.9922 56.2208 13.0011 55.8707 12.7739C55.3167 12.5946 54.8843 12.2828 54.4227 11.9418C54.5077 12.0873 54.6537 12.2063 54.7836 12.2962C54.8075 12.312 54.7864 12.3492 54.7599 12.336C54.622 12.27 54.4734 12.1748 54.3752 12.0478C54.4603 12.2119 54.5904 12.429 54.6435 12.4898C54.7391 12.5956 54.8612 12.7146 54.9409 12.8337C55.836 14.1834 54.8242 15.8728 53.4634 16.4315C53.5163 16.4129 53.5693 16.3969 53.6196 16.3729C54.0458 16.1894 54.4429 15.9927 54.8 15.698C54.8265 15.6741 54.8663 15.7138 54.8399 15.7376C54.4933 16.0429 54.1202 16.3138 53.7046 16.5212C53.2864 16.7312 52.8388 16.83 52.3913 16.9711C52.3833 16.9738 52.3754 16.9738 52.3674 16.9738C52.3568 16.9792 52.3489 16.9845 52.3383 16.9898C52.2854 17.0349 52.2298 17.08 52.1663 17.1199C52.1531 17.1279 52.1425 17.1279 52.1319 17.1279C51.9599 17.258 51.7295 17.2902 51.4987 17.1502C51.4802 17.1396 51.496 17.1131 51.5146 17.121C51.9149 17.2978 52.1978 16.9158 52.282 16.566C52.2846 16.5554 52.2925 16.5527 52.2952 16.5474C52.3134 16.3884 52.3185 16.2268 52.3288 16.0652C52.3125 15.84 52.2803 15.6096 52.3038 15.379C52.3455 14.9656 52.4137 14.5655 52.5614 14.1757C52.6801 13.8682 52.7935 13.5898 52.9918 13.3246C53.1133 13.1627 53.3646 12.8974 53.4066 12.6482C53.4039 12.6483 53.4039 12.6509 53.4013 12.6536C51.7517 13.2287 52.0159 15.8961 50.4486 16.5877C48.7358 17.343 46.5508 16.2817 44.8069 15.9005C44.815 16.0118 44.8338 16.1204 44.8843 16.2342C44.9029 16.2766 44.8526 16.3217 44.8181 16.2847C44.7173 16.1789 44.6799 16.0226 44.6611 15.869C44.6479 15.8664 44.632 15.8637 44.6187 15.8611C44.5237 16.0573 44.3915 16.2218 44.2513 16.389C44.2328 16.4102 44.201 16.3785 44.2195 16.3572C44.3094 16.2458 44.4072 16.1317 44.4653 15.9991C44.4969 15.9249 44.5127 15.8507 44.5232 15.7738C44.3883 15.9277 44.2084 16.0446 44.0363 16.1509C44.0019 16.1721 43.9727 16.1192 44.0044 16.0953C44.0627 16.0528 44.1182 16.0077 44.1764 15.9625C44.3615 15.7132 44.5174 15.4745 44.6414 15.1961C44.8881 13.7915 44.4876 12.033 43.6617 10.8951C43.5342 10.7205 42.0697 9.48572 42.8108 10.6396C43.0074 10.9439 43.2225 11.235 43.4244 11.534C43.8015 12.0951 43.9853 12.6352 44.0871 13.3106C44.1889 13.9914 43.9728 14.6514 43.5258 15.092C43.6635 15.0123 43.7878 14.8955 43.8961 14.7046C44.213 14.137 44.3312 13.5381 44.256 12.8918C44.2533 12.8626 44.3036 12.8546 44.3089 12.8837C44.4186 13.5088 44.3271 14.2163 44.034 14.7865C43.7462 15.346 43.3198 15.4235 42.7556 15.5464C42.7318 15.5544 42.708 15.5623 42.6841 15.5677C41.895 15.7677 41.0628 15.5917 40.2764 15.895C40.0699 15.9749 39.8713 16.0653 39.6781 16.1663C39.5061 16.2699 39.3208 16.3789 39.1276 16.4799C38.9238 16.6047 38.7226 16.7375 38.5215 16.873C38.384 16.9951 38.2384 17.1093 38.0849 17.1678C38.0716 17.1758 38.0611 17.1838 38.0478 17.1918C38.0346 17.1997 38.0213 17.1971 38.0107 17.1892C37.6876 17.2692 37.3986 17.1213 37.1598 16.8992C37.1386 16.878 37.1703 16.8488 37.1915 16.8673C37.5815 17.1793 37.9762 17.1389 38.336 16.8283C38.3439 16.8203 38.3519 16.815 38.3598 16.8071C38.3466 16.8071 38.3359 16.8044 38.3306 16.7939C38.0314 16.8686 37.7294 16.8797 37.4404 16.7768C37.4325 16.7742 37.4351 16.7609 37.443 16.7636C37.6896 16.8532 37.8935 16.8184 38.0868 16.7386C36.9791 16.571 36.0639 15.934 35.3524 15.0662C35.3205 15.0266 35.2887 14.9869 35.2568 14.9445C34.7631 14.4129 34.5078 13.8278 34.382 13.0994C34.3793 13.0888 34.3952 13.0861 34.3979 13.0941C34.454 13.343 34.5445 13.6025 34.6615 13.854C34.6535 13.8275 34.6455 13.801 34.6375 13.7772C34.5708 13.523 34.498 12.7336 34.246 12.5883C34.1421 13.7966 34.507 14.9299 35.4013 15.7921C36.0223 16.3898 36.7993 16.7938 37.3912 17.4128C37.8848 17.9259 37.5716 19.1028 37.1378 19.538C37.1299 19.546 37.1193 19.5513 37.1087 19.5566C37.0717 19.5911 37.0373 19.6256 37.0002 19.6601C36.8865 19.761 36.7727 19.8354 36.6297 19.886C36.6138 19.8913 36.6058 19.8675 36.6191 19.8595C36.7567 19.7718 36.8916 19.6603 36.9974 19.5356C37 19.533 37 19.5303 37.0027 19.5303C36.9814 19.5065 36.9734 19.4721 36.9919 19.4402C36.8278 19.5174 36.6928 19.5838 36.5153 19.6212C36.5021 19.6239 36.4915 19.6054 36.5047 19.5974C36.5709 19.5628 36.6291 19.5124 36.6952 19.4752C36.7667 19.438 36.8408 19.4008 36.9043 19.353C36.9123 19.3477 36.9202 19.3397 36.9282 19.3344C36.7163 19.3877 36.4938 19.412 36.2739 19.415C36.2606 19.4203 36.2501 19.4203 36.2368 19.415C36.2077 19.4151 36.1812 19.4151 36.1547 19.4152C34.6688 19.6774 33.6287 20.3097 32.2842 21.1545C31.8158 21.4494 31.2971 21.8 30.7489 21.9334C30.2404 22.0588 29.6469 22.0201 29.2633 22.3546C29.1205 22.5217 29.06 22.7258 29.0816 22.9642C29.0924 23.0887 29.1376 23.2105 29.1749 23.3323C29.228 23.4038 29.2891 23.4673 29.3686 23.5148C29.5543 23.6284 29.8008 23.6783 29.986 23.535C30.0098 23.5164 30.0336 23.5031 30.0601 23.4871C30.2505 23.2696 30.5101 23.2824 30.762 23.4065C30.9158 23.483 31.0723 23.5675 31.226 23.6097C31.2631 23.6122 31.3029 23.6148 31.3399 23.6095C31.5439 23.5879 31.647 23.4765 31.8165 23.3887C31.9065 23.3409 32.0203 23.2798 32.1263 23.2928C32.2296 23.3059 32.3701 23.3534 32.4654 23.3029C32.4787 23.2975 32.4972 23.3108 32.4866 23.324C32.4311 23.4036 32.3729 23.4355 32.2722 23.4357C31.9993 23.4361 31.8884 23.6085 31.6633 23.7043C31.5389 23.7575 31.4171 23.7789 31.2978 23.7791C31.0622 23.859 30.8052 23.8674 30.5749 23.9711C30.5643 23.9764 30.5537 23.9711 30.5457 23.9658C30.4531 24.011 30.3525 24.0457 30.2465 24.0776C30.2547 24.1783 30.313 24.2073 30.4111 24.2681C30.4244 24.276 30.4324 24.2866 30.4403 24.2972C30.443 24.2972 30.443 24.2972 30.4456 24.2972L30.4456 24.2945C30.4827 24.3077 30.5092 24.3183 30.5411 24.3341C30.5994 24.3393 30.655 24.3366 30.7106 24.3285C31.7222 24.0195 32.6487 23.5913 33.7458 23.7484C35.2935 23.9683 36.3799 24.0618 36.9995 22.3042C37.0944 22.0365 37.1606 22.0072 37.3537 21.8267C37.3907 21.7922 37.4411 21.8451 37.4068 21.8796C36.9599 22.3811 36.8683 23.0516 36.5565 23.529C36.538 23.5953 36.501 23.6563 36.4534 23.7093C36.4508 23.7173 36.4508 23.7252 36.4455 23.7332C35.6286 24.7573 34.1855 25.2446 33.0366 25.7791C33.026 25.7844 33.0154 25.7685 33.026 25.7632C33.8334 25.3644 34.5718 24.9366 35.289 24.4479C35.2678 24.4532 35.244 24.4585 35.2228 24.4639C34.6404 24.7722 34.0528 25.0779 33.4518 25.3518C33.4333 25.3598 33.4174 25.3333 33.4359 25.3227C33.8674 25.1259 34.275 24.8815 34.6826 24.6397C34.2881 24.794 33.9043 24.9854 33.5177 25.1583C33.412 25.2618 33.3061 25.3521 33.2135 25.4264C32.8775 25.6919 32.5202 25.9177 32.1443 26.1118C31.9619 26.3055 31.7609 26.5045 31.6129 26.7247C31.5045 26.8838 31.4518 27.0376 31.4203 27.2019C31.4577 27.4217 31.4661 27.6363 31.4319 27.8298C31.4425 27.8245 31.4505 27.8192 31.4637 27.8138C31.4664 27.8138 31.4664 27.8138 31.469 27.8138C31.9295 27.5163 32.4325 27.2823 32.8983 26.9954C32.9168 26.9742 32.9353 26.9529 32.9512 26.9264C32.9644 26.8999 32.9776 26.8734 32.9908 26.8495C32.9827 26.77 32.9375 26.6721 32.9374 26.6138C32.9372 26.5131 32.9794 26.4097 33.0402 26.3328C33.1618 26.1816 33.4027 26.046 33.5937 26.1649C33.827 26.3076 33.8964 26.5883 33.7564 26.8217C33.7115 26.9013 33.6321 26.9358 33.5473 26.9572C33.4758 26.9758 33.4096 27.0078 33.362 27.0661C33.3383 27.098 33.3277 27.1298 33.3225 27.1616C33.3335 27.3841 33.3391 27.6066 33.3422 27.8292C33.4771 27.7389 33.5935 27.6353 33.6781 27.4921C33.6595 27.4604 33.6515 27.4312 33.6567 27.4047C33.6274 27.3147 33.6776 27.198 33.7702 27.1396C33.8813 27.0732 34.0402 27.012 34.1569 27.1098C34.2498 27.1865 34.3136 27.3374 34.2317 27.4514C34.1841 27.5178 34.1313 27.6 34.0492 27.6266C33.8824 27.6825 33.8349 27.7886 33.753 27.9186C33.7054 27.9928 33.6631 28.0671 33.6235 28.1413C33.6025 28.2182 33.5841 28.2951 33.5683 28.3719C33.5158 28.6369 33.4977 28.9019 33.4716 29.1696C33.4903 29.249 33.5143 29.3311 33.5383 29.4105C34.1741 29.3803 34.8145 28.9632 35.3199 28.5862C35.3964 28.3953 35.3748 28.1569 35.4938 27.9924C35.6074 27.8359 35.8351 27.7719 36.0049 27.8882C36.1879 28.0124 36.3711 28.232 36.3132 28.4679C36.2895 28.5686 36.1996 28.6271 36.1069 28.6484C35.9983 28.6751 35.7968 28.6092 35.7308 28.7206C35.7176 28.7445 35.6964 28.7577 35.6752 28.7631C35.6888 28.975 35.6601 29.1897 35.6366 29.399C35.7874 29.306 35.9383 29.213 36.0865 29.1147C36.105 29.0909 36.1261 29.0643 36.1446 29.0405C36.1603 28.9 36.1945 28.7436 36.3056 28.664C36.4088 28.5896 36.6447 28.6422 36.6344 28.7985C36.6267 28.9443 36.4812 29.0637 36.3753 29.146C36.3383 29.1752 36.2669 29.2469 36.198 29.2841C36.1269 29.4856 36.0504 29.6871 35.9606 29.878C35.9501 29.9045 35.9342 29.931 35.9237 29.9602C36.1724 29.7504 36.4157 29.5328 36.6511 29.3045C36.9814 28.7847 37.386 28.323 37.4299 27.6553C37.4325 27.6341 37.4616 27.634 37.4617 27.6552C37.4545 28.1056 37.2698 28.5325 37.0346 28.9303C37.114 28.8533 37.1934 28.7764 37.2727 28.6994C37.6876 28.0602 38.1502 27.4527 38.4775 26.7421C39.0001 25.6073 39.5271 23.9028 39.3975 22.5015C39.3575 22.3293 39.3042 22.1599 39.2112 22.0143C39.1236 21.8767 39.0147 21.7577 38.9112 21.636C38.7892 21.5938 38.662 21.5437 38.5638 21.459C38.3303 21.2581 38.2317 20.935 38.2445 20.633C38.2444 20.6091 38.2789 20.6091 38.2789 20.6329C38.2953 20.9005 38.4015 21.0778 38.5528 21.2047C39.2105 21.5878 39.9709 21.6077 40.6511 21.217C41.0137 21.0098 41.3604 20.7787 41.7576 20.6614C41.3918 20.5428 40.9494 20.5727 40.5915 20.4276C40.2945 20.3062 40.0478 20.0788 39.764 19.9309C39.3238 19.7012 38.8999 19.686 38.4256 19.6233C38.3885 19.618 38.399 19.5624 38.4334 19.5597C38.595 19.5514 38.7592 19.5352 38.9208 19.5297C38.9049 19.5191 38.8916 19.5059 38.8757 19.4953C38.6609 19.3765 38.4329 19.2788 38.263 19.0989C38.2604 19.0963 38.263 19.0937 38.2657 19.0963C38.3798 19.2047 38.5256 19.2548 38.6741 19.3049C38.6422 19.2705 38.6104 19.2388 38.5838 19.2097C38.3927 19.0033 38.2598 18.7492 38.1957 18.4765C38.1904 18.4473 38.2301 18.4367 38.2381 18.4658C38.2728 18.5797 38.3286 18.6749 38.3923 18.7623C38.3311 18.6219 38.3229 18.4577 38.32 18.3067C38.32 18.2987 38.3332 18.2961 38.3332 18.304C38.352 18.4444 38.3787 18.5715 38.4266 18.6933C38.3804 17.9807 38.9912 17.2908 39.5309 16.8633C40.5575 16.0509 42.1288 16.178 43.3345 16.319C43.3637 16.3216 43.3664 16.3666 43.3346 16.3667C42.4073 16.3418 41.3713 16.2826 40.4896 16.6259C40.2646 16.7137 40.0078 16.8493 39.7617 17.0219C40.9002 16.5802 41.7742 16.4144 43.1045 16.5631C44.4215 16.7093 45.715 17.0647 47.0294 17.2453C49.4833 17.5828 52.9442 18.0697 55.2575 16.7093C57.1019 15.4317 58.8376 14.0696 59.2733 11.6924C59.5175 10.4202 59.5073 9.05583 59.0309 7.82468ZM35.5714 20.7197C35.5873 20.7117 35.6058 20.7302 35.59 20.7435C35.5132 20.8099 35.4312 20.8656 35.3359 20.887C35.3756 20.8949 35.4127 20.9001 35.4472 20.8974C35.4737 20.8947 35.4764 20.9344 35.4525 20.9398C35.3228 20.9771 35.2062 20.9508 35.0897 21.0384C35.0765 21.0491 35.0606 21.0491 35.0474 21.0438C35.0077 21.1207 34.9708 21.2003 34.9153 21.2692C34.8201 21.386 34.7302 21.4735 34.5925 21.5374C34.4813 21.5905 34.3515 21.5802 34.2375 21.5406C34.0387 21.4747 33.8479 21.438 33.6411 21.3986C33.6305 21.3959 33.6252 21.3854 33.6252 21.3774C33.5722 21.3722 33.4662 21.3353 33.4318 21.3698C33.3419 21.4653 33.2704 21.5105 33.1433 21.5478C33.1327 21.5505 33.1274 21.5346 33.1353 21.5319C33.2068 21.4974 33.2809 21.4628 33.3312 21.3991C33.3576 21.3673 33.3814 21.3328 33.4131 21.3062C33.4449 21.2797 33.4952 21.2796 33.5323 21.2848C33.5482 21.2875 33.5641 21.2848 33.5774 21.2848C33.9243 21.202 33.9023 20.7517 34.2386 20.6478C34.6146 20.5279 34.933 20.8056 35.301 20.6513C35.3143 20.6459 35.3249 20.6433 35.3355 20.6459C35.4493 20.5848 35.5711 20.5448 35.6159 20.3964C35.6185 20.3911 35.6238 20.3937 35.6238 20.3964C35.6373 20.5527 35.5448 20.6588 35.431 20.7491C35.4814 20.749 35.5264 20.741 35.5714 20.7197ZM37.2834 27.2078C37.302 27.2236 37.2782 27.2528 37.257 27.2396C36.9626 27.052 37.0282 26.6889 37.1336 26.3973C37.2418 26.0951 37.3737 25.8034 37.5136 25.5144C37.5717 25.3924 38.1131 24.3609 37.7661 24.4118C36.7225 24.5646 37.565 22.9868 37.7711 22.6659C37.7843 22.6447 37.8187 22.6631 37.8055 22.6844C37.573 23.053 36.733 24.509 37.9594 24.3241C37.9779 24.3214 37.9965 24.332 37.9965 24.3532C37.9686 25.0606 36.5936 26.6658 37.2834 27.2078Z" fill="#040001"/>
<path d="M29.652 28.0661C29.615 28.0847 29.5806 28.106 29.5435 28.1272C29.48 28.1671 29.4562 28.2254 29.4378 28.2864C29.4722 28.2598 29.5119 28.2465 29.5543 28.2491C29.5649 28.2332 29.5834 28.2225 29.6073 28.2357C29.6364 28.2516 29.6656 28.2674 29.6948 28.2806C29.7796 28.3096 29.8592 28.3519 29.9308 28.4021C29.9334 28.4021 29.9334 28.4047 29.9334 28.4074C30.9729 28.9487 32.0176 29.4212 33.0017 30.0819C33.5985 30.4835 34.19 30.8958 34.7709 31.3161C34.9221 31.4245 35.5988 32.0698 35.8479 32.0799C35.8505 32.0746 35.8505 32.0667 35.8505 32.0614L35.8478 32.0587C34.7109 30.3227 32.3756 29.6219 30.7311 28.512C30.7284 28.5094 30.7311 28.5067 30.7337 28.5067C31.8342 29.0824 32.8922 29.6131 33.9452 30.2842C34.5817 30.6912 35.4462 31.156 35.9004 31.8017C36.1358 31.5787 36.3765 31.3663 36.604 31.1222C36.797 30.9152 37.0113 30.7585 37.239 30.6151C37.2204 30.6151 37.2045 30.6178 37.186 30.6178C37.1542 30.6179 37.1541 30.5675 37.1859 30.5675C37.215 30.5674 37.2442 30.57 37.2733 30.5726C37.2813 30.5726 37.2839 30.5806 37.2866 30.5859C37.3554 30.5434 37.4242 30.5008 37.4983 30.461C37.5063 30.4557 37.5168 30.4477 37.5248 30.4424C37.6703 30.3282 37.9059 30.2351 38.0544 30.2878C38.0862 30.2984 38.0731 30.3487 38.0412 30.3408C37.9591 30.3171 37.8558 30.3464 37.7605 30.3943C37.9062 30.394 38.0626 30.4229 38.2003 30.3723C38.5365 30.2525 38.6919 29.7065 38.3154 29.5243C38.1165 29.4293 37.9392 29.5674 37.921 29.7688C37.9132 29.8509 37.9107 29.9357 37.887 30.0152C37.8844 30.0258 37.8791 30.0285 37.8738 30.0364C37.9744 30.0018 38.0406 29.9434 38.0377 29.8374C38.0377 29.8268 38.0536 29.8242 38.0563 29.8348C38.1096 30.0546 37.8767 30.1504 37.6939 30.1825C37.4794 30.2199 37.2648 30.2388 37.0476 30.2577C36.6212 30.3459 36.1975 30.4897 35.7844 30.6043C35.5408 30.671 35.3183 30.6846 35.1563 30.4756C35.1377 30.4518 35.1748 30.4305 35.196 30.4464C35.2517 30.4913 35.3338 30.5044 35.4239 30.5043C35.3682 30.4593 35.3231 30.3985 35.2885 30.3402C35.2194 30.2211 35.2139 30.1072 35.2376 29.9721C35.2402 29.9509 35.2773 29.9561 35.2747 29.9773C35.259 30.1071 35.2566 30.2741 35.3919 30.3427C35.4078 30.3506 35.4237 30.3559 35.4369 30.3638C35.3624 30.1573 35.3805 29.9241 35.4146 29.7068C35.4723 29.3596 35.5645 29.0336 35.5639 28.6865C35.5639 28.6786 35.5639 28.668 35.5638 28.6574C35.5637 28.6044 35.561 28.5514 35.5556 28.4985C35.5502 28.4561 35.6165 28.4507 35.6298 28.4877C35.6351 28.5089 35.6404 28.5274 35.6431 28.5486C35.741 28.469 35.8762 28.4847 36.0113 28.4791C36.3212 28.468 36.0317 28.0313 35.8541 27.9972C35.491 27.9263 35.5795 28.5276 35.3333 28.6631C35.3307 28.6631 35.3307 28.6631 35.3307 28.6631C35.0689 28.9311 34.7142 29.1463 34.4019 29.3244C34.2431 29.4147 34.0261 29.5555 33.8116 29.6142C33.9176 29.6325 34.0341 29.6244 34.1321 29.5845C34.1586 29.5738 34.1719 29.6136 34.1507 29.6268C34.066 29.6826 33.9575 29.7252 33.8462 29.7439C33.8992 29.7518 33.9522 29.7544 34.0105 29.741C34.029 29.7383 34.0503 29.7621 34.0317 29.7781C33.8412 29.9268 33.4967 29.8452 33.4089 29.6122L33.4089 29.6096C32.9713 29.3772 33.1937 27.7554 33.2511 27.2466C33.2138 27.1195 33.2136 26.9791 33.3221 26.8835C33.3776 26.8357 33.4306 26.8065 33.5021 26.7878C33.7192 26.7318 33.6895 26.3742 33.4748 26.3322C33.3343 26.3059 33.2047 26.4147 33.1493 26.5367C33.1044 26.6375 33.1363 26.7037 33.1285 26.8043C33.1233 26.8785 33.0996 26.9263 33.0625 26.9608C33.0097 27.0456 32.9277 27.1173 32.8482 27.1254C32.4223 27.4679 31.9432 27.7496 31.4801 28.0444C31.4748 28.0524 31.4695 28.063 31.4589 28.0683C31.4377 28.0816 31.4113 28.0949 31.3874 28.1029C31.271 28.2064 31.136 28.2729 31.0006 28.1168C30.8679 27.9607 30.9178 27.7195 30.8937 27.5367C30.891 27.5209 30.9175 27.5182 30.9202 27.5341C30.9522 27.6638 30.9817 27.8837 31.072 27.9815C31.0932 28.0053 31.1144 28.0159 31.1356 28.0212C31.0958 27.9736 31.0692 27.9153 31.0532 27.8491C31.0505 27.8359 31.069 27.8305 31.0717 27.8438C31.093 27.9153 31.1249 27.9735 31.1753 28.0211C31.1886 28.0184 31.2045 28.0105 31.2177 27.9998C31.162 27.9549 31.1566 27.886 31.1776 27.7986C31.1829 27.7826 31.2014 27.7853 31.2094 27.7985C31.0227 27.049 31.1378 26.1904 30.4612 25.6432C30.4506 25.6352 30.4506 25.6246 30.4532 25.614C30.3842 25.532 30.437 25.3968 30.4554 25.3041C30.4764 25.1954 30.4047 25.1346 30.2961 25.1189C30.2351 25.1084 30.1689 25.1164 30.1213 25.1642C30.0472 25.2412 30.0289 25.3763 30.0768 25.4716C30.1299 25.5749 30.2014 25.535 30.2968 25.5242C30.3233 25.5215 30.3366 25.5533 30.326 25.5745C30.3207 25.5825 30.3128 25.5851 30.3075 25.5931C30.326 25.5772 30.3604 25.5745 30.3685 25.6089C30.5605 26.3398 30.4776 27.4421 29.9355 28.0365C30.0335 28.0575 30.142 27.9911 30.2001 27.8824C30.2107 27.8611 30.2452 27.877 30.2372 27.8982C30.1768 28.1553 29.8009 28.3414 29.652 28.0661ZM36.7043 30.9445C36.3044 31.0114 35.9417 31.1869 35.5604 31.3068C35.5339 31.3148 35.5233 31.2751 35.5498 31.2671C35.9284 31.1419 36.3097 31.0088 36.699 30.9207C36.7122 30.918 36.7176 30.9419 36.7043 30.9445ZM35.1782 30.8836C35.8143 31.0626 36.3062 30.5425 36.9209 30.5335C36.9527 30.5334 36.9528 30.5785 36.921 30.5812C36.3143 30.6326 35.7933 31.1289 35.1756 30.8968C35.1676 30.8942 35.1702 30.8809 35.1782 30.8836ZM35.2811 29.0765C35.3023 29.1241 35.3104 29.1612 35.3104 29.2142C35.3105 29.2407 35.2707 29.2408 35.2707 29.2143C35.2706 29.1719 35.2679 29.1268 35.2652 29.0845C35.2599 29.0739 35.2757 29.0633 35.2811 29.0765ZM34.6875 30.5718C34.6876 30.6036 34.6372 30.6063 34.6372 30.5718C34.6343 30.4208 34.6605 30.2698 34.6814 30.1214C34.6841 30.1028 34.7132 30.1081 34.7132 30.1266C34.6976 30.275 34.6952 30.4234 34.6875 30.5718ZM34.7234 29.8484C34.7075 29.8484 34.6942 29.8458 34.6783 29.8458C34.673 29.8485 34.6704 29.8406 34.6757 29.8379C34.7101 29.8193 34.6968 29.8193 34.7313 29.8352C34.7366 29.8404 34.7313 29.8511 34.7234 29.8484ZM35.1579 29.8795C35.1527 29.9007 35.1208 29.8928 35.1261 29.8716C35.1498 29.7815 35.1682 29.6887 35.1548 29.5933C35.1521 29.5668 35.1971 29.5668 35.1919 29.5986C35.1788 29.6966 35.1869 29.784 35.1579 29.8795ZM34.4579 29.5707C34.7227 29.4378 34.9555 29.2493 35.1963 29.0819C35.2175 29.0686 35.2361 29.1004 35.2149 29.1163C34.9741 29.2969 34.7466 29.4854 34.4633 29.5919C34.4553 29.5919 34.4474 29.576 34.4579 29.5707ZM34.4931 30.0051C34.4984 30.0025 34.5037 30.0104 34.4985 30.0157C34.4587 30.0343 34.4217 30.0503 34.382 30.0636C34.3767 30.0663 34.374 30.0583 34.3793 30.0557C34.419 30.0397 34.4561 30.0237 34.4931 30.0051ZM34.1648 30.0958C34.1966 30.0984 34.231 30.093 34.2628 30.0823C34.2734 30.0797 34.2787 30.0956 34.2681 30.1009C34.2337 30.1142 34.2045 30.1195 34.1675 30.1223C34.1489 30.1223 34.1489 30.0958 34.1648 30.0958ZM33.6904 30.0038C33.6957 30.0091 33.701 30.0144 33.7063 30.0197C33.7142 30.0276 33.7037 30.0383 33.6957 30.0303C33.6904 30.025 33.6851 30.0198 33.6798 30.0145C33.6692 30.0092 33.6824 29.9959 33.6904 30.0038ZM32.2795 29.2035C32.205 29.0155 32.2127 28.8353 32.2123 28.6366C32.2123 28.6207 32.2388 28.6207 32.2388 28.6366C32.2365 28.83 32.2368 29.0128 32.306 29.1955C32.3087 29.214 32.2875 29.2194 32.2795 29.2035ZM32.7986 27.5494C32.8224 27.5096 32.8435 27.4831 32.8806 27.4565C32.9203 27.4247 32.9628 27.4882 32.9204 27.5094C32.894 27.5307 32.8675 27.5546 32.8437 27.5758C32.8225 27.5997 32.7801 27.5786 32.7986 27.5494ZM32.8227 27.6765C32.8448 28.2196 32.5674 28.6758 32.7273 29.2266C32.7353 29.2504 32.6982 29.2664 32.6849 29.2452C32.4325 28.7793 32.7838 28.1694 32.7803 27.6766C32.7829 27.6501 32.8226 27.65 32.8227 27.6765ZM32.6822 27.6132C32.698 27.6078 32.706 27.6317 32.6928 27.6396C32.5843 27.714 32.4678 27.7778 32.3593 27.8522C32.2508 27.9265 32.1423 28.0009 32.0232 28.0594C32.0232 28.0594 32.0206 28.0594 32.0232 28.0567C32.2535 27.9345 32.4386 27.7037 32.6822 27.6132ZM31.8943 28.5736C31.8942 28.5551 31.9234 28.555 31.9234 28.5735C31.9262 28.661 31.929 28.751 31.9318 28.8385C31.9319 28.8676 31.8868 28.8677 31.8894 28.8385C31.8919 28.7485 31.8944 28.661 31.8943 28.5736ZM31.2769 28.5217C31.4146 28.4976 31.5231 28.4365 31.6369 28.3594C31.6528 28.3488 31.6714 28.3726 31.6582 28.3859C31.555 28.4815 31.4253 28.5373 31.2875 28.5587C31.2611 28.5641 31.2504 28.5244 31.2769 28.5217ZM30.6663 26.2363C30.7728 26.5964 30.9352 27.02 30.9199 27.3989C30.92 27.4201 30.8882 27.4255 30.8829 27.4043C30.8216 27.2189 30.808 27.0176 30.7653 26.8296C30.7226 26.6362 30.6772 26.4429 30.6345 26.2469C30.6265 26.2231 30.6583 26.2125 30.6663 26.2363ZM30.5433 27.1346C30.5784 27.5293 30.5632 27.9321 30.7387 28.2974C30.752 28.3239 30.7123 28.3504 30.6963 28.3213C30.5049 27.9587 30.5492 27.5294 30.5221 27.1347C30.5221 27.1214 30.5432 27.1214 30.5433 27.1346Z" fill="#040001"/>
<path d="M48.5501 48.1058C48.0804 47.6801 47.809 47.0261 47.6676 46.4197C47.6142 46.1945 47.587 45.7707 47.5359 45.3548C47.4743 44.9602 47.3545 44.5895 46.9619 44.2881C46.4843 43.9233 46.102 43.455 45.852 42.9097C45.8467 42.8964 45.8626 42.8858 45.8706 42.899C46.1603 43.4443 46.5345 43.8013 47.0517 44.1343C47.057 44.1369 47.0623 44.1422 47.0702 44.1448C45.8721 40.7 42.7467 39.6562 39.9774 37.7216C38.7625 36.8732 37.5209 35.8659 36.6604 34.6275C36.4003 34.355 36.1137 34.1012 35.933 33.7703C35.7177 33.3759 35.4918 33.0001 35.2342 32.6296C34.8969 32.1401 34.5675 31.6028 34.1508 31.1637C33.6255 30.7858 33.095 30.4131 32.5513 30.0617C31.989 29.697 31.4003 29.3801 30.8169 29.0526C30.7532 29.0341 30.687 29.013 30.626 28.984C30.618 28.9814 30.6233 28.9681 30.6313 28.9708C30.6551 28.9787 30.679 28.9839 30.7028 28.9892C30.3952 28.8148 30.0929 28.6352 29.7932 28.4476C29.6765 28.4054 29.5625 28.3765 29.4646 28.4402C29.4435 28.4615 29.4197 28.4827 29.3958 28.5039C29.3932 28.5092 29.3879 28.5119 29.3826 28.5172C29.3747 28.5278 29.3641 28.5331 29.3535 28.5358C28.9196 28.8518 28.2994 28.7654 27.8921 29.1556C27.9742 29.1422 28.0537 29.15 28.1253 29.2108C28.2474 29.314 28.2715 29.4782 28.2108 29.6213C28.3113 29.5019 28.3587 29.3535 28.2948 29.1761C28.2895 29.1602 28.3134 29.1496 28.3213 29.1655C28.425 29.3401 28.4042 29.5972 28.2455 29.7432C28.1794 29.8042 28.1026 29.8467 28.0232 29.8866C27.92 29.9901 27.7983 30.0777 27.6766 30.1627C27.5601 30.2424 27.4358 30.3354 27.3777 30.4679C27.3487 30.5316 27.3329 30.5952 27.3171 30.6588C27.4256 30.5977 27.5501 30.5763 27.6642 30.6608C27.7756 30.7428 27.7785 30.8911 27.7416 31.0263C27.8182 30.8805 27.8418 30.7056 27.7461 30.56C27.7435 30.5547 27.7488 30.5494 27.7541 30.5521C27.9397 30.6763 27.8899 30.9678 27.7869 31.1322C27.6759 31.3126 27.4272 31.4879 27.1968 31.5863C27.1783 31.5943 27.1624 31.6049 27.1465 31.6129C26.8527 31.7644 26.8292 31.9578 26.8164 32.244C26.8984 32.1485 27.0334 32.1032 27.1686 32.1136C27.3885 32.1317 27.569 32.3063 27.6064 32.5208C27.6546 32.791 27.4644 33.1304 27.2077 33.2978C27.3189 33.2499 27.4168 33.1782 27.4988 33.088C27.7447 32.8173 27.8209 32.4489 27.5952 32.142C27.5872 32.1314 27.5899 32.1208 27.5951 32.1128C27.5951 32.1128 27.5951 32.1128 27.5925 32.1128C27.5819 32.0996 27.5765 32.0837 27.5686 32.0705C27.5526 32.0387 27.5976 32.0122 27.6162 32.0439C27.6268 32.0624 27.6322 32.0757 27.6401 32.0942C27.6428 32.0995 27.6402 32.1022 27.6402 32.1048L27.6428 32.1048C27.9427 32.4222 27.8774 32.9363 27.5944 33.2468C27.4463 33.4113 27.1605 33.5575 26.914 33.5447C26.6889 33.606 26.4607 33.3626 26.296 33.1377C26.1129 32.9367 25.9667 32.6799 25.8525 32.4814C25.5309 31.915 25.2247 31.0306 24.5225 30.9497C24.5146 30.9603 24.504 30.9683 24.4881 30.971C23.4973 31.0177 22.8871 32.0705 22.2629 32.6863C21.8159 33.1268 21.361 33.5701 20.8609 33.9524C20.083 34.5472 19.1115 35.0417 18.6229 35.9327C18.4221 36.3013 18.2452 36.6354 17.9728 36.9273C17.9385 36.991 17.9042 37.052 17.8672 37.1156C18.0473 37.0968 18.7225 36.8466 18.7966 36.8359C19.0165 36.801 19.2258 36.8113 19.4483 36.8136C19.8776 36.8208 19.9488 36.659 19.9906 36.2854C20.0062 36.1449 20.0378 36.0416 20.0986 35.9302C20.088 35.9196 20.0774 35.909 20.0694 35.8958C20.0428 35.8614 20.0189 35.8085 19.9765 35.7873C19.8943 35.7477 19.8521 35.8697 19.8283 35.9201C19.8178 35.9439 19.778 35.9254 19.7886 35.9016C19.8202 35.822 19.873 35.6974 19.9817 35.7211C20.0585 35.7395 20.1381 35.7765 20.2123 35.8161C20.2176 35.8187 20.2203 35.8214 20.2229 35.824C20.2362 35.8319 20.2494 35.8372 20.2601 35.8451C20.4085 35.8952 20.5649 35.9241 20.7185 35.8947C20.7078 35.8285 20.713 35.7649 20.7102 35.696C20.6996 35.6907 20.6863 35.6907 20.6731 35.6828C20.5643 35.6221 20.4712 35.3599 20.3124 35.4715C20.3018 35.4794 20.2859 35.4609 20.2965 35.453C20.3864 35.376 20.466 35.4315 20.5535 35.479C20.6039 35.5081 20.6569 35.5318 20.7126 35.5503C20.7179 35.5476 20.7205 35.545 20.7258 35.545C20.7285 35.545 20.7311 35.5423 20.7338 35.5423C20.7391 35.5396 20.7444 35.5396 20.7497 35.537C20.8212 35.5262 20.874 35.4599 20.9163 35.3618C20.9128 34.9035 21.2752 34.5266 21.4732 34.1183C21.4864 34.0891 21.5314 34.1155 21.5183 34.1447C21.4655 34.264 21.3941 34.3807 21.3281 34.4974C21.5978 34.1631 21.9072 33.8632 22.2432 33.5924C22.5845 33.3163 22.9364 32.9978 23.3122 32.7719C23.7992 32.4823 24.3636 32.5449 24.84 32.2368C24.877 32.2129 24.9195 32.2684 24.8878 32.2976C24.7608 32.4171 24.6311 32.4994 24.4908 32.5659C24.6764 32.6371 24.7986 32.8277 24.889 33.005C24.9076 33.0421 24.9262 33.0818 24.9448 33.1188C25.282 33.5263 25.6642 33.9177 26.1362 34.1633C26.1362 34.1633 26.1362 34.1633 26.1388 34.1633C26.1494 34.158 26.16 34.1527 26.1706 34.1606C26.6082 34.3957 27.4617 34.6432 28.1584 34.5785C28.4629 34.4852 28.7382 34.3417 28.9788 34.0869C29.2724 33.7738 29.4704 33.3866 29.8171 33.1264C29.8356 33.1131 29.8886 33.1183 29.923 33.1262C29.9283 33.1236 29.931 33.1183 29.9363 33.1156C29.9469 33.1076 29.9574 33.105 29.968 33.1076C30.0103 33.0307 30.0076 32.983 30.0525 32.8928C30.1633 32.6675 30.4552 32.8842 30.4703 32.4338C30.4702 32.4046 30.5126 32.4046 30.5127 32.4337C30.5182 32.5662 30.4948 32.8523 30.328 32.8977C30.1294 32.9536 30.1534 33.0755 30.0451 33.2399C30.0266 33.2665 29.9975 33.2798 29.9683 33.2719C29.9365 33.264 29.8836 33.2932 29.8201 33.3463C29.5662 33.6223 29.3389 33.9353 29.2176 34.2879C29.1412 34.5052 29.115 34.7146 29.1022 34.9266C29.1049 34.9769 29.1129 35.0299 29.1236 35.0802C29.1556 35.1702 29.2325 35.2204 29.3226 35.2362C29.3438 35.2335 29.3676 35.2308 29.3915 35.2254C29.4656 35.1829 29.537 35.1351 29.6005 35.0794C29.7193 34.8407 29.7772 34.6022 29.6151 34.319C29.6018 34.2951 29.6362 34.2765 29.6522 34.2977C29.8991 34.6364 29.9053 35.1477 29.564 35.4106C29.0906 35.8857 28.1946 35.6064 27.423 35.2474C27.4071 35.25 27.3885 35.2474 27.3726 35.2342C27.362 35.2263 27.3541 35.2183 27.3434 35.2104C26.9351 35.0151 26.5691 34.8064 26.3358 34.6849C25.9089 34.4684 25.4765 34.1962 25.0206 34.046C23.4433 33.5241 23.4615 34.87 23.5506 35.8183C23.6882 37.2752 23.8416 38.7083 23.7991 40.1708C23.8413 40.078 23.873 39.9853 23.8834 39.8846C23.8834 39.8766 23.8966 39.8766 23.8966 39.8845C23.8865 40.1389 23.8312 40.3801 23.7681 40.6239C23.7972 40.6159 23.8263 40.6132 23.8581 40.6132C23.8608 40.6132 23.8608 40.6132 23.8634 40.6132C23.8661 40.6132 23.8687 40.6105 23.8714 40.6105C23.882 40.6078 23.8926 40.6025 23.9058 40.5999C24.0408 40.5546 24.1202 40.4856 24.165 40.3451C24.1703 40.3265 24.2021 40.3344 24.1942 40.353C24.144 40.4802 24.0542 40.589 23.9536 40.6846C24.0185 41.4157 24.0014 42.2874 24.3444 42.965C24.4681 42.5277 24.629 42.0929 24.8986 41.7347C24.8166 41.7799 24.7319 41.8251 24.6578 41.8835C24.6393 41.8995 24.6127 41.873 24.6312 41.8571C24.7503 41.735 24.9224 41.6738 25.0387 41.5544C25.0599 41.5331 25.081 41.5092 25.1048 41.4827C25.1075 41.48 25.1075 41.4748 25.1101 41.4721C25.126 41.4588 25.1366 41.4429 25.1498 41.4296C25.1524 41.4243 25.1577 41.419 25.1604 41.4164C25.3269 41.1829 24.998 40.9848 24.8414 40.8049C24.706 40.6488 24.605 40.4821 24.6126 40.2701C24.4721 40.2253 24.3766 40.1381 24.3446 39.9897C24.3392 39.9659 24.3763 39.9473 24.3869 39.9711C24.4614 40.1353 24.586 40.1642 24.7528 40.1454C24.7926 40.14 24.8349 40.132 24.8773 40.124C24.8587 40.1054 24.8402 40.0896 24.8216 40.0711C24.811 40.0605 24.8056 40.0446 24.803 40.0314C24.7818 40.0287 24.7659 40.0129 24.7605 39.9917C24.5698 40.0238 24.3895 39.9579 24.3891 39.7194C24.3891 39.7062 24.4077 39.7035 24.4103 39.7167C24.4796 39.963 24.6995 39.9573 24.8795 39.859C25.0619 39.6282 24.6189 39.2792 24.547 39.0568C24.4271 38.6861 24.3814 38.31 24.4099 37.9178C24.4462 37.462 24.5329 37.0009 24.6089 36.5424C24.6347 36.1238 24.5969 35.7026 24.6385 35.2892C24.6698 34.9845 24.7702 34.7856 25.0401 34.6341C25.0666 34.6182 25.0879 34.6579 25.064 34.6738C24.9291 34.7721 24.8657 34.8994 24.8342 35.0345C24.8955 35.2596 25.0679 35.3839 25.2747 35.4868C25.3861 35.5423 25.4896 35.611 25.5956 35.677C26.4758 36.0067 27.3775 36.535 28.0857 37.0107C28.7568 37.4626 29.3935 37.9649 30.0751 38.3983C30.5525 38.7021 30.7432 38.6409 31.0447 38.3145C31.1292 38.1871 31.1926 38.0652 31.2002 37.8876C31.2079 37.7366 31.213 37.5856 31.2313 37.4345C31.2339 37.4133 31.2338 37.3921 31.2391 37.3736C31.2391 37.3709 31.2391 37.3656 31.2391 37.363C31.2391 37.3603 31.2417 37.3603 31.2417 37.3577C31.2654 37.2517 31.3182 37.1642 31.3843 37.0528C31.3896 37.0422 31.4055 37.0527 31.4002 37.0633C31.3315 37.1933 31.3 37.3284 31.279 37.4689C31.2796 37.8054 31.3995 38.1973 31.1588 38.4467C31.1535 38.4547 31.1482 38.4653 31.143 38.4733C31.3575 38.4358 31.6012 38.4115 31.6406 38.234C31.688 38.0193 31.6161 37.8048 31.5813 37.5929C31.5144 37.2036 31.7046 36.9118 32.0992 36.8396C32.1045 36.8396 32.1098 36.8422 32.1151 36.8422C32.1575 36.805 32.1812 36.7547 32.2076 36.7043C32.1862 36.5613 32.0826 36.3972 32.0294 36.2913C31.8939 36.0266 32.2751 35.8643 32.4578 35.8084C32.4657 35.8057 32.4711 35.8189 32.4631 35.8216C32.3678 35.8668 32.2513 35.92 32.1799 35.9969C32.0001 36.1933 32.1699 36.3281 32.2628 36.4445C32.3345 36.5372 32.3533 36.6511 32.3561 36.765C32.3672 37.0696 32.0705 37.0887 31.872 37.2056C31.7848 37.3144 31.7638 37.4495 31.8092 37.6588C31.8466 37.8388 31.8867 38.0136 31.8658 38.1991C31.8057 38.7026 31.4081 38.5894 31.0478 38.6138C30.8337 38.9162 30.6564 39.0066 30.3382 38.8694C30.6035 39.0888 30.8079 39.3084 30.9596 39.6737C31.1006 40.0126 31.2072 40.4284 31.3721 40.7884C31.3748 40.7911 31.3801 40.7937 31.3827 40.7964C31.4385 40.8784 31.4758 40.9737 31.5183 41.0637C31.5528 41.1167 31.59 41.1669 31.6272 41.2145C31.6458 41.2278 31.667 41.2383 31.6855 41.2515C31.7094 41.2542 31.728 41.2621 31.7412 41.2779C31.7465 41.2806 31.7545 41.2806 31.7598 41.2832C31.7251 41.1508 31.7222 41.013 31.8121 40.9149C31.8756 40.8459 31.955 40.806 32.0371 40.7926C32.1007 40.7633 32.1748 40.7526 32.2517 40.7631C32.3524 40.7762 32.4372 40.829 32.5142 40.8925C32.3655 40.7205 32.238 40.5326 32.1529 40.3129C32.1422 40.2864 32.1846 40.2704 32.1979 40.2942C32.3548 40.6384 32.628 40.8525 32.904 41.0693C32.7048 40.7994 32.5453 40.5003 32.4573 40.1507C32.4733 40.2116 31.9583 39.6376 31.982 39.5395C32.0346 39.3063 32.31 39.2502 32.474 39.1042C32.4873 39.0936 32.5058 39.1121 32.4926 39.1227C32.3286 39.2952 32.0003 39.3938 32.3108 39.6979C32.4939 39.8751 32.5366 40.042 32.6006 40.2909C32.7393 40.8417 33.1534 41.2861 33.6018 41.6775C33.6257 41.6907 33.6469 41.7065 33.6707 41.7197C34.7316 42.3617 35.7819 43.0196 36.9695 43.4018C38.0722 43.7575 39.0478 44.1082 39.619 45.0372C39.6588 45.0557 39.6853 45.0927 39.6801 45.1378C39.7014 45.1748 39.72 45.2145 39.7386 45.2516C39.6902 44.8357 39.6021 44.4305 39.4345 44.044C39.4132 43.9963 39.4794 43.9538 39.506 44.0015C40.2155 45.2693 39.8577 46.7404 40.231 48.1042C40.3056 48.3743 40.3909 48.6417 40.484 48.9065C40.5132 48.925 40.5292 48.9567 40.5133 48.9912C40.9872 50.3204 41.6755 51.5644 42.5385 52.689C43.3537 53.75 44.5078 54.6991 44.4758 56.1457C44.4513 57.2956 44.4798 58.4587 44.45 59.6139C44.4774 60.1781 44.5183 60.8589 44.3179 61.4077C44.1705 61.9723 43.7951 62.4498 43.4489 62.9459C43.3802 63.0467 42.5294 64.4231 43.0433 64.3375C43.3823 64.2813 43.7506 64.3257 44.0767 64.4258C44.082 64.4258 44.0846 64.4311 44.0873 64.4311C44.1773 64.4177 44.2648 64.4096 44.3468 64.3776C44.376 64.367 44.3971 64.3458 44.4209 64.3272C44.5399 64.1733 44.6057 63.9427 44.661 63.7068C44.6793 63.5929 44.703 63.4815 44.7425 63.3781C44.8294 63.0627 44.9509 62.8082 45.2423 62.8315C45.2157 62.7627 45.1785 62.6965 45.1254 62.6383C45.0883 62.5907 45.1279 62.5138 45.1808 62.5004C45.2709 62.4791 45.3477 62.4604 45.4271 62.447C45.4165 62.4285 45.4059 62.4073 45.3952 62.3914C45.1165 62.0581 44.9779 61.5603 44.8924 61.155C44.8897 61.1365 44.9162 61.1285 44.9189 61.147C44.9669 61.3536 45.0309 61.5681 45.1292 61.7587C44.9494 60.4105 45 58.985 45.2679 57.6519C45.3966 57.0185 45.9142 56.0082 45.8416 55.3777C45.8066 55.0731 45.6843 54.7925 45.5381 54.5199C45.2938 54.1812 45.0653 53.8424 44.8686 53.4612C44.632 53.0033 44.5357 52.4497 44.4024 51.9545C44.3944 51.9201 44.4447 51.9068 44.4527 51.9412C44.5727 52.3808 44.682 52.8019 44.8867 53.1936C44.5932 51.9886 44.4588 50.8708 44.8912 49.6408C45.4423 48.0714 46.5612 47.0256 46.5106 45.338C46.4565 44.689 46.1745 44.0325 45.6334 43.6519C45.6228 43.6439 45.6334 43.6254 45.644 43.6333C46.0471 43.8896 46.4082 44.3155 46.5706 44.7869C46.5839 44.7948 46.5945 44.8054 46.5998 44.8265C46.7411 45.3641 46.7605 45.8542 46.6898 46.326C46.7378 46.4954 46.7964 46.6649 46.8999 46.8051C46.8619 46.2647 46.7735 45.6926 46.9157 45.1731C46.9236 45.1492 46.958 45.1598 46.9528 45.1836C46.8581 45.5944 46.9514 45.9095 47.0209 46.3068C47.0236 46.3148 47.0236 46.3227 47.0236 46.3307C47.2683 46.8601 47.1449 47.528 47.4345 48.0203C47.4372 48.0123 47.4425 48.007 47.4451 47.9991C47.3567 47.4402 47.2894 46.831 47.3388 46.2692C47.3414 46.2374 47.3917 46.24 47.3865 46.2691C47.3342 46.664 47.4433 46.9738 47.5235 47.3498C47.5952 47.4848 47.6697 47.6357 47.752 47.7787C47.76 47.7866 47.7627 47.7945 47.768 47.8051C47.9115 48.0486 48.0867 48.2735 48.3253 48.3791C48.7867 48.5797 49.1574 48.4624 49.4113 48.1918C49.1413 48.3591 48.8287 48.3597 48.5501 48.1058ZM30.5121 28.9895C30.2526 29.1118 30.2242 29.5119 29.8663 29.3668C29.8079 29.3431 29.7708 29.2955 29.7177 29.2664C29.3359 29.063 29.4454 29.606 29.4614 29.6828C29.4935 29.8232 29.5229 29.9556 29.5072 30.1013C29.4916 30.2683 29.3222 30.3692 29.1685 30.3589C28.8135 30.333 28.7675 29.8059 28.3122 30.0318C28.299 30.0398 28.2883 30.0186 28.3016 30.0106C28.5107 29.8858 28.6777 29.9332 28.8581 30.0839C28.9244 30.1394 28.9961 30.2135 29.073 30.2531C29.545 30.496 29.4353 29.9107 29.406 29.7862C29.3713 29.6485 29.3393 29.5187 29.347 29.3757C29.3573 29.2299 29.5478 29.0574 29.6989 29.1075C29.903 29.1786 30.0435 29.1811 30.2101 29.0112C30.3 28.921 30.3609 28.9023 30.4881 28.9154C30.5279 28.9206 30.5518 28.9709 30.5121 28.9895ZM32.6087 37.3183C31.9574 37.5658 32.3242 38.2354 32.1528 38.7073C32.0948 38.8637 31.9204 39.1528 31.7084 39.1452C31.5495 39.1402 30.9958 39.1783 31.3248 39.4347C31.4309 39.5166 31.5396 39.5933 31.6272 39.6938C31.7494 39.8367 31.5464 40.4331 31.9622 40.3344C31.9966 40.3264 32.0232 40.3793 31.9861 40.3953C31.7187 40.5097 31.594 40.4012 31.5882 40.1125C31.5796 39.7257 31.4153 39.6756 31.1684 39.4296C31.1127 39.3741 30.9827 39.2578 31.0196 39.1597C31.0513 39.0801 31.0962 38.9873 31.1942 38.9792C31.7451 38.9253 32.2087 38.845 32.136 38.1642C32.0875 37.6901 32.1002 37.4172 32.5981 37.2785C32.6246 37.2705 32.6352 37.3103 32.6087 37.3183ZM36.7505 40.8773C36.5649 40.7742 36.3869 40.5096 36.2353 40.1602C35.9827 39.5804 35.812 38.9634 35.6176 38.3623C35.4791 37.9386 35.3346 37.0884 34.9103 36.8454C34.8943 36.8348 34.9076 36.8083 34.9261 36.8189C35.483 37.1332 35.6706 38.3913 35.8464 38.9315C36.0169 39.4505 36.1768 40.0013 36.4478 40.4777C36.5143 40.5862 36.6179 40.7848 36.7505 40.8773C36.7983 40.9037 36.8486 40.9221 36.899 40.9247C36.846 40.9248 36.7983 40.9063 36.7505 40.8773ZM37.465 40.3488C37.2855 40.7571 37.0977 40.9244 36.9149 40.922C36.9122 40.922 36.9122 40.922 36.9096 40.9247C36.9069 40.9247 36.9043 40.9247 36.9043 40.9247C36.9096 40.9247 36.9122 40.9247 36.9175 40.9247C37.1851 40.8924 37.3249 40.5372 37.4225 40.325C37.4357 40.2959 37.4782 40.3196 37.465 40.3488ZM39.5535 43.9193C38.7728 42.8767 38.1247 41.8896 37.8337 40.6025C37.831 40.5919 37.8469 40.5866 37.8496 40.5972C38.1776 41.8657 38.8416 42.8448 39.5853 43.898C39.6012 43.9192 39.5694 43.9378 39.5535 43.9193Z" fill="#040001"/>
</g>
<defs>
<filter id="filter0_d" x="0.352539" y="0" width="74.02" height="86.6923" filterUnits="userSpaceOnUse" color-interpolation-filters="sRGB">
<feFlood flood-opacity="0" result="BackgroundImageFix"/>
<feColorMatrix in="SourceAlpha" type="matrix" values="0 0 0 0 0 0 0 0 0 0 0 0 0 0 0 0 0 0 127 0"/>
<feOffset dy="4"/>
<feGaussianBlur stdDeviation="2"/>
<feColorMatrix type="matrix" values="0 0 0 0 0 0 0 0 0 0 0 0 0 0 0 0 0 0 0.25 0"/>
<feBlend mode="normal" in2="BackgroundImageFix" result="effect1_dropShadow"/>
<feBlend mode="normal" in="SourceGraphic" in2="effect1_dropShadow" result="shape"/>
</filter>
</defs>
</svg>
