<svg width="75" height="88" viewBox="0 0 75 88" fill="none" xmlns="http://www.w3.org/2000/svg">
<g filter="url(#filter0_d)">
<rect x="4.83105" y="0.823242" width="65.76" height="46.0814" fill="#B2B3B5"/>
<path d="M38.1221 79.4326C13.1333 69.0236 5.51605 53.4101 4.83105 46.9045H70.5911C68.9471 66.4214 43.4651 76.5864 38.1221 79.4326Z" fill="#B2B3B5"/>
<path d="M35.15 27.2289C34.6567 27.3968 34.1594 27.3586 33.6584 27.2955C33.472 27.3313 33.2929 27.3601 33.1393 27.3639C32.7481 27.3717 32.3606 27.3652 31.973 27.3517C32.8802 27.6451 33.956 28.1302 34.8544 27.5529C34.8836 27.5315 34.9129 27.5386 34.9348 27.5492C35.037 27.414 35.1684 27.3 35.3328 27.218C35.3145 27.1967 35.2998 27.1718 35.2815 27.1505C35.245 27.1826 35.2012 27.2146 35.15 27.2289Z" fill="#F9FBE6"/>
<path d="M34.8924 30.4847C34.8744 30.6624 34.8381 30.8331 34.7836 30.9931C34.7872 30.9896 34.7909 30.986 34.7982 30.9824C34.9508 30.4526 34.9753 29.7844 34.9968 29.5213C35.0432 28.8922 35.1186 28.0426 35.7323 27.7288C35.637 27.6045 35.5417 27.4803 35.4464 27.3561C34.5813 28.1928 35.0002 29.3578 34.8924 30.4847Z" fill="#F9FBE6"/>
<path d="M35.8627 40.0618C36.5416 39.3889 36.4193 38.4117 36.3446 37.4664C36.3296 37.2852 36.3257 37.0968 36.34 36.9155C35.785 37.3607 35.1054 37.6356 34.7702 38.3079C34.6208 38.6031 34.4714 38.8877 34.0983 38.796C33.7325 38.7042 33.7399 38.7575 33.5834 39.1665C33.4815 39.4296 33.3905 39.7035 33.2557 39.9561C32.9787 40.479 32.654 40.8492 32.0509 40.9888C31.8613 41.2842 31.6278 41.5369 31.3209 41.7009C31.7267 41.654 32.1324 41.5929 32.5051 41.4465C33.0751 41.2252 33.4217 40.8479 33.9111 40.5272C34.5649 40.0995 35.1759 40.3615 35.8116 40.0725C35.8298 40.0654 35.8481 40.0654 35.8627 40.0618Z" fill="#F9FBE6"/>
<path d="M31.8514 39.653C31.8067 39.1768 31.656 38.7221 31.6662 38.2707C31.5422 38.4309 31.4255 38.6052 31.3015 38.7974C31.203 38.9504 31.0205 39.0786 30.8487 39.1358C30.2933 39.3109 30.2798 39.9897 29.8965 40.3494C29.7323 40.506 29.458 40.4425 29.3005 40.3113C28.8941 39.9672 28.771 40.6747 28.5996 40.9558C28.3918 41.2938 28.1765 41.5608 27.8882 41.8385C27.848 41.8776 27.7894 41.8173 27.8259 41.7782C28.3807 41.2263 28.6612 40.5932 28.9707 39.8996C28.9926 39.8498 29.0657 39.8497 29.0987 39.8816C30.0032 40.7082 29.9459 39.2937 30.523 38.9622C31.0271 38.6734 31.3042 38.2145 31.6582 37.8371C31.3513 37.9905 31.0261 38.0977 30.6641 38.0912C30.0243 38.078 29.282 38.0722 28.6681 38.2439C28.1386 38.6108 27.569 39.0276 27.4128 39.6748C27.4057 39.7494 27.3985 39.8205 27.3986 39.8987C27.404 40.9188 27.651 42.1339 26.8406 42.839C27.7613 42.4856 29.078 42.7427 29.9621 42.3254C29.962 42.2934 29.9729 42.2614 29.9985 42.2329C30.5933 41.5744 31.9444 40.6053 31.8514 39.653Z" fill="#F9FBE6"/>
<path d="M32.934 25.047C32.2394 25.1015 31.7835 25.7918 31.3568 26.3967C31.9557 25.9621 32.6531 25.4313 33.2523 25.2028C33.1462 25.1461 33.0401 25.093 32.934 25.047Z" fill="#F9FBE6"/>
<path d="M25.5882 48.3817C25.5809 48.3924 25.5699 48.3995 25.559 48.4102C25.7563 48.3388 25.9499 48.2496 26.1508 48.1426C26.472 47.8186 26.7895 47.4733 27.177 47.4087C27.6046 47.3369 27.89 47.4324 28.2923 47.5418C28.6507 47.5697 29.0199 47.5619 29.3561 47.4618C29.389 47.4511 29.4256 47.4368 29.4621 47.4261C29.5206 47.4047 29.579 47.3797 29.6375 47.3512C30.0381 46.4619 30.1792 45.598 30.0496 44.6173C29.9792 44.0736 29.7992 43.5586 29.8238 43.0219C29.4958 43.6231 29.6034 44.5576 28.9606 44.9248C28.7926 45.0211 28.6902 44.9964 28.511 44.9825C27.659 44.9199 27.7366 45.4032 27.7009 45.8973C27.6723 46.3025 27.618 46.6118 27.3297 46.9108C27.2968 46.9464 27.2456 46.8968 27.2784 46.8612C27.7929 46.2703 27.3967 45.5068 27.8564 44.9374C27.9622 44.8057 28.1707 44.8267 28.3096 44.8229C29.0372 44.811 29.1574 44.5797 29.2444 44.1353C29.3061 43.8295 29.3746 43.3034 29.5604 42.8944C29.1986 42.9874 28.7854 42.9774 28.2954 42.9569C26.4636 42.889 25.9537 44.0663 26.2159 45.5977C26.3822 46.5855 26.7538 47.9532 25.5882 48.3817Z" fill="#F9FBE6"/>
<path d="M28.5167 24.5638C28.7434 24.5492 28.9627 24.5168 29.1783 24.4738C28.8271 24.3749 28.4832 24.2084 28.1575 24.0241C27.8136 23.9074 27.4843 23.7658 27.1732 23.5958C26.599 23.4475 26.0465 23.2494 25.4575 23.0336C26.1718 23.7965 27.4456 24.6331 28.5167 24.5638Z" fill="#F9FBE6"/>
<path d="M30.8072 25.4235C30.9133 25.4624 31.023 25.5013 31.1328 25.526C31.1949 25.5401 31.2462 25.5827 31.2792 25.636C31.3412 25.5434 31.4032 25.4545 31.4652 25.3726C31.6221 25.1698 31.8154 24.9171 32.0455 24.7496C31.6212 24.6544 31.1714 24.609 30.6961 24.5956C30.3526 24.7241 30.0091 24.8384 29.6619 24.9243C29.7277 24.9207 29.7899 24.917 29.8447 24.924C30.2141 24.9803 30.5033 25.2108 30.8072 25.4235Z" fill="#F9FBE6"/>
<path d="M31.2496 23.3509C31.2678 23.3438 31.2861 23.3473 31.3007 23.3437C31.3007 23.333 31.3007 23.3259 31.3007 23.3153C31.2349 23.3403 31.1692 23.3653 31.1034 23.3902C31.1509 23.3759 31.2021 23.3652 31.2496 23.3509Z" fill="#F9FBE6"/>
<path d="M25.5587 32.8361C25.4425 33.3339 25.2897 33.7749 25.0783 34.1698C25.2864 33.9988 25.5166 33.8705 25.7614 33.7705C26.5647 33.1969 27.5847 33.1383 28.465 32.6286C29.1991 32.2044 29.7682 31.4215 29.9386 30.6002C29.9821 30.3939 30.0184 30.1948 30.0619 29.9957C29.7188 30.3197 29.3866 30.6473 28.9483 30.8755C28.5757 31.0681 28.32 31.2356 28.2403 31.6835C28.2258 31.7511 28.1967 31.84 28.142 31.8827C27.9229 32.0537 27.784 32.1073 27.5097 32.0331C26.8476 31.853 26.4725 32.7102 26.0783 33.0947C26.0454 33.1267 25.9905 33.0771 26.027 33.045C26.4249 32.6356 26.6652 32.1056 27.2096 31.8594C27.2644 31.8345 27.3448 31.8237 27.3997 31.8449C27.9595 32.0536 27.9879 31.6022 28.1263 31.2821C28.2938 30.8837 28.6958 30.7693 29.0501 30.5448C29.4883 30.2668 29.8167 29.8789 30.1964 29.537C30.2037 29.5157 30.2109 29.4943 30.2219 29.473C30.0428 29.5444 29.8564 29.5909 29.6627 29.6055C29.5969 29.6091 29.5274 29.6092 29.4579 29.6094C29.4506 29.6129 29.447 29.6236 29.436 29.6236C28.6355 29.7316 27.6375 29.808 26.9436 30.2534C25.9831 30.8593 25.7946 31.8334 25.5587 32.8361Z" fill="#F9FBE6"/>
<path d="M33.3314 34.909C33.3276 34.8379 33.3202 34.7669 33.3164 34.6922C33.3128 34.7562 33.3056 34.8202 33.2984 34.8842C33.3094 34.8913 33.3204 34.8984 33.3314 34.909Z" fill="#F9FBE6"/>
<path d="M32.2737 40.6153C32.2591 40.6367 32.2445 40.6509 32.2299 40.6723C32.2008 40.7292 32.1717 40.7897 32.1388 40.8466C33.1657 40.5143 33.361 39.2984 33.7178 38.4235C33.7397 38.3666 33.8054 38.3451 33.8567 38.3877C34.5487 39.0014 34.5834 37.8676 34.8937 37.6111C35.2296 37.3333 35.6168 37.123 35.982 36.8878C34.7611 37.0498 33.0642 36.779 32.5357 37.7147C32.5473 38.1127 32.7199 38.546 32.695 38.937C32.6914 39.0152 32.6806 39.0935 32.6734 39.1717C32.6743 39.6728 32.5874 40.1599 32.2737 40.6153Z" fill="#F9FBE6"/>
<path d="M26.5443 25.4628C26.5443 25.4592 26.5443 25.4592 26.5405 25.4555C26.5368 25.4592 26.533 25.4592 26.5293 25.4628C26.5368 25.4628 26.5405 25.4628 26.5443 25.4628Z" fill="#F9FBE6"/>
<path d="M31.0748 34.5432C31.6238 34.887 32.1258 33.3862 32.4579 33.048C32.7025 32.8024 32.9544 32.5851 33.2356 32.414C32.6837 32.511 32.0255 32.4446 31.5797 32.591C31.2033 32.7161 30.8343 32.8731 30.4653 33.0123C29.9833 33.4254 29.4832 33.8777 29.2063 34.4362C29.1008 34.7385 29.0246 35.0513 28.9593 35.3749C28.9125 35.8086 28.9133 36.2422 28.8226 36.676C28.7066 37.2306 28.4879 37.661 28.1521 38.0064C28.2179 37.9707 28.2873 37.9386 28.3531 37.9101C28.3932 37.8887 28.4298 37.8673 28.4699 37.8494C28.5101 37.8281 28.5467 37.8244 28.5832 37.8244C28.9012 37.7172 29.2411 37.6669 29.6067 37.6805C30.0309 37.6939 30.4184 37.7075 30.7986 37.6571C31.4306 37.3397 32.1104 37.207 32.376 36.4211C32.6015 35.7596 32.5931 35.1021 32.676 34.4231C32.7482 33.8508 32.8789 33.3139 33.1449 32.8336C32.5972 33.229 32.1776 33.7593 31.9338 34.4386C31.8756 34.5951 31.7373 34.9934 31.485 34.9689C31.3314 34.955 31.3095 34.9621 31.2033 34.8415C30.7747 34.3553 30.3454 35.6071 30.309 35.6996C30.1415 36.1157 29.996 36.5673 29.7334 36.941C29.7152 36.9694 29.6676 36.9446 29.6859 36.9162C29.8062 36.7347 30.577 34.2312 31.0748 34.5432Z" fill="#F9FBE6"/>
<path d="M25.5963 29.3321C25.6148 29.3248 25.6296 29.3176 25.6481 29.3104C25.6628 29.296 25.6739 29.2816 25.6887 29.2707C25.6628 29.2852 25.6406 29.296 25.6148 29.3104C25.6074 29.3177 25.6 29.3249 25.5963 29.3321Z" fill="#F9FBE6"/>
<path d="M28.339 35.9517C28.5096 35.2228 28.574 34.3661 28.9275 33.6902C28.5441 34.0143 28.2084 34.3632 27.9971 34.8434C27.8478 35.1848 27.7095 35.5334 27.4833 35.8359C27.2644 36.1206 26.5542 35.6064 26.5441 36.1005C26.524 37.181 25.3855 38.466 24.2672 38.7842C25.1227 38.7046 26.2486 38.5818 26.8073 38.2219C27.5889 37.7158 28.1358 36.837 28.339 35.9517Z" fill="#F9FBE6"/>
<path d="M22.5386 40.5961C22.5342 40.5962 22.5342 40.6005 22.5298 40.6005L22.5342 40.6048C22.5342 40.6005 22.5386 40.6004 22.5386 40.5961Z" fill="#F9FBE6"/>
<path d="M25.2607 29.7619C25.2168 29.7833 25.1693 29.7621 25.1473 29.7266C25.0123 29.8868 24.8736 30.0398 24.7349 30.1858C24.7678 30.1999 24.7898 30.2355 24.7533 30.2639C24.5634 30.41 24.3666 30.7693 24.1474 30.8479C23.7747 30.98 23.4602 30.9592 23.1536 31.2654C22.6828 31.7318 22.3253 32.2087 21.7482 32.5438C21.7445 32.5473 21.7372 32.5509 21.7336 32.5509C21.6971 32.5723 21.6642 32.5937 21.624 32.6115C21.613 32.6151 21.6057 32.6151 21.5984 32.6116C21.5437 32.7289 21.4745 32.8321 21.3905 32.9211C22.6066 32.0838 24.6148 32.6562 25.6506 31.1687C25.7307 30.9767 25.8182 30.7881 25.9275 30.6031C26.0734 30.3612 26.2705 30.1654 26.5042 30.0086C26.3688 29.9306 26.2552 29.8171 26.0979 29.7676C25.8455 29.6863 25.5054 29.6442 25.2607 29.7619Z" fill="#F9FBE6"/>
<path d="M24.9443 41.5196C24.037 41.1907 23.9619 42.1611 23.4837 42.5919C23.0602 42.9765 22.4242 43.0878 21.9934 43.4262C22.2638 43.3369 22.5818 43.3221 22.9366 43.389C23.028 43.4066 23.1195 43.4278 23.2109 43.4525C23.3316 43.463 23.4559 43.4805 23.5876 43.5016C24.703 43.6845 25.4777 43.4344 26.3838 43.0597C26.3838 43.0526 26.3874 43.0419 26.3947 43.0348C26.6101 42.8496 26.7487 42.6432 26.847 42.4227C26.7812 42.3908 26.7371 42.2985 26.8285 42.2521C26.8394 42.245 26.854 42.2379 26.865 42.2343C26.8869 42.2236 26.9089 42.2236 26.9271 42.2271C26.9453 42.1666 26.9562 42.1062 26.9707 42.0457C26.8829 42.0281 26.8024 41.9643 26.8022 41.8612C26.8083 41.1539 26.2213 39.9536 26.5088 39.1676C26.22 39.1966 25.9201 39.1864 25.5947 39.1692C25.3242 39.1874 25.0536 39.1879 24.7831 39.1706C23.6535 39.2614 23.0658 39.8666 22.8813 41.0007C22.7619 41.726 22.6534 42.4299 22.2778 42.9779C22.3143 42.9636 22.3509 42.9493 22.3874 42.9315C22.8842 42.7067 23.264 42.4466 23.5631 41.9912C23.7417 41.7172 24.0261 41.2084 24.4319 41.2291C24.5855 41.2359 24.7831 41.3529 24.75 41.2499C24.6655 41.0119 24.6507 40.8626 24.6978 40.6173C24.7993 40.1089 25.4714 39.7381 25.8658 39.4744C25.9315 39.4281 25.9975 39.5346 25.9281 39.5809C25.3183 39.9943 24.4343 40.5147 25.0172 41.42C25.0612 41.4661 25.0065 41.5409 24.9443 41.5196Z" fill="#F9FBE6"/>
<path d="M19.303 37.3356C19.5622 37.1077 19.7445 36.8159 19.8829 36.478C19.7408 36.7946 19.5475 37.0864 19.303 37.3356Z" fill="#F9FBE6"/>
<path d="M29.4364 51.3216C29.4364 51.318 29.4363 51.3145 29.4363 51.3109C29.592 50.4079 29.8897 49.2025 29.4242 48.5067C28.8914 49.0869 28.9453 50.6436 28.0203 50.6807C27.8741 50.688 27.7604 50.4928 27.6506 50.4432C27.2225 50.2449 26.902 50.9563 26.7452 51.2053C26.5556 51.5042 26.3695 51.7284 25.9893 51.7433C25.971 51.7433 25.9673 51.7185 25.9856 51.7149C26.6837 51.6035 26.9254 49.6981 27.826 50.3683C28.4886 50.8612 28.7057 49.496 28.8147 49.1261C28.8838 48.895 28.9675 48.6923 29.0952 48.5108C28.5249 48.5544 27.5514 48.0159 27.1204 48.2689C26.5981 48.5755 26.0981 49.0846 25.4986 49.1638C25.4711 50.1946 25.6486 51.3281 25.2882 52.2847C25.7668 52.0529 26.3152 52.0129 26.8711 52.147C27.4527 52.2846 28.0675 52.607 28.6783 52.7303C28.7184 52.6485 28.7584 52.5667 28.8058 52.4884C28.9189 52.2963 29.0502 52.1148 29.1851 51.9333C29.1741 51.9085 29.1741 51.8765 29.1959 51.8444C29.2944 51.695 29.3709 51.5101 29.4364 51.3216Z" fill="#F9FBE6"/>
<path d="M21.1014 43.4849C21.2398 43.1292 21.5793 42.8301 21.67 42.4603C21.6991 42.343 21.7172 42.2186 21.7316 42.0941C21.4542 42.3612 21.1255 42.5999 20.848 42.7816C20.68 42.8921 20.439 43.0844 20.216 43.0883C19.9783 43.0888 20.048 43.2059 19.8728 43.3875C19.4823 43.7933 19.426 42.9866 18.9884 43.6342C18.5325 44.3103 17.9447 44.7485 17.2617 45.1939C17.2325 45.2117 17.2068 45.1691 17.236 45.1478C18.054 44.5493 18.7001 43.9511 19.1483 43.044C19.1665 43.0048 19.2359 42.9941 19.2616 43.0296C19.4845 42.9901 19.7039 42.9542 19.9268 42.9182C19.945 42.8649 20.0034 42.8257 20.062 42.8434C20.5997 42.9988 21.3075 42.1304 21.7893 41.6284C21.7929 41.5929 21.8001 41.5609 21.8074 41.5253C21.4382 41.6042 21.0176 41.5196 20.5896 41.3533C19.5798 40.964 18.2563 40.9734 17.6509 41.8665C17.6038 42.0941 17.5749 42.3252 17.5753 42.574C17.5761 43.0111 17.5805 43.4589 17.4862 43.8892C17.3555 44.4758 17.0822 44.9597 16.7612 45.4365C16.7467 45.4649 16.7357 45.4898 16.7212 45.5183C17.0171 45.3934 17.3497 45.3111 17.7664 45.2535C18.7533 45.1167 20.1173 45.2495 20.9462 44.6545C20.9163 44.2352 20.9485 43.8726 21.1014 43.4849Z" fill="#F9FBE6"/>
<path d="M25.6803 46.4199C25.526 46.0328 25.2695 45.6707 25.1445 45.2728C25.0967 45.1272 25.0745 44.985 25.067 44.8464C24.64 45.3021 24.6813 45.9489 24.5362 46.5889C24.4926 46.7845 24.2808 46.9057 24.0905 46.8136C23.8636 46.7038 23.6513 46.5478 23.5229 46.3241C23.5633 46.3951 23.2498 46.9501 23.2133 47.0141C22.9072 47.5798 22.5057 47.9927 22.0019 48.3952C21.9507 48.4344 21.8775 48.367 21.9286 48.3243C22.6844 47.7117 23.1074 47.0534 23.4532 46.1643C23.4714 46.1145 23.5372 46.1001 23.5702 46.1498C23.6508 46.2705 24.4128 47.14 24.3966 46.2515C24.3964 46.1378 24.3926 46.0276 24.3887 45.9139C24.3956 45.6757 24.4502 45.473 24.5412 45.249C24.6504 44.9787 24.8254 44.7189 25.0555 44.5266C24.8397 44.527 24.6167 44.5025 24.4009 44.446C23.3401 44.1777 22.1945 43.4617 21.432 44.4191C21.2799 45.2901 21.6509 46.2669 21.4805 47.145C21.3102 48.0197 20.9238 48.6707 20.4057 49.3256C20.4715 49.2971 20.5336 49.2649 20.5993 49.24C21.1911 48.9368 21.7722 48.7972 22.5509 48.7533C23.4319 48.702 24.2071 48.7398 24.971 48.5785C25.4781 47.9663 26.0071 47.2404 25.6803 46.4199Z" fill="#F9FBE6"/>
<path d="M21.5149 43.7149C21.5259 43.7042 21.5368 43.697 21.5514 43.6864C21.5587 43.6792 21.5624 43.6686 21.5697 43.6614C21.5806 43.6508 21.5916 43.6472 21.6026 43.6472C21.6391 43.6187 21.6719 43.5866 21.7084 43.5617C21.7048 43.5581 21.6975 43.5546 21.6938 43.5511C21.6536 43.576 21.6171 43.6009 21.5733 43.6223C21.5514 43.6508 21.5332 43.6828 21.5149 43.7149Z" fill="#F9FBE6"/>
<path d="M20.9875 47.3591C21.0528 47.0284 21.0851 46.6978 21.0882 46.3637C21.0632 46.6979 21.0345 47.032 20.9875 47.3591Z" fill="#F9FBE6"/>
<path d="M35.4654 44.8675C35.3632 44.953 35.239 45.0279 35.144 45.1062C34.9834 45.238 34.8264 45.3698 34.6364 45.459C34.6035 45.4732 34.5706 45.4733 34.5414 45.4662C34.4793 45.5054 34.4135 45.5411 34.3514 45.5767C34.2273 45.648 34.0921 45.6945 33.9532 45.7302C33.8509 45.7873 33.7486 45.8443 33.6427 45.8978C33.3327 46.3284 32.7883 46.5497 32.3574 46.8916C31.8687 47.5642 31.4897 48.3006 31.2497 49.0794C31.2464 49.282 31.1992 49.4633 31.119 49.634C31.1045 49.7123 31.0864 49.7905 31.0609 49.8687C31.0573 49.8758 31.0536 49.8829 31.0536 49.8901C31.0392 49.9754 31.021 50.0643 31.0066 50.1496C31.0066 50.1603 30.9993 50.1674 30.9956 50.178C31.8061 49.4374 32.7555 48.796 33.5843 48.0873C33.7048 47.984 34.6502 47.1187 34.6868 47.1364C34.61 47.0975 34.5112 47.0621 34.4818 46.9698C34.3016 46.3339 35.7773 45.5494 36.2046 45.2963C36.2302 45.2821 36.2522 45.3176 36.2266 45.3354C36.0587 45.4494 34.127 46.9099 34.9133 47.0152C34.9755 47.0222 34.9939 47.1146 34.9501 47.1502C33.8403 48.1189 32.6829 49.0414 31.562 49.9994C32.0151 49.8067 32.5195 49.7063 33.1411 49.7408C33.9418 49.782 33.9624 48.9859 34.4816 48.9708C34.5839 48.967 34.7155 48.9419 34.8143 48.9951C35.6779 49.4379 36.213 48.0153 36.2633 47.5354C36.2669 47.4856 36.3034 47.4607 36.34 47.457C36.3973 46.7745 36.5643 46.0812 36.852 45.3947C36.4056 45.1929 35.9517 44.9236 35.4654 44.8675Z" fill="#F9FBE6"/>
<path d="M31.9706 51.6194C31.2507 51.8267 31.8154 52.757 31.4908 53.2267C31.4689 53.2552 31.436 53.2659 31.403 53.2482C30.4809 52.7841 30.6105 53.7684 30.619 54.4508C30.6274 55.0941 30.6395 55.7552 30.7613 56.3876C30.7723 56.4373 30.6919 56.4588 30.6845 56.4091C30.574 55.8832 30.0861 52.831 30.9306 52.7834C31.3474 52.7613 31.5604 53.3545 31.3979 52.3632C31.3535 52.0896 31.2651 51.7094 31.5024 51.478C31.9367 51.0543 32.2215 50.7766 32.6855 50.6088C32.1845 50.5527 31.6399 50.6425 31.1868 50.8246C30.4853 51.103 30.0839 51.5586 29.7558 52.0923C29.6537 52.2773 29.5553 52.4658 29.4606 52.6544C29.1594 53.9948 29.0742 55.4664 29.8221 56.6771C29.8258 56.6806 29.8258 56.6842 29.8295 56.6877C30.5471 57.3049 30.8402 57.6421 30.9438 58.3599C30.9609 57.6454 31.0656 56.9131 31.2875 56.2445C31.5201 55.4302 31.9137 54.6761 32.5451 54.0494C32.2145 53.1437 32.5011 51.8139 33.0224 50.9103C32.6169 51.1136 32.3763 51.5014 31.9706 51.6194Z" fill="#F9FBE6"/>
<path d="M35.4662 49.8968C35.068 50.0432 34.7138 50.3104 34.7035 50.7511C34.7002 50.9431 34.6859 51.1101 34.646 51.295C34.6351 51.3448 34.5694 51.384 34.5218 51.3663C33.8852 51.1115 34.2323 53.087 34.2657 53.3749C34.2731 53.4353 34.178 53.4354 34.1706 53.375C34.1113 52.8882 33.7031 51.5099 34.2583 51.1926C34.3715 51.1284 34.4667 51.2136 34.4701 51.0821C34.4807 50.8723 34.4437 50.6094 34.5311 50.4067C34.6477 50.1435 34.8521 49.9441 35.1005 49.7979C34.9468 49.7449 34.8261 49.7131 34.7203 49.8874C34.6292 50.0298 34.4867 50.1082 34.3406 50.1831C34.0922 50.3079 33.8838 50.2692 33.6648 50.497C33.6283 50.5326 33.5991 50.5717 33.5626 50.6109C33.0237 51.8984 33.3771 53.3373 33.9972 54.5944C34.184 54.8358 34.3819 55.0913 34.5542 55.3612C34.4763 54.6789 34.6031 54.0176 34.836 53.349C34.9846 52.6024 35.2247 51.884 35.6257 51.24C35.6396 50.7957 35.7412 50.3513 35.7843 49.9034C35.6856 49.9107 35.5833 49.9144 35.4662 49.8968Z" fill="#F9FBE6"/>
<path d="M33.2834 53.8279C33.2651 53.8421 33.2505 53.8599 33.2359 53.8742C33.2578 53.8635 33.2798 53.8634 33.3017 53.8598C33.298 53.8456 33.2943 53.8314 33.287 53.8172C33.2834 53.8208 33.2834 53.8243 33.2834 53.8279Z" fill="#F9FBE6"/>
<path d="M14.6025 38.0932C14.8947 37.9079 15.2127 37.8221 15.5709 37.8072C15.9912 37.6963 16.4409 37.6991 17.0041 37.7728C17.6916 37.864 18.2107 37.8276 18.62 37.7025C18.6236 37.6883 18.6309 37.6776 18.6419 37.6669C19.1276 37.3213 19.3352 36.898 19.4624 36.4393C19.2028 36.4184 18.9321 36.3407 18.6796 36.2168C18.4966 36.1282 18.299 36.0077 18.0977 35.8801C17.6334 35.92 17.206 36.0984 16.9471 36.536C16.8013 36.7815 16.5201 36.9491 16.2276 36.9496C16.0301 36.9499 15.9057 36.8684 15.7337 36.7976C15.0349 36.5109 14.5718 37.2083 14.2104 37.5821C13.9404 37.8598 13.6994 38.0521 13.3816 38.2126C13.3633 38.2375 13.3451 38.2624 13.3232 38.2873C13.7253 38.2511 14.1348 38.254 14.5111 38.0969C14.544 38.0862 14.5769 38.0862 14.6025 38.0932Z" fill="#F9FBE6"/>
<path d="M13.416 36.9188C13.4416 36.8939 13.4744 36.8761 13.5073 36.8618C13.6344 36.3427 13.7834 35.8342 13.8922 35.3151C13.6549 35.5252 13.447 35.7779 13.1437 35.8673C12.7453 35.9852 12.8319 35.2885 12.6092 35.4914C11.9229 36.111 10.471 35.8754 9.92503 35.1833C9.82267 35.1941 9.72398 35.1978 9.62161 35.2016C10.0351 35.4141 10.456 35.648 10.9316 35.8675C11.067 35.9277 11.4586 36.1474 11.8941 36.3705C12.4026 36.5261 12.9001 36.6923 13.3429 36.9403C13.3758 36.9402 13.4014 36.9331 13.416 36.9188Z" fill="#F9FBE6"/>
<path d="M12.3035 32.0447C13.3938 32.5156 14.3368 32.3434 15.4667 32.4196C16.5893 32.4959 17.3382 32.1321 18.0207 31.4201C18.0679 31.2352 18.1297 31.0538 18.2428 30.9079C18.2136 30.9222 18.1807 30.9364 18.1478 30.9507C16.8334 31.9908 15.2616 32.2174 13.6417 32.0495C13.0823 32.0576 12.5411 31.9981 12.0326 31.8604C12.1205 31.9206 12.212 31.9845 12.3035 32.0447Z" fill="#F9FBE6"/>
<path d="M12.6782 35.1825C12.7183 35.1149 12.8134 35.136 12.8354 35.2035C13.1329 36.0063 13.4969 35.0531 13.9719 34.8533C13.9605 34.5938 13.9271 34.3344 13.8938 34.0821C12.7214 34.7843 11.3803 35.2309 10.0055 35.1764C9.99818 35.1764 9.99087 35.1764 9.98722 35.18C10.5989 35.7938 12.1824 36.0434 12.6782 35.1825Z" fill="#F9FBE6"/>
<path d="M19.4084 30.6214C19.7337 30.5284 20.0552 30.4106 20.3915 30.378C20.2965 30.364 20.2014 30.3428 20.1063 30.311C19.8831 30.2296 19.0484 29.5984 18.9024 29.7266C18.3401 30.2145 17.4613 29.4305 17.0659 29.1007C17.0439 29.0829 17.0731 29.0544 17.0951 29.0722C17.571 29.441 18.3253 30.0972 19.0043 29.4883C19.0262 29.4669 19.0628 29.4669 19.0848 29.4882C19.7915 30.1303 20.4973 30.1966 21.4222 30.1239C21.5501 30.113 21.5797 30.3227 21.4518 30.3407C21.2763 30.3659 21.0935 30.3875 20.9107 30.3985C21.0826 30.4231 21.2618 30.4476 21.4263 30.426C21.6091 30.4044 21.7405 30.3082 21.8683 30.2013C21.8683 30.1978 21.8683 30.1942 21.8683 30.1942C21.8244 30.1837 21.8097 30.1233 21.8535 30.0947C21.8572 30.0912 21.8645 30.0876 21.8718 30.0841C21.9473 29.3518 21.4673 28.727 20.6849 28.7426C19.7787 29.064 18.8172 29.0763 17.8335 28.9643C17.5409 28.9541 17.2521 28.9404 16.9669 28.9231C16.7146 28.9058 16.4659 28.8813 16.2245 28.8426C17.2383 29.4522 18.1354 30.2006 19.3206 30.5611C19.3645 30.5717 19.3901 30.5966 19.4084 30.6214Z" fill="#F9FBE6"/>
<path d="M17.9822 40.8423C17.9639 40.8924 17.9419 40.9389 17.9236 40.9855C17.953 40.964 17.9787 40.946 18.0081 40.9281C17.9897 40.9067 17.9749 40.8781 17.9822 40.8459C17.9859 40.8423 17.9859 40.8423 17.9822 40.8423C17.9859 40.8387 17.9822 40.8387 17.9822 40.8423Z" fill="#F9FBE6"/>
<path d="M23.2024 27.7648C23.2463 27.7789 23.2792 27.8108 23.2976 27.8464C23.3085 27.8357 23.3158 27.8214 23.3267 27.8108C24.4035 26.7711 25.6564 28.1764 26.8329 27.755C26.9275 27.4741 27.0001 27.1896 27.1093 26.8909C27.1384 26.8091 27.1712 26.7273 27.2076 26.6455C26.9374 26.8592 26.6452 27.0445 26.3054 27.1517C26.1848 27.191 26.0385 27.1628 25.9141 27.131C25.5338 27.0428 25.1574 27.207 24.792 27.2787C24.3497 27.3647 23.9366 27.4117 23.4833 27.416C23.4431 27.4161 23.443 27.3556 23.4832 27.352C24.1193 27.3083 24.7699 27.1863 25.3765 26.9862C25.6359 26.9005 26.1917 26.9529 26.3889 26.8317C26.7615 26.6071 27.0645 26.3187 27.3747 26.0303C27.2651 26.0305 27.148 26.02 27.0347 26.0024C26.541 25.9322 26.0876 25.9188 25.649 26.0226C24.9916 26.4324 24.2974 26.7357 23.4309 26.7301C22.7436 26.7242 22.0414 26.6543 21.3903 26.4528C21.0794 26.4 20.7795 26.3046 20.4647 26.1203C20.4281 26.0991 20.3988 26.0742 20.3659 26.0494C21 26.9582 22.178 27.4289 23.2024 27.7648Z" fill="#F9FBE6"/>
<path d="M15.4466 39.7625C15.5414 39.6131 15.7969 39.378 16.0053 39.3777C16.232 39.3773 16.6015 39.5153 16.7951 39.3977C17.0946 39.2159 17.3611 39.0022 17.635 38.792C17.6788 38.7599 17.719 38.7279 17.7628 38.6958C17.6494 38.6925 17.5361 38.682 17.4263 38.668C16.6766 38.5555 15.9376 38.2547 15.2247 38.3092C14.9983 38.4447 14.7718 38.5801 14.604 38.783C14.5784 38.8115 14.5602 38.8435 14.5383 38.8755C14.6421 39.6679 14.5629 40.4073 14.2386 41.0618C14.7169 40.6807 15.1002 40.314 15.4466 39.7625Z" fill="#F9FBE6"/>
<path d="M17.665 39.2681C17.2341 39.5816 16.7812 39.8312 16.452 39.7429C15.6253 39.5239 15.5057 40.1284 15.0896 40.552C14.8049 40.8404 14.4762 41.04 14.1365 41.2467C14.0673 41.3641 13.987 41.4816 13.8995 41.5954C13.9141 41.5954 13.9287 41.5918 13.9433 41.5918C14.9336 41.2738 16.0345 41.4994 17.055 41.7393C17.4634 41.0882 17.469 40.1037 17.665 39.2681Z" fill="#F9FBE6"/>
<path d="M24.0064 36.0586C24.0392 35.9554 24.0756 35.8487 24.112 35.7456C24.1411 35.6603 24.1738 35.5891 24.2066 35.5109C23.995 35.7529 23.7321 35.9595 23.4581 36.1093C22.8116 36.4622 21.8643 36.3004 21.1589 36.4046C21.1041 36.4118 21.0783 36.3301 21.1331 36.3194C21.6449 36.2296 22.1567 36.2039 22.6574 36.0929C22.6646 36.0715 22.6793 36.0573 22.7085 36.0466C23.8376 35.6714 24.2455 34.7289 24.3387 33.6554C24.3746 33.2572 24.4251 32.8875 24.6038 32.5744C24.5161 32.6101 24.4247 32.6458 24.3334 32.6709C23.7889 32.8211 23.2953 32.8575 22.736 32.9046C22.0341 32.9627 21.5667 33.2691 21.2493 33.7104C20.9944 34.2653 20.7028 34.8238 20.6527 35.4352C20.6527 35.4494 20.6491 35.4601 20.6491 35.4743C20.6528 35.4921 20.6565 35.5134 20.6528 35.5312C20.6492 35.5596 20.642 35.5881 20.6384 35.6129C20.6061 36.0075 20.5629 36.3808 20.4026 36.7471C20.8082 36.6149 21.2469 36.5573 21.6674 36.5992C22.3586 36.6727 23.2074 37.0196 23.832 36.6773C23.8756 36.5031 23.9192 36.3324 23.9737 36.1617C23.9189 36.1938 23.8641 36.2258 23.8093 36.2508C23.7874 36.2615 23.7691 36.2296 23.791 36.2189C23.8787 36.1761 23.9444 36.1191 24.0064 36.0586Z" fill="#F9FBE6"/>
<path d="M38.6465 34.374C38.5701 34.6122 38.4718 34.8328 38.3478 35.0391C38.5304 34.9322 38.7423 34.8501 39.0091 34.7963C39.1919 34.7605 39.3856 34.7423 39.5831 34.7349C39.7804 34.6777 39.9851 34.6311 40.2007 34.5952C41.2644 34.4264 42.1233 34.2578 42.8425 33.6169C43.0319 33.2185 43.2543 32.8307 43.3413 32.3969C43.421 32.0023 43.6277 30.989 43.0827 30.8335C43.0095 30.8123 43.013 30.7377 43.0532 30.6985C43.0203 30.7092 42.9911 30.72 42.9582 30.7271C42.5269 30.8132 42.1058 30.4549 41.8384 30.1781C41.7872 30.1249 41.8528 30.0502 41.915 30.0785C42.1858 30.2024 42.6763 30.5215 42.9831 30.3361C43.0671 30.2862 43.1401 30.2221 43.2058 30.1545C43.1876 30.1687 43.162 30.1759 43.1364 30.183C43.1291 30.1901 43.1255 30.1973 43.1182 30.2044C43.1035 30.2186 43.0852 30.208 43.0779 30.1973C42.7672 30.2227 42.156 29.8861 41.9658 29.8261C41.9621 29.8261 41.9621 29.8189 41.9585 29.8154C41.8344 29.9329 41.7249 30.061 41.652 30.1927C41.3276 30.7832 41.4523 30.9891 41.4751 31.5329C41.4943 32.0269 41.4474 32.4393 41.1556 32.8485C40.9587 33.1261 40.5787 33.2724 40.2681 33.3831C39.5702 33.6402 39.0771 33.8863 38.6465 34.374ZM42.4343 30.1238C42.4562 30.1238 42.4563 30.1557 42.4343 30.1558C42.4124 30.1523 42.4123 30.1238 42.4343 30.1238Z" fill="#F9FBE6"/>
<path d="M35.9929 28.4856C35.9966 28.475 36.0039 28.4643 36.0075 28.4536C35.9382 28.5319 35.8762 28.6209 35.8252 28.7134C35.8653 28.6707 35.9054 28.6279 35.9492 28.5888C35.9638 28.5568 35.9784 28.5212 35.9929 28.4892C35.9929 28.4892 35.9929 28.4892 35.9929 28.4856Z" fill="#F9FBE6"/>
<path d="M40.9248 30.2508C40.9285 30.2868 40.9212 30.3228 40.9102 30.3624C40.9323 30.3156 40.9544 30.2688 40.9802 30.222C40.9654 30.2292 40.9433 30.24 40.9248 30.2508Z" fill="#F9FBE6"/>
<path d="M33.7299 32.8008C33.6935 32.8755 33.6571 32.9502 33.6279 33.0284C33.4392 33.8426 33.631 34.8161 33.5483 35.5947C33.5123 35.9395 33.4398 36.3021 33.2611 36.5619C33.3963 36.519 33.5315 36.4797 33.6667 36.4368C33.9589 36.2835 34.2438 36.1088 34.5618 36.0408C34.993 35.9441 35.4354 35.9149 35.8777 35.8679C35.8923 35.8679 35.9033 35.8679 35.9143 35.8714C36.393 35.7568 36.8389 35.6317 37.1634 35.1478C37.4698 34.6923 37.5275 34.2408 37.4937 33.7113C37.4824 33.5372 37.4821 33.3666 37.4928 33.1995C36.894 33.6732 36.464 34.4985 35.6341 34.5319C35.2795 34.5468 34.9678 33.9928 34.6179 34.6439C34.4685 34.9249 34.3885 35.22 34.283 35.5152C34.1593 35.8602 33.9475 36.0418 33.6004 36.1561C33.5565 36.1704 33.5418 36.1065 33.582 36.0922C34.4042 35.81 34.2306 34.7831 34.8403 34.2916C35.1726 34.0209 35.5574 34.5498 35.9482 34.3004C36.3645 34.0367 36.875 33.2468 37.4337 32.8335C37.1339 32.8376 36.8194 32.7777 36.5889 32.707C35.6085 32.3959 34.5441 32.1205 33.7299 32.8008Z" fill="#F9FBE6"/>
<path d="M42.7182 29.2951C42.6561 29.3236 42.5939 29.3486 42.5318 29.3771C42.4917 29.3985 42.4515 29.4164 42.4113 29.4378C42.3967 29.4484 42.3821 29.4627 42.3675 29.4734C42.6745 29.448 42.923 29.3196 43.175 29.1628C43.0141 29.195 42.8607 29.2415 42.7182 29.2951Z" fill="#F9FBE6"/>
<path d="M38.011 34.8334C37.9783 34.9117 37.9382 34.9864 37.8944 35.0611C37.9455 34.9899 37.9929 34.9152 38.0403 34.8405C38.0293 34.8405 38.022 34.8405 38.011 34.8334Z" fill="#F9FBE6"/>
<path d="M37.7361 36.3906C37.4775 36.9562 37.42 37.532 37.3406 38.1435C37.2864 38.5452 37.159 38.8689 36.9255 39.1394C36.9218 39.1465 36.9219 39.1536 36.9182 39.1572C37.0351 39.1108 37.1521 39.075 37.2727 39.0535C37.6159 38.7615 38.6908 36.6449 39.4448 37.1269C40.2574 37.6516 40.4966 36.4605 40.8102 35.9659C40.9925 35.6777 41.1968 35.4108 41.4121 35.1546C41.0868 35.2262 40.7395 35.2481 40.4105 35.2558C39.9279 35.2673 39.1636 35.194 38.6374 35.3512C38.5351 35.3976 38.4328 35.4476 38.3305 35.4975C38.1992 35.6648 38.0679 35.8356 37.9512 36.0135C37.9111 36.0811 37.871 36.1487 37.8309 36.2163C37.7981 36.2803 37.7616 36.3337 37.7361 36.3906Z" fill="#F9FBE6"/>
<path d="M31.3749 21.8648C31.7336 22.1201 32.1544 22.3255 32.5023 22.5986C32.7143 22.6125 32.9265 22.6796 33.1498 22.8285C33.4243 23.0129 33.5893 23.3076 33.7982 23.5525C34.0546 23.8506 34.2778 23.9497 34.6436 24.077C34.651 24.0806 34.6546 24.0841 34.6619 24.0877C34.9936 23.4971 34.3376 22.5955 33.9056 22.2586C33.3674 21.833 32.6106 21.8485 31.9887 21.6292C31.3558 21.4064 30.8471 21.1158 30.3893 20.6652C30.3454 20.6404 30.2978 20.612 30.2539 20.5837C30.613 21.0344 30.8844 21.5138 31.3749 21.8648Z" fill="#F9FBE6"/>
<path d="M41.9951 29.7937C42.2182 29.8466 42.9901 30.087 43.136 29.909C43.2892 29.7204 43.3766 29.507 43.5116 29.3077C43.5918 29.1939 43.6977 29.1261 43.8147 29.094C43.7964 29.094 43.7745 29.094 43.7562 29.0941C43.2631 29.4183 42.8284 29.6288 42.2689 29.5551C42.174 29.6334 42.079 29.7118 41.9951 29.7937Z" fill="#F9FBE6"/>
<path d="M42.4854 38.6253C42.4708 38.6289 42.4562 38.6325 42.4416 38.6325C42.4343 38.6432 42.4234 38.6539 42.4161 38.661C42.4416 38.6503 42.4635 38.636 42.4854 38.6253Z" fill="#F9FBE6"/>
<path d="M63.9219 25.5699C63.918 25.5699 63.9141 25.566 63.9102 25.566C63.9141 25.5699 63.9141 25.5737 63.918 25.5775C63.9219 25.5699 63.9219 25.5699 63.9219 25.5699Z" fill="#F9FBE6"/>
<path d="M64.5762 25.8279C64.5725 25.8279 64.5688 25.8315 64.5651 25.8315C64.5651 25.8352 64.5613 25.8352 64.5576 25.8388C64.5725 25.8388 64.5873 25.8387 64.6022 25.8387C64.5948 25.8351 64.5836 25.8315 64.5762 25.8279Z" fill="#F9FBE6"/>
<path d="M39.8068 21.8397C39.7992 21.8471 39.7917 21.8545 39.7803 21.8582C39.7917 21.8545 39.8068 21.8471 39.8181 21.8434C39.8143 21.8434 39.8106 21.8397 39.8068 21.8397Z" fill="#F9FBE6"/>
<path d="M34.201 21.6968C34.1973 21.6968 34.1898 21.6968 34.186 21.6968C34.1898 21.7004 34.1973 21.7041 34.201 21.7077C34.1973 21.7077 34.1973 21.7004 34.201 21.6968Z" fill="#F9FBE6"/>
<path d="M26.3399 36.6449C26.3725 36.4671 26.2467 35.5859 26.572 35.5071C26.773 35.4606 26.751 35.4535 26.9304 35.5527C27.5342 35.8893 27.6316 35.1179 27.7845 34.7551C27.9994 34.2394 28.3314 33.8265 28.7696 33.5024C28.6088 33.5702 28.4371 33.6167 28.2397 33.6383C27.2856 33.7395 26.2845 34.1464 25.4627 34.6383C25.4298 34.681 25.3897 34.7201 25.3605 34.7699C25.0798 35.2431 24.9015 35.7481 24.7232 36.2638C24.494 36.9253 24.4075 37.6185 24.1966 38.287C24.1384 38.4755 24.0655 38.632 23.989 38.7672C24.771 38.5206 26.1769 37.4981 26.3399 36.6449Z" fill="#F9FBE6"/>
<path d="M36.2368 19.3471C36.2956 19.5283 36.3581 19.7059 36.4352 19.8799C36.571 20.196 36.7398 20.5582 37.018 20.7817C37.3439 21.0441 37.684 21.0755 38.0754 21.1779C38.1449 21.1956 38.1596 21.2631 38.1377 21.3164C38.1999 21.3341 38.2621 21.3518 38.3279 21.3694C38.3901 21.3693 38.4596 21.3763 38.5254 21.3797C38.5181 21.3655 38.5107 21.3478 38.4997 21.3336C38.4741 21.3016 38.4521 21.2697 38.4411 21.2342C38.1112 20.762 37.35 20.3439 36.9876 20.078C36.6947 19.8546 36.4493 19.6133 36.2368 19.3471Z" fill="#F9FBE6"/>
<path d="M37.0271 19.6018C36.9392 19.5238 36.8513 19.4422 36.7634 19.3641C36.4815 19.1407 36.2142 18.8923 35.9614 18.612C35.9871 18.6724 36.0128 18.7292 36.0349 18.7896C36.3498 19.1054 36.6793 19.3643 37.0271 19.6018Z" fill="#F9FBE6"/>
<path d="M37.0296 22.6126C37.0257 22.6126 37.0257 22.6088 37.0217 22.6088C37.0218 22.6126 37.0178 22.6164 37.0178 22.6203C37.0218 22.6203 37.0257 22.6164 37.0296 22.6126Z" fill="#F9FBE6"/>
<path d="M36.2014 21.9039C36.2014 21.911 36.1978 21.9182 36.1978 21.9218C36.2345 21.8716 36.2712 21.8251 36.3079 21.7749C36.2748 21.7821 36.2417 21.7893 36.2123 21.7965C36.2123 21.8323 36.2124 21.8681 36.2014 21.9039Z" fill="#F9FBE6"/>
<path d="M15.5 34.3994C15.4962 34.3994 15.4924 34.3994 15.4886 34.3957C15.4848 34.3994 15.4848 34.4031 15.481 34.4031C15.4848 34.4031 15.4924 34.3994 15.5 34.3994Z" fill="#F9FBE6"/>
<path d="M38.3621 39.0871C39.3239 39.2383 40.1797 39.3755 41.0379 38.7769C41.498 38.4562 41.8594 38.1073 42.206 37.7086C42.2459 37.4953 42.2565 37.282 42.2451 37.0653C42.2339 36.9018 42.2153 36.7383 42.1931 36.5713C42.1635 36.383 42.1266 36.1876 42.0861 35.9815C42.0197 35.6475 41.9789 35.3099 42.0039 34.99C41.4127 35.5988 40.8946 36.2288 40.6035 37.061C40.4871 37.3988 40.3192 37.591 39.9317 37.5846C39.8256 37.5812 39.6974 37.4606 39.6279 37.3967C39.0126 36.8149 38.4509 37.5978 38.1702 38.0461C37.9332 38.4232 37.7071 38.7648 37.3602 39.0462C37.6709 39.0066 38.0073 39.0309 38.3621 39.0871Z" fill="#F9FBE6"/>
<path d="M27.5491 27.4409C27.4075 28.0027 27.0206 28.3979 26.7325 28.8604C26.8129 28.8567 26.8934 28.8566 26.9738 28.86C27.1346 28.7851 27.2514 28.6961 27.3681 28.5324C27.5286 28.3082 27.6782 28.0947 27.9412 27.9734C27.9741 27.9591 27.9997 28.0017 27.9705 28.0195C27.6528 28.2298 27.551 28.5925 27.2809 28.8382C27.2663 28.8524 27.2444 28.8631 27.2298 28.8774C27.6357 28.9229 28.0527 29.0288 28.4441 29.1098C29.6547 29.3566 30.2939 29.0249 31.1994 28.309C31.225 28.2912 31.2469 28.2734 31.2725 28.2556C30.8919 28.0572 30.515 27.905 29.9301 27.9593C29.3818 28.01 28.8992 28.0215 28.3616 27.9229C28.2665 27.9053 28.2918 27.7666 28.3832 27.7629C28.7306 27.7552 29.0522 27.6765 29.3665 27.5871C29.6697 27.4764 29.9217 27.3196 30.1444 27.1273C30.148 27.0811 30.1808 27.0383 30.2393 27.0311C30.243 27.0311 30.2503 27.0276 30.2539 27.0276C30.4401 26.8495 30.608 26.6538 30.7685 26.4402C30.8487 26.3157 30.9252 26.1876 31.0018 26.0631C30.6948 26.1311 30.3691 25.9291 30.0946 25.7625C29.8201 25.5924 29.4981 25.433 29.1689 25.3767C28.9497 25.4766 28.7268 25.5658 28.515 25.6906C28.307 25.922 28.0624 26.1321 27.9166 26.406C27.7453 26.7404 27.6399 27.0853 27.5491 27.4409Z" fill="#F9FBE6"/>
<path d="M20.4679 34.4261C20.5116 34.2768 20.5588 34.1239 20.6134 33.9745C20.7481 33.594 20.9413 33.3129 21.1677 33.0992C21.0544 33.1634 20.9229 33.2134 20.7621 33.2456C20.6926 33.26 20.6705 33.1676 20.7326 33.1462C21.5584 32.8498 21.4982 31.8263 21.7162 31.0226C21.1787 31.0058 20.6189 30.7757 20.0889 30.8406C19.5259 30.9091 19.2194 31.265 18.9788 31.6813C18.9789 31.6955 18.9825 31.7062 18.9826 31.7204C18.907 32.4065 18.4218 33.0577 17.8338 33.4355C17.5672 33.6065 17.3224 33.6958 17.0811 33.7389C17.0848 33.7424 17.0885 33.746 17.0958 33.7495C17.3005 33.7207 17.4944 33.7772 17.7282 33.6987C18.0425 33.5915 18.3602 33.4132 18.6965 33.3771C19.1133 33.3338 19.4354 33.5465 19.8519 33.3574C20.0345 33.2753 20.1844 33.2253 20.3854 33.2072C20.4512 33.2 20.466 33.3066 20.4002 33.3173C20.0567 33.3784 19.7901 33.5956 19.4465 33.646C19.07 33.6999 18.9672 33.4086 18.4921 33.5481C18.1888 33.6374 17.8673 33.8086 17.5456 33.8269C17.4433 33.8306 17.297 33.8131 17.1654 33.8062C17.1947 33.8311 17.2276 33.8523 17.2605 33.8807C17.2752 33.8949 17.2862 33.9127 17.2935 33.9269C17.5607 34.0828 17.8169 34.2494 18.0731 34.3947C18.8671 34.7559 19.7961 34.9284 20.4679 34.4261Z" fill="#F9FBE6"/>
<path d="M21.6309 32.544C22.3249 32.1625 22.6783 31.4191 23.2771 30.9276C23.4706 30.7708 23.6277 30.6924 23.869 30.7062C24.1396 30.7199 24.311 30.4673 24.5118 30.2999C24.5155 30.2963 24.5118 30.2928 24.5154 30.2892C25.1835 29.7052 25.1234 28.7777 25.5903 28.1016C25.2976 28.0097 25.0123 27.9 24.7123 27.8365C23.6882 27.6144 23.4153 28.3648 23.1205 29.1721C22.924 29.7197 22.6359 30.1467 22.3004 30.6236C21.9758 31.0897 21.9108 31.5625 21.7727 32.0923C21.7365 32.2595 21.6892 32.4088 21.6309 32.544Z" fill="#F9FBE6"/>
<path d="M36.8203 50.3396L36.8291 50.3396L36.8247 50.3353L36.8203 50.3396Z" fill="#F9FBE6"/>
<path d="M23.9644 38.8063C23.9644 38.8107 23.96 38.8107 23.96 38.8151L23.9644 38.8151C23.9644 38.8107 23.9644 38.8063 23.9644 38.8063Z" fill="#F9FBE6"/>
<path d="M28.6349 25.0684C28.5655 25.0686 28.4923 25.0687 28.4229 25.0652C28.4338 25.0759 28.4412 25.083 28.4522 25.0937C28.4924 25.0972 28.5362 25.0971 28.5801 25.097C28.5984 25.0863 28.6167 25.0791 28.6349 25.0684Z" fill="#F9FBE6"/>
<path d="M31.6981 31.1547C31.7635 30.888 31.8289 30.6498 32.0919 30.5C32.3257 30.3681 32.4719 30.3359 32.7351 30.3212C33.1994 30.2991 33.3192 29.7977 33.5051 29.5024C33.6437 29.2818 33.8005 29.0541 33.9757 28.8512C33.9757 28.837 33.9793 28.8192 33.9792 28.805C33.4568 29.0405 32.8278 28.9705 32.1363 28.6944C31.6137 28.8233 31.2708 29.261 30.8728 29.5922C30.7746 29.8945 30.6618 30.1933 30.6075 30.5132C30.517 31.0465 30.4522 31.6082 30.2483 32.1132C30.1318 32.4049 29.986 32.6468 29.8035 32.839C29.862 32.8354 29.9132 32.8566 29.9571 32.8885C30.4577 32.6673 30.9435 32.4141 31.477 32.2533C32.0544 32.0817 32.848 32.1905 33.4547 32.0509C34.0975 31.6446 34.1797 30.5569 34.0505 29.8747C34.021 29.7113 33.9952 29.5514 33.9766 29.395C33.7651 29.7081 33.5719 30.0319 33.3384 30.3344C33.0319 30.733 32.5524 30.4104 32.1873 30.6705C31.7637 30.9697 31.8415 31.6165 31.4399 31.9477C31.0347 32.286 30.5268 32.4611 30.0812 32.7426C30.0447 32.7675 30.0007 32.7108 30.0335 32.6823C30.6359 32.1374 31.484 32.0614 31.6981 31.1547Z" fill="#F9FBE6"/>
<path d="M22.2046 27.8302C22.1608 27.8694 22.117 27.905 22.0732 27.9442C22.1097 27.9192 22.1462 27.8943 22.1791 27.8658C22.1974 27.8515 22.2156 27.848 22.2339 27.8408C22.2229 27.8373 22.2156 27.8338 22.2046 27.8302Z" fill="#F9FBE6"/>
<path d="M16.2959 34.014C16.2557 33.9927 16.2154 33.9679 16.1715 33.9466C16.0984 33.961 16.0217 33.9824 15.9486 34.0181C16.0656 34.0072 16.1789 34.0035 16.2959 34.014Z" fill="#F9FBE6"/>
<path d="M39.2692 30.6979C38.8641 31.1286 38.7883 31.6725 38.7893 32.2554C38.8839 32.0136 38.9932 31.7788 39.1208 31.5511C39.2556 31.2523 39.4269 30.9677 39.6495 30.6937C39.5252 30.7045 39.4009 30.7083 39.2692 30.6979Z" fill="#F9FBE6"/>
<path d="M30.8678 50.2853C30.8605 50.2853 30.8532 50.2889 30.8422 50.2889C30.8276 50.3102 30.8167 50.328 30.8021 50.3493C30.8277 50.328 30.8459 50.3066 30.8678 50.2853Z" fill="#F9FBE6"/>
<path d="M36.1744 31.6591C37.0594 31.7855 37.7361 31.955 38.5103 31.4276C38.5975 31.1218 38.7506 30.8585 38.9623 30.6449C38.9148 30.6343 38.8709 30.6202 38.8233 30.6061C38.1442 31.1404 37.1285 31.565 36.1744 31.6591Z" fill="#F9FBE6"/>
<path d="M21.1994 38.8142C20.6362 38.7014 20.5161 39.0641 20.2571 39.388C20.2279 39.4236 20.1694 39.4095 20.151 39.374C20.0263 39.1538 19.8498 38.5144 19.6092 38.9235C19.456 39.1832 19.3176 39.45 19.1608 39.7062C18.9202 40.0976 18.6502 40.4321 18.2777 40.6851C18.2594 40.7278 18.2376 40.7669 18.2194 40.8096C18.2888 40.7739 18.3618 40.7418 18.4386 40.7133C19.7792 39.9895 21.898 41.1267 22.8318 39.8136C22.8354 39.8101 22.8391 39.8065 22.8427 39.803C22.8792 39.746 22.912 39.6891 22.9558 39.6322C23.0287 39.5396 23.1017 39.4542 23.182 39.383C22.7215 39.4762 22.1655 39.335 21.551 39.1619C21.5327 39.1583 21.54 39.1299 21.5583 39.1334C23.1089 39.376 23.4694 38.4975 23.6977 37.3207C23.7086 37.2638 23.7194 37.2105 23.7303 37.1571C23.1309 37.3145 22.3042 37.0245 21.6716 37.0114C20.8965 36.9985 20.3154 37.1416 19.87 37.5334C19.8116 37.601 19.7459 37.6651 19.6766 37.7221C19.5233 37.9 19.3884 38.1135 19.2645 38.3732C19.1771 38.5582 19.0897 38.7431 18.9986 38.921C18.8642 39.4686 18.6019 40.0199 18.3542 40.5321C18.9712 40.0051 19.2624 39.2369 19.6999 38.5573C19.7255 38.5146 19.7803 38.518 19.8096 38.5571C19.8902 38.6671 20.1801 39.2886 20.3078 39.1071C20.3771 39.011 20.45 38.883 20.5486 38.8046C20.775 38.6301 20.9651 38.612 21.2358 38.711C21.2943 38.7358 21.2689 38.8283 21.1994 38.8142Z" fill="#F9FBE6"/>
<path d="M16.7735 33.2774C17.3031 32.9673 17.7594 32.4903 17.9155 31.8965C17.3753 32.4163 16.6994 32.716 15.8584 32.6606C14.7395 32.5879 13.5732 32.5863 12.5195 32.19C12.5488 32.2113 12.5818 32.229 12.611 32.2503C12.794 32.3566 12.9807 32.4594 13.1709 32.5479C13.9759 32.9268 14.8354 33.0604 15.6403 33.3896C15.7061 33.3966 15.772 33.4036 15.8378 33.4106C16.1449 33.3994 16.4593 33.3775 16.7516 33.3095C16.7553 33.2952 16.7589 33.2846 16.7735 33.2774Z" fill="#F9FBE6"/>
<path d="M13.8264 37.4943C13.739 37.6829 13.6333 37.8643 13.5129 38.0351C14.057 37.629 14.4399 37.0739 15.006 36.6713C15.5902 36.258 16.3118 37.0138 16.8113 36.2168C16.9973 35.918 17.326 35.7219 17.7024 35.6218C16.8313 35.051 15.8723 34.452 15.0834 34.9332C15.0251 35.0257 14.9704 35.1182 14.9157 35.2107C14.697 35.5807 14.5039 35.9933 14.2742 36.3776C14.1977 36.5518 14.1176 36.7226 14.0191 36.8791C14.0301 36.8898 14.0375 36.904 14.0339 36.9218C13.9976 37.0747 13.9466 37.2276 13.8811 37.3734C13.8848 37.4196 13.8593 37.4659 13.8264 37.4943Z" fill="#F9FBE6"/>
<path d="M58.4464 33.1351C58.7274 32.8609 59.0781 32.6755 59.4435 32.5256C59.7138 32.415 60.0243 32.2509 60.3313 32.1509C60.2618 32.1297 60.1923 32.1085 60.1228 32.0873C59.8997 32.0877 59.6621 32.1129 59.4282 32.1311C59.209 32.2523 59.0741 32.5014 58.8513 32.6226C58.8148 32.6404 58.7855 32.5907 58.8183 32.5693C59.0046 32.4517 59.1249 32.2596 59.3002 32.1384C59.1138 32.153 58.9273 32.1569 58.7481 32.1429C58.7445 32.1536 58.7482 32.1607 58.7409 32.1714C58.6059 32.3564 58.5221 32.5307 58.5042 32.7582C58.4898 32.8862 58.4717 33.0106 58.4464 33.1351Z" fill="#F9FBE6"/>
<path d="M58.3303 31.6566C58.268 31.543 58.2312 31.4151 58.2164 31.2943C58.1322 31.2553 58.0517 31.2093 57.9675 31.1668C57.9969 31.2307 58.0263 31.2982 58.0629 31.3585C58.1363 31.4864 58.2278 31.568 58.3303 31.6566Z" fill="#F9FBE6"/>
<path d="M58.3591 31.3653C58.4032 31.4505 58.4618 31.5321 58.524 31.6031C58.557 31.6386 58.59 31.6705 58.6229 31.7025C58.5789 31.6208 58.5495 31.5284 58.5311 31.4432C58.4726 31.4184 58.4177 31.3936 58.3591 31.3653Z" fill="#F9FBE6"/>
<path d="M57.554 30.958C57.6385 31.2208 57.7486 31.4801 57.9938 31.6219C58.0158 31.6325 58.0414 31.6395 58.0634 31.6502C57.9315 31.4976 57.8653 31.2809 57.8065 31.0926C57.7223 31.0465 57.6381 31.004 57.554 30.958Z" fill="#F9FBE6"/>
<path d="M58.7799 31.5564C58.758 31.5457 58.736 31.5351 58.7141 31.528C58.7288 31.5529 58.7471 31.5742 58.7654 31.599C58.769 31.5812 58.7726 31.567 58.7799 31.5564Z" fill="#F9FBE6"/>
<path d="M55.8008 29.8237C55.8192 29.8983 55.8339 29.9694 55.8487 30.0369C55.8893 30.2714 55.9117 30.5273 56.0583 30.7296C56.1682 30.8787 56.3183 30.9637 56.4792 31.0274C56.4866 31.0274 56.4939 31.0274 56.5012 31.0274C56.556 31.0273 56.5999 31.0343 56.6511 31.0414C56.3106 30.7434 56.0284 30.3814 55.9765 29.9478C55.9143 29.9053 55.8557 29.8627 55.8008 29.8237Z" fill="#F9FBE6"/>
<path d="M56.3026 36.8317C56.339 36.7463 56.3791 36.6823 56.4594 36.6324C56.6055 36.5468 56.6566 36.4792 56.5649 36.3088C56.2399 36.5474 55.86 36.7116 55.5057 36.929C55.7435 37.0352 55.9923 37.1201 56.2374 37.2014C56.2372 37.0699 56.2552 36.9348 56.3026 36.8317Z" fill="#F9FBE6"/>
<path d="M56.9911 37.4669C56.9391 36.9871 56.8249 36.4577 56.9228 35.9813C56.8316 36.0917 56.7294 36.1914 56.6162 36.2768C56.6968 36.3833 56.7884 36.5431 56.635 36.6322C56.4707 36.7285 56.3648 36.7891 56.3688 37.013C56.369 37.1018 56.3874 37.18 56.4058 37.2582C56.6033 37.3218 56.8009 37.389 56.9911 37.4669Z" fill="#F9FBE6"/>
<path d="M57.5368 31.3739C57.478 31.2141 57.4485 31.0329 57.419 30.8801C57.3019 30.8163 57.1884 30.749 57.0713 30.6816C57.1338 30.8912 57.2402 31.0759 57.3977 31.2426C57.438 31.2888 57.4856 31.3313 57.5368 31.3739Z" fill="#F9FBE6"/>
<path d="M57.3722 31.5123C57.3356 31.4875 57.299 31.4627 57.2624 31.4414C57.2185 31.445 57.1673 31.4487 57.16 31.4558C57.1272 31.4914 57.12 31.5447 57.1091 31.5874C57.0946 31.6514 57.0837 31.7261 57.0399 31.7794C56.9889 31.84 56.9195 31.8827 56.8354 31.8864C56.7147 31.8902 56.5721 31.8513 56.5102 31.9829C56.4956 32.0149 56.437 31.9902 56.4516 31.9582C56.5608 31.7021 56.9341 31.9005 56.9957 31.5912C57.0103 31.5272 57.0357 31.456 57.0722 31.3991C56.8234 31.3036 56.5493 31.3716 56.2861 31.4218C56.093 31.8059 56.167 32.3247 56.3396 32.7225C56.6826 32.3558 57.0767 31.886 57.5699 31.6897C57.5004 31.6329 57.4308 31.5762 57.3722 31.5123Z" fill="#F9FBE6"/>
<path d="M43.9725 29.4742C43.9359 29.4494 43.903 29.4246 43.8664 29.3962C43.8481 29.4033 43.8298 29.4105 43.8152 29.4212C43.8701 29.4104 43.9286 29.4245 43.9725 29.4742C43.9689 29.4706 43.9725 29.4706 43.9725 29.4742Z" fill="#F9FBE6"/>
<path d="M53.305 24.2016C53.0054 24.2874 52.7167 24.3519 52.4315 24.3915C52.8232 24.6396 53.1201 25.0656 53.5299 25.2746C54.0715 25.5509 54.2461 25.0672 54.56 24.7397C54.2196 24.5128 53.9555 24.0192 53.305 24.2016Z" fill="#F9FBE6"/>
<path d="M55.2627 40.2563C55.2813 40.2706 55.2998 40.2886 55.3109 40.3066C55.3257 40.2814 55.3404 40.2562 55.3552 40.231C55.3219 40.2418 55.2923 40.249 55.2627 40.2563Z" fill="#F9FBE6"/>
<path d="M64.9578 26.3929C65.3459 26.7228 65.8326 26.9849 66.2743 26.5612C66.2999 26.5399 66.3401 26.5505 66.3475 26.5789C66.4651 26.9661 66.6881 26.9159 66.9402 26.8267C66.9945 26.5316 66.9136 26.2758 66.5186 26.1876C66.0687 26.0853 65.6154 26.1145 65.1547 26.1011C64.8951 26.0944 64.61 26.0914 64.3357 26.0421C64.5225 26.2657 64.702 26.4999 64.878 26.7378C64.8816 26.7413 64.8889 26.7413 64.8926 26.7413C64.8999 26.7449 64.9109 26.7484 64.9182 26.7484C64.9328 26.7519 64.9474 26.759 64.9621 26.7625C65.0901 26.7978 65.2986 26.833 65.4888 26.886C65.4961 26.8896 65.5034 26.8895 65.5107 26.8931C65.6753 26.9426 65.818 27.0098 65.8767 27.1093C65.9573 27.198 65.9977 27.3045 65.965 27.4183C66.0678 27.6883 65.8854 27.9196 65.6516 28.0515C65.6188 28.0693 65.5785 28.0232 65.6113 27.9983C65.783 27.8629 65.8119 27.6638 65.6909 27.4792C65.5846 27.3195 65.4493 27.309 65.2847 27.2773C65.314 27.3164 65.3397 27.3519 65.369 27.3909C65.413 27.4477 65.3217 27.5083 65.2704 27.4657C64.1133 26.4441 63.2481 25.0417 61.5913 24.7282C60.26 24.4746 58.9474 24.4733 57.6598 24.1165C57.5465 24.1167 57.4404 24.1026 57.3417 24.0744C56.9467 24.0004 56.5843 23.7345 56.2512 23.5431C56.2292 23.5289 56.2475 23.4969 56.2731 23.5075C56.4341 23.589 56.5988 23.6598 56.7671 23.7271C56.4814 23.4539 56.2614 23.0811 56.0488 22.7509C55.1286 21.313 53.6234 21.9482 52.1861 21.7374C52.1532 21.7339 52.1604 21.6806 52.1933 21.6806C52.5114 21.6871 52.866 21.6261 53.2388 21.5544C52.862 21.4342 52.2591 21.6342 51.9338 21.6952C51.5427 21.767 51.1333 21.8459 50.7311 21.8359C50.6836 21.836 50.6871 21.772 50.731 21.7684C50.9723 21.7431 51.5861 21.4897 52.1964 21.318C51.1906 21.1278 50.2293 21.2965 49.1761 21.1739C48.2619 21.0653 47.3804 20.8678 46.4988 20.6063C46.4878 20.6027 46.4842 20.5956 46.4769 20.5921C45.9137 20.5149 45.325 20.5194 44.7952 20.6803C44.7477 20.6946 44.7292 20.62 44.7768 20.6092C45.1349 20.5233 45.5149 20.3556 45.8841 20.3301C46.1802 20.3118 46.418 20.3647 46.6777 20.4567C47.3287 20.5622 47.9687 20.6535 48.6123 20.7057C48.1257 20.5217 47.65 20.2951 47.1854 20.1608C47.1525 20.1538 47.1597 20.104 47.1926 20.1039C47.4595 20.1035 47.7265 20.1279 47.9934 20.1666C47.3457 19.7945 46.5768 19.2058 45.8424 19.4701C45.108 19.7343 44.4322 20.1122 43.7235 20.4262C42.9782 20.7545 41.9693 20.8628 41.1027 20.8323C41.2673 20.8853 41.4246 20.9419 41.5746 21.0128C41.8925 20.9091 42.2655 20.9121 42.5836 20.9435C42.8762 20.9714 43.1871 21.0456 43.4796 21.0522C43.8233 21.0587 43.958 20.7563 44.1112 20.5037C44.133 20.4646 44.1916 20.5 44.1734 20.5392C43.9802 20.9091 43.8308 21.1546 43.3921 21.2265C43.0888 21.2732 42.7633 21.2311 42.4562 21.2352C42.5732 21.267 42.6866 21.3059 42.7854 21.3412C42.9939 21.4155 43.1806 21.5325 43.349 21.6708C43.8067 22.0574 44.0689 21.4528 44.1122 21.0866C44.1157 21.0475 44.1779 21.0438 44.178 21.0865C44.1677 21.4775 44.0223 21.9824 43.5507 21.9939C43.4337 21.9977 43.3055 21.8984 43.214 21.8416C43.053 21.7424 42.8847 21.6858 42.7055 21.6328C42.6762 21.6222 42.6469 21.6187 42.6177 21.6116C43.1594 21.9839 43.6576 22.5411 44.2085 21.8115C44.234 21.7795 44.2852 21.8078 44.2634 21.8434C44.0629 22.1992 43.7707 22.3951 43.3941 22.3531C43.3977 22.3567 43.4014 22.3567 43.405 22.3602C43.6245 22.4132 43.8438 22.3986 44.0961 22.4053C44.2241 22.4121 44.4253 22.4687 44.5169 22.5609C44.7659 22.8057 44.7817 23.4632 45.0671 23.6049C45.6306 23.8812 46.3199 22.8955 46.3509 23.9297C46.3547 24.0079 46.2232 24.0294 46.2084 23.9477C46.0867 23.3437 45.7551 23.9947 45.4042 24.0237C45.141 24.0455 44.7642 23.9431 44.6212 23.7016C44.4452 23.4034 44.4739 23.0763 44.2615 22.8848C44.3643 23.1512 44.2626 23.5316 44.0472 23.7204C44.0107 23.7524 43.9594 23.7028 43.9959 23.6672C44.1382 23.5176 44.1891 23.3185 44.1083 23.1232C44.0679 23.0237 44.0093 22.9634 43.9398 22.9173C42.4223 22.7991 41.5021 21.3683 39.7158 22.2955C38.5834 22.8803 37.517 23.5823 36.3626 24.128C36.1909 24.2101 35.9497 24.2958 35.6684 24.378C35.4857 24.4672 35.2921 24.5564 35.0838 24.6491C34.956 24.7062 34.7914 24.671 34.6779 24.5894C34.2758 24.6434 33.881 24.6548 33.5481 24.5878C33.9141 24.7613 34.2728 24.9988 34.6389 25.311C35.4808 25.864 36.2278 26.5309 36.9311 27.2867C37.6014 28.0071 38.4703 29.4095 39.6365 29.3506C40.2507 29.3212 40.8208 29.1709 41.4055 28.9993C42.5456 28.6633 44.4859 27.9562 45.3214 29.0495C45.1962 28.545 44.9797 28.0975 44.3543 27.9849C44.3177 27.9778 44.3359 27.928 44.3688 27.9315C45.2099 28.0474 45.5296 28.9496 45.6369 29.7136C46.0001 30.4451 45.8627 31.341 45.319 31.9604C45.2825 32.0031 45.2093 31.9463 45.2385 31.9001C45.6324 31.3236 45.5868 30.3072 45.1872 29.7321C45.1213 29.6363 45.0444 29.5582 44.9638 29.4873C44.9419 29.5015 44.9126 29.5087 44.8834 29.5052C44.8395 29.4981 44.7992 29.4769 44.759 29.4592C44.6757 29.9071 44.3139 30.0179 43.9298 29.8693C43.7512 30.2073 43.4958 30.556 43.1341 30.6988L43.1378 30.6988C43.2512 30.7164 43.3426 30.766 43.4305 30.8227C43.6461 30.7761 43.8907 30.5625 44.0404 30.4236C44.2083 30.2669 44.4457 30.1314 44.5734 29.9393C44.6135 29.8753 44.7159 29.9 44.716 29.9782C44.7274 30.2518 44.3988 30.4869 44.1796 30.5975C43.9933 30.6902 43.7559 30.8435 43.5293 30.8865C43.8552 31.1738 43.9768 31.7103 43.9628 32.1084C43.9315 32.997 43.4535 33.5843 42.9428 34.2533C42.4732 35.4803 43.3052 36.6909 42.8358 37.9747C42.763 38.1739 42.6573 38.3518 42.5369 38.5261C42.6831 38.4726 42.895 38.4011 42.9133 38.3833C43.4135 37.9951 43.5079 37.5897 43.6422 37.0422C43.6495 37.0137 43.686 36.9888 43.7153 36.9994C44.9336 37.4771 44.543 35.7256 44.4473 35.349C44.4105 35.2069 44.3187 34.9654 44.3843 34.8124C44.6938 34.0868 45.5525 33.7904 45.9132 33.0434C45.9241 33.0185 45.9643 33.0397 45.9534 33.0646C45.7458 33.5199 45.516 33.8082 45.118 34.1252C44.3804 34.72 44.5786 35.1284 44.6602 35.8533C44.7048 36.2442 44.7644 36.9052 44.3407 37.1476C44.0814 37.2938 43.7409 37.01 43.7015 37.5254C43.6872 37.7067 43.6986 37.9235 43.5599 38.073C43.403 38.2439 43.2533 38.3614 43.0962 38.4434C43.3338 38.3933 43.586 38.3609 43.8346 38.332C44.3573 38.2707 44.8214 38.1562 45.2416 37.9848C45.5192 37.8386 45.8078 37.7031 46.078 37.5249C46.2825 37.3753 46.4724 37.2079 46.6475 37.0157C47.2641 36.2576 47.2918 35.3015 47.9192 34.4865C47.9813 34.4082 48.1167 34.4862 48.0583 34.5644C47.2301 35.625 48.0696 36.8711 46.7951 37.7512C46.0099 38.2927 45.0453 38.6747 44.6228 39.5853C44.0982 40.7164 44.1401 41.6902 44.3139 42.8272C44.3321 42.7703 44.3502 42.7134 44.3721 42.6601C44.3892 41.9741 44.7173 41.4262 44.9136 40.7186C45.0807 40.1176 45.303 39.6979 45.9866 39.6398C46.0232 39.6362 46.0342 39.6966 45.994 39.7038C45.1131 39.8261 45.1545 40.5227 44.9107 41.1629C44.7869 41.49 44.6887 41.7959 44.6234 42.1123C44.7984 41.785 45.0172 41.4612 45.2543 41.1516C46.2276 39.4404 47.7203 37.8633 49.7528 37.6572C49.9428 37.6392 50.1439 37.6246 50.345 37.6207C49.8511 37.4652 49.3209 37.4234 48.8239 37.5522C48.7837 37.5629 48.769 37.5061 48.8092 37.4954C49.3244 37.3168 49.7959 37.22 50.2969 37.2902C49.7151 37.0211 49.0751 36.9156 48.5857 37.2185C48.5601 37.2363 48.5344 37.1937 48.56 37.1759C49.1041 36.8053 50.0477 36.9317 50.6403 37.1368C50.6879 37.1545 50.7427 37.1722 50.7976 37.1934C50.1606 36.7076 49.4179 36.4387 48.5226 36.6642C48.475 36.6749 48.4567 36.611 48.5042 36.5967C49.9586 36.1641 51.5321 36.9398 52.4226 38.1396C52.6313 38.2956 52.8144 38.4943 52.9465 38.75C53.2802 39.3785 53.3397 39.9471 53.0664 40.4736C53.2198 40.3525 53.3841 40.2385 53.5484 40.1245C53.6945 40.0211 54.1291 39.7609 54.0995 39.53C54.0735 39.3274 53.9591 38.695 53.4917 39.0263C53.4479 39.0584 53.393 39.0229 53.3783 38.9803C53.1983 38.4759 53.3325 37.8608 52.7068 37.6095C52.6556 37.5883 52.6738 37.5065 52.7286 37.5242C53.2481 37.6975 53.3108 38.0243 53.4067 38.5111C53.5137 39.0512 53.7066 38.5461 53.9814 38.8727C54.5895 39.5931 53.9176 40.0599 53.337 40.4696C53.3698 40.4624 53.4028 40.4588 53.4357 40.4552C53.5929 40.4514 54.3648 40.7486 54.3756 40.6739C54.3973 40.5317 54.4484 40.425 54.5177 40.3432C54.5869 40.1724 54.7548 40.0087 54.5388 39.8811C54.4839 39.8492 54.4838 39.771 54.5386 39.7389C54.6116 39.6961 54.6737 39.6356 54.7467 39.5928C54.8271 39.5465 54.7941 39.4719 54.7683 39.4009C54.7573 39.3689 54.8085 39.3546 54.8195 39.3866C54.8379 39.4327 54.8856 39.5713 54.8565 39.6175C54.8236 39.6709 54.7689 39.735 54.7142 39.7919C54.835 39.8841 54.8498 40.0121 54.8135 40.1472C54.8683 40.1258 54.9304 40.1043 54.9889 40.0865C55.0034 40.0153 55.0252 39.9478 55.0361 39.8767C55.0032 39.8696 54.9702 39.8626 54.9336 39.852C54.8971 39.8414 54.8897 39.7987 54.9116 39.7738C55.1269 39.5211 55.3458 39.2933 55.1332 38.9631C55.1149 38.9347 55.1624 38.9097 55.1807 38.9381C55.188 38.9523 55.1917 38.963 55.199 38.9736C55.2064 38.9843 55.2174 38.9914 55.2247 39.002C55.232 39.0091 55.2284 39.0127 55.221 39.0162C55.3751 39.3216 55.1707 39.4961 55.0213 39.7736C55.0505 39.7771 55.0798 39.7806 55.1127 39.7877C55.1346 39.7912 55.1566 39.816 55.153 39.8409C55.1458 39.9156 55.1276 39.9831 55.1095 40.0543C55.168 40.0399 55.2264 40.0221 55.2812 40.0042C55.292 39.9011 55.3248 39.8122 55.215 39.7271C55.1967 39.7129 55.1966 39.688 55.2076 39.6702C55.3279 39.4781 55.4701 39.2895 55.4332 39.0514C55.4258 39.0123 55.4843 38.998 55.4917 39.0371C55.5433 39.2823 55.4266 39.4815 55.31 39.6878C55.3978 39.7659 55.4199 39.8511 55.4164 39.9578C55.4749 39.9328 55.5297 39.9043 55.5808 39.8722C55.5881 39.858 55.5991 39.8402 55.6064 39.8259C55.5147 39.6804 55.5656 39.5381 55.6312 39.3887C55.6385 39.3674 55.6714 39.3816 55.6678 39.4029C55.6387 39.5096 55.6571 39.5984 55.6756 39.6943C55.7739 39.4809 55.8247 39.2569 55.7365 38.994C55.7219 38.955 55.784 38.93 55.8023 38.9655C55.9673 39.2567 56.0007 39.5089 55.8439 39.7935C55.8549 39.8149 55.8586 39.8433 55.8477 39.8682C55.8004 39.9678 55.7456 40.0354 55.6872 40.0888C55.5597 40.3663 55.4761 40.6578 55.3523 40.9424C55.1557 41.3941 54.8492 41.8034 54.3996 41.8646C54.6595 41.9921 55.0326 42.1443 55.3433 42.0691C55.4456 42.0263 55.5405 41.9586 55.6208 41.8589C55.7667 41.6809 55.8688 41.4817 56.011 41.3038C56.1168 41.1685 56.2665 41.0012 56.4418 40.9156C56.5585 40.7164 56.6714 40.4994 56.6345 40.2685C56.616 40.1619 56.6561 40.0978 56.7035 40.0053C56.7472 39.9164 56.8605 39.8629 56.9445 39.8236C57.3135 39.6524 57.1775 39.2439 57.0015 38.9634C56.9869 38.9421 57.0234 38.9208 57.0381 38.9421C57.2213 39.2225 57.3756 39.6097 57.0908 39.8767C56.9521 40.0085 56.8244 40.1686 56.8723 40.3676C56.8834 40.4173 56.8761 40.4706 56.8616 40.5204C56.8326 40.6378 56.7998 40.748 56.7561 40.8547C57.1948 40.8326 57.3591 40.6688 57.4537 40.4128C57.4537 40.3986 57.4537 40.3843 57.4537 40.3737C57.468 40.2173 57.4933 40.0751 57.5516 39.9435C57.5516 39.9292 57.5516 39.9115 57.5515 39.8973L57.5515 39.8937C57.544 39.78 57.5219 39.6698 57.4596 39.5598C57.4082 39.4674 57.4082 39.4639 57.4007 39.3573C57.3895 39.1974 57.5429 39.1225 57.4731 38.9306C57.418 38.7779 57.3447 38.643 57.2603 38.5045C57.242 38.4726 57.2895 38.4476 57.3078 38.476C57.4507 38.6783 57.6413 38.9233 57.565 39.1828C57.5141 39.3571 57.6496 39.5132 57.7157 39.6802C57.7303 39.6695 57.7449 39.6623 57.7632 39.6517C57.7705 39.6445 57.7778 39.6339 57.7851 39.6267C57.869 39.552 57.975 39.5056 58.0736 39.4485C58.143 39.4093 58.1868 39.3559 58.2233 39.2954C58.2194 39.2066 58.2559 39.1248 58.274 39.0359C58.303 38.9115 58.2992 38.7906 58.2441 38.6841C58.193 38.7055 58.1418 38.7091 58.0943 38.695C58.0906 38.695 58.0869 38.695 58.0833 38.6986C57.6958 38.7206 57.571 38.4542 57.3914 38.1737C57.373 38.1418 57.4205 38.1062 57.4425 38.1346C57.5194 38.2304 57.5891 38.3476 57.688 38.4256C57.7612 38.4859 57.8343 38.5035 57.9038 38.4963C57.5667 38.0668 56.996 37.851 56.4107 37.6636C56.396 37.6636 56.3814 37.6601 56.3704 37.6495C55.9095 37.501 55.4413 37.3632 55.068 37.147C53.9228 36.7225 52.8979 36.024 51.9241 35.3007C51.9058 35.2865 51.9241 35.258 51.9424 35.2722C52.572 35.726 53.2453 36.0732 53.9405 36.3848C53.3841 35.9948 52.8314 35.5977 52.2896 35.1898C51.0485 34.2537 49.3763 33.4497 49.0153 31.883C48.9826 32.0394 48.961 32.1958 48.9722 32.37C48.9948 32.7147 49.0283 33.0523 49.0032 33.3971C48.9997 33.4468 48.9229 33.4505 48.9228 33.3972C48.9109 32.8534 48.7308 32.2851 48.7993 31.7518C48.3942 32.1755 47.9927 32.5671 47.5728 32.8699C47.5217 32.9091 47.4594 32.8239 47.5032 32.7848C48.0033 32.3219 48.4886 31.7701 48.9812 31.2184C48.9849 31.2148 48.9849 31.2148 48.9886 31.2113C49.0068 31.1792 49.0177 31.1508 49.0396 31.1188C49.0542 31.0974 49.0761 31.0832 49.0943 31.076C49.762 30.2254 50.4257 29.2647 51.4818 28.9323C52.5447 28.305 53.7509 28.1465 55.2295 29.0077C56.236 29.5959 57.1878 30.2767 58.2343 30.7938C59.2882 31.3145 61.2423 32.2992 62.5763 32.0126C62.5726 32.0055 62.5726 31.9984 62.5726 31.9913C62.2144 32.0772 61.8194 31.9925 61.5083 31.8083C61.4644 31.7799 61.5045 31.7159 61.5484 31.7407C61.8814 31.9107 62.1959 31.9244 62.5651 31.906C62.5907 31.9059 62.6017 31.9201 62.6054 31.9414C62.7588 31.8239 63.0036 31.7417 63.1974 31.7556C63.2084 31.7556 63.2157 31.7591 63.223 31.7627C64.538 31.0531 65.1278 29.5771 66.0069 28.417C65.8426 28.5132 65.6782 28.613 65.5285 28.7306C65.4884 28.7626 65.4334 28.7094 65.4699 28.6738C65.7802 28.3854 66.1454 28.1537 66.4411 27.8547C66.5796 27.6341 66.8057 27.2854 66.9038 26.9582C66.7796 27.0153 66.6408 27.0511 66.5054 27.0122C66.4249 26.9875 66.2416 26.6928 66.2307 26.7035C65.8035 27.0738 65.2472 26.73 64.9067 26.4356C64.8737 26.4144 64.9212 26.3645 64.9578 26.3929ZM45.9385 20.0706C46.1798 20.0595 46.4283 20.0235 46.6697 20.0444C46.7172 20.0479 46.7173 20.1119 46.6698 20.1191C46.4286 20.1408 46.1799 20.1057 45.9385 20.0954C45.9239 20.0954 45.9239 20.0706 45.9385 20.0706ZM45.8144 22.3348C45.4341 22.2643 45.1011 22.1085 44.779 21.9065C44.7607 21.8959 44.7789 21.8674 44.7935 21.878C45.1156 22.0659 45.4559 22.211 45.8289 22.2779C45.8692 22.2849 45.851 22.3418 45.8144 22.3348ZM46.2132 22.4976C46.1474 22.487 46.1108 22.4729 46.0595 22.4303C46.0486 22.4232 46.0632 22.409 46.0741 22.4125C46.1217 22.4444 46.1693 22.4621 46.2278 22.4656C46.2461 22.4691 46.2352 22.5011 46.2132 22.4976ZM44.2644 31.0167C44.2243 31.0772 44.1952 31.1733 44.1331 31.2018C44.1185 31.2125 44.1002 31.2161 44.0819 31.2019C44.0819 31.2019 44.0783 31.2019 44.0783 31.1983C44.06 31.1877 44.0453 31.17 44.0489 31.1486C44.0597 31.0029 44.1142 30.8464 44.2751 30.8461C44.5128 30.8457 44.5599 30.5969 44.7205 30.4651C44.768 30.4259 44.8631 30.4613 44.8339 30.5289C44.7248 30.8205 44.5899 31.0411 44.2644 31.0167ZM55.5493 38.5323C55.6737 38.5676 55.7542 38.6421 55.7727 38.7701C55.7838 38.8269 55.6998 38.8733 55.6704 38.8129C55.6301 38.7312 55.6044 38.6637 55.5129 38.6177C55.4653 38.5964 55.4981 38.5182 55.5493 38.5323ZM55.2525 38.1738C55.3001 38.2235 55.2965 38.2164 55.3222 38.2768C55.3369 38.3123 55.2784 38.3266 55.2637 38.2911C55.2454 38.2663 55.227 38.2414 55.2087 38.2166C55.1867 38.1882 55.2269 38.1455 55.2525 38.1738ZM54.9272 38.2242C54.9309 38.2348 54.9346 38.2419 54.9382 38.2526C54.9674 38.2205 54.9966 38.1885 55.0221 38.1494C55.044 38.1138 55.0989 38.1457 55.0807 38.1813C55.0479 38.2488 55.0077 38.2845 54.953 38.3343C54.9384 38.3485 54.9128 38.345 54.9018 38.3273C54.8688 38.274 54.8725 38.2811 54.8687 38.2243C54.865 38.1852 54.9235 38.1886 54.9272 38.2242ZM54.689 37.8905C54.7512 37.9295 54.7952 37.9827 54.8465 38.0359C54.8611 38.0501 54.8356 38.075 54.8209 38.0609C54.7733 38.0076 54.733 37.9544 54.6744 37.9118C54.6671 37.9012 54.678 37.8798 54.689 37.8905ZM49.5824 34.2739C50.3514 34.955 51.1312 35.5615 51.9622 36.1678C52.7712 36.76 53.6713 37.1636 54.5241 37.6811C54.5753 37.713 54.5279 37.7912 54.4767 37.7593C53.6166 37.2419 52.6727 36.8916 51.871 36.2781C51.0363 35.6363 50.304 35.0191 49.535 34.3131C49.5093 34.2883 49.5531 34.2456 49.5824 34.2739ZM48.4428 32.7689C48.4683 32.6942 48.5889 32.726 48.5635 32.8007C48.5089 32.9714 48.4836 33.142 48.462 33.3162C48.4548 33.3802 48.3634 33.3804 48.3596 33.3164C48.3483 33.1352 48.3882 32.9432 48.4428 32.7689ZM59.8472 24.6636C59.9825 24.7096 60.0995 24.6845 60.2237 24.6346C60.2748 24.6131 60.3116 24.7019 60.2604 24.7233C60.1106 24.784 59.9753 24.7665 59.8289 24.6992C59.8143 24.685 59.8252 24.6566 59.8472 24.6636ZM47.3581 22.8155C47.5484 22.9182 47.684 23.0673 47.783 23.2484C47.8706 23.1523 47.9874 23.0454 48.1264 23.0701C48.3166 23.1053 48.4593 23.2117 48.6568 23.2362C48.6678 23.2362 48.6751 23.254 48.6642 23.2575C48.5509 23.3075 48.4449 23.297 48.3278 23.2581C48.2619 23.2369 48.2034 23.1908 48.1339 23.1803C47.9912 23.1592 47.8964 23.2802 47.8125 23.3727C47.7906 23.3977 47.743 23.3906 47.7284 23.3622C47.6329 23.1598 47.4974 22.9965 47.329 22.8475C47.3107 22.8334 47.3362 22.8049 47.3581 22.8155ZM46.5313 22.5148C46.7105 22.5429 46.8897 22.564 47.058 22.6348C47.0873 22.6489 47.0654 22.6952 47.0362 22.6846C46.8642 22.6351 46.696 22.5963 46.5168 22.5646C46.4802 22.5611 46.4947 22.5078 46.5313 22.5148ZM46.0117 24.403C46.8211 25.1729 49.4092 24.9374 49.0135 26.5623C49.1012 26.5515 49.1853 26.5407 49.273 26.5299C49.3315 26.5227 49.3609 26.5866 49.3536 26.6328C49.2885 27.0026 48.9705 27.0991 48.7187 27.359C48.6713 27.4053 48.6053 27.3378 48.6455 27.288C48.7768 27.1279 49.4815 26.6006 48.8932 26.8078C48.8275 26.8328 48.7433 26.7689 48.7505 26.7014C48.8539 25.1978 46.7774 25.3151 45.946 24.4742C45.9021 24.428 45.9678 24.3604 46.0117 24.403ZM48.8615 27.4831C48.8323 27.4832 48.7994 27.4832 48.7701 27.4833C48.7299 27.4834 48.7298 27.4265 48.77 27.4264C48.7993 27.4264 48.8322 27.4263 48.8614 27.4263C48.9016 27.4226 48.9017 27.4831 48.8615 27.4831ZM47.4444 26.2309C47.4225 26.231 47.4188 26.2025 47.4407 26.1954C47.8682 26.0525 48.2748 26.4854 48.3121 26.8799C48.3158 26.9296 48.2463 26.9297 48.228 26.8907C48.0701 26.5249 47.8978 26.2195 47.4444 26.2309ZM47.7822 27.0585C47.6614 26.9805 47.5552 26.8847 47.4199 26.8281C47.3723 26.8068 47.405 26.725 47.4563 26.7427C47.5989 26.7922 47.7161 26.8773 47.8369 26.9624C47.8955 27.005 47.8408 27.0975 47.7822 27.0585ZM41.6217 27.165C41.2822 27.4321 40.8875 27.5536 40.4666 27.3162C40.2727 27.2064 40.2064 26.9293 40.0891 26.766C39.7263 26.2619 39.504 26.6781 39.2336 26.7817C38.8353 26.9316 38.7261 27.2055 38.3015 26.9396C37.7489 26.5923 37.4151 25.9922 36.8296 25.684C36.8076 25.6734 36.8259 25.6449 36.8478 25.652C37.2905 25.8431 37.6275 26.1909 37.9754 26.5172C38.4478 26.9607 39.0399 26.8246 39.4963 26.4684C39.5912 26.3936 39.8215 26.3826 39.9167 26.4428C40.528 26.8328 40.5222 27.7107 41.5778 27.1082C41.6106 27.0904 41.6509 27.1401 41.6217 27.165ZM44.141 27.2744C43.9397 27.1681 43.7129 27.0619 43.5481 26.9022C43.321 26.6858 43.1022 27.0309 42.883 27.1308C42.5542 27.2807 42.3238 27.2207 42.0711 26.9723C42.0565 26.9581 42.0784 26.9367 42.093 26.9509C42.5874 27.4086 42.9962 26.9956 43.4051 26.6928C43.4161 26.6857 43.438 26.6892 43.4454 26.6998C43.6432 26.9341 43.9067 27.0722 44.1665 27.2353C44.1922 27.2494 44.1703 27.2886 44.141 27.2744ZM44.6461 25.4574C44.6206 25.5036 44.5585 25.5037 44.5218 25.4718C44.0678 25.0852 43.5883 24.7519 43.3189 25.4418C43.3043 25.481 43.2605 25.5166 43.213 25.4989C42.7191 25.3114 42.3567 25.0881 42.0051 24.6942C41.9025 24.5771 41.685 25.6614 41.6339 25.7326C41.3165 26.1561 40.962 26.2385 40.5081 25.9016C40.347 25.781 40.2369 25.5218 40.1671 25.3442C39.7485 24.2929 39.4345 24.5493 38.4627 24.949C37.162 25.4879 35.9621 25.0777 34.6235 24.8525C34.5394 24.8384 34.5611 24.7034 34.6415 24.7103C36.1042 24.8109 37.6515 25.2525 38.8377 24.0776C39.1115 23.807 39.3566 23.8599 39.6748 23.9269C39.8796 23.9692 40.1031 24.2532 40.1729 24.4236C40.2867 24.7007 40.3493 24.9849 40.4558 25.2619C41.3372 25.431 41.7317 25.2135 41.6466 24.6059C41.6574 24.5028 41.6718 24.3962 41.6826 24.2931C41.6898 24.222 41.7811 24.165 41.8397 24.2289C42.2866 24.7292 43.1106 25.5133 43.4638 24.6241C43.482 24.5779 43.5368 24.5458 43.5843 24.5742C43.782 24.6911 44.6205 25.4681 44.7072 24.821C44.7144 24.7535 44.8204 24.7498 44.8169 24.8209C44.8103 25.2474 44.8539 25.0874 44.6461 25.4574ZM44.9528 27.3228C44.9418 27.3335 44.9235 27.3122 44.9345 27.3015C45.2886 27.013 45.4009 26.4157 45.9387 26.5818C46.2972 26.6914 46.2029 27.1358 46.0827 27.4097C46.5943 27.2915 47.193 26.7147 47.2274 27.6032C47.2275 27.6423 47.1653 27.6424 47.1652 27.6033C47.1386 26.9636 46.7405 27.2309 46.4154 27.3949C46.2729 27.4662 46.1377 27.5304 45.9769 27.5449C45.9257 27.5486 45.9037 27.4917 45.9219 27.4526C46.0057 27.2925 46.115 27.0613 46.0525 26.8766C45.9313 26.5321 45.5878 26.6322 45.4199 26.8244C45.2776 27.0023 45.139 27.1874 44.9528 27.3228ZM47.2663 33.2543C47.033 33.6457 46.9533 34.0688 47.0235 34.5165C47.0272 34.5413 46.987 34.5556 46.9833 34.5272C46.8802 34.0618 46.9123 33.6174 47.1931 33.2118C47.2186 33.162 47.2955 33.2045 47.2663 33.2543ZM47.5557 33.5488C47.6031 33.5025 47.6727 33.5735 47.6289 33.6198C47.5523 33.7052 47.5049 33.8012 47.4612 33.9079C47.4357 33.9684 47.337 33.9473 47.3588 33.8797C47.3988 33.7517 47.4571 33.6485 47.5557 33.5488ZM50.8108 27.8174C49.5796 28.3171 48.3809 28.6746 47.6334 29.8452C47.1594 30.5924 46.7842 31.3963 46.1967 32.069C46.1712 32.1011 46.1272 32.0549 46.1527 32.0265C46.503 31.5887 46.7544 31.08 47.0131 30.5749C46.9656 30.607 46.9145 30.6319 46.845 30.632C46.7646 30.6322 46.7534 30.5256 46.8265 30.5006C46.779 30.5184 46.7937 30.5326 46.7827 30.5042C46.7353 30.5967 46.6696 30.7034 46.5673 30.7107C46.454 30.7216 46.3478 30.6471 46.2345 30.6366C46.2198 30.6367 46.2198 30.6153 46.2344 30.6153C46.3112 30.6152 46.377 30.6328 46.4502 30.6469C46.6294 30.6822 46.684 30.515 46.7312 30.3763C46.7422 30.3443 46.7897 30.3229 46.8153 30.3549C46.8373 30.3833 46.8739 30.4258 46.8996 30.472C46.98 30.4257 47.042 30.358 47.137 30.3365C47.2062 30.2049 47.2755 30.0768 47.3484 29.9488C47.3119 29.9773 47.2754 30.0058 47.2389 30.0307C47.1987 30.0557 47.1401 30.0238 47.1437 29.9776C47.1437 29.9456 47.1473 29.9136 47.1472 29.8851C46.7895 30.2376 46.3215 30.2242 46.0902 29.6915C46.0829 29.6702 46.1158 29.6594 46.1268 29.6772C46.3726 30.1673 46.8698 30.1771 47.1615 29.7181C47.1907 29.6718 47.2602 29.693 47.264 29.7463C47.264 29.7819 47.2678 29.8139 47.2678 29.8494C47.4394 29.7069 47.5927 29.5503 47.724 29.3688C47.7313 29.3581 47.7422 29.351 47.7532 29.351C47.8225 29.262 47.8955 29.1801 47.9722 29.0947C47.8844 29.102 47.793 29.1021 47.6906 29.081C47.4346 29.0245 47.4527 28.9605 47.2337 29.1351C47.146 29.2027 47.0584 29.2811 46.9635 29.3381C46.5215 29.5948 46.2725 29.3784 46.0269 28.9914C46.0086 28.963 46.0524 28.9381 46.0707 28.9665C46.3127 29.3357 46.5944 29.4596 46.9522 29.164C47.0982 29.0429 47.2406 28.9147 47.3903 28.7971C47.4195 28.7758 47.4597 28.7615 47.4963 28.7827C47.7342 28.9387 48.0121 28.9383 48.2642 28.817C48.2715 28.8099 48.2824 28.8027 48.2897 28.7956C48.1691 28.7958 48.0484 28.764 47.913 28.6861C47.6238 28.5195 47.4263 28.4559 47.1378 28.6376C47.0318 28.7053 46.9332 28.7659 46.809 28.7875C46.6372 28.8198 46.5417 28.5889 46.5232 28.4681C46.49 28.2798 46.0809 28.5115 46.0224 28.5187C45.8104 28.5439 45.6898 28.5406 45.4995 28.4663C45.4739 28.4557 45.4848 28.413 45.5104 28.4236C45.9055 28.5687 46.1941 28.4047 46.5155 28.2229C46.5411 28.2086 46.585 28.2192 46.5923 28.2512C46.7289 28.9938 47.0898 28.3818 47.4554 28.3812C47.598 28.3809 47.759 28.4482 47.8798 28.5191C48.1067 28.6466 48.2859 28.6783 48.5052 28.6353C48.5819 28.5819 48.6585 28.5284 48.7389 28.4785C48.5853 28.4859 48.4317 28.4577 48.3036 28.3762C48.1975 28.3053 48.1023 28.2273 48.0144 28.135C47.8825 27.9931 47.6816 28.0894 47.5392 28.1891C47.5209 28.2034 47.4953 28.1963 47.4807 28.1821C47.3745 28.0828 47.4658 28.0471 47.4144 27.9228C47.3961 27.8802 47.4728 27.848 47.4911 27.8907C47.5095 27.9262 47.5244 28.0719 47.5572 28.054C47.6778 27.9934 47.8057 27.9648 47.9299 27.9148C47.9482 27.9076 47.9738 27.9147 47.9848 27.9289C48.2815 28.266 48.5267 28.3723 48.9836 28.3253C48.9909 28.3253 48.9946 28.3288 48.9982 28.3288C49.5535 28.0329 50.1747 27.8505 50.7997 27.7393C50.8436 27.725 50.862 27.796 50.8108 27.8174ZM53.5588 26.974C53.3726 27.1093 53.1899 27.1878 53.0182 27.2308C52.9817 27.3161 52.9124 27.3802 52.8321 27.4444C52.7992 27.4693 52.7589 27.4303 52.7844 27.3982C52.8209 27.3555 52.8574 27.3057 52.8866 27.2559C52.8171 27.2631 52.7513 27.2632 52.6855 27.2598C52.5833 27.3879 52.4702 27.5125 52.3424 27.6193C52.3132 27.6443 52.2766 27.6088 52.2985 27.5768C52.3897 27.47 52.4589 27.3455 52.5538 27.2387C52.477 27.2246 52.4002 27.2034 52.327 27.1751C52.3271 27.1893 52.3307 27.2035 52.3234 27.2178C52.1995 27.449 51.9915 27.6377 51.7099 27.6346C51.6587 27.6347 51.6586 27.5637 51.7098 27.5565C51.9584 27.5276 52.086 27.339 52.1917 27.1433C52.199 27.1327 52.2063 27.1326 52.2136 27.1255C51.8879 26.9661 51.584 26.6859 51.2983 26.3665C50.4521 25.4225 49.6717 24.4714 48.3404 24.2071C48.2928 24.1965 48.3037 24.1254 48.3512 24.1289C49.152 24.1737 49.8434 24.4142 50.4585 24.9285C51.2421 25.5847 52.2505 27.2996 53.5038 26.8461C53.5842 26.814 53.6209 26.9276 53.5588 26.974ZM50.9256 24.3661C50.9109 24.3448 50.9438 24.3199 50.9621 24.3376C51.0757 24.4725 51.1746 24.6181 51.2553 24.7708C51.2663 24.7921 51.2371 24.817 51.2188 24.7992C51.0979 24.6679 51.0245 24.5081 50.9256 24.3661ZM51.4203 25.0548C51.413 25.0442 51.4313 25.0299 51.4386 25.0405C51.6437 25.2783 51.8745 25.5125 52.1672 25.6506C52.2111 25.6719 52.171 25.743 52.1271 25.7182C51.838 25.5588 51.6109 25.321 51.4203 25.0548ZM52.2918 25.7961C52.3357 25.8316 52.3723 25.86 52.4053 25.9061C52.4236 25.931 52.3871 25.9666 52.3615 25.9488C52.3139 25.9169 52.2846 25.8814 52.248 25.8389C52.2223 25.8105 52.2625 25.7713 52.2918 25.7961ZM55.6883 25.7477C56.2766 25.5761 56.8281 25.2197 57.3834 24.938C57.0616 24.9492 56.7362 24.9355 56.4366 25.0498C56.1516 25.1604 55.9761 25.1572 55.8002 24.9051C55.7855 24.8838 55.8184 24.8589 55.8367 24.8802C56.0821 25.1428 56.3157 24.922 56.5386 24.8079C56.6774 24.7366 56.8528 24.7221 57.0064 24.6969C57.0466 24.6898 57.0904 24.6861 57.1343 24.6789C57.0282 24.6578 56.9221 24.6331 56.8161 24.612C56.4832 24.5379 56.1395 24.5029 55.8649 24.2937C55.7848 24.4538 55.6644 24.5891 55.511 24.6853C55.533 24.7137 55.5549 24.7421 55.5733 24.7669C55.6722 24.8911 55.7565 25.0261 55.8262 25.1645C55.8409 25.193 55.8007 25.2286 55.7787 25.2002C55.6945 25.0972 55.5993 25.005 55.5004 24.9199C55.6802 25.2821 55.7869 25.7155 55.4584 26.004C55.4255 26.0325 55.3852 25.9899 55.4108 25.9614C55.637 25.7158 55.5158 25.3712 55.3581 25.08C55.417 25.311 55.4283 25.542 55.3483 25.7873C55.3338 25.8336 55.2753 25.8763 55.2241 25.8551C55.1583 25.8303 55.0851 25.8091 55.0229 25.7772C54.9461 25.7383 54.9791 25.8413 54.9537 25.9089C54.899 26.0405 54.8298 26.165 54.7788 26.3001C54.7643 26.3321 54.7131 26.3216 54.724 26.286C54.7566 26.1509 54.8295 26.0193 54.8549 25.8842C54.8839 25.7384 54.8473 25.7278 54.913 25.6353C54.9349 25.6068 54.9604 25.5925 54.997 25.6031C55.0592 25.6172 55.1177 25.6278 55.1726 25.6384C55.1979 25.5033 55.1904 25.3718 55.1682 25.2439C55.1574 25.3043 55.1392 25.3648 55.1174 25.4288C55.0992 25.4821 55.0261 25.5284 54.9712 25.4859C54.9419 25.4646 54.9126 25.4398 54.8797 25.4185C54.6539 25.9591 54.2051 26.493 53.7121 26.8066C53.6792 26.828 53.6426 26.7783 53.6718 26.757C54.1428 26.3936 54.5549 25.7994 54.7405 25.241C54.7586 25.1877 54.8317 25.1449 54.883 25.1839C54.9086 25.2017 54.9305 25.2194 54.9562 25.2371C54.9816 25.1162 54.985 24.9954 54.9775 24.871C54.9592 24.8746 54.9409 24.8782 54.9226 24.8782C54.6817 25.1167 54.5728 25.5186 54.3245 25.718C54.2807 25.7821 54.2296 25.8319 54.1712 25.864C53.9705 26.1345 53.6784 26.3553 53.3825 26.4625C53.3496 26.4732 53.3312 26.427 53.3604 26.4127C53.5833 26.2951 53.7694 26.1348 53.897 25.9213C53.897 25.9178 53.9007 25.9178 53.9007 25.9142C53.8934 25.9142 53.8861 25.9142 53.8788 25.9143C53.521 26.217 53.075 26.2711 52.6066 26.0053C52.5956 25.9982 52.6029 25.9804 52.6175 25.9839C52.8589 26.0511 53.1479 26.1288 53.3964 26.0501C53.517 26.0108 53.6156 25.9502 53.7069 25.879C53.5424 25.929 53.3706 25.9436 53.2096 25.8976C52.8438 25.7881 52.5436 25.5327 52.2069 25.3627C52.1813 25.3485 52.2032 25.3129 52.2288 25.3235C52.4996 25.4581 52.7924 25.6282 53.0923 25.6952C53.1728 25.7129 53.2459 25.7163 53.3154 25.7162C52.7518 25.4222 52.0964 24.8759 51.6059 24.5391C51.6463 24.6386 51.7013 24.7309 51.7819 24.8267C51.8918 24.9545 52.0017 25.0787 52.108 25.21C52.1226 25.2278 52.1007 25.2527 52.0824 25.2349C51.8554 25.0256 51.4929 24.7597 51.3827 24.4435C51.0462 24.3837 50.7133 24.267 50.4242 24.104C49.8497 23.7815 49.4394 23.3593 48.741 23.3072C48.6935 23.3037 48.6934 23.2362 48.7409 23.2325C49.2381 23.1961 49.6625 23.3589 50.087 23.5999C50.5188 23.8444 50.9724 23.9751 51.4334 24.1271C52.2012 24.1472 52.8953 23.8296 53.7142 23.7536C54.2662 23.7029 54.5489 24.4133 54.9257 24.5299C54.9403 24.5263 54.9513 24.5227 54.9659 24.5192C54.9988 24.4978 55.0316 24.4728 55.0682 24.4515C54.8778 24.3345 54.7201 24.0255 54.6431 23.8693C54.4082 23.3721 54.1884 23.0988 53.5415 23.2812C53.198 23.3777 52.9166 23.4457 52.5764 23.3113C52.5544 23.3042 52.5617 23.2686 52.5873 23.2757C53.1031 23.4348 54.027 22.7899 54.4483 23.2832C54.6571 23.5281 54.8303 24.3275 55.2179 24.3623C55.2508 24.3445 55.28 24.3231 55.3129 24.3018C55.1666 24.3056 55.0385 24.2063 54.9761 24.0358C54.9687 24.0109 55.0052 24.0037 55.0126 24.025C55.108 24.2524 55.2543 24.2699 55.437 24.1949C55.4991 24.1308 55.5464 24.0526 55.5646 23.9566C55.608 23.7077 55.5015 23.4484 55.3842 23.2318C55.1494 22.8022 54.8782 22.401 54.596 22.0034C54.574 21.9715 54.6215 21.9394 54.6471 21.9642C55.1414 22.397 55.8297 22.9005 55.9625 23.5827C56.0067 23.8137 55.9779 24.0483 55.8868 24.251C55.8868 24.251 55.8905 24.2475 55.8905 24.251C56.5566 24.6479 57.5104 24.4117 58.2602 24.5882C58.6805 24.4844 59.1193 24.4836 59.5913 24.6961C59.6388 24.7173 59.6134 24.792 59.5658 24.7885C58.1727 24.7269 57.0482 25.6672 55.6994 25.8187C55.6555 25.8259 55.6481 25.7584 55.6883 25.7477ZM61.0913 31.6846C59.2763 30.7636 57.6144 29.6113 55.8504 28.6085C55.8358 28.6014 55.8504 28.5801 55.8613 28.5872C57.6618 29.5295 59.2836 30.7565 61.1095 31.6526C61.1315 31.6632 61.1133 31.6952 61.0913 31.6846ZM62.7853 30.2174C61.9116 30.3361 60.3605 29.8199 59.7489 29.1954C59.2434 28.6809 58.8073 28.0348 58.2325 27.5879C57.4161 26.9531 56.5579 27.5659 55.7238 27.3008C55.6763 27.2867 55.6945 27.212 55.7457 27.2261C56.7845 27.5087 57.4775 26.5265 58.4405 27.3886C59.7075 28.5237 60.8764 30.0429 62.7778 30.1498C62.8144 30.1533 62.8255 30.2102 62.7853 30.2174ZM62.4694 29.3756C62.5206 29.379 62.5207 29.4537 62.4695 29.4537C62.0527 29.458 61.7049 29.1636 61.4448 28.8726C61.4228 28.8478 61.4593 28.8086 61.4849 28.8334C61.7523 29.1102 62.0671 29.3443 62.4694 29.3756ZM62.2677 29.0098C62.3884 29.0629 62.5128 29.1018 62.6299 29.1656C62.6482 29.1762 62.6336 29.2011 62.6153 29.1976C62.4909 29.1516 62.3629 29.1092 62.2421 29.0561C62.2129 29.0383 62.2384 28.9956 62.2677 29.0098ZM62.9878 28.9126C62.9146 28.9092 62.8744 28.895 62.8158 28.8561C62.7719 28.8277 62.8157 28.7565 62.8559 28.7885C62.8962 28.8239 62.9401 28.8452 62.995 28.8522C63.0315 28.8592 63.0243 28.9161 62.9878 28.9126ZM61.4187 26.4416C60.4234 25.9528 59.1084 26.6624 58.0109 26.2768C57.9816 26.2662 57.9925 26.22 58.0254 26.2306C59.1448 26.5628 60.1967 25.971 61.2794 26.225C62.0146 26.3979 62.4182 27.2147 63.1571 27.4516C63.2412 27.4798 63.2086 27.6043 63.1208 27.5831C62.3454 27.3996 62.081 26.7675 61.4187 26.4416ZM63.173 30.3091C63.1254 30.3092 63.1253 30.2381 63.1729 30.238C63.2204 30.2379 63.2205 30.309 63.173 30.3091ZM64.0691 28.367C63.7618 28.3 63.6809 28.0229 63.6439 27.7528C63.5306 27.7815 63.4172 27.771 63.3003 27.7925C63.2491 27.7997 63.227 27.7251 63.2782 27.7179C63.4098 27.6928 63.5451 27.6997 63.673 27.6497C63.7059 27.6354 63.7315 27.6674 63.7352 27.6958C63.7685 27.9374 63.8238 28.1932 64.0981 28.2639C64.1676 28.2815 64.1386 28.3846 64.0691 28.367ZM64.2583 27.862C64.2327 27.8549 64.2436 27.8158 64.2692 27.8229C64.5911 27.9076 64.5042 28.3769 64.6143 28.6042C64.6253 28.6219 64.596 28.6398 64.585 28.622C64.5154 28.5155 64.4823 28.3983 64.4601 28.2775C64.4306 28.1247 64.4339 27.9221 64.2583 27.862ZM64.5236 29.0379C64.509 29.0557 64.4797 29.0309 64.498 29.0131C64.5527 28.949 64.5818 28.8815 64.6182 28.8103C64.6292 28.789 64.6585 28.8067 64.6512 28.828C64.6111 28.9027 64.5783 28.9739 64.5236 29.0379Z" fill="#F9FBE6"/>
<path d="M51.9526 24.4312C52.0185 24.4702 52.0807 24.5092 52.143 24.5481C52.0881 24.5056 52.0331 24.4666 51.9782 24.4311C51.9709 24.4276 51.96 24.4312 51.9526 24.4312Z" fill="#F9FBE6"/>
<path d="M38.9918 48.0048C38.9993 47.9938 39.0069 47.9827 39.0107 47.9753C39.0107 47.9753 39.0106 47.9716 39.0069 47.9716C39.0031 47.9827 38.9955 47.9938 38.9918 48.0048Z" fill="#F9FBE6"/>
<path d="M44.4382 29.1896C44.4265 29.1859 44.4187 29.1859 44.407 29.1821C44.407 29.1859 44.4109 29.1859 44.4109 29.1897C44.4148 29.1973 44.4265 29.2011 44.4265 29.2049C44.4304 29.1973 44.4343 29.1934 44.4382 29.1896Z" fill="#F9FBE6"/>
<path d="M52.6707 29.6153C52.6964 29.6472 52.733 29.7112 52.7734 29.7857C52.7697 29.7573 52.7696 29.7289 52.7659 29.7004C52.7362 29.4126 52.5821 29.1001 52.2384 29.09C52.0482 29.0832 51.8655 29.1226 51.6791 29.155C51.6681 29.155 51.6608 29.155 51.6535 29.1479C51.5695 29.1942 51.4855 29.2406 51.4015 29.2905C51.8657 29.2328 52.3227 29.2107 52.6707 29.6153Z" fill="#F9FBE6"/>
<path d="M39.4802 42.8564C38.8955 43.0458 38.4574 43.4304 38.0011 43.8221C37.9317 43.8826 37.8365 43.7904 37.8985 43.7228C38.0409 43.559 38.1868 43.3775 38.3364 43.1995C38.7342 42.7901 38.8174 42.2355 38.8529 41.6668C38.7691 41.8198 38.634 41.9337 38.477 42.0229C38.4514 42.0371 38.4221 42.0265 38.4075 42.0052C38.3012 41.8632 38.1657 41.7497 38.0558 41.6149C37.892 42.0416 38.0025 42.5248 37.8863 42.9657C37.879 42.9977 37.8242 42.9836 37.8314 42.9516C37.9586 42.4822 37.8407 41.9884 37.9971 41.5261C38.0044 41.5012 38.0446 41.4834 38.0666 41.5082C38.1692 41.6253 38.29 41.7246 38.3962 41.8382C38.561 42.0156 38.6847 41.6387 38.7284 41.5106C38.7502 41.4466 38.816 41.4429 38.8599 41.4678C38.8845 40.8671 38.8908 40.2664 39.1715 39.8039C38.9521 39.8149 38.7327 39.7584 38.5097 39.7659C38.1477 39.7772 37.7785 39.8205 37.4387 39.9383C37.0441 40.0741 36.7665 40.2629 36.5585 40.505C36.4345 40.6722 36.3288 40.8537 36.2414 41.0422C36.2159 41.1026 36.194 41.1667 36.1722 41.2342C36.093 41.9665 35.8969 42.7381 35.6787 43.4316C35.6135 43.7835 35.5117 44.0787 35.3366 44.3491C36.2831 44.0596 36.2449 43.1249 36.7482 42.3955C36.7847 42.3456 36.8578 42.3526 36.8799 42.413C37.0085 42.7824 37.0753 43.3652 37.507 43.5102C37.5216 43.5137 37.5326 43.5243 37.5289 43.5386C37.5218 43.6417 37.5216 43.5315 37.5653 43.4354C37.5763 43.4105 37.6238 43.4282 37.6129 43.4531C37.5947 43.5065 37.5328 43.6559 37.5292 43.6772C37.5219 43.7127 37.4634 43.7057 37.467 43.6702C37.4741 43.5422 37.1631 43.4219 37.0825 43.2763C36.9578 43.0562 36.8806 42.8217 36.7961 42.5873C36.3404 43.3593 36.3053 44.2408 35.271 44.4452C35.1944 44.5484 35.1068 44.6481 35.0046 44.7442C35.063 44.7086 35.1215 44.6836 35.1799 44.6551C35.2712 44.5909 35.3772 44.541 35.4832 44.5515C35.8158 44.4763 36.1778 44.4863 36.5801 44.5354C37.8636 44.686 38.8026 44.3219 39.8584 43.8011C39.8399 43.6661 39.8287 43.5275 39.8357 43.3889C39.8427 43.2076 39.8497 42.9908 39.9225 42.8094C39.7653 42.8026 39.619 42.8099 39.4802 42.8564Z" fill="#F9FBE6"/>
<path d="M37.0201 45.4618C37.0164 45.4618 37.0164 45.4583 37.0127 45.4583C36.6385 46.8131 36.3411 48.221 36.8443 49.5921C37.2043 50.576 37.7027 51.2433 38.3181 51.9389C38.0796 51.4239 37.9763 50.9052 37.9718 50.3863C37.6266 49.5445 37.5665 48.553 37.4516 47.6647C37.4368 47.5474 37.4987 47.3874 37.6119 47.3232C38.1342 47.0202 38.0714 46.6258 37.9096 46.1178C37.8913 46.0646 37.9753 46.0431 37.9937 46.0964C38.126 46.4942 38.5399 46.9591 37.9993 47.2337C37.3527 47.5618 37.7849 48.0338 37.815 48.5064C37.8524 49.0181 37.8789 49.5228 37.9821 50.0202C38.0716 48.9076 38.6035 47.812 39.3111 46.8121C39.2848 46.4034 39.2805 45.984 39.3712 45.5822C39.3784 45.5502 39.3857 45.5146 39.3966 45.4791C38.9913 45.8139 38.4869 45.8787 37.9607 46.0431C37.9278 46.0538 37.9131 46.0041 37.946 45.9934C38.2127 45.897 38.4941 45.8325 38.7572 45.729C39.0312 45.6219 39.243 45.4651 39.4548 45.28C39.4584 45.2693 39.462 45.2586 39.4657 45.2479C39.1405 45.3836 38.775 45.4588 38.4351 45.495C38.0001 45.5455 37.4408 45.6282 37.0201 45.4618Z" fill="#F9FBE6"/>
<path d="M53.2241 30.3754C53.2278 30.3754 53.2278 30.3754 53.2314 30.3754C53.2534 30.3683 53.2716 30.3576 53.2936 30.3504C53.2276 30.2937 53.1727 30.2014 53.1468 30.0699C53.1063 29.8674 53.095 29.6613 53.0763 29.4552C53.039 29.0287 52.684 28.7912 52.2491 28.9341C52.2309 28.9413 52.2162 28.9235 52.2162 28.9093C52.1285 28.9379 52.0444 28.97 51.9604 29.0057C52.2345 28.959 52.5197 28.9621 52.7066 29.1928C52.8202 29.3312 52.8972 29.459 52.9194 29.6367C52.9564 29.9067 52.935 30.184 53.2021 30.347C53.2168 30.3541 53.2205 30.3648 53.2241 30.3754Z" fill="#F9FBE6"/>
<path d="M44.1967 38.8463C44.204 38.8321 44.215 38.8214 44.2223 38.8107C44.0541 38.8501 43.886 38.8859 43.7363 38.9786C43.4112 39.1782 43.207 39.5055 43.0248 39.8257C42.9847 39.8968 42.8749 39.8331 42.915 39.7619C43.0863 39.4417 43.2795 39.1429 43.5533 38.8972C43.7176 38.7476 43.9112 38.6442 44.1085 38.5408C43.3042 38.6132 42.5036 38.6857 41.9452 39.2411C41.9233 39.2625 41.894 39.259 41.8721 39.2448C41.5034 39.5866 41.109 39.9036 40.7842 40.2454C40.7441 40.2881 40.6672 40.2314 40.7037 40.1851C41.0867 39.662 41.5356 39.1565 41.8673 38.5979C41.3965 39.075 40.8158 39.4563 40.1908 39.5604C40.0519 39.582 39.9093 39.5894 39.7594 39.5861C39.1575 40.3868 39.3201 41.4137 39.0401 42.3027C39.2337 42.1957 39.4785 42.1313 39.7344 42.074C40.1657 41.9809 40.6263 41.9623 41.0502 41.8336C41.496 41.6943 41.8356 41.4342 42.2081 41.1706C42.4417 40.9676 42.6864 40.7895 42.7224 40.4446C42.7259 40.3949 42.7991 40.3948 42.8028 40.4445C42.8106 40.7466 42.6357 41.0526 42.3984 41.2804C42.3984 41.3089 42.3912 41.3409 42.3656 41.3658C42.0773 41.6791 41.745 41.9284 41.3577 42.0819C39.9636 43.5664 40.6955 46.0708 41.3494 47.861C41.3493 47.8255 41.3456 47.7864 41.3455 47.7509C41.2529 47.0615 41.1896 46.3543 41.3091 45.6895C41.2494 45.0107 41.1129 44.2575 41.419 43.6705C41.8563 42.8239 42.667 42.2965 42.6762 41.2657C42.6762 41.2302 42.7347 41.2301 42.7347 41.2656C42.7469 41.9694 42.4296 42.4177 42.0247 42.98C41.5542 43.6312 41.5115 44.3137 41.4981 45.0281C41.9058 43.9753 42.61 43.1247 43.4313 42.3449C43.1879 41.1654 43.668 39.7038 44.1967 38.8463Z" fill="#F9FBE6"/>
<path d="M53.3235 28.7473C53.4334 28.875 53.4922 29.0633 53.5327 29.2374C53.5916 29.4825 53.6179 29.845 53.9251 29.9227C54.1007 29.9686 54.2798 29.9718 54.459 29.9964C54.3236 29.8793 54.1917 29.7587 54.0672 29.6274C53.8328 29.3826 53.7737 29.045 53.5941 28.7681C53.5027 28.7576 53.4112 28.7507 53.3235 28.7473Z" fill="#F9FBE6"/>
<path d="M55.7808 30.9965C55.8467 31.0426 55.9235 31.0674 56.0149 31.053C56.0332 31.0494 56.0514 31.0494 56.0697 31.0493C55.9562 30.9571 55.8646 30.8436 55.7986 30.6944C55.7031 30.4777 55.7389 30.0156 55.636 29.7137C55.4933 29.6144 55.3468 29.5187 55.1968 29.4266C55.2811 29.5828 55.3399 29.7569 55.3841 29.9381C55.4835 30.3466 55.5426 30.6842 55.7808 30.9965Z" fill="#F9FBE6"/>
<path d="M53.85 30.147C53.8351 30.1434 53.8203 30.1399 53.8091 30.1363C53.8091 30.1435 53.8054 30.1507 53.8055 30.158C53.8166 30.1543 53.8351 30.1507 53.85 30.147Z" fill="#F9FBE6"/>
<path d="M56.1155 30.0468C56.2 30.2813 56.3247 30.4979 56.5297 30.6681C56.7237 30.8277 56.9288 30.9838 57.1228 31.1469C57.1155 31.1292 57.1081 31.1114 57.1008 31.0972C56.8702 30.9483 56.7381 30.6642 56.6206 30.405C56.4596 30.2915 56.2912 30.1709 56.1155 30.0468Z" fill="#F9FBE6"/>
<path d="M56.9794 30.6282C56.9611 30.6176 56.9428 30.6069 56.9245 30.5963C56.8952 30.5786 56.8623 30.5573 56.833 30.5396C56.855 30.5751 56.877 30.6106 56.899 30.6425C56.9283 30.6887 56.965 30.7313 57.0016 30.7739C56.9942 30.7241 56.9868 30.6779 56.9794 30.6282Z" fill="#F9FBE6"/>
<path d="M53.7625 28.7926C53.9347 29.0588 54.0486 29.3643 54.2976 29.57C54.5026 29.7403 54.704 29.9034 54.8762 30.0951C54.8467 29.9814 54.8246 29.8677 54.7915 29.7576C54.6738 29.349 54.4139 29.1646 54.0844 28.9164C54.0624 28.8987 54.088 28.8738 54.1099 28.8808C53.9929 28.8455 53.8795 28.8173 53.7625 28.7926Z" fill="#F9FBE6"/>
<path d="M54.8789 29.4805C55.022 29.7646 55.1176 30.0666 55.2314 30.3614C55.2424 30.372 55.2571 30.3827 55.2681 30.3969C55.2089 30.0131 55.1826 29.6044 54.9737 29.2849C54.6955 29.1219 54.4101 28.9838 54.1284 28.8883C54.4175 29.0371 54.7285 29.1787 54.8789 29.4805Z" fill="#F9FBE6"/>
<path d="M53.4361 30.2326C53.4983 30.2787 53.6516 30.1292 53.6918 30.1007C53.6991 30.0936 53.7064 30.0971 53.7137 30.0935C53.6003 30.0333 53.5014 29.9446 53.439 29.7955C53.3288 29.5291 53.4046 28.9319 53.1374 28.7439C52.9655 28.7478 52.7974 28.7694 52.6329 28.7981C52.9401 28.8189 53.2073 29.0317 53.2518 29.3764C53.2777 29.5754 53.289 29.778 53.3332 29.9734C53.348 30.0551 53.3665 30.1794 53.4361 30.2326Z" fill="#F9FBE6"/>
<path d="M52.7566 30.5395C52.5514 30.2946 52.5764 29.9427 52.3055 29.737C51.976 29.4817 51.5593 29.5322 51.1716 29.444C51.0766 29.5081 50.9854 29.5793 50.8904 29.6506C50.5115 30.4047 50.9479 31.1824 51.49 31.7679C51.4863 31.7181 51.4789 31.6719 51.4642 31.6257C51.4568 31.6009 51.497 31.5901 51.5044 31.615C51.5227 31.6683 51.5338 31.7145 51.5375 31.7678C51.5412 31.7927 51.5083 31.7927 51.4973 31.775C51.5303 31.8104 51.5633 31.8424 51.5962 31.8779C51.7456 31.5542 51.8511 31.2377 52.1212 30.9671C52.2818 30.8033 52.5154 30.611 52.7566 30.5395ZM51.5401 31.1351C51.5768 31.2133 51.555 31.3128 51.5332 31.3875C51.5223 31.4266 51.4638 31.416 51.4637 31.377C51.4671 31.1957 51.2913 31.0183 51.3239 30.8405C51.3492 30.7054 51.4258 30.588 51.4549 30.4564C51.4694 30.3818 51.3012 30.3821 51.2609 30.3608C50.9498 30.1623 51.1576 29.803 51.3034 29.5646C51.3144 29.5432 51.3546 29.5574 51.3437 29.5823C51.2162 29.8811 51.1035 30.2189 51.5351 30.3283C51.5607 30.3354 51.579 30.3638 51.5717 30.3887C51.5354 30.5167 51.4552 30.6412 51.4261 30.7728C51.4117 30.8972 51.4887 31.025 51.5401 31.1351Z" fill="#F9FBE6"/>
<path d="M51.5247 32.806C51.2474 33.1441 50.6554 33.3122 50.1873 33.2454C50.6413 33.6178 51.1683 33.9333 51.6661 34.2772C51.6329 34.0853 51.6179 33.8863 51.5957 33.7051C51.5623 33.4066 51.5325 33.1045 51.5247 32.806ZM51.4377 33.2326C51.445 33.261 51.456 33.2859 51.4451 33.3179C51.4342 33.3606 51.3648 33.3891 51.3283 33.3999C51.2406 33.4249 51.2773 33.5457 51.2848 33.6167C51.2959 33.7198 51.296 33.7838 51.234 33.8692C51.2194 33.887 51.1901 33.8764 51.1974 33.855C51.2483 33.6808 51.1604 33.5778 51.1601 33.4144C51.1601 33.4001 51.1674 33.3859 51.1783 33.3788C51.2514 33.3396 51.3903 33.3322 51.3609 33.215C51.3424 33.1333 51.3934 32.9946 51.4188 32.9199C51.4298 32.8914 51.4664 32.9056 51.4628 32.9305C51.4519 32.9803 51.423 33.1722 51.4377 33.2326Z" fill="#F9FBE6"/>
<path d="M54.5437 30.1952C54.445 30.1954 54.3426 30.1955 54.2402 30.1957C54.2366 30.1993 54.2366 30.2028 54.2329 30.2028C54.0503 30.3169 53.831 30.3634 53.7217 30.5556C53.5981 30.9787 53.639 31.3909 53.8407 31.7887C53.9361 31.9733 54.0571 32.1615 54.1342 32.3604C54.2911 32.1575 54.4479 31.9476 54.6194 31.7482C54.6267 31.7376 54.634 31.7304 54.6413 31.7198C54.8493 31.4813 55.0793 31.2605 55.3459 31.0966C55.0747 30.7416 54.9607 30.2975 54.5437 30.1952ZM54.0827 32.1614C54.0827 32.1401 54.0826 32.1223 54.0826 32.101C54.0826 32.0904 54.0972 32.0903 54.0972 32.101C54.0972 32.1188 54.0973 32.1401 54.0973 32.1614C54.101 32.1721 54.0827 32.1721 54.0827 32.1614ZM54.2423 31.4006C54.0853 31.5714 54.1917 31.7667 54.1518 31.9623C54.1446 32.0014 54.0824 31.9837 54.0896 31.9446C54.1186 31.7704 53.9939 31.5361 54.1399 31.3865C54.1764 31.3474 54.4684 31.0625 54.2928 31.038C54.2307 31.031 54.1977 31.0204 54.1502 30.9849C53.9195 30.8253 54.2444 30.5156 54.3796 30.4372C54.4088 30.4229 54.4308 30.4619 54.4052 30.4798C54.281 30.5546 53.9965 30.9318 54.3439 30.9632C54.3622 30.9632 54.3805 30.9703 54.3951 30.9809C54.4317 31.0022 54.4428 31.0555 54.4318 31.091C54.3992 31.2226 54.3335 31.3009 54.2423 31.4006Z" fill="#F9FBE6"/>
<path d="M53.1532 33.7912C53.1386 33.8055 53.1276 33.8161 53.113 33.8304C53.124 33.8339 53.135 33.841 53.1313 33.8588C53.1277 33.873 53.1277 33.8872 53.1241 33.9014C53.1205 33.9192 53.0876 33.9193 53.0839 33.9015C53.0802 33.8873 53.0802 33.8766 53.0765 33.8624C52.7662 34.1509 52.4157 34.4145 52.0064 34.5218C52.2333 34.692 52.464 34.8693 52.6946 35.0431C52.6836 35.0111 52.6762 34.9827 52.6579 34.9543C52.6542 34.9472 52.6652 34.9401 52.6725 34.9472C52.7019 34.9933 52.7275 35.043 52.7569 35.0927C52.9033 35.2062 53.0534 35.3197 53.1999 35.4332C53.1623 34.8823 53.2528 34.3384 53.1532 33.7912ZM52.7851 34.4991C52.7521 34.453 52.7374 34.4175 52.7227 34.3606C52.7154 34.3358 52.7556 34.325 52.7629 34.3499C52.7813 34.3925 52.7996 34.4351 52.8216 34.4777C52.829 34.5026 52.7998 34.5204 52.7851 34.4991ZM52.931 34.3212C52.9201 34.3319 52.9018 34.3141 52.9127 34.3034C52.931 34.2785 52.9492 34.2536 52.9674 34.2287C52.9784 34.2109 53.004 34.2286 52.9967 34.2429C52.9639 34.2998 52.9822 34.282 52.931 34.3212Z" fill="#F9FBE6"/>
<path d="M55.1695 34.7187C54.7938 35.2098 54.1397 35.4419 53.5808 35.7095C53.8846 35.9364 54.1958 36.1527 54.5106 36.3583C54.4958 36.2588 54.481 36.1629 54.4333 36.067C54.4223 36.0421 54.4551 36.0207 54.4698 36.0456C54.5358 36.1557 54.5653 36.2693 54.5618 36.3902C54.7448 36.5072 54.9278 36.6206 55.1145 36.7269C55.041 36.5387 55.1283 36.2684 55.1426 36.0835C55.1748 35.6428 55.2105 35.17 55.1695 34.7187ZM54.6778 35.7716C54.623 35.8108 54.6412 35.8036 54.5791 35.8144C54.5426 35.8216 54.5279 35.7718 54.5644 35.7611C54.59 35.7468 54.6155 35.7326 54.6411 35.7219C54.6776 35.6934 54.7179 35.7431 54.6778 35.7716ZM54.725 35.6329C54.681 35.5441 54.6626 35.4588 54.6551 35.3593C54.6551 35.3309 54.6953 35.3344 54.699 35.3592C54.7064 35.4481 54.7322 35.5333 54.7506 35.6222C54.7543 35.6364 54.7324 35.6471 54.725 35.6329ZM54.8122 35.3022C54.7757 35.3058 54.7683 35.2489 54.8048 35.2418C54.9949 35.2059 55.0679 35.1418 55.1188 34.9569C55.1224 34.9427 55.148 34.9462 55.1444 34.964C55.1082 35.1631 55.0316 35.2769 54.8122 35.3022Z" fill="#F9FBE6"/>
<path d="M61.304 32.3699C61.3155 32.6933 61.1371 33.1272 61.0496 33.3087C60.8711 33.6822 60.6232 34.0771 60.2433 34.2768C61.1169 34.1864 61.9753 33.6909 62.3835 32.919C62.4819 32.7304 62.573 32.5384 62.6787 32.3569C62.2401 32.4465 61.7684 32.4402 61.304 32.3699ZM61.0289 33.9982C61.0216 34.0053 61.0143 34.0125 61.007 34.0231C60.9997 34.0374 60.9741 34.0232 60.9814 34.009C60.9996 33.9805 60.9923 33.9805 61.0215 33.9734C61.0398 33.9698 61.0472 33.9946 61.0289 33.9982ZM61.5911 33.4926C61.5473 33.5459 61.4669 33.5816 61.4048 33.6031C61.2404 33.6602 61.1418 33.7243 61.1018 33.9021C61.0982 33.9199 61.0726 33.9164 61.0689 33.8986C61.054 33.7174 61.1708 33.6212 61.3426 33.5712C61.7701 33.4496 61.6815 32.9273 61.7906 32.5859C61.8015 32.5539 61.8454 32.568 61.8381 32.6C61.7729 32.9236 61.8026 33.215 61.5911 33.4926Z" fill="#F9FBE6"/>
<path d="M57.3461 37.6222C57.4083 37.6541 57.4742 37.6824 57.5364 37.7178C57.5803 37.7426 57.7524 37.8845 57.9244 38.0157C57.9682 37.9197 58.0632 37.8875 58.1692 37.8838C58.1214 37.7204 58.0736 37.5605 58.0221 37.4007C58.0111 37.3723 58.0586 37.358 58.0696 37.3864C58.1357 37.564 58.2018 37.738 58.2716 37.9156C58.279 37.9369 58.2644 37.9654 58.2388 37.969C58.1767 37.9798 57.9939 38.0192 58.0599 38.1186C58.1844 38.2072 58.2869 38.2746 58.3161 38.2639C58.3343 38.2354 58.3599 38.2069 58.4001 38.1962C58.3854 38.2033 58.6079 37.8688 58.6699 37.7692C58.834 37.5024 58.9578 37.2001 59.0779 36.912C59.1944 36.631 59.5408 36.0582 59.5511 35.6814C59.0443 36.5139 58.1532 37.077 57.3461 37.6222ZM58.3948 37.2295C58.3473 37.2686 58.2925 37.29 58.2413 37.3257C58.2158 37.3435 58.1901 37.3009 58.2193 37.2866C58.2705 37.2545 58.3253 37.2367 58.3728 37.2011C58.3874 37.1904 58.4094 37.2188 58.3948 37.2295ZM58.5807 36.9235C58.5807 36.9448 58.5442 36.9449 58.5441 36.9235C58.5441 36.9129 58.5441 36.9058 58.5441 36.8951C58.544 36.8702 58.5843 36.8702 58.5843 36.895C58.5806 36.9021 58.5807 36.9128 58.5807 36.9235Z" fill="#F9FBE6"/>
<path d="M33.0828 45.7388C33.4517 45.5427 33.8207 45.3501 34.197 45.1753C34.2846 45.1076 34.3686 45.0364 34.4599 44.9794C35.1598 43.7555 34.8317 42.2065 35.3524 40.9474C35.3524 40.9474 35.3524 40.9474 35.3487 40.9474C35.3451 40.9474 35.3414 40.9474 35.3378 40.9474C35.2354 40.9725 35.1294 40.9691 35.0233 40.9195C34.442 40.9241 34.1208 41.2871 33.5912 41.5902C32.7767 42.0607 31.8812 42.2399 30.985 41.9785C30.5358 42.2458 30.9353 42.828 31.0384 43.2721C31.1342 43.6878 31.1678 44.132 31.1503 44.5585C31.1221 45.1841 31.0208 45.792 30.7365 46.315C30.6638 46.5604 30.5655 46.7951 30.4269 47.0015C30.4379 46.9979 30.4488 46.9943 30.4598 46.9872C30.478 46.9694 30.4926 46.9481 30.5109 46.9303C30.5912 46.859 30.6753 46.8518 30.7484 46.873C31.1174 46.7266 31.4791 46.5625 31.8371 46.3842C32.173 46.0851 32.6332 45.8391 33.0828 45.7388ZM30.6862 46.8127C30.657 46.8625 30.5655 46.8271 30.591 46.7737C30.7877 46.3185 31.0686 45.9377 31.4263 45.5888C31.7803 45.2398 32.1609 45.4311 32.0795 44.8519C32.0277 44.4824 31.8902 43.2067 32.7171 43.5322C32.8817 43.5995 33.4963 43.8437 33.2289 43.5065C33.1959 43.4639 33.1775 43.4035 33.1774 43.3502C33.1805 43.041 33.3264 42.8132 33.5088 42.5641C33.9356 41.9841 34.5637 41.5458 35.1406 41.1148C35.1662 41.0934 35.2028 41.1396 35.1773 41.1609C34.7318 41.5171 34.2681 41.8733 33.8849 42.2969C33.5346 42.6814 33.0527 43.1123 33.5764 43.6196C33.6057 43.648 33.6021 43.6871 33.6058 43.7226C33.6095 43.7617 33.573 43.7938 33.5402 43.8081C33.1675 43.9437 33.0319 43.8018 32.6625 43.7314C32.0042 43.6081 32.3286 45.1358 32.3436 45.3704C32.3474 45.4273 32.2926 45.4664 32.2414 45.4701C31.4518 45.5425 31.0106 46.2221 30.6862 46.8127Z" fill="#F9FBE6"/>
</g>
<defs>
<filter id="filter0_d" x="0.831055" y="0.823242" width="73.76" height="86.6093" filterUnits="userSpaceOnUse" color-interpolation-filters="sRGB">
<feFlood flood-opacity="0" result="BackgroundImageFix"/>
<feColorMatrix in="SourceAlpha" type="matrix" values="0 0 0 0 0 0 0 0 0 0 0 0 0 0 0 0 0 0 127 0"/>
<feOffset dy="4"/>
<feGaussianBlur stdDeviation="2"/>
<feColorMatrix type="matrix" values="0 0 0 0 0 0 0 0 0 0 0 0 0 0 0 0 0 0 0.25 0"/>
<feBlend mode="normal" in2="BackgroundImageFix" result="effect1_dropShadow"/>
<feBlend mode="normal" in="SourceGraphic" in2="effect1_dropShadow" result="shape"/>
</filter>
</defs>
</svg>
