<svg width="74" height="88" viewBox="0 0 74 88" fill="none" xmlns="http://www.w3.org/2000/svg">
<g filter="url(#filter0_d)">
<rect x="4.18115" y="0.631836" width="65.76" height="46.0814" fill="#161616"/>
<path d="M37.4722 79.2411C12.4834 68.8322 4.86615 53.2187 4.18115 46.7131H69.9412C68.2972 66.2299 42.8152 76.3949 37.4722 79.2411Z" fill="#161616"/>
<path d="M32.5386 24.9337C32.5546 24.9496 32.5706 24.9655 32.5866 24.9815C32.5746 24.9615 32.5625 24.9456 32.5545 24.9257C32.5466 24.9297 32.5426 24.9337 32.5386 24.9337Z" fill="#FBE305"/>
<path d="M33.7458 25.7948C33.7507 25.7997 33.7556 25.7997 33.7556 25.8045C33.7556 25.8045 33.7507 25.7997 33.7458 25.7948Z" fill="#FBE305"/>
<path d="M38.6751 26.6408C38.6712 26.6568 38.6672 26.6727 38.6593 26.6887C38.6633 26.6927 38.6633 26.6967 38.6633 26.7007C38.6672 26.6807 38.6712 26.6608 38.6751 26.6408Z" fill="#FBE305"/>
<path d="M40.2272 25.7838C40.223 25.788 40.2188 25.7922 40.2146 25.7922C40.2188 25.7922 40.223 25.788 40.2272 25.7838Z" fill="#FBE305"/>
<path d="M12.8181 11.8628C13.6561 13.862 15.034 13.9794 16.7576 13.1698C18.2299 12.4765 19.679 12.2025 21.3002 12.1717C21.3321 12.1717 21.3481 12.1836 21.3681 12.1996L21.3721 12.1956C20.8963 11.865 20.1493 11.6666 19.4223 11.5321C18.2561 11.4262 17.2457 11.392 16.084 11.5498C15.3734 11.6468 14.818 11.4401 14.1387 11.2216C14.1028 11.2097 14.1187 11.1538 14.1546 11.1617C15.3451 11.4751 16.5348 11.3054 17.7407 11.2754C17.7367 11.2754 17.7327 11.2754 17.7287 11.2754C16.5384 11.0778 15.3201 10.8483 14.1063 10.9262C13.3716 10.9754 12.693 11.0963 12.0624 11.2971C12.1743 11.3089 12.2742 11.3606 12.3662 11.4523C12.5301 11.5558 12.7459 11.6872 12.8181 11.8628Z" fill="#FBE305"/>
<path d="M41.4317 24.9184C41.4277 24.9145 41.4197 24.9145 41.4157 24.9105C41.4038 24.9305 41.3958 24.9464 41.3839 24.9664C41.3998 24.9504 41.4158 24.9344 41.4317 24.9184Z" fill="#FBE305"/>
<path d="M12.6266 11.9939C12.4668 11.9622 12.303 11.9465 12.1433 11.9508C12.327 11.9624 12.5028 11.9941 12.6586 12.0577C12.6466 12.0338 12.6386 12.0138 12.6266 11.9939Z" fill="#FBE305"/>
<path d="M20.5307 12.4521C20.5024 12.4562 20.4741 12.4603 20.4458 12.4603C20.4579 12.4643 20.4701 12.4684 20.4822 12.4724C20.4984 12.4643 20.5145 12.4602 20.5307 12.4521Z" fill="#FBE305"/>
<path d="M11.2691 12.1479C11.2611 12.1439 11.2492 12.14 11.2491 12.132C11.2012 12.148 11.1574 12.1681 11.1095 12.1881C11.1614 12.1721 11.2172 12.16 11.2691 12.1479Z" fill="#FBE305"/>
<path d="M11.3283 11.9002C11.6355 11.716 12.0384 11.5156 12.3781 11.6348C12.346 11.5989 12.3101 11.5671 12.2741 11.5352C11.8265 11.3682 11.3958 11.6964 11.005 12.0165C11.1128 11.9724 11.2205 11.9323 11.3283 11.9002Z" fill="#FBE305"/>
<path d="M39.2237 25.2615C39.2237 25.2657 39.2195 25.2699 39.2195 25.2741C39.2195 25.2741 39.2195 25.2741 39.2195 25.2699C39.2237 25.2657 39.2237 25.2615 39.2237 25.2615Z" fill="#FBE305"/>
<path d="M12.0596 12.2073C12.0356 12.2034 12.0157 12.2034 11.9917 12.1994C12.0077 12.2074 12.0237 12.2153 12.0396 12.2233C12.0476 12.2193 12.0516 12.2113 12.0596 12.2073Z" fill="#FBE305"/>
<path d="M12.5502 11.8622C12.5382 11.8462 12.5302 11.8303 12.5222 11.8143C12.5182 11.8143 12.5142 11.8143 12.5142 11.8143C12.2304 11.687 11.9749 11.7234 11.7235 11.8157C11.987 11.7753 12.2666 11.7868 12.5502 11.8622Z" fill="#FBE305"/>
<path d="M12.2126 12.2347C12.1843 12.2266 12.156 12.2226 12.1277 12.2146C12.152 12.2267 12.1803 12.2388 12.2045 12.2508C12.2086 12.2468 12.2086 12.2387 12.2126 12.2347Z" fill="#FBE305"/>
<path d="M61.2673 11.9745C61.4229 11.9104 61.5985 11.8781 61.7822 11.8658C61.6185 11.8621 61.4588 11.8784 61.2991 11.9106C61.2872 11.9306 61.2792 11.9506 61.2673 11.9745Z" fill="#FBE305"/>
<path d="M62.2056 11.7257C61.9499 11.6343 61.6943 11.5988 61.415 11.727C61.411 11.727 61.407 11.7271 61.407 11.7271C61.395 11.743 61.3871 11.759 61.3791 11.775C61.6585 11.7027 61.934 11.6902 62.2056 11.7257Z" fill="#FBE305"/>
<path d="M61.8 12.1296C61.7717 12.1337 61.7434 12.1418 61.7151 12.1459C61.7192 12.15 61.7232 12.158 61.7273 12.1661C61.7475 12.154 61.7757 12.1458 61.8 12.1296Z" fill="#FBE305"/>
<path d="M61.9304 12.1175C61.9064 12.1215 61.8865 12.1215 61.8626 12.1256C61.8706 12.1295 61.8746 12.1375 61.8825 12.1415C61.8985 12.1295 61.9144 12.1255 61.9304 12.1175Z" fill="#FBE305"/>
<path d="M62.8131 12.0997C62.7692 12.0798 62.7212 12.0599 62.6773 12.044C62.6733 12.052 62.6613 12.056 62.6533 12.06C62.7093 12.0719 62.7612 12.0838 62.8131 12.0997Z" fill="#FBE305"/>
<path d="M61.6459 11.4508C61.61 11.4828 61.5741 11.5148 61.5422 11.5468C61.8815 11.4305 62.2851 11.6254 62.5929 11.8086C62.7008 11.8404 62.8087 11.8801 62.9126 11.9278C62.5247 11.6091 62.0928 11.2784 61.6459 11.4508Z" fill="#FBE305"/>
<path d="M35.3008 26.6466C35.3048 26.6666 35.3088 26.6825 35.3089 26.7065C35.3129 26.7025 35.3128 26.6985 35.3128 26.6945C35.3088 26.6785 35.3048 26.6626 35.3008 26.6466Z" fill="#FBE305"/>
<path d="M34.19 9.55335C34.178 9.53741 34.166 9.52147 34.158 9.50153C34.166 9.51748 34.174 9.53343 34.178 9.5454C34.178 9.54939 34.186 9.54937 34.19 9.55335Z" fill="#FBE305"/>
<path d="M30.9878 17.1138C31.1651 18.044 30.704 19.2507 31.4999 20.008C31.5279 20.008 31.5558 20.0039 31.5838 19.9959C31.6276 19.9639 31.6755 19.9438 31.7394 19.9397C31.8551 19.8916 31.9669 19.8595 32.1029 19.9791C32.2988 20.1464 32.3871 20.4138 32.4674 20.6533C32.4754 20.6812 32.4315 20.6933 32.4235 20.6653C32.3593 20.4897 32.243 20.1825 32.0631 20.0949C32.1071 20.1428 32.1471 20.1986 32.1832 20.2624C32.3394 20.5417 32.356 20.8891 32.3486 21.2365C32.4736 21.959 32.4947 22.6418 32.5638 23.3206C32.6264 22.5697 32.6172 21.855 32.5081 21.0964C32.5081 21.0925 32.5121 21.0885 32.5161 21.0924C32.6928 21.7111 32.7458 22.3459 32.715 22.9889C32.6995 23.3124 32.6602 23.6359 32.6527 23.9513C32.6567 23.9713 32.6608 23.9913 32.6648 24.0112C32.7045 23.8554 32.7521 23.6996 32.7878 23.5518C32.7957 23.5198 32.8477 23.5277 32.8437 23.5597C32.8242 23.8392 32.7888 24.1228 32.7493 24.4024C32.7534 24.4264 32.7614 24.4463 32.7654 24.4703C32.8051 24.3224 32.8568 24.1746 32.8845 24.0308C32.8845 24.0268 32.8924 24.0268 32.8925 24.0308C32.8888 24.2464 32.8852 24.482 32.8377 24.7017C32.8578 24.7576 32.8778 24.8135 32.8979 24.8734C32.9097 24.7815 32.9255 24.6896 32.9453 24.6017C32.9493 24.5738 32.9972 24.5817 32.9933 24.6096C32.9775 24.7494 32.9698 24.8892 32.9541 25.029C32.9661 25.0569 32.9781 25.0888 32.9901 25.1168C32.998 25.0569 33.0019 24.993 33.0098 24.9331C33.0137 24.8891 33.0776 24.889 33.0777 24.9329C33.0819 25.0647 33.0861 25.2005 33.0864 25.3322C33.1104 25.3841 33.1384 25.432 33.1625 25.4839C33.3822 25.5554 33.6337 25.523 33.8535 25.6224C34.0733 25.7259 34.1216 25.9175 34.1419 26.1251C34.2099 26.2008 34.3019 26.2566 34.3659 26.3563C34.446 26.476 34.4862 26.6356 34.5064 26.7873C34.7265 27.0425 34.9146 27.3057 35.0589 27.589C35.0749 27.6169 35.035 27.641 35.015 27.6131C34.5226 26.9271 33.8348 26.3332 33.135 25.7634L33.131 25.7634C33.131 25.7634 33.131 25.7634 33.127 25.7594C32.6352 25.357 32.1393 24.9665 31.6994 24.5679C30.9475 23.8864 30.2286 23.8037 29.3575 23.4498C29.3736 23.5217 29.3897 23.5856 29.4017 23.6295C29.454 23.837 29.5102 24.0406 29.5785 24.2401C29.5825 24.2401 29.5904 24.2401 29.5944 24.2441C29.7983 24.3915 30.0301 24.459 30.2698 24.5224C30.4296 24.5661 30.5693 24.5579 30.7291 24.5696C30.9607 24.5812 30.9452 24.8927 31.0692 25.0162C31.1092 25.0521 31.0614 25.1081 31.0174 25.0842C30.9135 25.0365 30.8655 24.9647 30.8453 24.8489C30.801 24.5894 30.6335 24.7175 30.4936 24.6738C30.19 24.5825 29.8944 24.547 29.6346 24.3718C29.6787 24.4835 29.7308 24.5953 29.7989 24.703C29.8509 24.7867 29.915 24.8665 29.975 24.9422C30.9142 25.4358 31.7661 26.197 32.4103 26.9626C32.5303 27.0583 32.6462 27.1619 32.7582 27.2655C33.0141 27.4687 33.2541 27.7119 33.4223 27.9792C33.4543 28.019 33.4863 28.0549 33.5183 28.0948C33.4381 27.8753 33.326 27.6838 33.1819 27.4964C33.1659 27.4764 33.1978 27.4564 33.2138 27.4724C33.3698 27.6278 33.5258 27.7953 33.622 27.9988C33.6581 28.0786 33.6862 28.1824 33.7183 28.2941C33.7661 28.1782 33.8498 28.0862 33.9775 28.074C34.1452 28.0538 34.2971 28.1574 34.3214 28.329C34.3375 28.4288 34.2977 28.5008 34.1899 28.497C34.146 28.497 34.1459 28.4252 34.1898 28.4291C34.3416 28.4448 34.1575 28.2574 34.1056 28.2455C34.0097 28.2217 33.914 28.2818 33.8902 28.3777C33.8505 28.5375 33.9026 28.6492 33.9827 28.7728C33.9947 28.7808 34.0067 28.7928 34.0187 28.7967C34.3504 28.9359 34.3749 29.2514 34.4752 29.5627C34.4793 29.5786 34.4753 29.5866 34.4713 29.5986C34.6596 29.9776 34.8241 30.3966 35.0518 30.4561C35.1796 30.4879 35.3195 30.5395 35.4434 30.6112C35.4194 30.5913 35.3994 30.5674 35.3754 30.5474C35.3434 30.5195 35.2954 30.4637 35.3033 30.4158C35.319 30.248 35.6297 29.8043 35.3501 29.7528C34.7349 29.6381 35.3009 29.0421 35.1726 28.7029C35.1645 28.679 35.2005 28.6629 35.2125 28.6869C35.3247 28.9023 35.0543 29.5697 35.3139 29.6251C35.4657 29.6568 35.5576 29.6846 35.6457 29.8162C35.7578 29.9837 35.5824 30.1478 35.5227 30.2916C35.471 30.4155 35.6749 30.5669 35.743 30.6546C35.823 30.7623 35.8354 30.9779 35.8555 31.1017C35.8596 31.1256 35.8476 31.1416 35.8357 31.1576C35.8638 31.2454 35.8839 31.3372 35.904 31.429C35.9235 31.1295 35.939 30.85 35.8666 30.5426C35.7982 30.2472 36.1338 30.3505 36.0973 30.0471C36.0933 30.0231 36.1332 30.019 36.1372 30.043C36.1695 30.2266 36.1614 30.1627 36.1777 30.3464C36.1777 30.3664 36.1618 30.3784 36.1458 30.3784C35.9062 30.4068 36.0913 31.1811 36.0876 31.3688C36.0762 31.7162 36.1007 32.0556 36.1093 32.399C36.1846 32.0475 36.2758 31.6959 36.2992 31.3445C36.2991 31.3125 36.347 31.3125 36.3471 31.3444C36.3642 32.0272 36.2177 32.7343 36.0911 33.4093C36.0811 34.5594 35.9393 35.7496 35.9051 36.736C35.9012 36.7919 35.8213 36.792 35.8172 36.7361C35.7873 35.5861 35.8013 34.4401 35.7514 33.2901C35.7432 33.1424 35.7469 32.9827 35.7546 32.8189C35.7387 32.8549 35.7228 32.8908 35.7069 32.9268C35.5119 33.3305 35.4604 33.5701 35.5411 34.0332C35.5733 34.2128 35.5417 34.3646 35.498 34.5324C35.5061 34.5843 35.4942 34.6283 35.4143 34.6324C35.2746 34.6406 35.4267 34.852 35.4308 34.9518C35.4309 35.0117 35.3431 35.0119 35.339 34.952C35.3348 34.8522 35.1948 34.6927 35.2545 34.5888C35.2943 34.5168 35.4342 34.5525 35.43 34.4766C35.4615 34.1691 35.3172 33.8499 35.2807 33.5465C35.2489 33.6144 35.229 33.6903 35.2252 33.7822C35.2214 33.902 35.2296 34.0138 35.2018 34.1296C35.1979 34.1496 35.1659 34.1497 35.1579 34.1297C35.0936 33.8982 35.0811 33.5987 35.2005 33.3789C35.1925 33.3669 35.1805 33.359 35.1725 33.347C35.0649 33.459 35.0253 33.6268 35.0336 33.8145C35.0337 33.8664 34.9618 33.8625 34.9577 33.8146C34.9414 33.6309 34.973 33.3993 35.0845 33.2433C35.0765 33.2354 35.0685 33.2234 35.0565 33.2154C34.9807 33.2675 34.9209 33.3355 34.9011 33.4233C34.8932 33.4633 34.8333 33.4474 34.8412 33.4075C34.857 33.3036 34.9167 33.2157 34.9925 33.1477C34.5444 32.6613 34.0965 32.2787 33.3021 32.3799C32.7072 32.4568 32.2245 32.7331 31.7378 33.0294C32.0571 32.8931 32.3963 32.8087 32.7357 32.7602C32.8115 32.7481 33.8937 32.7702 33.8381 32.954C34.0049 32.4146 34.6056 33.4278 34.6538 33.5595C34.6618 33.5795 34.6259 33.5955 34.6179 33.5756C34.5698 33.4838 34.0733 32.7299 33.9662 33.1135C33.9543 33.1614 33.8905 33.1975 33.8425 33.1656C33.4387 32.8788 32.8717 32.9037 32.3409 33.0524C33.8343 33.0658 35.098 34.1218 34.7817 35.9632C34.5642 37.2294 33.9912 38.3924 33.9974 39.7062C34.0032 40.7085 34.0967 41.6906 34.1583 42.6888C34.2322 43.8627 34.4857 45.0163 34.4717 46.1783C34.5392 45.9466 34.5867 45.7069 34.5743 45.4674C34.5743 45.4634 34.5783 45.4634 34.5823 45.4674C34.6826 45.7387 34.6392 46.0303 34.5997 46.3139C34.5919 46.3778 34.58 46.4537 34.5602 46.5336C34.8868 46.0419 34.8617 45.407 34.6251 44.8084C34.6171 44.7885 34.649 44.7724 34.661 44.7924C34.9014 45.2392 35.0061 45.7621 34.9191 46.2694C34.8164 46.8846 34.3217 47.1929 34.179 47.7721C34.0957 48.1077 33.8846 48.4515 33.4933 48.4681C33.3695 48.4723 33.2737 48.4485 33.1977 48.4087C33.3499 48.668 33.6618 48.8991 33.9212 48.8148C34.1327 48.7466 34.3042 48.5985 34.5077 48.5063C34.6034 48.4622 34.6912 48.4501 34.7711 48.45C34.8868 48.3699 34.9944 48.2859 35.0701 48.1659C35.2215 47.9301 35.3049 47.6704 35.2844 47.3869C35.2844 47.3629 35.3243 47.3549 35.3283 47.3828C35.3808 47.6862 35.3414 48.0377 35.1862 48.3095C35.1463 48.3774 35.0906 48.4654 35.0228 48.5454C35.0428 48.5653 35.0589 48.5972 35.0749 48.6251C35.1268 48.6131 35.1787 48.601 35.2305 48.581C35.2345 48.581 35.2345 48.581 35.2385 48.5809C35.2545 48.5729 35.2705 48.5729 35.2865 48.5769C35.3941 48.4689 35.4897 48.3569 35.5094 48.1652C35.5133 48.1332 35.5612 48.1331 35.5613 48.1651C35.5616 48.3328 35.49 48.5326 35.3785 48.6925C34.8594 51.0414 36.17 53.8464 36.8449 56.2371C36.8489 56.2451 36.8489 56.2531 36.8529 56.2611C36.9293 56.5325 36.9976 56.7999 37.054 57.0594C37.1094 56.7997 37.1769 56.5321 37.2523 56.2604C37.2523 56.2524 37.2562 56.2444 37.2602 56.2364C37.927 53.8434 39.2279 51.0339 38.7008 48.6868C38.5927 48.5273 38.5205 48.3277 38.5162 48.164C38.5162 48.1321 38.5641 48.132 38.5682 48.1639C38.5884 48.3516 38.6845 48.4672 38.7925 48.5749C38.8084 48.5748 38.8244 48.5748 38.8404 48.5788C38.8444 48.5788 38.8444 48.5788 38.8484 48.5788C38.8963 48.6026 38.9483 48.6105 39.0042 48.6224C39.0201 48.5944 39.036 48.5625 39.056 48.5425C38.988 48.4627 38.9319 48.375 38.8918 48.3071C38.7317 48.0359 38.6911 47.6845 38.7425 47.381C38.7465 47.357 38.7864 47.3609 38.7864 47.3849C38.767 47.6684 38.8513 47.9239 39.0034 48.1632C39.0795 48.2829 39.1874 48.3665 39.3034 48.4462C39.3832 48.4461 39.4711 48.4579 39.567 48.5017C39.7668 48.5932 39.9428 48.7406 40.1546 48.8081C40.4143 48.8915 40.7213 48.6594 40.8766 48.3996C40.8008 48.4396 40.705 48.4638 40.5812 48.46C40.1899 48.4447 39.9776 48.1016 39.8932 47.7663C39.7485 47.1876 39.2568 46.8809 39.1479 46.2662C39.0592 45.7632 39.1661 45.2359 39.4009 44.7883C39.4129 44.7683 39.4449 44.7842 39.4369 44.8042C39.2023 45.4036 39.1795 46.0385 39.5077 46.5291C39.4916 46.4493 39.4795 46.3774 39.4674 46.3096C39.427 46.0261 39.3826 45.7347 39.482 45.463C39.482 45.459 39.4899 45.459 39.4899 45.463C39.4784 45.7026 39.5267 45.9461 39.599 46.1776C39.581 45.0116 39.8306 43.8611 39.9005 42.683C39.9587 41.6846 40.0488 40.6981 40.0511 39.6998C40.0529 38.3861 39.4759 37.225 39.2541 35.9596C38.9314 34.1153 40.1915 33.0549 41.6849 33.0404C41.1576 32.8935 40.5865 32.8705 40.1837 33.1587C40.1398 33.1908 40.0759 33.1589 40.0598 33.107C39.9513 32.7239 39.4575 33.4754 39.4097 33.5714C39.3978 33.5914 39.3658 33.5794 39.3737 33.5555C39.4214 33.4236 40.0187 32.4083 40.1873 32.9471C40.1311 32.7635 41.2172 32.7417 41.2891 32.7495C41.6286 32.7969 41.9721 32.8802 42.2878 33.0154C41.8002 32.7207 41.3165 32.442 40.7214 32.3712C39.9266 32.2727 39.48 32.6568 39.0336 33.1447C39.1096 33.2125 39.1696 33.3002 39.1858 33.404C39.1939 33.4439 39.134 33.46 39.1259 33.4201C39.1058 33.3323 39.0418 33.2645 38.9698 33.2127C38.9619 33.2207 38.9539 33.2327 38.9419 33.2407C39.054 33.3963 39.0863 33.6238 39.0707 33.8115C39.0668 33.8595 38.9909 33.8636 38.9948 33.8117C39.0025 33.624 38.9583 33.4603 38.8543 33.3447C38.8463 33.3567 38.8343 33.3647 38.8264 33.3767C38.9465 33.5961 38.9351 33.8956 38.8716 34.1273C38.8676 34.1473 38.8357 34.1474 38.8276 34.1274C38.7995 34.0117 38.8073 33.8998 38.8031 33.78C38.8029 33.6882 38.7828 33.6124 38.7468 33.5445C38.7114 33.8521 38.5682 34.1718 38.6006 34.4792C38.5968 34.5511 38.7365 34.5189 38.7765 34.5867C38.8366 34.6864 38.6971 34.8464 38.6933 34.9502C38.6934 35.0101 38.6015 35.0103 38.6014 34.9504C38.6013 34.8506 38.7527 34.6387 38.6169 34.6309C38.537 34.6271 38.5249 34.5832 38.5328 34.5312C38.4886 34.3636 38.4564 34.2119 38.4881 34.0322C38.5711 33.5688 38.5148 33.3293 38.3184 32.9263C38.3024 32.8904 38.2864 32.8545 38.2664 32.8186C38.2706 32.9823 38.2749 33.142 38.2712 33.2898C38.2252 34.4359 38.2471 35.5859 38.2172 36.736C38.2173 36.7919 38.1334 36.7921 38.1293 36.7362C38.0917 35.7539 37.9459 34.5642 37.9319 33.4102C37.799 32.7356 37.654 32.029 37.6688 31.3461C37.6688 31.3142 37.7127 31.3141 37.7168 31.3461C37.7413 31.6974 37.8338 32.0487 37.9102 32.3999C37.9176 32.0565 37.941 31.717 37.9285 31.3696C37.9202 31.186 38.1065 30.407 37.8669 30.3795C37.8509 30.3795 37.8309 30.3635 37.8309 30.3476C37.8465 30.1638 37.8386 30.2238 37.8703 30.044C37.8742 30.0201 37.9142 30.024 37.9102 30.0479C37.8748 30.3475 38.21 30.2431 38.1427 30.5427C38.0753 30.8503 38.0878 31.1298 38.1082 31.4293C38.1281 31.3374 38.1519 31.2455 38.1757 31.1576C38.1597 31.1456 38.1516 31.1257 38.1556 31.1017C38.1753 30.9739 38.187 30.7583 38.2666 30.6543C38.3344 30.5663 38.5378 30.4142 38.4857 30.2905C38.4255 30.1469 38.2495 29.9875 38.3611 29.8156C38.4447 29.6876 38.5405 29.6555 38.6922 29.6233C38.9516 29.567 38.6789 28.9006 38.7904 28.6847C38.8023 28.6648 38.8423 28.6767 38.8303 28.7007C38.7031 29.0403 39.2752 29.6343 38.6564 29.7512C38.377 29.8036 38.6892 30.2503 38.7055 30.414C38.7096 30.4619 38.6617 30.5178 38.6338 30.5458C38.6099 30.5659 38.59 30.5898 38.5661 30.6099C38.6937 30.5378 38.8334 30.4856 38.9571 30.4535C39.1846 30.3932 39.3476 29.9736 39.5347 29.5939C39.5307 29.5819 39.5267 29.574 39.5306 29.558C39.6299 29.2503 39.6493 28.9309 39.9845 28.7905C40.0005 28.7865 40.0085 28.7745 40.0204 28.7665C40.1001 28.6386 40.1518 28.5267 40.1116 28.371C40.0875 28.2712 39.9955 28.2155 39.8957 28.2396C39.8478 28.2517 39.6645 28.4357 39.8162 28.4234C39.8601 28.4194 39.8602 28.4913 39.8163 28.4913C39.7085 28.4955 39.6684 28.4277 39.6842 28.3238C39.7079 28.1521 39.8595 28.048 40.0272 28.0677C40.155 28.0834 40.239 28.1711 40.2871 28.2869C40.3189 28.179 40.3467 28.0711 40.3825 27.9912C40.474 27.7874 40.6334 27.6194 40.7889 27.4634C40.8048 27.4474 40.8328 27.4673 40.8209 27.4873C40.6774 27.6752 40.566 27.8671 40.4865 28.0869C40.5183 28.0469 40.5502 28.0069 40.5821 27.9669C40.7493 27.6991 40.9845 27.4591 41.2398 27.255C41.3514 27.147 41.467 27.047 41.5866 26.9469C42.2322 26.1791 43.0775 25.415 44.015 24.9182C44.0748 24.8383 44.1385 24.7623 44.1903 24.6783C44.254 24.5704 44.3058 24.4625 44.3535 24.3466C44.0942 24.5228 43.7988 24.5592 43.4954 24.6516C43.3518 24.6957 43.1878 24.5682 43.1444 24.8279C43.1246 24.9437 43.0768 25.0157 42.973 25.0638C42.9292 25.0838 42.8812 25.032 42.921 24.996C43.0446 24.872 43.0321 24.5605 43.2597 24.5481C43.4194 24.5399 43.5592 24.5436 43.7188 24.4994C43.9583 24.4351 44.1898 24.3669 44.3932 24.2188C44.3972 24.2148 44.4051 24.2147 44.4091 24.2147C44.4767 24.015 44.5322 23.8112 44.5838 23.6035C44.5957 23.5595 44.6076 23.4956 44.6274 23.4237C43.7535 23.7846 43.0349 23.8657 42.2893 24.5498C41.8548 24.9499 41.3603 25.342 40.8658 25.7422C40.8658 25.7422 40.8658 25.7462 40.8618 25.7462C40.8618 25.7462 40.8578 25.7462 40.8578 25.7502C40.164 26.3224 39.4782 26.9186 38.9842 27.6063C38.9643 27.6303 38.9283 27.6103 38.9402 27.5824C39.0835 27.3026 39.2707 27.0347 39.4899 26.7788C39.5096 26.627 39.5493 26.4672 39.629 26.3473C39.6967 26.2474 39.7844 26.1913 39.8562 26.1193C39.8798 25.9116 39.9234 25.7199 40.1428 25.6157C40.3663 25.5115 40.6139 25.543 40.8334 25.4747C40.8613 25.4228 40.8851 25.3748 40.909 25.3229C40.9088 25.1911 40.9125 25.0553 40.9163 24.9235C40.9162 24.8796 40.9801 24.8795 40.9842 24.9234C40.9883 24.9833 40.9964 25.0472 41.0045 25.1071C41.0164 25.0791 41.0283 25.0471 41.0403 25.0191C41.024 24.8794 41.0198 24.7396 40.9996 24.5999C40.9956 24.572 41.0435 24.5679 41.0475 24.5919C41.0636 24.6797 41.0838 24.7715 41.0959 24.8633C41.1158 24.8074 41.1356 24.7514 41.1555 24.6915C41.1072 24.476 41.1028 24.2404 41.0984 24.0207C41.0984 24.0168 41.1064 24.0167 41.1064 24.0207C41.1346 24.1644 41.1868 24.3121 41.227 24.4598C41.2349 24.4358 41.2389 24.4158 41.2428 24.3919C41.2064 24.1124 41.17 23.829 41.1456 23.5495C41.1415 23.5175 41.1974 23.5094 41.2015 23.5414C41.2376 23.6891 41.2858 23.8447 41.326 24.0004C41.33 23.9804 41.3339 23.9604 41.3379 23.9405C41.3334 23.621 41.2889 23.2976 41.2724 22.9782C41.2393 22.3354 41.2902 21.7004 41.4648 21.0811C41.4648 21.0771 41.4728 21.0771 41.4728 21.0851C41.3663 21.844 41.3555 22.5588 41.4247 23.3094C41.4954 22.6304 41.5102 21.9476 41.6327 21.2246C41.6242 20.8732 41.6395 20.5298 41.7948 20.25C41.8306 20.186 41.8705 20.13 41.9143 20.0821C41.7388 20.1702 41.6235 20.4779 41.5559 20.6537C41.544 20.6817 41.5 20.6698 41.512 20.6418C41.5874 20.4021 41.6788 20.1384 41.8742 19.9663C42.0098 19.8503 42.1216 19.882 42.2375 19.9258C42.3014 19.9297 42.3493 19.9535 42.3933 19.9814C42.4213 19.9893 42.4492 19.9933 42.4772 19.9932C43.2705 19.2332 42.8053 18.028 42.9794 17.0973C43.1891 15.9589 43.7774 14.4085 44.7903 13.5882C43.1785 14.4615 42.1915 16.4038 42.3385 18.2964C42.3712 18.7236 42.2522 19.187 41.7532 19.2637C40.4916 19.4496 40.6454 22.9713 40.3876 24.01C40.0863 25.2444 38.9329 25.6137 38.7355 26.9598C38.7638 27.1634 38.7882 27.383 38.7126 27.5588C38.6092 27.8066 38.2498 27.8112 38.3022 28.0666C38.423 28.6574 38.1002 29.0853 37.5855 29.3297C37.5496 29.3458 37.5136 29.2939 37.5535 29.2739C37.8886 29.0816 38.1477 28.8416 38.187 28.4382C38.2144 28.1427 38.0107 28.1191 38.0103 27.8914C38.0101 27.7716 38.0738 27.6597 38.1736 27.5997C38.393 27.4715 38.4846 27.3316 38.5282 27.1638C38.5158 26.9162 38.4595 26.6688 38.5269 26.4171C38.5309 26.4051 38.5389 26.3931 38.5389 26.3811C38.5389 26.3771 38.5349 26.3731 38.5348 26.3651C38.5862 26.0416 38.7255 25.7898 38.8968 25.514C39.1158 25.1622 39.2709 24.8065 39.398 24.427C39.5872 22.9611 39.3572 21.5679 39.0472 20.067C38.7089 18.4304 39.833 17.2265 39.0433 15.4908C38.7066 14.7447 38.4691 13.6349 38.5952 12.6564C38.6264 12.1772 38.7613 11.6778 39.0322 11.3099C39.0322 11.306 39.0322 11.3059 39.0322 11.302C39.0561 11.266 39.084 11.242 39.1119 11.21C39.1278 11.19 39.1438 11.166 39.1637 11.146C39.4347 10.862 39.526 10.5065 39.6052 10.139C39.6052 10.119 39.6091 10.095 39.6091 10.0751C39.5135 10.227 39.4099 10.3709 39.3024 10.5148C38.9878 11.0425 38.6133 11.5263 38.3827 12.1257C37.7625 13.74 38.2521 15.1687 38.5583 16.7615C38.5939 16.5498 38.5816 16.3262 38.4973 16.0947C38.4933 16.0827 38.5132 16.0747 38.5173 16.0907C38.6498 16.5177 38.7584 17.0087 38.5634 17.3884C38.5278 17.5602 38.4562 17.728 38.3766 17.9118C38.0425 18.6831 38.2716 19.5652 38.4247 20.3476C38.4288 20.3755 38.3889 20.3916 38.3808 20.3596C38.2401 19.8248 38.1354 19.2939 38.0945 18.7429C37.9766 19.8252 38.3737 20.8508 38.4515 21.9768C38.4555 21.9807 38.4595 21.9847 38.4635 21.9927C38.4958 22.2203 38.5161 22.4399 38.5325 22.6635C38.5325 22.6674 38.5325 22.6674 38.5325 22.6714C38.5448 22.8711 38.5492 23.0707 38.5295 23.2744C38.6641 22.5714 38.5868 21.7449 38.5499 21.1899C38.5459 21.138 38.6217 21.1419 38.6258 21.1898C38.7151 22.0083 38.8933 23.4655 38.3116 24.2491C38.2997 24.2731 38.2957 24.3011 38.2838 24.3251C38.224 24.405 38.1603 24.485 38.0965 24.561C37.8614 24.8529 37.6941 25.1087 37.6548 25.4482C37.6627 25.4282 37.6707 25.4122 37.6786 25.3923C37.7503 25.2644 37.8859 25.1803 38.0056 25.1002C38.3366 24.876 38.5719 24.7079 38.723 24.3083C38.7309 24.2844 38.7709 24.2923 38.763 24.3202C38.62 24.7917 38.3448 24.9878 37.9779 25.2839C37.7028 25.504 37.7953 25.8872 37.7519 26.1908C37.7242 26.3785 37.5928 26.5624 37.4533 26.7024C37.4255 26.7903 37.3976 26.8742 37.3778 26.9661C37.478 27.1696 37.5063 27.3812 37.5387 27.6127C37.5467 27.6646 37.4549 27.6808 37.4429 27.6249C37.4187 27.4891 37.3825 27.3574 37.3184 27.2417C37.3025 27.2617 37.2785 27.2817 37.2506 27.2898C37.2187 27.2978 37.1947 27.3058 37.1708 27.3139C37.1549 27.3379 37.1349 27.3539 37.103 27.3499C37.063 27.346 37.0351 27.346 37.0071 27.3421C36.9832 27.3461 36.9512 27.3462 36.9113 27.3503C36.8794 27.3543 36.8594 27.3344 36.8434 27.3144C36.8194 27.3065 36.7954 27.3025 36.7634 27.2906C36.7355 27.2827 36.7115 27.2667 36.6955 27.2428C36.6318 27.3587 36.5961 27.4906 36.5723 27.6264C36.5645 27.6783 36.4726 27.6665 36.4765 27.6145C36.504 27.3829 36.5316 27.1712 36.6351 26.9674C36.615 26.8756 36.5869 26.7878 36.5588 26.7039C36.4188 26.5604 36.2867 26.381 36.2584 26.1933C36.214 25.8899 36.3052 25.5104 36.0293 25.2873C35.6614 24.9924 35.3855 24.7972 35.241 24.3263C35.2329 24.2983 35.2728 24.2903 35.2809 24.3142C35.4333 24.7093 35.6652 24.8806 36.001 25.1036C36.1169 25.1833 36.2528 25.2669 36.3289 25.3946C36.341 25.4145 36.345 25.4305 36.353 25.4504C36.3125 25.1111 36.1443 24.8558 35.9082 24.5647C35.8442 24.489 35.7802 24.4092 35.7202 24.3294C35.7081 24.3015 35.7001 24.2776 35.6921 24.2536C35.1077 23.4719 35.2809 22.0141 35.3674 21.1954C35.3713 21.1475 35.4471 21.1433 35.4432 21.1953C35.4083 21.7544 35.3298 22.5771 35.4708 23.2797C35.4505 23.08 35.4541 22.8804 35.4658 22.6767C35.4657 22.6727 35.4657 22.6727 35.4657 22.6687C35.4773 22.4491 35.5009 22.2254 35.5325 21.9977C35.5325 21.9897 35.5404 21.9857 35.5444 21.9817C35.6184 20.8555 36.0079 19.8326 35.8903 18.7467C35.8553 19.2978 35.7484 19.8291 35.6095 20.3644C35.6016 20.3924 35.5577 20.3804 35.5656 20.3525C35.712 19.5696 35.9421 18.6867 35.6054 17.9166C35.5252 17.733 35.453 17.5654 35.4168 17.3938C35.2205 17.0148 35.3274 16.5234 35.4585 16.0959C35.4624 16.0839 35.4824 16.0879 35.4785 16.0999C35.395 16.3356 35.3794 16.5593 35.4197 16.7668C35.7244 15.173 36.2092 13.7466 35.5795 12.1305C35.3468 11.5319 34.9747 11.0493 34.6543 10.5228C34.5462 10.3832 34.4422 10.2396 34.3461 10.0881C34.3501 10.108 34.3501 10.132 34.3502 10.1559C34.4347 10.5232 34.5231 10.8784 34.7952 11.1615C34.8112 11.1774 34.8272 11.2013 34.8432 11.2213C34.8712 11.2532 34.8992 11.2771 34.9232 11.317C34.9272 11.321 34.9232 11.321 34.9232 11.325C35.1954 11.6919 35.328 12.1868 35.3648 12.6659C35.4942 13.644 35.2605 14.7585 34.9264 15.5058C34.1427 17.2442 35.2708 18.4442 34.9382 20.082C34.6333 21.584 34.4081 22.978 34.6022 24.4432C34.7347 24.8263 34.887 25.1774 35.1073 25.5324C35.2794 25.8077 35.4236 26.055 35.4721 26.3824C35.4721 26.3903 35.4681 26.3904 35.4681 26.3983C35.4721 26.4103 35.4801 26.4223 35.4802 26.4343C35.5485 26.6857 35.493 26.9294 35.4814 27.177C35.5256 27.3446 35.6217 27.4842 35.8376 27.6116C35.9375 27.6714 36.0016 27.7831 36.0018 27.9029C36.0022 28.1305 35.7986 28.1548 35.827 28.4502C35.8677 28.8535 36.1276 29.0926 36.4634 29.2837C36.4993 29.3036 36.4675 29.3596 36.4315 29.3397C35.916 29.097 35.5918 28.6703 35.7146 28.0791C35.7661 27.8274 35.4067 27.82 35.3024 27.5726C35.2262 27.3971 35.2498 27.1774 35.2774 26.9737C35.0755 25.6243 33.9248 25.2629 33.6152 24.0296C33.3579 22.9918 33.4996 19.4695 32.2334 19.288C31.7342 19.217 31.6136 18.754 31.6448 18.3227C31.7853 16.4296 30.7917 14.4907 29.1769 13.6229C30.1846 14.4278 30.7743 15.9762 30.9878 17.1138Z" fill="#FBE305"/>
<path d="M52.6226 12.1181C54.2439 12.1433 55.6939 12.4124 57.1686 13.1007C58.891 13.9043 60.2725 13.7822 61.1036 11.7802C61.1752 11.6043 61.3906 11.4722 61.5541 11.3681C61.6458 11.2761 61.7496 11.224 61.8573 11.2118C61.2261 11.0173 60.547 10.8946 59.8122 10.848C58.5982 10.7742 57.3766 11.0079 56.191 11.2096C56.187 11.2096 56.183 11.2096 56.179 11.2096C57.385 11.2355 58.5753 11.4011 59.7647 11.0836C59.8046 11.0716 59.8167 11.1315 59.7808 11.1435C59.1023 11.3603 58.5476 11.5729 57.8367 11.4783C56.6744 11.3245 55.6602 11.3622 54.4983 11.472C53.7718 11.609 53.0254 11.806 52.5508 12.1422C52.5508 12.1422 52.5508 12.1462 52.5548 12.1462C52.5747 12.1302 52.5947 12.1182 52.6226 12.1181Z" fill="#FBE305"/>
<path d="M34.7434 25.2656C34.7434 25.2698 34.7434 25.2698 34.7434 25.274C34.7434 25.274 34.7434 25.2782 34.7476 25.2782C34.7476 25.274 34.7476 25.2698 34.7434 25.2656Z" fill="#FBE305"/>
<path d="M39.7597 9.49195C39.7478 9.50793 39.7358 9.52392 39.7279 9.54389C39.7319 9.53989 39.7359 9.53989 39.7438 9.53988C39.7478 9.52391 39.7558 9.50792 39.7597 9.49195Z" fill="#FBE305"/>
<path d="M53.4824 12.4081C53.4541 12.4041 53.4258 12.4001 53.3975 12.4001C53.4136 12.4082 53.4298 12.4122 53.446 12.4203C53.4581 12.4162 53.4702 12.4122 53.4824 12.4081Z" fill="#FBE305"/>
<path d="M37.0561 26.9832C37.0521 26.9833 37.0521 26.9833 37.0561 26.9832C37.0359 26.9712 37.0116 26.9591 36.9914 26.951C36.9672 26.9632 36.947 26.9713 36.9268 26.9835C36.9471 27.0158 36.9714 27.044 36.9916 27.0723C37.0118 27.0439 37.036 27.0156 37.0561 26.9832Z" fill="#FBE305"/>
<path d="M47.6064 30.3868C47.5864 30.3469 47.5703 30.303 47.5543 30.2591C47.2504 30.0281 46.9186 29.825 46.5471 29.7378C46.5512 29.7617 46.5592 29.7897 46.5632 29.8136C46.9348 29.9527 47.2945 30.1398 47.6064 30.3868Z" fill="#FBE305"/>
<path d="M46.5169 23.9197C46.4969 23.9037 46.4769 23.8878 46.4609 23.8679C46.461 23.8878 46.461 23.9118 46.465 23.9317C46.481 23.9277 46.4969 23.9237 46.5169 23.9197Z" fill="#FBE305"/>
<path d="M49.6095 34.2047C49.6055 34.1967 49.5975 34.1928 49.5935 34.1848C49.5694 34.097 49.5413 34.0132 49.5132 33.9294C49.4731 33.8176 49.429 33.7099 49.3849 33.5981C49.1122 32.9677 48.712 32.4093 48.3356 31.815C48.0753 31.4001 47.8509 30.9493 47.6465 30.4944C47.6385 30.4944 47.6305 30.4944 47.6225 30.4905C47.3067 30.2474 46.955 30.1042 46.5954 29.9571C46.6315 30.0489 46.6835 30.1327 46.7755 30.1884C47.0313 30.3357 47.3308 30.3632 47.5707 30.5345C47.6027 30.5584 47.5748 30.6103 47.5388 30.5904C47.3789 30.4869 47.1991 30.4153 47.0154 30.3677C46.9195 30.3439 46.7916 30.3162 46.6798 30.2804C46.9085 30.9549 47.1533 31.6173 47.4539 32.2677C47.4739 32.3156 47.498 32.3635 47.522 32.4074C47.7023 32.7425 47.8865 33.0776 48.0668 33.4167C48.7434 34.4258 49.2402 35.4033 49.6016 36.5687C50.0352 37.9576 49.8456 39.1479 49.6643 40.5538C49.6604 40.5898 49.6005 40.5938 49.6044 40.5539C49.7812 38.8605 49.619 37.4392 49.1455 36.0504C49.2259 36.3737 49.2903 36.705 49.3269 37.0484C49.4853 38.5935 49.537 40.8575 48.8171 42.5199C49.1796 42.0002 49.4542 41.4287 49.6131 40.9452C49.625 40.9093 49.6769 40.9251 49.669 40.9611C49.4073 42.0717 48.5364 44.1696 47.199 44.3436C47.1112 44.3557 47.0233 44.3638 46.9355 44.368C46.5523 44.4285 46.1369 44.3973 45.7254 44.2982C45.1502 44.1834 44.6147 43.9487 44.1709 43.59C44.1549 43.5781 44.1349 43.5661 44.1189 43.5542C43.815 43.3231 43.591 43.0639 43.4228 42.7807C43.4107 42.7608 43.3987 42.7408 43.3867 42.7169C43.2705 42.5054 43.1863 42.278 43.13 42.0425C43.114 42.0066 43.0979 41.9746 43.0859 41.9387C42.813 41.1725 42.7959 40.4697 42.8863 39.6629C42.8903 39.627 42.9502 39.6229 42.9462 39.6628C42.931 40.1181 42.9637 40.5653 43.0523 41.0004C43.0601 40.8726 43.0759 40.7408 43.0916 40.609C43.1425 40.0299 43.3053 39.4745 43.524 38.9391C43.516 38.9271 43.516 38.9151 43.5239 38.8991C44.1322 37.3248 44.6687 35.8104 45.0652 34.1646C45.2872 33.2418 45.254 32.4791 45.2206 31.6486C45.124 31.1736 44.9675 30.7226 44.7072 30.2958C44.571 30.0684 44.391 29.881 44.199 29.7136C44.179 29.6977 44.163 29.6818 44.143 29.6658C44.0991 29.63 44.0591 29.5941 44.0151 29.5582C43.7632 29.355 43.4833 29.1718 43.1835 29.0006C42.8399 28.8574 42.5003 28.7422 42.1408 28.7029C42.4405 28.8022 42.7282 28.9295 42.9004 29.1888C43.0885 29.472 43.3402 29.5434 43.592 29.6907C43.676 29.7385 43.7281 29.8662 43.7362 29.958C43.7566 30.2096 44.1685 30.5163 44.3884 30.6956C44.5564 30.8351 44.5849 31.2024 44.6132 31.3821C44.7062 32.0488 44.4079 32.7761 44.2413 33.4073C44.2294 33.4432 44.1734 33.4274 44.1814 33.3914C44.3122 32.8122 44.4669 32.2449 44.5138 31.6498C44.5685 30.9349 43.8813 30.7205 43.6289 30.2138C43.3884 29.727 43.249 29.9069 42.961 29.6039C42.6969 29.3249 43.0365 29.4321 42.5088 29.0617C42.2769 28.8983 41.9454 28.843 41.6577 28.7397C41.3025 28.8481 40.9553 29.0004 40.6243 29.2126C40.6841 29.1926 40.748 29.1765 40.8119 29.1644C40.8238 29.1604 40.8279 29.1763 40.8159 29.1803C40.5964 29.2646 40.397 29.4047 40.2175 29.5487C40.1976 29.5648 40.1817 29.5847 40.1657 29.6007C40.5966 29.3724 41.1035 29.2717 41.5585 29.1312C41.5865 29.1231 41.5945 29.163 41.5706 29.1751C41.0039 29.3997 40.4292 29.5723 39.9587 29.9645C40.2898 29.7523 40.6529 29.5839 41.0322 29.5833C41.0602 29.5832 41.0562 29.6232 41.0323 29.6272C40.7169 29.6677 40.4815 29.8118 40.2582 29.9799C41.4554 29.5426 42.6813 29.5485 43.5222 30.8608C44.2268 31.9618 44.1057 33.5233 43.6926 34.7779C43.8558 34.5101 44.0031 34.2263 44.0904 33.9027C44.1023 33.8587 44.1702 33.8786 44.1583 33.9225C43.9203 34.8613 43.3426 35.5891 43.0766 36.504C43.0647 36.54 43.0527 36.5719 43.0448 36.6079C43.0528 36.6119 43.0608 36.6158 43.0568 36.6278C43.0369 36.6718 43.0171 36.7157 42.9972 36.7557C42.9733 36.8316 42.9495 36.9075 42.9257 36.9794C42.9734 36.9035 43.0172 36.8275 43.065 36.7556C43.0929 36.7036 43.1168 36.6557 43.1446 36.6037C43.1606 36.5797 43.2045 36.5956 43.1926 36.6236C43.1329 36.7714 43.0773 36.9193 42.9937 37.0552C42.9897 37.0632 42.9857 37.0632 42.9777 37.0672C42.3253 38.5139 42.0682 39.9119 42.0749 41.5331C42.0864 43.5577 43.1428 44.8497 44.7455 45.6775C46.2757 46.186 48.0077 45.5481 49.3035 44.3679C49.7976 43.7561 50.1798 43.1046 50.3858 42.1658C50.683 40.8196 50.5407 39.3464 50.3987 37.9889C50.2727 36.7113 50.0269 35.4299 49.6095 34.2047Z" fill="#FBE305"/>
<path d="M53.5314 27.4376C53.1764 27.6738 52.7932 27.7583 52.402 27.8548C52.2624 27.899 52.1267 27.9392 51.9909 27.9713C51.967 27.9794 51.9391 27.9874 51.9151 27.9954C51.9071 27.9994 51.8991 27.9955 51.8912 27.9955C50.9491 28.2047 50.0266 28.1424 48.7926 28.0726C48.1975 28.0377 47.6183 27.895 47.0589 27.7082C47.039 27.7203 47.015 27.7243 46.9911 27.7283C46.8474 27.8084 46.7557 27.8845 46.5601 27.9008C46.3724 27.9171 46.2207 27.9053 46.0488 27.8298C45.7811 27.7064 45.6448 27.3912 45.5245 27.1119C45.5045 27.092 45.4845 27.072 45.4764 27.0361C45.1767 26.8809 44.8809 26.7217 44.5692 26.5944C43.4104 26.1212 42.2652 26.6303 41.388 27.3825C41.2366 27.5665 41.1012 27.7703 40.9697 27.9702C40.898 28.0782 40.8503 28.1861 40.8106 28.2939C41.2449 27.7621 41.7432 27.2661 42.4381 27.2929C43.0531 27.3158 43.2639 26.8642 43.7748 26.6916C44.0661 26.5953 44.694 27.1532 44.8897 27.1968C44.9177 27.2008 44.9058 27.2407 44.8778 27.2368C44.4105 27.1457 43.9621 26.5116 43.4439 26.9996C43.2007 27.2277 43.1132 27.4634 42.7699 27.5159C42.1192 27.6089 41.7677 27.5496 41.2893 28.0416C41.0222 28.3136 40.8391 28.6253 40.588 28.8893C40.5362 28.9852 40.4525 29.0692 40.3648 29.1333C41.4137 28.3888 42.8147 28.007 44.0127 28.0688C46.345 28.1926 49.8421 29.9916 52.196 28.8056C52.7343 28.3454 53.2486 27.8694 53.7149 27.3455C53.7508 27.3055 53.7827 27.2655 53.8146 27.2255C53.8106 27.2255 53.8106 27.2295 53.8066 27.2295C53.7109 27.3015 53.6232 27.3736 53.5314 27.4376Z" fill="#FBE305"/>
<path d="M46.4946 29.5386C46.4987 29.5586 46.5027 29.5746 46.5107 29.5945C46.8902 29.6977 47.218 29.9088 47.514 30.1678C47.4899 30.1159 47.4699 30.0601 47.4458 30.0082C47.1818 29.7571 46.8661 29.5819 46.4946 29.5386Z" fill="#FBE305"/>
<path d="M42.9797 33.4855C42.9797 33.4895 42.9838 33.4975 42.9838 33.5015C42.9997 33.5174 43.0157 33.5293 43.0317 33.5453C43.0157 33.5253 42.9957 33.5054 42.9797 33.4855Z" fill="#FBE305"/>
<path d="M46.7004 23.8674C46.5965 23.7917 46.5124 23.684 46.4443 23.5684C46.4444 23.6043 46.4485 23.6442 46.4485 23.6802C46.5046 23.7519 46.5566 23.8277 46.6286 23.8875C46.6525 23.8795 46.6765 23.8754 46.7004 23.8674Z" fill="#FBE305"/>
<path d="M25.4089 16.6843C28.3157 18.8996 28.3285 24.0548 27.2719 27.2871C27.4474 27.2109 27.619 27.1308 27.7906 27.0506C27.7945 27.0386 27.7945 27.0306 27.7985 27.0186C27.7985 26.9947 27.8344 26.9946 27.8344 27.0186C27.8345 27.0226 27.8345 27.0226 27.8345 27.0266C27.9621 26.9664 28.0938 26.9063 28.2215 26.8422C28.9827 23.6104 29.3018 18.7502 26.4984 16.351C23.1832 13.5136 19.5444 15.2648 16.6093 17.53C16.6093 17.534 16.6093 17.538 16.6053 17.538C15.3496 18.81 13.4469 19.9633 11.6222 20.1141C10.2288 20.2283 8.31139 19.8323 8.04492 18.1276C7.79056 16.4989 8.02698 14.6376 9.21482 13.3937C9.5935 12.9977 10.0281 12.5897 10.5107 12.2854C10.7101 12.1133 11.025 11.7893 11.36 11.5572C9.98339 12.1545 8.86702 13.1627 7.96301 14.5898C8.09856 14.4618 8.23011 14.3298 8.32169 14.1779C8.33762 14.1539 8.37758 14.1698 8.36964 14.1978C8.25435 14.4975 8.05111 14.7414 7.81989 14.9654C7.54082 15.2334 7.13408 15.5656 7.40649 16.0762C7.39848 16.0603 7.44252 16.1281 7.48259 16.2039C7.51835 16.1 7.55011 15.9961 7.58188 15.8922C7.58585 15.8803 7.60184 15.8842 7.60186 15.8962C7.59428 16.1318 7.57074 16.3834 7.51924 16.6231C7.47653 17.334 7.42639 18.3643 7.75884 18.9547C7.76284 18.9587 7.75885 18.9627 7.75887 18.9707C8.19857 19.2375 8.83435 19.7395 9.10651 20.1065C10.2752 21.6618 12.8172 20.719 14.4328 19.7499C15.5336 18.9534 16.6103 18.097 17.8111 17.46C20.1803 15.8028 22.518 14.4771 25.4089 16.6843Z" fill="#FBE305"/>
<path d="M66.1162 14.8656C65.8842 14.6464 65.6801 14.3992 65.5638 14.0999C65.5518 14.072 65.5957 14.0559 65.6117 14.0798C65.7078 14.2314 65.8358 14.367 65.9718 14.4905C65.0629 13.0665 63.9431 12.0621 62.5644 11.4695C62.9002 11.7005 63.2162 12.0274 63.4162 12.1948C63.8999 12.4975 64.3358 12.904 64.7159 13.2987C65.904 14.5426 66.1468 16.403 65.902 18.0286C65.6413 19.7342 63.7253 20.1407 62.3315 20.0273C60.5063 19.8827 58.5956 18.7359 57.3396 17.4682C57.3356 17.4643 57.3356 17.4603 57.3356 17.4603C54.3927 15.2051 50.7519 13.4624 47.4465 16.3152C44.6514 18.7239 44.9831 23.579 45.7593 26.8122C45.8872 26.8719 46.0191 26.9315 46.147 26.9952C46.147 26.9912 46.147 26.9912 46.147 26.9872C46.1469 26.9632 46.1829 26.9632 46.1829 26.9871C46.1869 26.9991 46.1869 27.0071 46.191 27.0191C46.3628 27.0987 46.5346 27.1782 46.7065 27.2538C45.6388 24.0251 45.6339 18.8699 48.5332 16.6447C51.4165 14.4316 53.7587 15.7493 56.1335 17.3904C57.3365 18.0233 58.4162 18.876 59.5236 19.6688C61.1425 20.6323 63.6838 21.5624 64.8471 20.007C65.122 19.6392 65.7521 19.135 66.1909 18.8667C66.1909 18.8627 66.1909 18.8587 66.1909 18.8507C66.5173 18.2592 66.4676 17.233 66.4225 16.5223C66.3702 16.2828 66.3458 16.0353 66.3374 15.7957C66.3374 15.7837 66.3533 15.7797 66.3573 15.7916C66.3855 15.8914 66.4216 15.9952 66.4577 16.1029C66.4975 16.027 66.5413 15.959 66.5334 15.975C66.804 15.4634 66.4001 15.1327 66.1162 14.8656Z" fill="#FBE305"/>
<path d="M49.2644 21.6752C49.1808 21.7952 49.0931 21.9111 48.9935 22.0191C48.6905 22.3431 48.2788 22.0842 48.1478 22.5197C48.0525 22.8274 47.945 23.0671 47.5895 22.9639C47.4297 22.9203 47.3224 23.2199 47.1947 23.288C47.0232 23.3762 46.8595 23.4164 46.6878 23.4407C46.7639 23.5643 46.856 23.68 46.9639 23.7756C47.9696 23.3865 48.699 22.6066 49.2644 21.6752Z" fill="#FBE305"/>
<path d="M46.4367 23.3659C46.4569 23.3618 46.473 23.3618 46.4932 23.3577C46.473 23.3294 46.4527 23.2971 46.4365 23.2689C46.4366 23.3012 46.4366 23.3335 46.4367 23.3659Z" fill="#FBE305"/>
<path d="M49.7426 20.7724C49.9296 20.3768 50.0966 19.9692 50.2477 19.5696C50.3229 19.1941 50.4141 18.7986 50.5332 18.4111C50.4018 18.6229 50.2544 18.8268 50.107 19.0307C49.6449 19.6585 49.2506 20.2901 48.8724 20.9696C48.3031 21.9888 47.5335 22.5891 46.4359 22.9064C46.4359 22.9304 46.436 22.9544 46.436 22.9783C46.5041 23.09 46.5522 23.2217 46.6123 23.3334C46.9397 23.2689 47.231 23.1606 47.4021 22.793C47.418 22.761 47.4539 22.7609 47.4819 22.7729C47.9934 22.9916 48.0362 22.3167 48.2434 22.0488C48.2593 22.0288 48.2952 22.0248 48.3112 22.0407C48.9189 22.455 49.4757 21.1642 49.6787 20.7685C49.6906 20.7405 49.7266 20.7525 49.7426 20.7724Z" fill="#FBE305"/>
<path d="M46.5642 23.456C46.5362 23.4601 46.5043 23.4601 46.4763 23.4602C46.5684 23.5998 46.6605 23.7314 46.7884 23.843C46.8204 23.8309 46.8563 23.8189 46.8882 23.8069C46.7802 23.7152 46.6802 23.6116 46.5922 23.4999C46.5882 23.4879 46.5762 23.472 46.5642 23.456Z" fill="#FBE305"/>
<path d="M45.7878 27.1954C45.856 27.3271 45.9321 27.4587 46.044 27.5664C46.276 27.7856 46.5714 27.7172 46.8508 27.6608C46.8468 27.6528 46.8388 27.6449 46.8348 27.6369C46.651 27.5693 46.4672 27.5017 46.2874 27.4262C46.1196 27.3586 45.9517 27.279 45.7878 27.1954Z" fill="#FBE305"/>
<path d="M27.4849 23.4974C27.4569 23.4975 27.425 23.4935 27.397 23.4936C27.3851 23.5056 27.3771 23.5216 27.3651 23.5336C27.2815 23.6455 27.1778 23.7495 27.0702 23.8415C27.1021 23.8535 27.1341 23.8654 27.1701 23.8773C27.3017 23.7693 27.3973 23.6373 27.4849 23.4974Z" fill="#FBE305"/>
<path d="M27.0021 23.8137C27.1097 23.7137 27.2014 23.6018 27.277 23.4778C27.1053 23.4542 26.9415 23.4105 26.7697 23.327C26.6418 23.2633 26.5334 22.96 26.3738 23.0042C26.0146 23.1086 25.9063 22.8692 25.814 22.5619C25.6774 22.1269 25.2666 22.3872 24.9666 22.0642C24.8665 21.9566 24.7745 21.8369 24.6904 21.7173C25.2591 22.6467 25.9951 23.4241 27.0021 23.8137Z" fill="#FBE305"/>
<path d="M41.7385 54.8672C41.4389 54.7839 41.1111 54.6167 40.8672 54.4255C40.8352 54.4016 40.8631 54.3496 40.8991 54.3695C41.055 54.4531 41.2267 54.5007 41.4025 54.5444C41.3985 54.5404 41.3985 54.5404 41.3945 54.5364C41.2544 54.3569 41.2859 54.0614 41.1419 53.9059C40.8618 53.6109 40.4982 53.4678 40.4854 53.0006C40.4726 52.5174 40.7716 52.2214 41.1627 52.077C41.2425 52.0409 41.3183 52.0088 41.3822 51.9808C41.5338 51.9126 41.6536 51.9004 41.7534 51.9242C41.1375 51.3623 40.288 51.9906 39.6842 51.4566C39.4082 51.2135 39.2956 50.7784 39.0277 50.5592C39.0277 50.5712 39.0238 50.5792 39.0238 50.5912C39.0159 50.679 39.0081 50.7629 38.9963 50.8508C39.0366 51.0624 39.1168 51.2619 39.197 51.4614C39.3213 51.7607 39.581 51.8241 39.8803 51.7477C39.9083 51.7397 39.9283 51.7836 39.9004 51.7956C39.6211 51.9399 39.3655 51.9004 39.1414 51.6771C39.0214 51.5575 38.9613 51.4139 38.9331 51.2622C38.9212 51.3181 38.9093 51.374 38.8974 51.43C38.9416 51.5417 38.9697 51.6535 39.0418 51.7572C39.0578 51.7811 39.0179 51.8131 39.0019 51.7892C38.9498 51.7214 38.9058 51.6456 38.8697 51.5658C38.8578 51.6177 38.8499 51.6736 38.838 51.7256C38.846 51.7295 38.854 51.7295 38.858 51.7375C38.8861 51.7774 38.8901 51.7894 38.9061 51.8373C38.9302 51.9011 38.8384 51.9292 38.8064 51.8814C38.8064 51.8814 38.8064 51.8814 38.8064 51.8774C38.7033 52.3128 38.5723 52.7523 38.4332 53.1878C38.625 53.2194 38.7408 53.2232 38.9166 53.3107C39.1524 53.4261 39.3643 53.5695 39.6438 53.569C39.6798 53.569 39.7357 53.5889 39.7597 53.6248C39.9799 53.9359 39.9007 54.3433 40.4875 54.2345C40.5035 54.2305 40.5115 54.2584 40.4956 54.2624C40.1842 54.3428 39.8566 54.2515 39.7722 53.9162C39.7039 53.6488 39.5243 53.741 39.3325 53.6454C39.2126 53.5858 39.0967 53.5221 38.9808 53.4584C38.7809 53.3509 38.6052 53.3552 38.3935 53.3196C38.2505 53.7591 38.0955 54.1946 37.9445 54.6262C38.0206 54.7259 38.1365 54.7896 38.1846 54.9093C38.2528 55.0689 38.2411 55.2166 38.2174 55.3844C38.2095 55.4323 38.1296 55.4205 38.1335 55.3726C38.1452 55.2048 38.1647 54.9572 37.9809 54.8657C37.9409 54.8458 37.909 54.8299 37.881 54.806C37.718 55.2734 37.5591 55.7329 37.4201 56.1844C37.4241 56.1884 37.4281 56.1884 37.4321 56.1924C37.5121 56.2721 37.5162 56.332 37.5204 56.4438C37.5286 56.5716 37.4967 56.6275 37.5289 56.7552C37.5611 56.875 37.701 57.0065 37.7771 57.1142C37.9412 57.3575 37.6704 57.7773 37.5869 58.001C37.571 58.041 37.5071 58.0251 37.523 57.9852C37.6303 57.6695 37.8653 57.3177 37.5933 57.0307C37.5253 56.9589 37.4533 56.8872 37.4251 56.7874C37.393 56.6876 37.4007 56.5358 37.3487 56.4361C37.2812 56.6718 37.2177 56.9035 37.1702 57.1312C37.1583 57.1951 37.0784 57.1873 37.0504 57.1434C37.0225 57.1874 36.9466 57.1955 36.9306 57.1316C36.8783 56.9041 36.818 56.6726 36.7497 56.4371C36.6979 56.537 36.7062 56.6888 36.6744 56.7887C36.6426 56.8885 36.5749 56.9605 36.5031 57.0325C36.2361 57.3205 36.4683 57.6715 36.5766 57.9868C36.5927 58.0267 36.5248 58.0468 36.5128 58.0029C36.4285 57.7794 36.1563 57.3606 36.3196 57.1167C36.3913 57.0088 36.5348 56.8767 36.5665 56.7569C36.5983 56.6251 36.5702 56.5732 36.578 56.4454C36.5858 56.3336 36.5897 56.2737 36.6654 56.1937C36.6694 56.1897 36.6734 56.1897 36.6774 56.1857C36.5408 55.7387 36.3803 55.2797 36.2118 54.8088C36.1839 54.8288 36.152 54.8489 36.1121 54.8689C35.9285 54.9571 35.9489 55.2046 35.9612 55.3763C35.9653 55.4242 35.8854 55.4363 35.8774 55.3884C35.8531 55.2207 35.8449 55.073 35.9085 54.9132C35.9562 54.7973 36.0679 54.7292 36.1476 54.6292C35.9951 54.1982 35.8387 53.7632 35.6942 53.3242C35.4826 53.3605 35.3069 53.3528 35.1074 53.465C34.9917 53.5291 34.876 53.5932 34.7563 53.6533C34.5648 53.7494 34.385 53.6579 34.3175 53.9256C34.2342 54.2611 33.907 54.3575 33.5954 54.2742C33.5794 54.2703 33.5833 54.2423 33.6033 54.2463C34.1945 54.3531 34.1139 53.9459 34.329 53.6341C34.3529 53.6021 34.4088 53.578 34.4447 53.5779C34.7242 53.5775 34.9356 53.4333 35.171 53.3171C35.3466 53.229 35.4584 53.2248 35.65 53.1925C35.5055 52.7575 35.377 52.3185 35.2724 51.8834C35.2724 51.8834 35.2724 51.8874 35.2684 51.8874C35.2366 51.9354 35.1447 51.9076 35.1685 51.8437C35.1844 51.7957 35.1884 51.7837 35.2163 51.7437C35.2202 51.7358 35.2282 51.7357 35.2362 51.7317C35.2241 51.6798 35.2121 51.624 35.204 51.5721C35.1722 51.652 35.1284 51.7279 35.0726 51.7959C35.0527 51.8199 35.0167 51.788 35.0326 51.764C35.1043 51.6641 35.1321 51.5522 35.1758 51.4363C35.1637 51.3805 35.1516 51.3246 35.1436 51.2687C35.1159 51.4205 35.0562 51.5643 34.9366 51.6803C34.7134 51.9043 34.4579 51.9407 34.1781 51.8014C34.1501 51.7855 34.17 51.7455 34.198 51.7535C34.4976 51.8328 34.7571 51.7685 34.8804 51.4648C34.9599 51.265 35.0394 51.0652 35.079 50.8535C35.0668 50.7657 35.0587 50.6818 35.0506 50.594C35.0505 50.582 35.0465 50.574 35.0465 50.5621C34.7793 50.7821 34.6643 51.2216 34.3932 51.4616C33.7911 51.9938 32.9395 51.3723 32.3255 51.9364C32.4293 51.9162 32.5451 51.924 32.697 51.9916C32.7609 52.0195 32.8368 52.0513 32.9168 52.0871C33.3083 52.2302 33.6083 52.5252 33.5972 53.0084C33.586 53.4756 33.2189 53.62 32.9438 53.9159C32.7964 54.0719 32.8288 54.3674 32.6934 54.5473C32.6894 54.5513 32.6894 54.5513 32.6854 54.5553C32.857 54.5111 33.0286 54.4629 33.1882 54.3787C33.2281 54.3587 33.2522 54.4106 33.2203 54.4346C32.973 54.6227 32.6499 54.7949 32.3505 54.8793C32.0791 54.9556 32.0079 55.3231 31.9764 55.5828C32.0163 55.5667 32.0562 55.5547 32.0961 55.5466C32.1759 55.5265 32.2598 55.5224 32.3516 55.5382C32.767 55.5854 33.2027 55.8362 33.4736 55.4804C33.5015 55.4444 33.5574 55.4123 33.6014 55.4482C33.8571 55.5556 34.0727 55.5193 34.2441 55.3592C34.2998 55.2593 34.3956 55.1873 34.4953 55.1152C34.5032 55.1072 34.5112 55.0992 34.5192 55.0912C34.5232 55.0872 34.5232 55.0912 34.5272 55.0912C34.5631 55.0632 34.5949 55.0352 34.6268 55.0072C34.6428 54.9912 34.6708 55.0111 34.6548 55.0311C34.5433 55.1791 34.4318 55.3549 34.2882 55.471C34.1487 55.611 33.9971 55.6951 33.7855 55.7154C33.7815 55.7154 33.5897 55.6559 33.5738 55.6799C33.5419 55.7318 33.4901 55.7718 33.4422 55.8039C33.4982 55.8237 33.5501 55.8476 33.6061 55.8675C33.682 55.8953 33.7619 55.9111 33.8418 55.931C33.9975 55.9227 34.1412 55.8945 34.2968 55.8064C34.4603 55.7143 34.6159 55.5982 34.7514 55.4662C34.7753 55.4422 34.8113 55.4741 34.7954 55.4981C34.6998 55.65 34.5205 55.842 34.317 55.9781C34.1815 56.138 34.0619 56.2461 34.0783 56.4776C34.0866 56.6334 34.1228 56.805 34.0831 56.9568C34.0197 57.2125 33.8682 57.3964 33.6728 57.5405C33.7327 57.5324 33.7926 57.5323 33.8525 57.5522C34.0323 57.6158 34.1401 57.5597 34.2598 57.5116C34.5547 57.2076 35.1695 57.1107 35.0648 56.5918C35.0568 56.5598 35.1047 56.5438 35.1127 56.5797C35.2052 56.9549 34.9661 57.2388 34.695 57.4829C34.9386 57.5344 35.2423 57.6257 35.3577 57.3979C35.4333 57.246 35.493 57.1061 35.6166 56.9941C35.6444 56.9142 35.6602 56.8343 35.6521 56.7385C35.648 56.7145 35.688 56.7105 35.692 56.7344C35.7121 56.8182 35.7242 56.8981 35.7164 56.978L35.7204 56.978C35.8319 56.7981 35.9434 56.6222 35.9789 56.3985C35.9829 56.3706 36.0348 56.3745 36.0309 56.4064C35.9956 56.7898 35.5616 57.5253 35.7777 57.8204C36.0619 58.2153 36.358 58.5941 36.6662 58.965C36.8702 59.2082 36.9905 59.4875 37.0629 59.7789C37.1343 59.4873 37.2536 59.2075 37.4568 58.9636C37.7676 58.5917 38.0585 58.2119 38.3413 57.816C38.5565 57.5202 38.12 56.7862 38.0834 56.4029C38.0793 56.371 38.1312 56.3669 38.1352 56.3948C38.1676 56.6184 38.2797 56.7979 38.3958 56.9734L38.3998 56.9734C38.3917 56.8935 38.4035 56.8136 38.4233 56.7298C38.4273 56.7058 38.4672 56.7097 38.4633 56.7337C38.4554 56.8295 38.4716 56.9094 38.4957 56.9892C38.6236 57.1008 38.6798 57.2444 38.7559 57.3921C38.8681 57.6235 39.1714 57.5311 39.4189 57.4748C39.147 57.2317 38.9069 56.9486 38.9981 56.573C39.006 56.5411 39.054 56.553 39.05 56.5849C38.9471 57.1042 39.5622 57.199 39.8582 57.502C39.9781 57.5537 40.086 57.6054 40.2656 57.5412C40.3255 57.5211 40.3853 57.521 40.4453 57.5289C40.2453 57.3855 40.0973 57.2061 40.033 56.9466C39.9928 56.7949 40.0284 56.6232 40.0361 56.4674C40.0477 56.2358 39.9317 56.1282 39.7957 55.9687C39.5918 55.8333 39.4118 55.6379 39.3157 55.4903C39.2997 55.4624 39.3356 55.4344 39.3596 55.4583C39.4956 55.5899 39.6515 55.7054 39.8154 55.797C39.9713 55.8845 40.1111 55.9123 40.2708 55.92C40.3506 55.8959 40.4305 55.8798 40.5063 55.8557C40.5582 55.8396 40.614 55.8156 40.6699 55.7915C40.6179 55.7557 40.5699 55.7198 40.5379 55.6679C40.5219 55.64 40.3343 55.7042 40.3263 55.7042C40.1147 55.6846 39.9628 55.601 39.8228 55.4615C39.6788 55.346 39.5667 55.1705 39.4546 55.0229C39.4426 55.0069 39.4706 54.9869 39.4826 54.9989C39.5106 55.0308 39.5466 55.0587 39.5825 55.0826C39.5865 55.0826 39.5865 55.0826 39.5905 55.0826C39.5985 55.0905 39.6065 55.0985 39.6145 55.1065C39.7105 55.1782 39.8104 55.2499 39.8665 55.3496C40.0385 55.5091 40.2502 55.5446 40.5096 55.4364C40.5534 55.4044 40.6094 55.4322 40.6374 55.4681C40.9056 55.823 41.3404 55.5707 41.7596 55.5221C41.8514 55.502 41.9392 55.5058 42.0152 55.5296C42.0551 55.5376 42.0951 55.5495 42.135 55.5654C42.0827 55.3099 42.0102 54.9427 41.7385 54.8672Z" fill="#FBE305"/>
<path d="M27.5289 23.3982C27.5289 23.3659 27.5288 23.3335 27.5288 23.3012C27.5126 23.3336 27.4925 23.3619 27.4723 23.3902C27.4885 23.3902 27.5087 23.3942 27.5289 23.3982Z" fill="#FBE305"/>
<path d="M27.5053 23.9003C27.4854 23.9163 27.4695 23.9363 27.4496 23.9523C27.4695 23.9563 27.4855 23.9642 27.5015 23.9682C27.5054 23.9442 27.5054 23.9243 27.5053 23.9003Z" fill="#FBE305"/>
<path d="M27.5209 23.6007C27.4533 23.7166 27.3656 23.8286 27.2659 23.9007C27.2899 23.9086 27.3138 23.9126 27.3378 23.9205C27.4096 23.8605 27.4654 23.7885 27.5171 23.7125C27.5171 23.6766 27.521 23.6367 27.5209 23.6007Z" fill="#FBE305"/>
<path d="M25.0846 21.0098C24.704 20.3316 24.3076 19.7014 23.8434 19.0752C23.6953 18.8758 23.5472 18.6724 23.415 18.461C23.5355 18.8441 23.628 19.2393 23.7045 19.6185C23.8609 20.0176 24.0254 20.4246 24.2137 20.8196C24.2296 20.7956 24.2616 20.7876 24.2776 20.8195C24.4779 21.2145 25.0392 22.5033 25.6455 22.087C25.6654 22.075 25.7013 22.0749 25.7133 22.0949C25.9175 22.3621 25.9665 23.0368 26.4773 22.8163C26.5052 22.8043 26.5412 22.8042 26.5572 22.8362C26.7295 23.1992 27.0172 23.3106 27.3488 23.3739C27.4085 23.258 27.4561 23.1261 27.5238 23.0182C27.5238 22.9942 27.5238 22.9703 27.5237 22.9463C26.429 22.6207 25.6573 22.0271 25.0846 21.0098Z" fill="#FBE305"/>
<path d="M31.0223 37.0872C31.0183 37.0872 31.0143 37.0872 31.0103 37.0833C30.9262 36.9476 30.87 36.8 30.8099 36.6523C30.7979 36.6244 30.8418 36.6084 30.8578 36.6323C30.8858 36.6802 30.9138 36.732 30.9379 36.7839C30.9859 36.8597 31.034 36.9315 31.078 37.0073C31.0539 36.9315 31.0299 36.8556 31.0058 36.7798C30.9857 36.7359 30.9657 36.692 30.9457 36.6521C30.9416 36.6401 30.9496 36.6321 30.9576 36.6321C30.9456 36.5962 30.9335 36.5643 30.9255 36.5284C30.6564 35.6144 30.0761 34.8886 29.8349 33.9506C29.8229 33.9067 29.8907 33.8866 29.9068 33.9305C29.9952 34.2538 30.1434 34.5331 30.3076 34.8043C29.8901 33.5512 29.7597 31.9901 30.4646 30.8868C31.3009 29.5716 32.5228 29.5615 33.7255 29.9947C33.5016 29.8274 33.2658 29.684 32.9502 29.6446C32.9223 29.6407 32.9222 29.6007 32.9502 29.6007C33.3295 29.6 33.6892 29.7671 34.025 29.9782C33.5531 29.5877 32.9778 29.4169 32.4144 29.1943C32.3864 29.1824 32.3983 29.1424 32.4263 29.1503C32.8817 29.2893 33.389 29.3883 33.8167 29.6152C33.7967 29.5992 33.7847 29.5793 33.7647 29.5634C33.5848 29.4199 33.3849 29.2765 33.1651 29.197C33.1531 29.193 33.1571 29.177 33.1691 29.181C33.233 29.1929 33.2969 29.2088 33.3568 29.2286C33.021 29.0176 32.6774 28.8664 32.3218 28.7592C32.0344 28.8635 31.7031 28.92 31.4718 29.0841C30.9453 29.4564 31.2846 29.348 31.0215 29.6279C30.7345 29.9319 30.5984 29.7525 30.3557 30.24C30.105 30.7476 29.4185 30.9684 29.4756 31.6791C29.5246 32.274 29.6813 32.8408 29.814 33.4196C29.8221 33.4595 29.7662 33.4755 29.7542 33.4356C29.5854 32.805 29.2846 32.0787 29.3754 31.4117C29.399 31.228 29.4303 30.8606 29.5978 30.7245C29.8131 30.5445 30.2279 30.2323 30.2474 29.9847C30.2552 29.8888 30.303 29.7649 30.3867 29.7169C30.638 29.5687 30.8895 29.4964 31.0767 29.2126C31.2479 28.9527 31.5352 28.8244 31.8346 28.7241C31.4752 28.7646 31.132 28.881 30.7928 29.0254C30.4937 29.1976 30.2144 29.3817 29.9632 29.5858C29.9194 29.6218 29.8755 29.6539 29.8356 29.6939C29.8157 29.7099 29.7997 29.7299 29.7798 29.7459C29.5884 29.9139 29.413 30.1019 29.2777 30.3297C29.0188 30.7575 28.8679 31.2129 28.7689 31.6843C28.7383 32.5149 28.7077 33.2777 28.9329 34.1997C29.335 35.8442 29.8767 37.3567 30.4903 38.929C30.4944 38.945 30.4944 38.9569 30.4904 38.9689C30.711 39.5076 30.8756 40.0624 30.9285 40.6373C30.9487 40.7691 30.9609 40.9008 30.9691 41.0286C31.0562 40.5892 31.0874 40.1459 31.0707 39.6907C31.0706 39.6508 31.1265 39.6547 31.1305 39.6906C31.2238 40.4931 31.209 41.1959 30.9388 41.9671C30.9269 42.003 30.9109 42.035 30.895 42.071C30.8395 42.3067 30.7561 42.5344 30.6406 42.7462C30.6287 42.7662 30.6167 42.7902 30.6048 42.8102C30.4376 43.094 30.2144 43.3579 29.9113 43.5861C29.8954 43.5981 29.8794 43.6061 29.8634 43.6181C29.4607 43.9462 28.9779 44.1707 28.459 44.2993C28.4071 44.3114 28.3552 44.3275 28.3073 44.3355C27.8962 44.4361 27.481 44.4687 27.0975 44.4095C27.0096 44.4016 26.9218 44.3938 26.8339 44.386C25.4959 44.2126 24.6178 42.1176 24.3524 41.012C24.3443 40.9761 24.3962 40.964 24.4082 40.9959C24.5648 41.4788 24.8413 42.0494 25.2096 42.5679C24.48 40.9079 24.524 38.6437 24.6811 37.0981C24.7164 36.7546 24.7798 36.4271 24.8591 36.1035C24.3863 37.4939 24.233 38.9118 24.4156 40.6046C24.4196 40.6445 24.3597 40.6406 24.3557 40.6047C24.1696 39.1954 23.9759 38.0058 24.4047 36.6194C24.7661 35.4527 25.2596 34.4736 25.9287 33.4621C26.1039 33.1224 26.287 32.7907 26.4661 32.4549C26.49 32.407 26.5139 32.359 26.5337 32.3111C26.8361 31.6596 27.0785 30.9924 27.301 30.3211C27.1893 30.3573 27.0615 30.3814 26.9657 30.4096C26.7821 30.4578 26.6026 30.53 26.443 30.6341C26.4071 30.6581 26.3791 30.6022 26.411 30.5782C26.6543 30.4061 26.9537 30.3816 27.205 30.2295C27.2968 30.1734 27.3485 30.0934 27.3843 29.9976C27.0252 30.1459 26.674 30.2903 26.359 30.5344C26.351 30.5384 26.343 30.5424 26.335 30.5384C26.1361 30.994 25.9133 31.4416 25.6505 31.8613C25.2801 32.457 24.8817 33.0127 24.6073 33.6441C24.5636 33.756 24.5198 33.8639 24.4801 33.9757C24.4523 34.0596 24.4245 34.1436 24.4007 34.2314C24.3967 34.2434 24.3887 34.2434 24.3847 34.2514C23.9715 35.4781 23.7341 36.7563 23.6046 38.0463C23.4671 39.4042 23.3339 40.878 23.6317 42.2232C23.8409 43.1612 24.2254 43.8114 24.7216 44.4215C26.0214 45.5973 27.7515 46.2293 29.284 45.7155C30.8839 44.8822 31.9359 43.5866 31.9404 41.562C31.9456 39.9368 31.6796 38.5316 31.0223 37.0872Z" fill="#FBE305"/>
<path d="M31.0199 33.506C31.004 33.526 30.984 33.546 30.9681 33.5699C30.9841 33.5539 31 33.5419 31.0159 33.526C31.0159 33.518 31.0159 33.51 31.0199 33.506Z" fill="#FBE305"/>
<path d="M27.9308 27.5974C28.0424 27.4894 28.1181 27.3615 28.1857 27.2256C28.0221 27.3097 27.8546 27.3899 27.687 27.458C27.5074 27.5302 27.3238 27.6024 27.1403 27.6706C27.1363 27.6786 27.1323 27.6866 27.1243 27.6946C27.4039 27.746 27.7036 27.8174 27.9308 27.5974Z" fill="#FBE305"/>
<path d="M26.3827 30.4232C26.6938 30.1751 27.0528 29.9868 27.4279 29.8464C27.4319 29.8224 27.4398 29.7944 27.4438 29.7705C27.0726 29.8629 26.7415 30.0632 26.4344 30.2953C26.4185 30.3392 26.3986 30.3792 26.3827 30.4232Z" fill="#FBE305"/>
<path d="M27.4873 29.5711C27.116 29.6157 26.8048 29.7919 26.5377 30.04C26.5178 30.0919 26.4939 30.1479 26.4701 30.1998C26.7651 29.9437 27.0922 29.7275 27.4714 29.6231C27.4793 29.6071 27.4833 29.5871 27.4873 29.5711Z" fill="#FBE305"/>
<path d="M29.9763 28.0887C31.1742 28.0227 32.5764 28.3997 33.6279 29.1406C33.54 29.0769 33.456 28.9932 33.4039 28.8974C33.1479 28.6343 32.9676 28.3231 32.6996 28.0521C32.2156 27.5617 31.8683 27.6222 31.2173 27.5315C30.8738 27.4842 30.7815 27.2447 30.5415 27.0175C30.0216 26.5312 29.5754 27.1669 29.1084 27.2596C29.0805 27.2636 29.0724 27.2237 29.0964 27.2197C29.2919 27.1754 29.9179 26.6153 30.2096 26.7106C30.721 26.8775 30.9374 27.3283 31.5483 27.3073C32.2431 27.2822 32.7431 27.7725 33.1793 28.3028C33.1351 28.1951 33.087 28.0873 33.019 27.9796C32.8868 27.7802 32.7507 27.5768 32.5987 27.3934C31.7189 26.6441 30.568 26.139 29.4148 26.6161C29.1035 26.7444 28.8083 26.9007 28.5091 27.0609C28.5012 27.0969 28.4812 27.1169 28.4613 27.1369C28.338 27.4166 28.2028 27.7363 27.9394 27.8565C27.7718 27.9367 27.6161 27.945 27.4284 27.9293C27.2327 27.9137 27.1407 27.838 26.9969 27.7583C26.9729 27.7584 26.9489 27.7504 26.9289 27.7385C26.3662 27.9271 25.7914 28.0719 25.1965 28.1088C23.9627 28.1828 23.0404 28.2483 22.0937 28.0423C22.0857 28.0423 22.0817 28.0463 22.0737 28.0423C22.0498 28.0343 22.0218 28.0264 21.9978 28.0185C21.862 27.9867 21.7262 27.947 21.5863 27.9034C21.1948 27.8082 20.8113 27.729 20.4555 27.49C20.3636 27.4263 20.2716 27.3585 20.1876 27.2788C20.1836 27.2788 20.1836 27.2748 20.1796 27.2748C20.2117 27.3147 20.2437 27.3546 20.2797 27.3905C20.7518 27.9128 21.2637 28.3871 21.8076 28.8454C24.1536 30.0273 27.6445 28.2164 29.9763 28.0887Z" fill="#FBE305"/>
</g>
<defs>
<filter id="filter0_d" x="0.181152" y="0.631836" width="73.76" height="86.6093" filterUnits="userSpaceOnUse" color-interpolation-filters="sRGB">
<feFlood flood-opacity="0" result="BackgroundImageFix"/>
<feColorMatrix in="SourceAlpha" type="matrix" values="0 0 0 0 0 0 0 0 0 0 0 0 0 0 0 0 0 0 127 0"/>
<feOffset dy="4"/>
<feGaussianBlur stdDeviation="2"/>
<feColorMatrix type="matrix" values="0 0 0 0 0 0 0 0 0 0 0 0 0 0 0 0 0 0 0.25 0"/>
<feBlend mode="normal" in2="BackgroundImageFix" result="effect1_dropShadow"/>
<feBlend mode="normal" in="SourceGraphic" in2="effect1_dropShadow" result="shape"/>
</filter>
</defs>
</svg>
