<svg width="74" height="87" viewBox="0 0 74 87" fill="none" xmlns="http://www.w3.org/2000/svg">
<g filter="url(#filter0_d)">
<rect x="4.18164" y="0.227539" width="65.76" height="46.0814" fill="#202125"/>
<path d="M37.4717 78.8369C12.4829 68.4279 4.86566 52.8145 4.18066 46.3088H69.9407C68.2967 65.8257 42.8147 75.9907 37.4717 78.8369Z" fill="#202125"/>
<path d="M47.8598 41.1681L48.6917 40.7144C53.8194 37.9167 59.0798 29.608 59.6299 25.0213C59.7828 23.7445 59.2847 22.5942 58.7224 22.0209C58.4686 21.7618 58.2003 21.6162 57.9565 21.6037C57.8253 21.4404 57.4959 21.0521 57.2097 20.8953C57.0929 20.2578 56.8742 19.5295 56.5931 18.7726C56.6545 18.8719 56.7148 18.9713 56.7762 19.0706C56.9587 19.376 57.1407 19.6796 57.2885 20.0086C57.2396 19.6491 57.1131 19.3026 56.976 18.9697C56.9078 18.8018 56.8311 18.6385 56.7549 18.4751C56.6754 18.3134 56.5959 18.1517 56.512 17.9929C56.344 17.6752 56.1698 17.3614 55.9878 17.0533C55.8064 16.7451 55.6205 16.4403 55.4278 16.1423L55.4272 16.1429C54.9492 15.2077 54.4387 14.3439 53.9729 13.6794C53.8073 13.4432 53.626 13.2255 53.433 13.0258C53.4555 13.0348 53.4785 13.0432 53.5016 13.0521C53.704 13.1349 53.9025 13.2312 54.0937 13.3421C54.2849 13.453 54.47 13.5763 54.6382 13.7244C54.4986 13.5488 54.3348 13.3912 54.1621 13.2448C53.9888 13.0985 53.8048 12.9639 53.6108 12.8412C53.4167 12.7185 53.2137 12.6082 52.9983 12.5142C52.8999 12.4711 52.7988 12.4325 52.6947 12.3978C52.4866 12.2532 52.269 12.126 52.0418 12.0157C52.1924 12.0239 52.3447 12.0433 52.4953 12.0723C52.6903 12.1096 52.8842 12.1626 53.0765 12.2235C53.2688 12.2845 53.4588 12.3555 53.6499 12.4231C53.47 12.3296 53.2917 12.2327 53.1078 12.1448C52.924 12.0564 52.7356 11.9752 52.5394 11.9081C52.1639 11.7796 51.7553 11.7022 51.3351 11.7377C50.5543 11.4969 49.694 11.4383 48.7902 11.5786C47.0927 11.8416 46.0741 13.1367 45.8157 13.5041C45.3228 13.4262 43.3148 13.1235 42.2486 13.186C40.9699 13.2612 40.1575 13.9301 39.4705 14.6414L39.0549 15.0719L39.6344 14.9243C39.6446 14.9215 40.6751 14.663 41.3024 14.8259C42.4884 15.1335 44.754 16.2151 45.5165 16.5874C45.0709 16.9011 44.1293 17.5786 43.8012 17.9349C43.3929 18.3777 42.7277 18.6946 42.3204 18.7453L41.5997 18.8348L42.2856 19.0746C42.9844 19.319 43.8147 19.2799 44.7536 18.9575C45.3033 18.7689 46.2209 18.5027 46.9463 18.5284C46.9025 18.5408 46.8593 18.5538 46.8166 18.5674C46.6038 18.6363 46.3994 18.7192 46.2029 18.8168C46.0076 18.9149 45.8167 19.0253 45.6512 19.1633C45.8466 19.0736 46.0521 19.0193 46.2583 18.9774C46.4649 18.9366 46.6733 18.9109 46.8795 18.901C46.8969 18.9004 46.9138 18.9004 46.9306 18.8998C46.7224 19.0198 46.5283 19.1595 46.365 19.3233C46.6205 19.2251 46.8834 19.1791 47.1435 19.1607C47.1704 19.159 47.1968 19.1589 47.2238 19.1572C47.0937 19.6507 46.865 20.2405 46.621 20.5201C44.1397 19.4046 39.1915 20.6913 36.668 22.5418C34.3258 24.2595 33.0644 25.5376 32.5893 26.6773C32.3688 26.8574 32.0103 27.1418 31.5626 27.4976C30.2053 28.5759 28.1343 30.2206 27 31.2541L27 31.2535L26.2622 31.82C26.0153 32.0081 25.7667 32.1939 25.5142 32.3741C25.2622 32.5555 25.0024 32.7256 24.7375 32.889C24.4714 33.0507 24.1981 33.2012 23.9084 33.3332C24.2241 33.2899 24.5329 33.1933 24.8299 33.0748C25.1281 32.9563 25.4155 32.8126 25.6922 32.6525C25.7377 32.626 25.7826 32.599 25.828 32.5714C25.328 33.2167 24.6762 33.8802 22.1213 35.3695C22.1207 35.3695 22.1201 35.3701 22.1201 35.3701C21.6088 35.6491 21.0969 35.9382 20.5957 36.2413C20.0939 36.5439 19.5961 36.8549 19.1067 37.1782C18.6167 37.5016 18.1319 37.8322 17.6588 38.1802C17.1852 38.5271 16.7218 38.892 16.2938 39.2939C16.7753 38.9588 17.2725 38.6528 17.7721 38.3492C18.1621 38.1136 18.5539 37.8815 18.9468 37.651C17.7545 38.6149 16.6673 39.5792 16.0643 40.1247C15.133 40.9674 14.2546 41.8038 13.5905 42.4791C12.5103 43.5772 12.5487 43.6692 12.5978 43.7855C12.6322 43.868 12.6969 43.9269 12.7846 43.9565C12.8605 43.9822 12.9521 43.9815 13.0481 43.965C12.6309 44.4692 12.1775 45.1015 12.2393 45.4076C12.2574 45.4974 12.3137 45.5715 12.3981 45.6163C12.6286 45.7389 13.1307 45.6218 13.5507 45.4851C13.3883 45.7461 13.2753 46.0575 13.4313 46.3022C13.5908 46.552 13.9953 46.558 14.3801 46.4933C14.1994 46.6419 13.9755 46.8249 13.7074 47.0417C12.9146 47.6824 12.5629 48.0353 12.7072 48.3104C12.8244 48.5332 13.1768 48.5883 14.5667 48.174C16.4215 47.6214 17.9272 46.5895 19.3835 45.592C19.7174 45.3633 20.0569 45.1307 20.4015 44.9031C19.849 45.4816 19.1204 46.1706 18.4489 46.8055C16.5187 48.6303 16.0499 49.1278 16.1779 49.4146C16.2191 49.5062 16.2939 49.5723 16.3957 49.6047C16.7229 49.7104 17.3573 49.4256 17.7339 49.2299C17.7504 49.3575 17.7984 49.5063 17.9094 49.6505C17.9533 49.7071 18.0371 49.7789 18.1866 49.7955C18.8199 49.8658 20.1639 48.8831 21.0257 48.1877C21.0747 48.2567 21.1349 48.2943 21.1787 48.3139C21.4407 48.4303 21.7927 48.2499 22.0149 48.0602C22.0642 48.0179 22.1321 47.965 22.2107 47.9036C22.4458 47.7195 22.8021 47.4408 23.2177 47.0221C23.1255 47.3217 23.113 47.5818 23.2644 47.7159C23.3218 47.7663 23.4225 47.8235 23.5764 47.8069C24.1583 47.7447 25.0532 46.652 25.4534 46.1249C25.4748 46.1355 25.4973 46.145 25.522 46.1512C25.671 46.1897 25.8372 46.1276 26.0156 45.9655C26.2338 45.7673 27.0217 44.5395 28.111 42.8274C28.4685 42.2655 28.8125 41.7249 29.0591 41.3481L26.9309 45.351L29.6681 40.9914C29.8169 40.9878 29.9799 40.9779 30.1523 40.9625C30.1232 41.0423 30.088 41.1244 30.0505 41.2037C29.9721 41.3696 29.8842 41.5355 29.7884 41.6974C29.5985 42.0225 29.39 42.3409 29.1692 42.6508C29.4418 42.3846 29.7042 42.1077 29.9543 41.8157C30.0799 41.67 30.1999 41.5181 30.3143 41.3577C30.4084 41.2222 30.5009 41.086 30.5731 40.9162C31.601 40.7875 32.822 40.527 33.4724 40.3719C34.0477 41.6553 35.5057 42.9765 36.4189 43.734C36.4256 43.7632 36.4319 43.793 36.4398 43.8222C36.4816 43.9777 36.5431 44.1322 36.64 44.2545C36.6021 44.132 36.5957 44.0079 36.6028 43.886C36.6585 43.9314 36.712 43.9745 36.7615 44.0144C36.7728 44.075 36.7859 44.1351 36.8023 44.1952C36.8441 44.3508 36.9056 44.5052 37.0025 44.6275C36.9567 44.4792 36.9564 44.3287 36.9714 44.182C37.0017 44.2061 37.0299 44.2285 37.0552 44.2487C37.1862 44.948 37.4415 45.7437 37.6126 46.2755C37.6697 46.4523 37.7188 46.6051 37.7488 46.7112C37.824 46.9735 37.9322 47.207 38.0191 47.3945C38.0794 47.5248 38.1313 47.6376 38.1522 47.7157C38.1816 47.8263 38.1846 47.9044 38.1904 48.046C38.1945 48.1488 38.1998 48.2763 38.2164 48.4628C38.2416 48.7476 38.3196 48.9711 38.376 49.1351C38.3975 49.1974 38.4246 49.2743 38.4274 49.3047C38.3984 49.4013 38.1669 49.7192 38.0838 49.7744C38.0631 49.7879 38.0457 49.7913 38.0035 49.7981C37.9316 49.8095 37.8328 49.8254 37.7178 49.9222C37.6319 49.9943 37.5781 50.0888 37.535 50.1647C37.5176 50.1951 37.493 50.2389 37.4762 50.2586C37.461 50.2575 37.4391 50.2547 37.4211 50.2525C37.2548 50.2309 36.9446 50.1904 36.6378 50.5573C36.3956 50.8476 36.4252 51.0425 36.4496 51.1992C36.4627 51.2852 36.4729 51.3526 36.4394 51.4493C36.3029 51.8411 36.273 52.085 36.4407 52.5847L36.705 53.3737L36.771 52.5437C36.8233 51.8857 37.0603 51.5274 37.5634 51.3456C37.8683 51.2356 38.1223 51.243 38.3678 51.2499C38.483 51.2531 38.5948 51.2562 38.7044 51.2465C38.726 51.4156 38.7982 51.5936 38.9092 51.7417C38.9807 51.8371 39.0617 51.9089 39.1461 51.9531C39.1311 52.3829 39.3067 52.5933 39.5464 52.7946L39.628 54.5042L39.9191 53.8952C39.9303 53.8721 40.1761 53.3543 40.2512 52.9294C40.5687 52.6468 40.836 52.2323 40.6519 51.6966C40.7329 51.7155 40.8155 51.7221 40.8941 51.708C40.9829 51.7404 41.2028 51.8366 41.261 52.018C41.2988 52.1365 41.3031 52.3258 41.3079 52.5264C41.3146 52.8085 41.3224 53.1281 41.4268 53.3797L41.5966 53.7873L41.7442 53.3713C41.827 53.1374 42.1982 52.0704 42.2552 51.5567C42.3266 51.551 42.4142 51.543 42.4962 51.5338C42.5657 51.7607 42.6922 52.1566 42.8092 52.5149L42.9662 52.995L43.1317 52.5177C43.5711 51.2505 43.0814 50.7243 42.9204 50.551C42.9114 50.5415 42.9041 50.5336 42.8985 50.5269C42.8861 50.5123 42.8731 50.4966 42.8596 50.4798C42.7549 50.3502 42.5792 50.133 42.1858 50.0798C41.9279 50.0454 41.6528 50.1588 41.4102 50.2592C41.303 50.3038 41.1424 50.372 41.0924 50.3648C40.9986 50.3526 40.9169 50.264 40.7908 50.1198C40.7464 50.0687 40.6996 50.016 40.6479 49.9622C40.555 49.8668 40.4442 49.7878 40.3468 49.7183C40.2732 49.6656 40.1623 49.5865 40.1466 49.5557C40.1403 49.5276 40.1385 49.4647 40.1373 49.404C40.1331 49.2248 40.127 48.954 39.9951 48.6957C39.9026 48.515 39.7236 48.2906 39.5501 48.0729C39.4139 47.9023 39.2602 47.7093 39.2218 47.62C39.1829 47.5291 39.1675 47.4139 39.1488 47.2808C39.1277 47.1263 39.1038 46.9516 39.0383 46.7506C38.9846 46.5855 38.9069 46.4474 38.8313 46.3144C38.731 46.137 38.6369 45.9692 38.613 45.7546C38.589 45.5338 38.5239 45.257 38.4667 45.0126C38.4158 44.7953 38.3637 44.5706 38.3624 44.4734C38.3605 44.3347 38.3298 44.1358 38.2912 43.8842C38.281 43.8185 38.2707 43.7483 38.2599 43.6775C38.3095 43.7561 38.3624 43.8318 38.4182 43.9053C38.5229 44.0394 38.6395 44.1741 38.784 44.2598C38.6826 44.1279 38.6307 43.9741 38.5849 43.8202C38.5414 43.6658 38.5113 43.5079 38.492 43.3512C38.4743 43.208 38.4668 43.0658 38.4705 42.9287C38.5139 43.0023 38.56 43.0741 38.6102 43.1437C38.7206 43.2963 38.8528 43.4399 39.0125 43.5284C38.8977 43.3876 38.8373 43.2225 38.7943 43.0557C38.7626 42.9305 38.7427 42.803 38.7268 42.6732C39.028 42.3957 39.3827 42.1277 39.6402 41.9328C39.7227 41.8703 39.7912 41.8185 39.8478 41.7746C40.1626 42.823 40.8256 43.1849 41.1421 43.3012C41.1596 43.3354 41.1782 43.3697 41.1979 43.4033C41.2785 43.5425 41.3782 43.6761 41.5031 43.7691C41.4231 43.6417 41.3841 43.5008 41.3597 43.3598L41.576 43.3982C41.6172 43.4903 41.6612 43.5818 41.7119 43.6699C41.7925 43.8091 41.8922 43.9426 42.017 44.0357C41.9342 43.9038 41.8952 43.7578 41.8714 43.6118C41.8674 43.5876 41.8645 43.5629 41.8617 43.5387C41.8938 43.5617 41.9241 43.5836 41.9506 43.6026C41.9944 43.6335 42.044 43.6688 42.0558 43.68C42.1447 43.7742 42.5879 44.3561 42.8589 44.7854C42.9507 44.9308 43.0566 45.0851 43.1591 45.2344C43.3602 45.5273 43.5686 45.8304 43.6217 46.0017C43.6804 46.1909 43.8386 46.3901 43.9783 46.5657C44.0436 46.6476 44.1326 46.7593 44.1489 46.8014C44.1523 46.8267 44.1552 46.8564 44.1581 46.889C44.1729 47.0446 44.1947 47.2744 44.3113 47.4765C44.3249 47.8692 44.1087 47.9218 44.0363 47.9399C43.6555 48.0327 43.3644 48.3512 43.2382 48.8132C43.1366 49.1848 43.2283 49.5746 43.5105 49.9713C43.5268 50.6275 43.9566 50.9549 43.9752 50.9689L44.3622 51.257L44.2412 50.7898C44.1354 50.3821 44.1161 49.9231 44.2019 49.8628C44.4028 49.722 44.7668 49.3388 44.8922 49.0784C45.1961 49.0183 45.4094 48.9101 45.5435 48.7952C45.638 48.885 45.764 48.9859 45.8889 49.043C45.9099 49.1581 45.9647 49.3322 46.0825 49.5944C46.241 49.9464 46.4333 50.0393 46.5604 50.1004C46.6194 50.1289 46.6329 50.1373 46.6369 50.148C46.6674 50.2243 46.6647 50.3333 46.6627 50.4395C46.6606 50.5401 46.658 50.6446 46.6817 50.7412C46.7304 50.9383 46.8921 51.2162 47.1172 51.4006C47.127 51.5619 47.1468 51.9535 47.122 52.2721L47.0638 53.0262L47.4391 52.3698C48.1018 51.2107 48.0482 50.7518 47.9188 50.3115C47.808 49.9364 47.5909 49.793 47.4615 49.7072C47.439 49.6926 47.4086 49.6719 47.4019 49.6657C47.3838 49.6422 47.3596 49.5742 47.3358 49.4816C47.382 49.5388 47.4343 49.6028 47.5086 49.6656C47.6453 49.7811 47.8253 49.8729 47.9569 49.9401C48.0058 49.9653 48.0649 49.9955 48.093 50.0129C48.1003 50.0314 48.1099 50.0696 48.1173 50.0988C48.1456 50.21 48.1891 50.3779 48.3153 50.5519C48.4594 50.7511 48.5988 50.7829 48.7219 50.8108C48.7989 50.8286 48.8658 50.8437 48.9564 50.9059C49.1398 51.0314 49.179 51.6511 49.0558 51.8665L48.6973 52.4913L49.2972 52.0925C49.9145 51.6818 49.9902 50.8912 49.9294 50.516C50.0525 50.1978 49.9468 49.867 49.7919 49.6493C50.0136 49.809 50.3218 49.9816 50.719 49.9938C51.1028 50.0049 51.2352 49.8856 51.3585 49.7393C51.4286 49.6555 51.4796 49.5953 51.7004 49.5797C51.8982 49.5659 52.0663 49.624 52.1996 49.7536C52.3555 49.9056 52.4188 50.1145 52.4123 50.255L52.382 50.9135L52.7265 50.3522C52.9126 50.0496 52.939 49.7203 52.803 49.3997C52.6377 49.0101 52.2563 48.7147 51.9831 48.6539C51.7257 48.597 51.5724 48.6512 51.4607 48.6902C51.3955 48.7133 51.3703 48.7207 51.3422 48.7145C51.2927 48.7034 51.2381 48.6714 51.169 48.6306C51.0475 48.5588 50.881 48.4608 50.6078 48.3972C50.2886 48.323 50.0022 48.3831 49.8129 48.4227C49.7623 48.4335 49.6994 48.4465 49.6843 48.4466C49.6674 48.4432 49.6173 48.4175 49.5769 48.3962C49.4492 48.3295 49.2558 48.2293 48.9219 48.149C48.5841 48.0681 48.3779 48.0965 48.2414 48.1153C48.1802 48.1238 48.1358 48.1301 48.1094 48.1223C48.0701 48.1111 48.0172 48.0904 47.9604 48.0691C47.8221 48.016 47.6692 47.9573 47.5321 47.9536C47.4342 47.8492 47.218 47.6322 46.908 47.3894C46.6324 47.1736 46.3906 47.0588 46.1567 46.948C46.02 46.8836 45.8789 46.8164 45.7276 46.7279C45.4694 46.5772 45.3782 46.4448 45.2622 46.2775C45.207 46.1978 45.1445 46.1075 45.06 46.0088C44.9046 45.8281 44.8074 45.785 44.7129 45.7543C44.6741 45.7414 44.6595 45.7369 44.6128 45.678C44.5137 45.5546 44.3418 45.2638 44.1902 45.0073C44.0933 44.844 44.002 44.6897 43.9288 44.5757C43.7508 44.3002 43.4243 43.6226 43.3064 43.352C43.2726 43.2751 43.2388 43.2015 43.2038 43.1274C43.2246 43.1442 43.2449 43.1616 43.2663 43.1779C43.4024 43.2805 43.5492 43.3802 43.7111 43.4254C43.5789 43.3245 43.4888 43.1893 43.4048 43.0523C43.3225 42.9143 43.2526 42.7694 43.1939 42.6234C43.1403 42.4898 43.0957 42.3539 43.064 42.2208C43.1248 42.2803 43.1878 42.3386 43.2542 42.3924C43.4005 42.5113 43.5653 42.6161 43.7424 42.6602C43.595 42.5537 43.4942 42.41 43.4096 42.2601C43.4012 42.2444 43.3933 42.2281 43.3848 42.2124C43.4 42.2079 43.4146 42.2022 43.4286 42.1949C43.5252 42.1464 43.6244 42.0272 43.8044 41.81C43.9261 41.6631 44.0763 41.4825 44.2653 41.2766C44.518 41.2025 45.0182 40.9258 45.4605 40.6643C45.4077 40.7128 45.3505 40.764 45.2882 40.8169L44.7928 41.2397L45.4314 41.1127C45.7055 41.0583 46.5402 40.567 47.2988 39.9836C47.0291 40.3369 46.7454 40.6683 46.5591 40.808L45.8521 41.3401L46.7057 41.1078C47.5756 40.8709 48.5508 40.1275 49.3104 39.4414C49.0766 39.7468 48.8008 40.0878 48.4811 40.4547L47.8598 41.1681ZM43.6778 38.4037C43.8753 38.2848 44.0656 38.1733 44.2587 38.0628C44.4512 37.9529 44.6438 37.8447 44.8363 37.7382L45.4133 37.4175C45.6053 37.3087 45.795 37.2017 45.9869 37.0738C45.8783 37.2796 45.7095 37.4462 45.535 37.5932C45.3583 37.739 45.1674 37.8663 44.9682 37.9756C44.7689 38.0855 44.5617 38.1797 44.3472 38.2559C44.1322 38.331 43.9092 38.3926 43.6778 38.4037ZM43.0961 37.299C42.9999 37.5632 42.8885 37.8213 42.7597 38.0715C42.6298 38.3207 42.4881 38.5653 42.3115 38.7887C42.3857 38.5144 42.474 38.2507 42.5629 37.9876C42.6535 37.7251 42.7458 37.4648 42.8408 37.2056L43.1305 36.4286C43.2329 36.1706 43.3263 35.9097 43.445 35.6511C43.4365 35.9348 43.3965 36.2152 43.3346 36.4901C43.2733 36.7649 43.1934 37.0353 43.0961 37.299ZM43.7574 45.1766C43.6046 45.2078 43.5334 44.9821 43.607 44.9505C43.7058 44.9076 43.9101 45.1449 43.7574 45.1766ZM43.1309 44.2023C43.1033 44.1642 43.0118 44.1981 42.9803 44.1537C42.9482 44.1094 43.0778 44.0513 43.0609 44.0176C43.044 43.9839 42.8615 44.0196 42.8737 43.9415C42.8926 43.8201 43.1265 43.9473 43.1733 44.0197C43.2201 44.0921 43.178 44.1152 43.1871 44.1747C43.1961 44.2343 43.308 44.2723 43.2845 44.306C43.2609 44.3398 43.1487 44.4316 43.0829 44.3659C43.0165 44.3003 43.1585 44.2405 43.1309 44.2023ZM38.7861 47.809C38.8267 47.864 39.0009 47.8979 38.9988 47.9446C38.9966 47.9912 38.914 47.9874 38.9096 48.047C38.9052 48.1065 39.1161 48.227 39.0926 48.272C39.0691 48.3164 39.0185 48.3058 39.0101 48.353C39.0018 48.3997 39.1249 48.4674 39.1251 48.5399C39.1252 48.6124 38.9787 48.725 38.9236 48.6869C38.8685 48.6488 38.9235 48.5998 38.8981 48.5296C38.8727 48.4594 38.8385 48.5236 38.7917 48.4405C38.7449 48.358 38.7976 48.2854 38.7745 48.222C38.7508 48.1585 38.6897 48.2243 38.6412 48.1182C38.5932 48.0121 38.7099 47.8973 38.6395 47.8058C38.5691 47.7144 38.5707 47.6419 38.6886 47.6041C38.7133 47.5962 38.788 47.6016 38.8073 47.6763C38.8265 47.7493 38.7456 47.7534 38.7861 47.809ZM40.1872 50.3113C40.2154 50.395 40.1184 50.5255 40.0133 50.4728C39.9824 50.4572 39.9396 50.4162 39.9731 50.3117C40.0066 50.2065 40.1584 50.2276 40.1872 50.3113ZM39.9474 51.7011C39.763 51.625 39.6693 51.7157 39.6046 51.6618C39.5534 51.6192 39.6264 51.2882 39.9694 51.4089C40.3123 51.5303 40.1995 51.9299 40.1995 51.9299C40.1995 51.9299 40.1313 51.7772 39.9474 51.7011ZM39.4446 51.0475C39.3906 51.0251 39.4016 50.8835 39.4869 50.8547C39.5717 50.8264 39.6397 50.8319 39.7394 50.9531C39.5691 50.9422 39.5306 51.0833 39.4446 51.0475ZM39.4955 50.2827C39.5713 50.2528 39.5992 50.4668 39.5284 50.4652C39.4576 50.4637 39.3585 50.3369 39.4955 50.2827ZM39.2888 49.3526C39.3199 49.4548 39.4726 49.3866 39.5048 49.4669C39.5369 49.5477 39.3797 49.6092 39.4691 49.6473C39.5585 49.6853 39.6586 49.747 39.4841 49.845C39.3101 49.9431 39.2695 49.8752 39.2908 49.8454C39.3121 49.8156 39.3524 49.7138 39.2035 49.7522C39.0547 49.7907 39.0399 49.6503 39.1269 49.5844C39.2138 49.5185 39.1709 49.4056 39.0861 49.421C39.0013 49.4357 39.0158 49.3767 39.0662 49.2788C39.1166 49.181 39.0261 49.1491 39.0024 49.0941C38.9787 49.0391 39.0471 48.9732 39.1253 48.9832C39.2062 48.9938 39.2675 49.0234 39.2878 49.1043C39.3088 49.1846 39.2583 49.2504 39.2888 49.3526ZM38.7343 49.7002C38.8367 49.7624 38.7831 49.9665 38.7095 49.9638C38.6359 49.9611 38.4847 49.9226 38.4745 49.8653C38.4654 49.817 38.632 49.638 38.7343 49.7002ZM38.3014 50.1712C38.3069 50.0892 38.4797 49.9557 38.5535 50.0573C38.6272 50.1594 38.5027 50.2838 38.4431 50.2699C38.3836 50.2559 38.3381 50.2644 38.327 50.3549C38.3159 50.4454 38.1885 50.5456 38.1119 50.4233C38.0691 50.3554 38.0976 50.2733 38.174 50.2473C38.2509 50.2219 38.2959 50.2533 38.3014 50.1712ZM38.9621 48.8599C38.9384 48.779 39.136 48.7191 39.1682 48.7938C39.2004 48.8679 38.9892 48.9525 38.9621 48.8599ZM38.537 47.0054C38.5596 47.0593 38.5994 47.0435 38.6248 47.0985C38.6502 47.1535 38.5941 47.2008 38.6093 47.2373C38.6251 47.2744 38.6774 47.2771 38.6876 47.3805C38.6979 47.4838 38.5733 47.5183 38.5647 47.429C38.5561 47.3397 38.5533 47.3144 38.4852 47.2589C38.4171 47.2039 38.4552 47.1213 38.4438 47.0763C38.4325 47.0309 38.3207 47.031 38.3318 46.9305C38.3429 46.8299 38.5141 46.756 38.5963 46.8339C38.6818 46.9147 38.5144 46.9515 38.537 47.0054ZM38.4157 46.3617C38.3696 46.3871 38.3162 46.367 38.2629 46.4002C38.2096 46.4334 38.1929 46.5548 38.1035 46.505C38.0715 46.487 38.033 46.3472 38.2065 46.2829C38.38 46.2185 38.4617 46.3358 38.4157 46.3617ZM38.2604 45.9339C38.2352 45.9564 38.1783 45.9031 38.0621 45.9595C37.9459 46.0164 37.9261 45.9316 37.9744 45.9029C38.0227 45.8747 38.0506 45.7836 37.9826 45.7585C37.9145 45.7333 37.8508 45.598 37.9985 45.5545C38.1535 45.5087 38.2206 45.662 38.2173 45.6985C38.2146 45.7356 38.1466 45.7413 38.1439 45.7807C38.1411 45.8206 38.2857 45.9108 38.2604 45.9339ZM37.1124 42.8929C37.1078 42.8243 37.1105 42.7547 37.1255 42.6855C37.1417 42.6175 37.1674 42.5472 37.2185 42.4955C37.2203 42.5674 37.226 42.6297 37.2318 42.6938L37.2478 42.8842C37.2553 43.0123 37.2645 43.1409 37.2417 43.282C37.1984 43.2242 37.1719 43.1602 37.1504 43.0951C37.1301 43.0288 37.117 42.9614 37.1124 42.8929ZM36.6468 35.1244C36.84 35.0477 37.0157 34.9451 37.1897 34.8364C37.3636 34.7294 37.5331 34.6145 37.7026 34.5001C38.0399 34.2681 38.3749 34.0321 38.711 33.7961C39.0472 33.5601 39.3833 33.3241 39.7251 33.0937C40.0657 32.8622 40.4092 32.6341 40.7667 32.4205C40.4796 32.7222 40.1705 32.9986 39.8524 33.2632C39.5354 33.5289 39.206 33.7801 38.867 34.0189C38.5275 34.256 38.179 34.4819 37.8125 34.6808C37.63 34.7812 37.4425 34.8731 37.2494 34.9549C37.0568 35.0316 36.8558 35.1055 36.6468 35.1244ZM35.7351 41.7996C35.8004 41.8248 35.851 41.8713 35.896 41.9196C35.9405 41.9684 35.9771 42.0223 36.0081 42.0784C36.0391 42.1345 36.0651 42.194 36.0837 42.2558C36.1024 42.3176 36.1165 42.3816 36.1155 42.4507C36.0643 42.4042 36.0249 42.3542 35.9877 42.3026C35.9511 42.251 35.9184 42.1982 35.8891 42.1438C35.8592 42.0893 35.8322 42.0343 35.8068 41.9782C35.7814 41.9209 35.7589 41.8642 35.7351 41.7996ZM36.4577 42.8013C36.3884 42.6609 36.3522 42.5222 36.3132 42.3846L36.2583 42.1791C36.2397 42.1106 36.221 42.0432 36.1939 41.9691C36.2642 42.0066 36.3154 42.0711 36.356 42.1368C36.3966 42.2036 36.4242 42.276 36.444 42.349C36.4644 42.4226 36.4757 42.4973 36.4792 42.5731C36.4816 42.6484 36.4789 42.7248 36.4577 42.8013ZM34.9262 35.6151C34.627 35.7628 34.3187 35.8965 33.993 35.9954C33.8291 36.0417 33.6594 36.0763 33.4836 36.0805C33.3965 36.084 33.3066 36.0769 33.22 36.059C33.1335 36.0412 33.0469 36.0116 32.9777 35.9583C33.1491 35.9586 33.2968 35.91 33.4456 35.8603C33.5932 35.8084 33.7381 35.7475 33.8841 35.686C34.1766 35.5647 34.4629 35.4181 34.7469 35.2665C35.3144 34.9599 35.8813 34.6386 36.4381 34.2978C36.996 33.958 37.546 33.6031 38.0966 33.2482C38.6471 32.8927 39.1954 32.5305 39.7584 32.1902L38.9925 32.8107C38.7361 33.0162 38.4786 33.22 38.2182 33.4205C37.6981 33.8225 37.1667 34.2111 36.6229 34.584C36.0774 34.9541 35.524 35.3191 34.9262 35.6151ZM29.7306 39.4282C29.6334 39.4312 29.5367 39.437 29.4395 39.4383L29.1474 39.4348C29.0502 39.4316 28.9524 39.4217 28.8552 39.4134C28.758 39.4046 28.6613 39.3829 28.5669 39.3645L28.7118 39.3519C28.7596 39.3484 28.8073 39.3467 28.855 39.3387C28.9505 39.3245 29.0455 39.3187 29.1404 39.3028L29.4246 39.2624C29.519 39.246 29.6139 39.2335 29.7083 39.2187L30.8435 39.0392C31.2226 38.9807 31.6023 38.9244 31.9843 38.8771C32.3657 38.8282 32.7488 38.7842 33.137 38.7622C32.7715 38.8954 32.398 38.9972 32.0218 39.0861C31.646 39.1761 31.2663 39.2486 30.8844 39.3077C30.5036 39.3645 30.1182 39.4085 29.7306 39.4282ZM26.5494 32.2021C26.6492 32.0795 26.7585 31.9641 26.8775 31.8588C26.9975 31.7553 27.1255 31.6573 27.2714 31.5879C27.1812 31.7218 27.0876 31.8444 26.994 31.9682C26.8998 32.0909 26.8045 32.2113 26.7075 32.3305L26.4142 32.6856C26.3156 32.8043 26.2174 32.9196 26.1216 33.049C26.1376 32.8866 26.2064 32.7354 26.2815 32.5959C26.3588 32.4559 26.4496 32.3248 26.5494 32.2021ZM39.8166 34.3364C39.6976 34.4034 39.5724 34.4621 39.446 34.5162C39.3169 34.5642 39.1844 34.6111 39.0462 34.6225C39.2819 34.4845 39.4878 34.3218 39.6994 34.1585L40.3306 33.6691C40.5422 33.5064 40.7565 33.3465 40.9759 33.191C41.1965 33.0373 41.4193 32.8852 41.6601 32.7522C41.4941 32.971 41.3063 33.1674 41.1122 33.356C40.9164 33.5428 40.7116 33.7202 40.4962 33.8846C40.2807 34.049 40.0557 34.2022 39.8166 34.3364ZM39.9743 38.8831C39.9291 39.0164 39.8692 39.1446 39.793 39.2616C39.7179 39.3791 39.6298 39.4877 39.53 39.5851C39.429 39.6813 39.3185 39.7697 39.1843 39.8306C39.2347 39.6934 39.2957 39.5725 39.3601 39.455C39.4251 39.338 39.4923 39.2255 39.5635 39.1153C39.6352 39.0056 39.7058 38.8965 39.7826 38.7891C39.8599 38.6811 39.935 38.5725 40.0315 38.4611C40.043 38.6066 40.0174 38.7493 39.9743 38.8831ZM41.3195 26.4803C41.1752 26.5188 41.0218 26.5274 40.8807 26.4889C41.0206 26.4426 41.143 26.393 41.2603 26.3315C41.3765 26.2667 41.4859 26.1952 41.5942 26.1174C41.8097 25.9592 42.0094 25.7796 42.2366 25.6C42.1914 25.7394 42.1146 25.8637 42.0266 25.9779C41.9369 26.0916 41.8331 26.1951 41.7147 26.2819C41.5952 26.3675 41.4622 26.4374 41.3195 26.4803ZM40.6899 25.6026C40.6434 25.7095 40.5705 25.7978 40.4887 25.8755C40.4062 25.9526 40.3119 26.0168 40.2097 26.067C40.1081 26.1183 39.9964 26.1505 39.8829 26.1659C39.7694 26.1812 39.6514 26.1702 39.5435 26.1316C39.6507 26.0854 39.7484 26.0537 39.8428 26.0114C39.9371 25.9703 40.0292 25.9308 40.1201 25.884L40.3957 25.7447C40.4895 25.6968 40.5843 25.6483 40.6899 25.6026ZM26.3907 35.6707C26.6237 35.5866 26.8561 35.4525 27.08 35.3167C27.3051 35.1786 27.5262 35.0311 27.7423 34.8762C27.9577 34.7202 28.1721 34.5614 28.3819 34.3969C28.5912 34.2314 28.7994 34.0636 29.0053 33.8925C29.416 33.549 29.8171 33.1938 30.2188 32.8358C29.8689 33.2443 29.4987 33.636 29.1094 34.0092C28.9154 34.196 28.7168 34.379 28.512 34.5552C28.3078 34.7319 28.1002 34.9053 27.8842 35.0686C27.6687 35.2325 27.4482 35.3913 27.2186 35.5389C26.9857 35.6826 26.7528 35.8235 26.481 35.9251C26.412 35.9499 26.3423 35.973 26.2491 35.9811C26.239 35.9828 26.2232 35.9817 26.2103 35.9811C26.1957 35.98 26.1856 35.9812 26.1665 35.9773C26.1485 35.9734 26.1305 35.9684 26.1136 35.9622C26.0917 35.9516 26.0692 35.9364 26.0501 35.9202C26.0326 35.9017 26.018 35.8781 26.0061 35.8551C25.9982 35.8337 25.9937 35.8113 25.9909 35.7888C25.9897 35.7534 25.9941 35.7169 26.0014 35.6955C26.0047 35.6832 26.0081 35.6702 26.012 35.659L26.0243 35.6292C26.0327 35.6084 26.0422 35.5915 26.0517 35.5746C26.0702 35.5392 26.0898 35.5105 26.1094 35.4796C26.1504 35.4211 26.1913 35.3654 26.235 35.3125C26.4094 35.1015 26.5961 34.9085 26.811 34.7339C26.707 34.9903 26.5663 35.2232 26.4291 35.4498C26.3949 35.5066 26.3607 35.5617 26.3305 35.6169C26.3142 35.645 26.2986 35.6748 26.2862 35.7018C26.3194 35.6938 26.3553 35.6837 26.3907 35.6707ZM29.6457 32.5132C29.8922 32.1178 30.2164 31.7734 30.5546 31.4553C30.8951 31.1379 31.2553 30.8434 31.6274 30.5669C31.9994 30.2898 32.3827 30.0302 32.7733 29.7823C33.1645 29.535 33.563 29.3 33.9779 29.0892C33.6261 29.3932 33.2608 29.6764 32.8944 29.9557C32.5274 30.235 32.1588 30.5104 31.7901 30.7846C31.422 31.06 31.0539 31.3331 30.6931 31.6158C30.3329 31.9007 29.98 32.1901 29.6457 32.5132ZM30.722 30.0774C30.8483 30.0182 30.9751 29.95 31.1003 29.8807C31.3512 29.7409 31.5987 29.5921 31.8446 29.4406C32.3385 29.1403 32.8251 28.8259 33.3094 28.5077C33.7954 28.1922 34.2741 27.8655 34.7534 27.5399C35.2304 27.211 35.7068 26.8804 36.1737 26.5374C36.4082 26.3673 36.6394 26.1928 36.8678 26.0137C36.9817 25.9242 37.0945 25.833 37.2044 25.739C37.3149 25.6455 37.4238 25.5492 37.5253 25.4451C37.342 25.6713 37.1305 25.8734 36.9162 26.0709C36.7014 26.268 36.4792 26.456 36.2553 26.6423C35.8054 27.0117 35.3447 27.3676 34.8761 27.7128C33.9396 28.4038 32.9777 29.0588 31.986 29.6724C31.7368 29.8234 31.4853 29.9722 31.2277 30.1131C31.0986 30.1835 30.9683 30.2517 30.8319 30.3149C30.7629 30.3465 30.6938 30.3763 30.6141 30.4018C30.5944 30.408 30.5725 30.4142 30.5489 30.4193C30.5242 30.4238 30.4989 30.4295 30.4545 30.4256C30.4456 30.4251 30.4281 30.4212 30.4146 30.4173C30.4068 30.415 30.3961 30.41 30.3877 30.4055C30.3792 30.4016 30.3691 30.3943 30.3584 30.3854C30.3348 30.364 30.3336 30.3567 30.3241 30.3427C30.3162 30.3298 30.3111 30.3174 30.3071 30.3051C30.2981 30.2781 30.2975 30.2585 30.2969 30.2366C30.298 30.2197 30.2997 30.1989 30.303 30.186C30.3164 30.127 30.3377 30.0882 30.3584 30.0499C30.3797 30.0128 30.4015 29.9796 30.4245 29.947C30.4699 29.8829 30.5181 29.8244 30.5669 29.7675C30.665 29.6539 30.7671 29.5481 30.8709 29.4434C31.0784 29.2351 31.2944 29.0387 31.5137 28.8462C31.9508 28.46 32.403 28.0934 32.8608 27.7348C33.3204 27.3783 33.7855 27.0298 34.2637 26.6986C33.3806 27.4541 32.4998 28.2113 31.6562 29.0027C31.4464 29.2019 31.2399 29.4034 31.0408 29.61C30.9421 29.7135 30.8451 29.8187 30.756 29.9273C30.7117 29.9813 30.6685 30.0365 30.631 30.0916C30.6231 30.1034 30.6153 30.1158 30.6074 30.1276C30.6462 30.1118 30.6843 30.0954 30.722 30.0774ZM31.3771 32.0663C31.4904 31.9262 31.6109 31.7934 31.7332 31.6618C31.9799 31.4012 32.2363 31.1502 32.5005 30.9081C32.7625 30.6638 33.0357 30.4319 33.3089 30.2005C33.5844 29.9719 33.8655 29.7501 34.1483 29.5305C34.7189 29.098 35.302 28.6818 35.907 28.2987C36.5103 27.9134 37.1317 27.555 37.7784 27.2477C37.188 27.6521 36.6033 28.0576 36.0259 28.4738C35.7385 28.6833 35.449 28.89 35.1651 29.1045C34.8794 29.3163 34.5938 29.528 34.3133 29.7465C34.0299 29.9611 33.7499 30.1801 33.4711 30.4008C33.19 30.6187 32.9156 30.8451 32.6395 31.0686C32.3658 31.2949 32.092 31.5224 31.826 31.7577C31.6914 31.8742 31.5607 31.9941 31.4328 32.1174C31.3055 32.2412 31.1787 32.3661 31.0739 32.5113C31.1528 32.3493 31.265 32.2059 31.3771 32.0663ZM34.7805 30.5918C35.1272 30.312 35.479 30.0389 35.8382 29.7754C36.1967 29.5112 36.5615 29.2555 36.9313 29.0071C37.3017 28.7593 37.6772 28.5187 38.0684 28.3006C37.7431 28.6102 37.402 28.8979 37.0558 29.1783C36.7091 29.4581 36.3572 29.7306 35.9987 29.9948C35.6407 30.2594 35.2765 30.5146 34.9061 30.7624C34.5362 31.0103 34.1602 31.2508 33.7679 31.4695C34.0932 31.1599 34.4338 30.8722 34.7805 30.5918ZM35.6456 32.5029C35.0875 33.0045 34.4955 33.469 33.8883 33.9116C33.2801 34.3537 32.6549 34.7723 32.0134 35.1666C31.3679 35.5571 30.7039 35.9319 29.9818 36.1921C29.6213 36.3214 29.2479 36.426 28.8591 36.4744C28.7625 36.4875 28.6625 36.4871 28.5648 36.4906C28.4647 36.4835 28.367 36.4837 28.2681 36.4614C28.0736 36.4269 27.8746 36.357 27.7316 36.2213C27.9216 36.2608 28.102 36.2549 28.2795 36.2383C28.3677 36.2337 28.457 36.2138 28.544 36.2036L28.676 36.1775C28.7198 36.1701 28.7637 36.1616 28.8075 36.1503C29.1579 36.075 29.5038 35.9575 29.8441 35.8249C30.5246 35.5557 31.1915 35.2304 31.8421 34.8725C32.1682 34.6927 32.492 34.5073 32.8125 34.3169C33.1353 34.1298 33.4524 33.9321 33.7706 33.7371C34.0872 33.5388 34.4026 33.3382 34.7152 33.1326C35.0295 32.9293 35.3381 32.718 35.6456 32.5029ZM29.5814 36.6496C29.801 36.611 30.0173 36.5595 30.234 36.499C30.6659 36.3735 31.0875 36.1992 31.5046 36.0125C31.9229 35.827 32.3344 35.6206 32.7419 35.4042C33.1489 35.1872 33.5485 34.9522 33.947 34.715C34.7423 34.2366 35.5241 33.7347 36.3087 33.235C37.09 32.7302 37.8695 32.2221 38.6474 31.7106C37.9134 32.2838 37.166 32.8402 36.4101 33.3842C35.6559 33.9311 34.8877 34.4589 34.1065 34.9698C33.3219 35.4745 32.5294 35.981 31.6688 36.3758C31.2382 36.5703 30.7901 36.7374 30.3183 36.8377C30.0836 36.8892 29.8398 36.9194 29.5942 36.9052C29.3509 36.8899 29.0985 36.8325 28.9 36.6912C29.1405 36.7076 29.3607 36.687 29.5814 36.6496ZM36.7514 23.6631C36.4491 23.9761 36.1355 24.2777 35.813 24.5705L35.5684 24.7872L35.3198 25C35.151 25.1385 34.9804 25.2747 34.8042 25.406C34.7178 25.4735 34.6274 25.5355 34.5377 25.5997C34.449 25.6645 34.3541 25.7214 34.2559 25.7732C34.0623 25.8781 33.845 25.9571 33.6169 25.9743C33.7852 25.8162 33.9524 25.6923 34.1224 25.5611C34.2071 25.4963 34.2958 25.4389 34.3828 25.3758C34.4703 25.3149 34.559 25.2558 34.6448 25.1905C34.8182 25.0649 34.9871 24.9314 35.156 24.7986L35.4085 24.5976L35.6582 24.3921C35.9903 24.1167 36.3179 23.8353 36.6456 23.5521L37.6223 22.693C37.3487 23.0306 37.0543 23.3508 36.7514 23.6631ZM33.8167 26.5403C33.268 26.9739 32.7237 27.4108 32.1846 27.8539L31.38 28.5233C31.2459 28.6348 31.1141 28.7485 30.9817 28.8617C30.8487 28.9743 30.7158 29.0869 30.5845 29.2017C30.3197 29.428 30.0605 29.6605 29.8002 29.8919C29.5399 30.1232 29.2835 30.3585 29.0317 30.5978C28.5302 31.0818 28.0304 31.5518 27.5042 32.0241C27.5877 31.8683 27.6784 31.7142 27.7832 31.5724C27.8348 31.501 27.8869 31.429 27.9413 31.3592C27.9968 31.2906 28.0535 31.2236 28.1101 31.1561C28.3389 30.8877 28.589 30.6401 28.8465 30.4014C29.3592 29.9219 29.8882 29.4619 30.4302 29.0183C30.699 28.7942 30.9745 28.5774 31.2505 28.3629C31.3891 28.2564 31.5266 28.1478 31.6663 28.0425L32.0877 27.7293C32.6505 27.3143 33.2252 26.9144 33.8167 26.5403ZM29.5491 30.5418C28.4039 31.7759 27.7362 33.9868 27.2861 33.9022C26.8353 33.8181 27.9626 31.9469 29.5491 30.5418ZM26.2913 33.0819C26.4208 32.9316 26.5599 32.7876 26.7232 32.671C26.6235 32.8442 26.5221 33.0096 26.4207 33.176L26.1148 33.6704L25.8077 34.162C25.7058 34.3268 25.6049 34.4899 25.5142 34.6676C25.5223 34.4659 25.5894 34.2719 25.6649 34.0886C25.7427 33.9054 25.8368 33.7299 25.9415 33.5623C26.0469 33.3941 26.1629 33.2332 26.2913 33.0819ZM25.8342 34.8766C25.9727 34.6741 26.106 34.4688 26.2388 34.2624C26.3683 34.0537 26.4909 33.8417 26.617 33.6235C26.5702 33.8708 26.4847 34.1103 26.3783 34.3386C26.2708 34.5663 26.1436 34.7845 26.003 34.9921C25.8606 35.1991 25.7065 35.3971 25.5377 35.5823C25.37 35.768 25.1911 35.9447 24.9896 36.0967C25.128 35.8869 25.2704 35.6844 25.4133 35.483L25.8342 34.8766ZM26.9347 36.0659C27.2772 35.9316 27.6135 35.7793 27.9481 35.6248C28.615 35.3107 29.2735 34.9769 29.9286 34.6353C30.5836 34.2937 31.2331 33.942 31.8831 33.5886C32.532 33.2324 33.1775 32.8712 33.8269 32.506C33.2581 32.9879 32.6452 33.4154 32.0184 33.8165C31.3915 34.2187 30.746 34.5918 30.0853 34.9368C29.424 35.2801 28.7486 35.5998 28.0513 35.8679C27.7032 36.0033 27.3483 36.1241 26.9872 36.2231C26.6255 36.317 26.2543 36.4013 25.8795 36.3947C26.2457 36.3266 26.5927 36.2019 26.9347 36.0659ZM27.2699 38.8779C27.3176 38.8744 27.3654 38.8727 27.4131 38.8647C27.5086 38.8505 27.6035 38.8447 27.6985 38.8288L27.9827 38.7885C28.077 38.772 28.172 38.7595 28.2663 38.7447L29.4015 38.5652C29.7807 38.5067 30.1604 38.4504 30.5424 38.4032C30.9238 38.3542 31.3069 38.3103 31.6951 38.2882C31.3295 38.4215 30.9561 38.5232 30.5798 38.6121C30.2041 38.7021 29.8244 38.7746 29.4424 38.8337C29.0605 38.8917 28.6751 38.9356 28.2875 38.9548C28.1903 38.9578 28.0937 38.9636 27.9965 38.9649L27.7043 38.9614C27.6071 38.9582 27.5093 38.9483 27.4121 38.94C27.3149 38.9306 27.2182 38.9094 27.1238 38.8911L27.2699 38.8779ZM36.8261 43.3254C36.781 43.2603 36.7528 43.189 36.7302 43.1171C36.7081 43.0447 36.6945 42.97 36.6893 42.8942C36.6842 42.8183 36.6863 42.7408 36.7024 42.6643C36.7192 42.589 36.746 42.5114 36.7998 42.4524C36.7994 42.531 36.8035 42.6007 36.8086 42.672L36.8247 42.8844C36.8334 43.0265 36.8449 43.1698 36.8261 43.3254ZM37.9583 45.0422C38.0718 45.0392 38.0351 45.2859 37.939 45.2658C37.8429 45.2463 37.8454 45.0452 37.9583 45.0422ZM39.5041 40.2071C39.6223 39.9917 39.7472 39.7886 39.8722 39.5867L40.2465 38.9855C40.372 38.7864 40.4902 38.5839 40.6112 38.3814C40.7322 38.1784 40.8431 37.9709 40.9697 37.7588C40.951 38.0033 40.8902 38.2444 40.8035 38.4727C40.7145 38.7004 40.6071 38.9214 40.4776 39.1278C40.3493 39.3348 40.2041 39.5311 40.0438 39.714C39.8817 39.8957 39.7072 40.0674 39.5041 40.2071ZM40.4742 39.7604C40.6495 39.4595 40.821 39.1581 40.9873 38.8544C41.1553 38.5513 41.3099 38.2426 41.4627 37.9311C41.6156 37.619 41.7482 37.2996 41.8915 36.9735C41.8584 37.3264 41.7764 37.676 41.6601 38.0116C41.541 38.3461 41.3983 38.6734 41.2263 38.9844C41.056 39.2959 40.8644 39.5951 40.6525 39.8787C40.4389 40.1611 40.2096 40.4323 39.9448 40.6698C40.1201 40.3611 40.2994 40.0619 40.4742 39.7604ZM41.1343 40.034C41.2742 39.7079 41.418 39.3902 41.5574 39.0709C41.6979 38.7521 41.8333 38.4327 41.9648 38.1122C42.0974 37.7923 42.2159 37.4674 42.3322 37.1407C42.4491 36.8135 42.5446 36.4808 42.6497 36.1412C42.657 36.4957 42.6149 36.852 42.5374 37.1988C42.4565 37.5451 42.3521 37.8863 42.2167 38.2141C42.0824 38.5424 41.9262 38.8618 41.748 39.1678C41.5682 39.4726 41.3709 39.7685 41.1343 40.034ZM42.3029 26.5696C42.3551 26.5426 42.4062 26.5301 42.4539 26.5081C42.5017 26.4856 42.5488 26.4703 42.5915 26.4455C42.6802 26.4044 42.7593 26.3531 42.8334 26.2962C42.908 26.2394 42.9781 26.1746 43.0449 26.1015C43.1122 26.0283 43.1772 25.9495 43.2479 25.8612C43.2582 25.9758 43.2275 26.0882 43.1776 26.1911C43.1267 26.294 43.051 26.3863 42.9573 26.4578C42.8641 26.5293 42.7535 26.5807 42.639 26.5983C42.5255 26.6209 42.4086 26.6077 42.3029 26.5696ZM42.7453 43.4597C42.856 43.4342 43.0666 43.7249 42.8688 43.723C42.6711 43.7211 42.669 43.4772 42.7453 43.4597ZM43.3033 44.8291C43.1952 44.6422 43.467 44.5906 43.561 44.6927C43.4616 44.7013 43.3496 44.9082 43.3033 44.8291ZM42.9175 24.565C43.1518 24.2107 43.449 23.8972 43.7738 23.6197C44.0998 23.3421 44.45 23.0949 44.8024 22.8572C45.1548 22.62 45.5101 22.3902 45.8378 22.1362C46.1643 21.8812 46.46 21.6025 46.6785 21.283L46.6791 21.2836C46.7721 21.1267 46.8578 20.9664 46.9333 20.8011C46.977 20.701 47.0201 20.6004 47.0677 20.5008C47.1068 20.3985 47.1527 20.2979 47.1964 20.1955C47.2361 20.0915 47.2803 19.9886 47.3267 19.8841C47.3687 19.7784 47.4129 19.6726 47.4695 19.5664C47.5244 19.8343 47.5479 20.1067 47.5535 20.3798C47.5607 20.6528 47.5415 20.9259 47.5088 21.1973C47.4744 21.4688 47.4193 21.7374 47.3399 22.0005C47.2611 22.2619 47.1577 22.5222 46.9973 22.7455C47.0812 22.4858 47.1364 22.2256 47.1854 21.9626C47.2338 21.7001 47.2721 21.436 47.3065 21.1713C47.3176 21.0977 47.3265 21.0235 47.3348 20.9493C47.3314 20.9617 47.3281 20.974 47.3247 20.9864C47.2437 21.2663 47.1425 21.5413 47.0182 21.8061C46.8928 22.0698 46.7505 22.3274 46.5779 22.5653C46.4069 22.8027 46.2056 23.025 45.9632 23.1895C46.1476 22.9639 46.3029 22.7259 46.4452 22.479C46.5135 22.3542 46.5846 22.2316 46.6473 22.1039C46.7123 21.9774 46.7767 21.8509 46.8338 21.7204C46.8573 21.6698 46.8797 21.6181 46.9026 21.5669C46.8718 21.6136 46.8393 21.6592 46.8045 21.7031C46.7037 21.8471 46.596 21.986 46.4833 22.1188L46.3712 22.2516L46.2551 22.3799C46.1788 22.4666 46.0975 22.5482 46.0167 22.6292C45.8558 22.793 45.6914 22.9523 45.5226 23.1054C45.1877 23.4155 44.8438 23.7134 44.4942 24.0072C44.7762 23.6472 45.0757 23.3028 45.3762 22.9624L45.5994 22.7058C45.6319 22.6687 45.6639 22.631 45.6959 22.5938C45.4377 22.7505 45.1767 22.8964 44.9185 23.0441C44.5514 23.2537 44.1871 23.4656 43.8465 23.7117C43.5059 23.9567 43.1838 24.2337 42.9175 24.565ZM45.5479 14.5816C45.3106 14.5129 45.0734 14.4464 44.8267 14.4092C45.0773 14.3902 45.329 14.4291 45.5741 14.4793C45.8197 14.53 46.0603 14.6004 46.297 14.6825C46.5325 14.767 46.7653 14.8615 46.9885 14.9769C47.1005 15.034 47.2096 15.0968 47.3142 15.1668C47.3654 15.2032 47.4182 15.2374 47.4655 15.28C47.4891 15.3013 47.515 15.3187 47.5359 15.3428L47.5989 15.4124C47.5471 15.376 47.4988 15.339 47.4437 15.3104C47.3913 15.2779 47.3357 15.2516 47.2806 15.2242C47.1704 15.1693 47.0573 15.1206 46.9438 15.073C46.7161 14.9796 46.485 14.8918 46.2522 14.8107C46.0195 14.7274 45.784 14.6525 45.5479 14.5816ZM47.8564 12.8893C47.989 12.8997 48.1306 12.9248 48.2415 13.0044C48.1111 12.9782 47.9841 12.9868 47.8566 12.9955C47.7296 13.0058 47.6038 13.024 47.4797 13.0484C47.3555 13.0733 47.2331 13.1044 47.1141 13.1467C46.995 13.1897 46.88 13.2421 46.7677 13.3148C46.84 13.2012 46.9517 13.1139 47.0707 13.0502C47.1807 12.991 47.2992 12.9498 47.4205 12.9226C47.449 12.8703 47.4843 12.8231 47.5242 12.7808C47.573 12.7308 47.6285 12.6885 47.6874 12.6541C47.8048 12.5837 47.9362 12.5481 48.0659 12.5293C48.1962 12.51 48.3272 12.5143 48.4553 12.5264C48.584 12.5374 48.7099 12.5659 48.8341 12.5954C48.7071 12.5771 48.5806 12.5599 48.4531 12.5601C48.3261 12.5592 48.1991 12.5667 48.0778 12.5956C47.9571 12.6239 47.8392 12.6685 47.7421 12.7395C47.6933 12.7744 47.6495 12.8149 47.6131 12.8594C47.6041 12.8706 47.5974 12.883 47.5895 12.8942C47.6777 12.8851 47.7671 12.8827 47.8564 12.8893ZM53.4548 13.9753C53.3552 13.9047 53.2647 13.829 53.1741 13.7538L52.9051 13.5279C52.8157 13.4533 52.7268 13.3787 52.6356 13.3053L52.3582 13.0821C52.4774 13.1089 52.5893 13.1582 52.6945 13.2175C52.8002 13.2769 52.8998 13.3464 52.992 13.4238C53.0849 13.5012 53.1699 13.587 53.2481 13.6784C53.3269 13.7699 53.3979 13.8675 53.4548 13.9753ZM55.5422 25.5278C55.5178 25.0868 55.4676 24.6464 55.4045 24.2043C55.3436 23.7617 55.2665 23.3196 55.2084 22.8669C55.4024 23.2795 55.5503 23.7113 55.6662 24.1527C55.7799 24.5947 55.856 25.0491 55.8815 25.5087C55.9076 25.9682 55.8814 26.4323 55.7968 26.8848C55.711 27.3366 55.5724 27.7768 55.3703 28.1856C55.4364 27.7338 55.5014 27.2921 55.5315 26.8498C55.5639 26.4093 55.5665 25.9688 55.5422 25.5278ZM56.372 21.885C56.251 21.4616 56.0992 21.0472 55.9187 20.6453C55.5572 19.8402 55.0851 19.087 54.5849 18.3541L54.2435 17.8535L54.7117 18.237C55.0875 18.5448 55.3983 18.9207 55.6731 19.3119C55.7458 19.4157 55.8162 19.5206 55.8849 19.6267C55.8703 19.5969 55.8567 19.5672 55.8421 19.5374C55.6707 19.1972 55.4774 18.8666 55.2735 18.5422C55.0695 18.2178 54.8527 17.9008 54.6341 17.5854C54.4162 17.2689 54.1903 16.958 53.9634 16.6471L53.5748 16.114L54.089 16.5244C54.3292 16.7162 54.5571 16.9225 54.7665 17.1464C54.9771 17.3691 55.1713 17.6053 55.3515 17.8516C55.5323 18.0974 55.6985 18.3533 55.85 18.6171C55.9267 18.7484 55.9977 18.8832 56.0659 19.019C56.1341 19.1549 56.1995 19.2919 56.256 19.4328C56.1083 19.1684 55.9466 18.9125 55.7776 18.6627C55.6081 18.4136 55.4301 18.17 55.2426 17.9355C55.054 17.7015 54.857 17.4749 54.6471 17.2617C54.6324 17.2472 54.6172 17.2326 54.6026 17.218C54.8904 17.6175 55.1709 18.0233 55.434 18.442C55.6396 18.7703 55.8363 19.1054 56.0088 19.4546C56.0967 19.628 56.1757 19.8065 56.2507 19.9868C56.323 20.1681 56.389 20.3523 56.4466 20.5387L56.6653 21.2491L56.2827 20.612C56.0387 20.2057 55.7981 19.7976 55.5312 19.4115C55.4337 19.2701 55.3312 19.1321 55.2231 18.9997C55.5442 19.5025 55.8423 20.0217 56.0882 20.5691C56.2732 20.979 56.4296 21.4023 56.5466 21.837C56.6642 22.2711 56.7504 22.7142 56.7961 23.1614L56.8732 23.9124L56.6383 23.1965C56.5378 22.8905 56.435 22.585 56.3198 22.284C56.2064 21.982 56.0857 21.6833 55.9627 21.3846C55.8391 21.0864 55.7066 20.7917 55.5712 20.4986C55.437 20.2045 55.2944 19.9142 55.1461 19.6268C55.3179 19.9013 55.4735 20.1853 55.6268 20.471C55.7784 20.7573 55.9216 21.0481 56.0592 21.3417C56.1291 21.4882 56.1951 21.6364 56.2611 21.7847C56.3243 21.934 56.3892 22.0828 56.4484 22.2338C56.4586 22.2591 56.4687 22.2843 56.4789 22.3096C56.4466 22.167 56.4121 22.0254 56.372 21.885ZM54.5727 25.6851C54.5641 25.2682 54.5392 24.8502 54.5284 24.4232C54.6774 24.8236 54.7759 25.2403 54.8384 25.6633C54.8993 26.0868 54.9202 26.5177 54.8951 26.947C54.8706 27.3763 54.7994 27.804 54.6804 28.2171C54.5609 28.6297 54.3964 29.0278 54.1756 29.394C54.2643 28.9758 54.354 28.5683 54.4196 28.1586C54.4863 27.7495 54.5317 27.3398 54.5557 26.9274C54.5797 26.5155 54.583 26.1014 54.5727 25.6851ZM51.108 13.3062C51.2311 13.3599 51.3481 13.4356 51.4348 13.5405C51.3038 13.5087 51.183 13.4808 51.061 13.4597C50.9396 13.438 50.8199 13.4225 50.6997 13.4137C50.58 13.4049 50.4603 13.4051 50.339 13.4137C50.2171 13.4224 50.0952 13.4411 49.9615 13.4627C50.0563 13.3665 50.1781 13.2988 50.3078 13.257C50.4381 13.2158 50.5774 13.2004 50.7134 13.2103C50.8499 13.2201 50.9837 13.2525 51.108 13.3062ZM50.8671 13.0954C51.0254 13.0142 51.2232 13.0234 51.388 13.0911C51.4712 13.1252 51.5477 13.1729 51.6141 13.2323C51.6799 13.2918 51.7368 13.3625 51.7689 13.4461C51.693 13.3996 51.6244 13.3576 51.5518 13.3195C51.4804 13.2814 51.409 13.2473 51.3365 13.2171C51.264 13.1868 51.1892 13.1622 51.1122 13.1433C51.0346 13.1226 50.9548 13.1098 50.8671 13.0954ZM50.5231 14.6416C50.7522 14.8699 51.0574 14.9345 51.2043 14.7865C51.2211 14.7696 51.2346 14.7511 51.2458 14.7308C51.2392 14.8061 51.2107 14.8725 51.1613 14.9226C50.997 15.0869 50.6586 15.015 50.4036 14.7615C50.1498 14.5085 50.0768 14.1699 50.2405 14.005C50.291 13.9554 50.3567 13.9267 50.432 13.9198C50.4118 13.9305 50.3933 13.9446 50.3764 13.9615C50.2284 14.1089 50.2941 14.4139 50.5231 14.6416ZM50.9188 14.4162C50.8852 14.4522 50.8003 14.4271 50.73 14.3609C50.6596 14.2942 50.6303 14.2116 50.6639 14.1756C50.6667 14.1722 50.6706 14.1705 50.6746 14.1683C50.6701 14.1655 50.6656 14.1621 50.6611 14.1599C50.6048 14.1291 50.5458 14.1039 50.4711 14.0945C50.5333 14.0477 50.621 14.0431 50.6969 14.0592C50.7739 14.0765 50.8453 14.1135 50.9044 14.1634C50.964 14.2133 51.013 14.275 51.0457 14.3452C51.0773 14.4148 51.0948 14.4945 51.077 14.5699C51.0381 14.5048 50.9987 14.452 50.9553 14.4026C50.948 14.3942 50.9401 14.3869 50.9328 14.3785C50.9323 14.3931 50.9284 14.4066 50.9188 14.4162ZM49.9857 25.9694C50.0125 25.862 50.0331 25.753 50.0565 25.6445L50.0916 25.4821L50.1217 25.3185C50.1406 25.2095 50.1635 25.1004 50.179 24.9909C50.1962 24.8813 50.2146 24.7717 50.2268 24.6621C50.2412 24.5519 50.2567 24.4418 50.2627 24.3317L50.2776 24.1659L50.2824 23.9996C50.2845 23.944 50.2872 23.8878 50.2826 23.8327L50.2756 23.6647C50.2994 23.7737 50.331 23.8838 50.3391 23.9961C50.3459 24.0523 50.3517 24.1085 50.3568 24.1652L50.3627 24.3343C50.3685 24.4478 50.3625 24.5602 50.3594 24.6731C50.3584 24.7866 50.3451 24.8984 50.3363 25.0108C50.295 25.4604 50.2115 25.9044 50.1049 26.3422C50.0753 26.4513 50.048 26.5603 50.0167 26.6682L49.9184 26.9915C49.844 27.2045 49.7713 27.4176 49.6807 27.6251C49.5928 27.8331 49.4948 28.0367 49.3834 28.2335C49.3307 28.333 49.2646 28.4259 49.2041 28.5209C49.143 28.6154 49.0656 28.6998 48.9966 28.787C49.2235 28.3995 49.3846 27.9863 49.5322 27.568C49.6759 27.1486 49.8022 26.7231 49.907 26.2926C49.9372 26.1858 49.9595 26.0773 49.9857 25.9694ZM49.7752 17.1982C49.7273 17.1162 49.6794 17.041 49.6332 16.9641L49.4923 16.7385C49.445 16.6639 49.3971 16.5903 49.3464 16.5174L49.1882 16.2952C49.2776 16.3282 49.3569 16.3842 49.4261 16.4481C49.4959 16.5126 49.5567 16.5861 49.6068 16.6653C49.6575 16.7444 49.6987 16.8297 49.7292 16.9184C49.7591 17.0077 49.7823 17.1021 49.7752 17.1982ZM49.2919 26.6936C49.3138 26.6318 49.3316 26.5683 49.3529 26.5064L49.4143 26.3187C49.4339 26.2557 49.4495 26.1922 49.468 26.1292C49.4858 26.0657 49.5054 26.0028 49.5216 25.9393L49.5651 25.747L49.5874 25.6503C49.5946 25.6183 49.5974 25.5852 49.6029 25.5531L49.6346 25.357C49.632 25.489 49.6401 25.6239 49.6207 25.7559L49.5991 25.9554C49.5891 26.0212 49.5763 26.0869 49.5652 26.1527C49.553 26.2184 49.5418 26.2842 49.5273 26.3494L49.481 26.5439C49.452 26.6743 49.4135 26.8019 49.3755 26.93C49.2241 27.4416 49.0294 27.9391 48.81 28.4244C48.5872 28.9085 48.3352 29.3798 48.0444 29.8275C47.9743 29.9406 47.8964 30.0497 47.8185 30.1577C47.7429 30.2674 47.6582 30.3709 47.5741 30.475C47.4059 30.682 47.2169 30.874 47.011 31.0412C47.366 30.6462 47.645 30.199 47.9083 29.744C48.0382 29.5157 48.1631 29.284 48.2818 29.0495L48.4582 28.6969L48.6245 28.3393C48.7342 28.1003 48.8405 27.8597 48.939 27.6157C48.9916 27.4948 49.0391 27.3722 49.0861 27.2497L49.1577 27.0658L49.2248 26.8803L49.2919 26.6936ZM49.1462 32.1157C49.2011 32.0313 49.2582 31.9498 49.3182 31.8699C49.3782 31.79 49.441 31.7118 49.5088 31.6358C49.5773 31.5604 49.649 31.4856 49.7371 31.4186C49.7216 31.5282 49.6858 31.6277 49.6422 31.7233C49.5979 31.8183 49.5436 31.9083 49.4808 31.9921C49.418 32.0759 49.3462 32.1536 49.2654 32.2223C49.1841 32.2898 49.0943 32.3501 48.9893 32.3868C49.038 32.2873 49.0912 32.2006 49.1462 32.1157ZM49.7703 32.1079L50.018 31.717L50.2674 31.325C50.3531 31.1945 50.4394 31.0628 50.542 30.9363C50.517 31.097 50.4684 31.2499 50.4091 31.3989C50.3492 31.5473 50.2753 31.6902 50.1901 31.8257C50.105 31.9618 50.0069 32.0901 49.8958 32.2071C49.7842 32.3231 49.658 32.4295 49.5126 32.5033C49.6006 32.3661 49.6874 32.239 49.7703 32.1079ZM50.3957 32.0967C50.5072 31.9195 50.6142 31.7401 50.7184 31.5585L51.027 31.0085C51.1289 30.8234 51.2303 30.6367 51.3457 30.4534C51.309 30.6669 51.247 30.8738 51.171 31.0751C51.0955 31.2769 51.002 31.472 50.895 31.6599C50.7874 31.8472 50.6652 32.0272 50.5228 32.1915C50.3826 32.3563 50.2216 32.5083 50.0347 32.6199C50.1648 32.446 50.283 32.2739 50.3957 32.0967ZM51.1238 32.0595C51.2901 31.7384 51.4474 31.414 51.6008 31.0873C51.7542 30.7606 51.9025 30.4316 52.048 30.0993C52.1946 29.767 52.3351 29.4319 52.4885 29.0918C52.4722 29.4648 52.3987 29.8313 52.2993 30.1888C52.1977 30.5463 52.0668 30.8949 51.9089 31.2317C51.7511 31.5685 51.5673 31.893 51.3527 32.1979C51.1369 32.5005 50.8918 32.7909 50.5922 33.015C50.7849 32.6972 50.9574 32.3812 51.1238 32.0595ZM51.8384 20.2438C51.9331 20.0745 52.0379 19.9181 52.1309 19.7578C52.2244 19.5987 52.3073 19.4378 52.3722 19.2703C52.4377 19.1033 52.4851 18.9291 52.5196 18.7492C52.5553 18.5688 52.5758 18.3834 52.6058 18.1917C52.6606 18.377 52.6834 18.5708 52.6787 18.7669C52.6728 18.9625 52.635 19.1603 52.5628 19.3453C52.4912 19.5308 52.3864 19.7012 52.2625 19.8509C52.1369 19.9994 51.9967 20.1323 51.8384 20.2438ZM52.2143 30.7609C52.3474 30.4123 52.4699 30.0615 52.5828 29.7079C52.6957 29.3538 52.7984 28.9968 52.8933 28.6354C52.9894 28.274 53.0736 27.9086 53.1684 27.536C53.2146 27.9179 53.2012 28.3045 53.1552 28.6855C53.1076 29.0671 53.0234 29.4442 52.9071 29.8113C52.7903 30.1778 52.6409 30.5349 52.4572 30.8729C52.2724 31.2103 52.0555 31.5326 51.7863 31.8084C51.9368 31.4547 52.0812 31.11 52.2143 30.7609ZM52.8378 18.1969C52.8354 18.0902 52.8257 17.9801 52.8271 17.861C52.9048 17.9513 52.9589 18.0563 52.9951 18.1697C53.0301 18.2826 53.0444 18.4056 53.0334 18.5264C53.0229 18.6472 52.9877 18.7642 52.9356 18.8693C52.8824 18.9745 52.8157 19.0695 52.7288 19.1511C52.7392 19.032 52.7638 18.923 52.7838 18.8168C52.8044 18.7111 52.8211 18.6094 52.8305 18.5077C52.8399 18.4059 52.8419 18.3037 52.8378 18.1969ZM53.3133 29.4612C53.4138 29.0829 53.4986 28.7035 53.5687 28.3207C53.6388 27.938 53.6932 27.5525 53.7353 27.163C53.779 26.7736 53.8081 26.3808 53.8484 25.9796C53.9485 26.3699 53.9936 26.7721 54.0016 27.1755C54.0085 27.5789 53.9755 27.9841 53.9031 28.382C53.8307 28.7804 53.7185 29.1717 53.5669 29.5461C53.4141 29.92 53.2237 30.2794 52.981 30.6012C53.0972 30.215 53.214 29.84 53.3133 29.4612ZM56.367 24.542C56.2513 24.2343 56.135 23.9379 56.0244 23.6364C55.9137 23.3354 55.8076 23.0339 55.7076 22.7301C55.6077 22.4257 55.5127 22.1197 55.4257 21.8102C55.3398 21.4997 55.2594 21.1874 55.205 20.8622C55.3903 21.135 55.5397 21.4241 55.6761 21.7188C55.8109 22.0141 55.9289 22.3162 56.0305 22.6239C56.1322 22.9316 56.2176 23.2455 56.2816 23.5646C56.3428 23.883 56.3911 24.2111 56.367 24.542ZM58.4522 23.0473L58.2752 22.7111L58.1016 22.3743C58.043 22.2614 57.9838 22.1492 57.9274 22.0313C58.0281 22.1154 58.1143 22.2141 58.1909 22.3185C58.268 22.4229 58.3362 22.534 58.3959 22.6491C58.4557 22.7641 58.5065 22.8832 58.5494 23.0056C58.5917 23.128 58.6262 23.2527 58.6444 23.3824C58.5734 23.2718 58.5125 23.1596 58.4522 23.0473ZM58.0838 22.7783C58.1701 22.9669 58.2457 23.16 58.305 23.3588C58.3649 23.5571 58.4124 23.7598 58.4319 23.966C58.3574 23.7728 58.2829 23.583 58.2051 23.3944C58.1261 23.2063 58.0471 23.0188 57.9603 22.8352C57.8757 22.6505 57.7843 22.4692 57.6896 22.2896C57.5933 22.1105 57.4913 21.9343 57.382 21.7586C57.5345 21.8988 57.6645 22.0632 57.78 22.2355C57.896 22.4078 57.9947 22.5908 58.0838 22.7783ZM57.8749 23.1916C58.043 23.5683 58.1768 23.9602 58.2719 24.3607C58.3647 24.7617 58.4216 25.1706 58.442 25.5796C58.4635 25.9886 58.4585 26.3976 58.4328 26.8044C58.4231 26.3965 58.4084 25.9892 58.3628 25.5859C58.3166 25.1826 58.2479 24.7832 58.1393 24.3946C58.02 23.9526 57.8502 23.5276 57.6455 23.1195C57.6749 23.2003 57.7031 23.2812 57.7297 23.3626C57.8669 23.7798 57.9665 24.2084 58.0403 24.6409C58.0579 24.7493 58.0744 24.8577 58.0869 24.9666C58.1006 25.0756 58.116 25.184 58.1235 25.2936C58.1418 25.5121 58.1562 25.7312 58.1572 25.9509C58.1624 26.3891 58.1334 26.8297 58.0487 27.2585C58.0485 26.8214 58.0326 26.3888 57.9982 25.9579C57.9782 25.7427 57.9609 25.5276 57.9314 25.3136C57.9194 25.2063 57.9046 25.0996 57.8892 24.9928C57.8756 24.8861 57.8574 24.7794 57.8387 24.6732L57.8137 24.5131L57.7842 24.3542L57.7547 24.1952L57.7213 24.0369C57.7009 23.9307 57.6782 23.8251 57.6528 23.7207C57.6284 23.6156 57.6046 23.51 57.5775 23.4056C57.5639 23.3517 57.5492 23.2978 57.5345 23.2433C57.5663 23.4219 57.5958 23.6005 57.6214 23.7797C57.7016 24.3324 57.7553 24.8886 57.7804 25.4464C57.8044 26.0043 57.802 26.5633 57.7603 27.1196C57.7422 27.3978 57.709 27.6754 57.6701 27.9508C57.6329 28.2267 57.5795 28.5004 57.5193 28.7719C57.5353 28.6336 57.5553 28.4965 57.568 28.3583L57.5901 28.1515L57.6072 27.9441C57.6286 27.6677 57.6399 27.3912 57.6462 27.1142C57.6587 26.5608 57.6432 26.0079 57.6046 25.4563C57.5867 25.1804 57.5604 24.9052 57.5296 24.6311C57.4999 24.3564 57.4652 24.0822 57.4237 23.8093C57.3385 23.2644 57.2426 22.7168 57.1085 22.1855L56.9603 21.5986L57.2848 22.106C57.5045 22.4539 57.7051 22.8154 57.8749 23.1916ZM54.9979 17.0982C54.8279 16.9097 54.6619 16.7184 54.4947 16.5294C54.328 16.3397 54.1614 16.1501 53.9909 15.9644C53.8192 15.7799 53.6469 15.5965 53.4573 15.4215C53.6946 15.5261 53.905 15.6831 54.1008 15.8502C54.2983 16.0167 54.4778 16.2024 54.6478 16.3943C54.8178 16.5867 54.9766 16.7887 55.1225 16.9991C55.2695 17.209 55.407 17.4256 55.5208 17.658C55.3385 17.4757 55.1668 17.2878 54.9979 17.0982ZM54.2075 15.5264L53.5851 14.9089C53.3791 14.7025 53.1703 14.4994 52.957 14.3009C52.7426 14.1035 52.5271 13.9089 52.2919 13.7284C52.5697 13.8358 52.8217 14.0017 53.0591 14.1794C53.18 14.2668 53.2909 14.3649 53.4045 14.4603C53.5142 14.5595 53.6234 14.6599 53.7287 14.7637C53.9397 14.9712 54.1379 15.1911 54.3253 15.4189C54.5128 15.6472 54.6908 15.8835 54.8457 16.1371C54.6257 15.9375 54.4158 15.7328 54.2075 15.5264ZM50.2793 12.0283C50.3934 12.0742 50.5042 12.1319 50.6015 12.2098L50.248 12.1301C50.1317 12.1044 50.0159 12.0827 49.9001 12.0632C49.7843 12.0432 49.668 12.0294 49.5506 12.0183C49.4326 12.0062 49.3146 12.0069 49.1904 11.9998C49.3038 11.9513 49.4268 11.9202 49.5504 11.9127C49.6745 11.9035 49.7998 11.9072 49.9224 11.9289C50.0443 11.9489 50.1646 11.983 50.2793 12.0283ZM49.3233 12.2103C49.4425 12.241 49.56 12.2835 49.6663 12.3485L49.3055 12.3148C49.187 12.3044 49.0695 12.2978 48.9521 12.2935C48.8347 12.2887 48.7178 12.2894 48.5998 12.2941C48.4813 12.2971 48.3644 12.3131 48.2403 12.3223C48.3464 12.2597 48.4643 12.2129 48.5862 12.1896C48.708 12.1642 48.8328 12.1521 48.9569 12.1581C49.0805 12.1618 49.2036 12.1796 49.3233 12.2103ZM48.6272 16.1489C48.7138 16.1875 48.7948 16.2374 48.8679 16.2968C48.9416 16.3557 49.0075 16.4236 49.0655 16.4976C49.1224 16.5717 49.1742 16.6536 49.198 16.7469C49.1265 16.6846 49.0573 16.6286 48.9886 16.5708L48.7827 16.4026C48.7141 16.3471 48.6449 16.2927 48.574 16.24L48.3529 16.0797C48.4484 16.0829 48.5412 16.1103 48.6272 16.1489ZM48.594 27.2752C48.5841 27.3736 48.5814 27.4764 48.558 27.5736L48.5285 27.722C48.5168 27.7709 48.5028 27.8192 48.4894 27.8676C48.4754 27.9159 48.4626 27.9648 48.4469 28.0126L48.3983 28.1554C48.3676 28.2515 48.329 28.3443 48.2915 28.4371C48.1404 28.8098 47.9556 29.1669 47.7522 29.5128C47.5461 29.857 47.318 30.1889 47.0612 30.4984C46.9984 30.5766 46.9311 30.6514 46.8627 30.7257C46.7959 30.8005 46.723 30.8709 46.6512 30.9407C46.5065 31.0797 46.3466 31.2058 46.176 31.3101C46.4665 31.0354 46.7048 30.7215 46.9352 30.4014C47.0484 30.2399 47.1599 30.0774 47.2658 29.9114L47.425 29.6623L47.5773 29.4086C47.6787 29.2393 47.7773 29.0689 47.8714 28.8951C47.9207 28.8097 47.9666 28.7225 48.012 28.6348C48.0579 28.5476 48.1038 28.4604 48.147 28.3716C48.3205 28.0179 48.4873 27.6603 48.594 27.2752ZM45.9083 30.8622C46.1086 30.6742 46.2757 30.466 46.4405 30.2539C46.6031 30.0407 46.7577 29.8218 46.9074 29.5991C46.983 29.4883 47.0564 29.3758 47.127 29.2622C47.1646 29.2065 47.1993 29.1491 47.2341 29.0918C47.2688 29.0344 47.3047 28.9776 47.3383 28.9197C47.4733 28.6874 47.606 28.4551 47.7056 28.1999C47.6881 28.4763 47.5902 28.7422 47.4789 28.993C47.3664 29.2449 47.2274 29.4834 47.0761 29.7134C46.9237 29.9424 46.751 30.1584 46.5609 30.3587C46.3702 30.5552 46.1581 30.7437 45.9083 30.8622ZM43.5833 36.7093C43.6279 36.5188 43.6759 36.3299 43.7307 36.1422C43.7854 35.9544 43.8458 35.7672 43.9162 35.5823C43.9873 35.3979 44.0656 35.2146 44.1709 35.038C44.1747 35.243 44.1531 35.4408 44.1225 35.637C44.0908 35.8331 44.0473 36.0265 43.9926 36.217C43.9373 36.4076 43.8702 36.5959 43.7862 36.7781C43.7017 36.9597 43.602 37.1374 43.4674 37.2927C43.498 37.0915 43.5398 36.9004 43.5833 36.7093ZM45.2851 38.0015C45.5377 37.8471 45.7857 37.6877 46.0321 37.5243C46.2773 37.3598 46.5209 37.1926 46.7628 37.0208C47.0057 36.849 47.2448 36.6761 47.4816 36.4852C47.3303 36.7524 47.1183 36.978 46.8984 37.1863C46.6758 37.3934 46.4362 37.5821 46.1831 37.7505C45.93 37.9184 45.6628 38.0671 45.3837 38.1907C45.1047 38.3114 44.8133 38.4113 44.5105 38.4534C44.7766 38.3041 45.0331 38.157 45.2851 38.0015ZM46.1296 38.0427C46.4231 37.8422 46.711 37.6333 46.9972 37.4215C47.2834 37.2098 47.5673 36.9941 47.8506 36.7762C48.134 36.5577 48.4191 36.3432 48.6962 36.109C48.5035 36.42 48.2483 36.6845 47.9903 36.9383C47.7289 37.1899 47.4512 37.4247 47.1594 37.6398C46.8676 37.8555 46.5617 38.0544 46.2395 38.2257C45.9178 38.3943 45.5765 38.542 45.2165 38.605C45.5375 38.4354 45.8361 38.2449 46.1296 38.0427ZM45.9769 38.7301L46.051 38.6907C46.0756 38.6772 46.0987 38.6603 46.1222 38.6456C46.2159 38.5831 46.3125 38.5296 46.4017 38.4609C46.5863 38.3352 46.7631 38.1984 46.941 38.0638C47.295 37.7919 47.6378 37.5036 47.9829 37.2182L49.0129 36.3528L49.5274 35.9171C49.6996 35.7718 49.8724 35.6277 50.0402 35.4757C49.9175 35.6681 49.7677 35.8397 49.6208 36.0124C49.4706 36.1818 49.3163 36.3484 49.1565 36.5088C48.8385 36.8307 48.5052 37.138 48.1563 37.4274C47.8073 37.7168 47.4465 37.9927 47.0621 38.2372C46.8701 38.3595 46.6731 38.475 46.4682 38.5759C46.3677 38.6289 46.2594 38.6701 46.1544 38.7135C46.1274 38.7237 46.1022 38.7355 46.0746 38.744L45.9921 38.7683C45.9371 38.783 45.8826 38.7994 45.8275 38.813L45.9769 38.7301ZM45.9798 13.874C46.5998 13.9915 47.8416 14.4097 48.4419 14.9132C48.0674 14.7099 46.4915 14.0951 45.4889 13.9721C45.4889 13.9721 47.6544 14.6651 47.9127 14.9422C45.7191 14.1638 42.7095 13.6341 41.648 13.8567C41.0874 13.9745 40.5227 14.2576 40.1236 14.4841C40.1219 14.4841 40.1197 14.4847 40.118 14.4847C40.7272 13.9364 41.3705 13.5768 42.2688 13.5236C43.4255 13.4553 45.8444 13.8512 45.8691 13.8551L45.9798 13.874ZM18.9151 48.6947C18.7901 48.491 20.7361 46.7089 22.4337 45.5952C21.0878 47.0819 19.0994 48.995 18.9151 48.6947ZM17.6909 48.3906C17.4523 48.1871 24.5127 42.0733 24.5127 42.0733C21.104 46.6852 17.9295 48.5942 17.6909 48.3906ZM15.178 41.6404C15.3609 41.4541 15.5482 41.2729 15.7361 41.0916C15.924 40.9104 16.1142 40.732 16.3088 40.558C16.6959 40.2079 17.0988 39.8763 17.5072 39.5508C17.7132 39.3898 17.9219 39.2327 18.1385 39.0851C18.3551 38.9381 18.5768 38.795 18.8126 38.6783C18.4357 39.0441 18.0604 39.4004 17.6767 39.7511C17.2913 40.099 16.9115 40.4536 16.5222 40.797C16.3275 40.9693 16.1334 41.141 15.9365 41.311L15.3491 41.8233C14.9559 42.1633 14.5592 42.4988 14.1457 42.822C14.459 42.4001 14.8135 42.0141 15.178 41.6404ZM24.1942 34.8626C23.7193 35.4528 13.6963 44.8741 13.4238 44.5347C13.1513 44.1952 20.3023 38.1549 24.1942 34.8626ZM23.9967 38.67C23.6534 38.9841 23.3078 39.2881 22.9623 39.5926L21.9278 40.5063L20.8967 41.4222C20.8103 41.4982 20.7261 41.5764 20.6414 41.6535C20.555 41.7295 20.4715 41.8083 20.3879 41.8871C20.2202 42.0442 20.0513 42.2006 19.9016 42.3779C20.0012 42.1659 20.1476 41.9808 20.2894 41.7963C20.4357 41.6151 20.5883 41.439 20.7481 41.2702C21.0661 40.9308 21.4004 40.6089 21.7477 40.3021C22.0943 39.9942 22.4562 39.7036 22.8294 39.4277C23.2026 39.1529 23.5881 38.8921 23.9967 38.67ZM14.9016 45.2788C14.9437 45.2518 14.9881 45.2309 15.0274 45.1994C15.1076 45.1397 15.1907 45.0867 15.2692 45.0271L15.5049 44.8469L15.736 44.6611C16.0407 44.4088 16.3448 44.1555 16.6455 43.8976C16.9473 43.6404 17.2492 43.3825 17.5561 43.1286C17.8613 42.873 18.1698 42.6208 18.4925 42.3797C18.2492 42.701 17.9795 42.9981 17.6996 43.2845C17.4203 43.5716 17.1263 43.844 16.8217 44.1047C16.5165 44.3647 16.1972 44.6103 15.8605 44.8316C15.7752 44.8852 15.6916 44.9415 15.6046 44.9933L15.3391 45.1399C15.2481 45.1844 15.1549 45.2256 15.0623 45.2656C14.9685 45.3034 14.8691 45.3306 14.7737 45.3588L14.9016 45.2788ZM22.2846 41.2108C20.7927 43.3545 16.9225 46.1996 14.6808 47.2063C14.6808 47.2063 20.6725 42.726 22.2846 41.2108ZM40.7655 50.7564C40.6222 50.7566 40.5406 51.004 40.4398 50.839C40.3389 50.6734 40.6833 50.6459 40.7655 50.7564ZM42.0957 50.9423C42.036 50.8705 42.1149 50.6631 42.1941 50.6264C42.2732 50.5898 42.4064 50.6204 42.4353 50.7221C42.3133 50.7223 42.1655 51.0271 42.0957 50.9423ZM41.2092 50.9764C41.4344 50.9424 41.5707 51.1202 41.5878 51.2449C41.5878 51.2449 41.4944 51.167 41.3584 51.1627C41.2224 51.1585 41.1558 51.3035 41.0523 51.2228C40.9927 51.1763 40.9839 51.0105 41.2092 50.9764ZM44.5324 46.2996C44.5521 46.345 44.7022 46.356 44.7084 46.4156C44.7142 46.4751 44.663 46.4696 44.6805 46.4948C44.6974 46.5201 44.8761 46.5737 44.8762 46.6108C44.8763 46.6479 44.7712 46.6509 44.7999 46.6902C44.8281 46.73 45.0833 46.8088 45.0834 46.8425C45.0834 46.8762 44.9728 46.8938 45.0015 46.9303C45.0296 46.9673 45.2904 47.032 45.3108 47.0882C45.3305 47.1449 45.2288 47.1423 45.2626 47.1703C45.2969 47.1983 45.6026 47.2518 45.6112 47.3001C45.6197 47.3484 45.4921 47.3255 45.5405 47.371C45.5889 47.4164 45.6876 47.3482 45.7417 47.433C45.7958 47.5177 45.7048 47.5465 45.7307 47.5549C45.756 47.5633 46.0734 47.5628 46.0932 47.6251C46.113 47.6874 46.0029 47.7017 46.0394 47.7241C46.0766 47.7465 46.303 47.7545 46.3199 47.7916C46.3368 47.8286 46.2464 47.8142 46.2919 47.8512C46.3375 47.8882 46.4903 47.8846 46.5387 47.944C46.5872 48.0035 46.7343 47.9836 46.822 48.0256C46.9098 48.0681 46.9356 48.0653 46.9469 48.1214C46.9588 48.1804 46.7717 48.1442 46.7662 48.238C46.7123 48.2353 46.7346 48.1162 46.6637 48.0798C46.5928 48.0428 46.3575 48.1028 46.3294 48.0607C46.3012 48.018 46.3152 47.9731 46.2865 47.9529C46.2584 47.9333 46.1814 47.9699 46.1308 47.9391C46.0796 47.9083 46.003 47.7781 45.9211 47.8406C45.8392 47.9031 45.9213 47.9906 46.0489 48.019C46.1765 48.0469 46.0688 48.1353 46.0919 48.1662C46.1144 48.197 46.2616 48.2142 46.3073 48.2765C46.3529 48.3388 46.245 48.3446 46.262 48.4013C46.2789 48.458 46.4352 48.4802 46.438 48.5173C46.4409 48.5544 46.0841 48.5179 46.0952 48.4499C46.1063 48.3819 46.109 48.3308 46.0072 48.2629C45.9054 48.1951 46.0211 48.1843 45.9418 48.0973C45.8624 48.0109 45.9331 47.9512 45.7459 47.9033C45.5587 47.8553 45.6636 47.7506 45.618 47.7023C45.5724 47.6541 45.4142 47.7566 45.3714 47.7028C45.3286 47.6489 45.4734 47.5526 45.3991 47.5044C45.3254 47.4562 45.2408 47.5782 45.2008 47.5188C45.1608 47.4593 45.2061 47.3485 45.178 47.3148C45.1498 47.2806 44.9798 47.4028 44.9545 47.3607C44.9291 47.3181 44.9968 47.1567 44.9315 47.0832C44.8662 47.0097 44.7732 47.1346 44.7388 47.0723C44.7044 47.01 44.7692 46.8144 44.7383 46.7695C44.7073 46.724 44.6304 46.7753 44.6163 46.736C44.6022 46.6961 44.6272 46.5629 44.6159 46.5376C44.6047 46.5124 44.5199 46.5491 44.4996 46.5182C44.4799 46.4873 44.4993 46.3597 44.4683 46.3059C44.4373 46.252 44.1167 46.043 44.1335 45.9721C44.1502 45.9013 44.1732 45.89 44.167 45.8473C44.1613 45.8047 43.9545 45.7769 43.9655 45.678C43.9766 45.5791 44.1295 45.6154 44.1638 45.6636C44.1976 45.7119 44.2575 45.873 44.3031 45.9522C44.3488 46.0313 44.5753 46.113 44.5726 46.1781C44.5699 46.2433 44.5126 46.2547 44.5324 46.2996ZM47.2777 48.3743C47.3178 48.445 47.1612 48.5453 47.1082 48.465C47.0739 48.4139 47.2383 48.3035 47.2777 48.3743ZM46.9372 49.6637C46.8266 49.6808 46.6962 49.3579 46.8119 49.3353C46.9142 49.3154 47.0479 49.6467 46.9372 49.6637ZM46.8984 48.3058C46.873 48.2396 47.0622 48.1707 47.091 48.233C47.1192 48.2953 46.9339 48.3979 46.8984 48.3058ZM46.2416 48.6704C46.2472 48.6081 46.5416 48.6188 46.5277 48.7009C46.5138 48.7835 46.2361 48.7328 46.2416 48.6704ZM44.2622 48.6575C44.1536 48.5555 43.8373 48.5819 43.7459 48.6455C43.7945 48.4797 43.9349 48.4457 43.9983 48.4175C44.0618 48.3899 44.0341 48.3242 44.1554 48.3111C44.2768 48.2979 44.3489 48.4231 44.2787 48.4553C44.2091 48.488 44.2322 48.5154 44.2622 48.6575ZM44.676 48.1259C44.676 48.1259 44.7307 47.96 44.8224 47.9874C44.914 48.0148 44.9539 48.0383 44.9694 48.2147C44.9496 48.153 44.7371 48.0831 44.676 48.1259ZM44.0467 45.5301C44.0467 45.5301 43.9507 45.5275 43.9081 45.6011C43.8597 45.5557 43.7898 45.3957 43.8593 45.3433C43.888 45.3225 43.956 45.3662 44.0467 45.5301ZM47.5312 50.6892C47.531 50.5914 47.3818 50.4091 47.2288 50.3245C47.2288 50.3245 47.292 50.1587 47.4624 50.2477C47.6328 50.3368 47.6455 50.5446 47.5312 50.6892ZM47.6384 48.6709C47.681 48.6427 47.7855 48.6307 48.0522 48.8286C48.3188 49.0265 48.3531 49.3321 48.2654 49.3317C48.1778 49.3307 48.0955 49.1713 47.953 48.9934C47.8111 48.815 47.5368 48.739 47.6384 48.6709ZM49.7799 48.8487C49.7994 48.7638 49.9864 48.7236 50.1056 48.7492C49.9922 48.7949 49.8741 49.0468 49.9535 49.1799C49.8006 49.1515 49.7604 48.9335 49.7799 48.8487ZM49.2019 48.6317C49.3324 48.7079 49.1066 49.042 48.9985 48.9377C48.9017 48.8446 49.0715 48.5555 49.2019 48.6317ZM48.7078 49.7798C48.7413 49.6691 49.0102 49.5355 49.206 49.6829C49.4018 49.8297 49.3652 50.1501 49.3652 50.1501C49.3652 50.1501 49.257 49.9575 48.8493 50.0689C48.8861 49.9076 48.9877 49.8338 48.9877 49.8338C48.9432 49.7935 48.8639 49.7228 48.7078 49.7798ZM50.2985 48.8815C50.4034 48.7791 50.5136 48.7963 50.6728 48.9005C50.5227 48.8924 50.4007 49.1802 50.3277 49.1534C50.2731 49.1338 50.1936 48.9839 50.2985 48.8815Z" fill="#7E8798"/>
</g>
<defs>
<filter id="filter0_d" x="0.180664" y="0.227539" width="73.761" height="86.6094" filterUnits="userSpaceOnUse" color-interpolation-filters="sRGB">
<feFlood flood-opacity="0" result="BackgroundImageFix"/>
<feColorMatrix in="SourceAlpha" type="matrix" values="0 0 0 0 0 0 0 0 0 0 0 0 0 0 0 0 0 0 127 0"/>
<feOffset dy="4"/>
<feGaussianBlur stdDeviation="2"/>
<feColorMatrix type="matrix" values="0 0 0 0 0 0 0 0 0 0 0 0 0 0 0 0 0 0 0.25 0"/>
<feBlend mode="normal" in2="BackgroundImageFix" result="effect1_dropShadow"/>
<feBlend mode="normal" in="SourceGraphic" in2="effect1_dropShadow" result="shape"/>
</filter>
</defs>
</svg>
