<svg width="74" height="87" viewBox="0 0 74 87" fill="none" xmlns="http://www.w3.org/2000/svg">
<g filter="url(#filter0_d)">
<rect x="4" width="65.76" height="46.0814" fill="#26478C"/>
<path d="M37.291 78.6094C12.3022 68.2004 4.685 52.5869 4 46.0813H69.76C68.116 65.5981 42.634 75.7632 37.291 78.6094Z" fill="#26478C"/>
<path d="M27.9799 19.3538C27.9942 19.2301 28.0594 19.0773 28.0702 18.9973C28.1098 18.7645 28.1527 18.3789 27.8218 18.3759C27.7964 18.3759 27.7854 18.3468 27.789 18.3286C27.5784 18.5108 27.3678 18.693 27.1609 18.8788C27.5684 19.0236 27.7108 19.3833 27.6969 19.7688C27.7912 19.6268 27.8855 19.4921 27.9799 19.3538Z" fill="#C7D19C"/>
<path d="M17.2949 35.602C17.3581 36.4055 17.4722 37.2053 17.6372 37.9905C17.6799 37.4414 17.7153 36.9031 17.5252 36.3143C17.4485 36.0745 17.3717 35.8382 17.2949 35.602Z" fill="#C7D19C"/>
<path d="M22.8233 19.5485C22.4932 19.9088 22.174 20.2801 21.873 20.6659C22.327 20.4652 22.5769 20.0032 22.8233 19.5485Z" fill="#C7D19C"/>
<path d="M25.7936 23.264C25.9204 22.9801 26.0509 22.6999 26.1886 22.4233C26.2717 22.1504 26.3367 21.8703 26.3399 21.5794C26.3427 21.0994 25.843 20.2457 25.2986 20.8466C25.2841 20.8612 25.2731 20.8503 25.2695 20.8358C24.5582 21.677 23.9414 22.5253 23.4229 23.4062C23.8838 22.8454 24.6102 22.3351 25.0335 23.1707C25.2706 23.6394 25.17 24.3124 25.1236 24.8106C25.1164 24.8943 25.102 24.9743 25.0912 25.0543C25.2179 24.6868 25.3555 24.323 25.5003 23.9627C25.7134 23.0932 25.6445 21.1297 24.602 21.7969C24.5693 21.8188 24.5438 21.7679 24.5728 21.7461C25.4046 21.141 25.8029 22.2785 25.7936 23.264Z" fill="#C7D19C"/>
<path d="M28.9194 18.0686C29.1007 17.8394 29.2857 17.6173 29.4707 17.3917C29.5177 17.2535 29.5392 17.1081 29.4555 16.9992C29.205 17.1886 28.9546 17.3817 28.7078 17.5747C28.8752 17.698 28.9336 17.8796 28.9194 18.0686Z" fill="#C7D19C"/>
<path d="M29.8587 16.6957C29.7462 16.7795 29.6373 16.8633 29.5284 16.9434C29.5976 17.0087 29.6341 17.0923 29.6488 17.1831C29.9861 16.79 30.338 16.4042 30.6971 16.0328C30.4249 16.2623 30.1455 16.4844 29.8587 16.6957Z" fill="#C7D19C"/>
<path d="M20.7173 29.5379C20.732 29.6251 20.7358 29.7124 20.7287 29.7997C20.9357 29.6539 21.1682 29.5262 21.2988 29.315C21.3277 29.2023 21.3202 29.1005 21.2146 28.9988C21.1672 28.9516 21.149 28.8898 21.1343 28.8244C21.1013 28.6426 21.1773 28.4243 21.217 28.2533C21.2242 28.2206 21.2715 28.2351 21.2643 28.2678C21.239 28.406 21.2066 28.5515 21.2177 28.6934C21.2289 28.8315 21.3053 28.8787 21.3782 28.9549C21.8488 25.5904 23.0985 22.7591 25.3996 20.2061C26.5502 18.9277 27.7919 17.791 29.172 16.7595C30.4322 15.8192 31.6483 14.6134 33.0544 13.8765C32.1164 14.0054 31.175 14.287 30.2664 14.5394C30.2082 14.5541 30.1501 14.5724 30.0919 14.587C28.9835 14.9962 27.9262 15.5144 26.9272 16.1306C26.8365 16.2435 26.7676 16.3709 26.7242 16.5055C26.7134 16.5456 26.6515 16.5275 26.6624 16.4875C26.6877 16.3929 26.7239 16.3055 26.7674 16.2255C26.662 16.2911 26.5567 16.364 26.4514 16.4333C26.3353 16.608 26.2665 16.8082 26.2742 17.0409C26.2743 17.0881 26.2088 17.0846 26.2051 17.041C26.1939 16.8701 26.2191 16.7028 26.277 16.5499C26.2116 16.5937 26.1463 16.6374 26.0845 16.6812C26.012 16.7795 25.9467 16.8814 25.9105 16.9942C25.8201 17.2707 25.8824 17.5506 25.9737 17.8232C25.9847 17.8596 25.9302 17.8815 25.912 17.8488C25.7697 17.569 25.722 17.3145 25.7579 17.0708C25.3154 17.748 25.553 18.4458 25.1395 19.0756C24.5519 19.9675 23.7896 20.7143 23.1729 21.5881C21.486 23.9801 20.4614 26.5892 20.7173 29.5379Z" fill="#C7D19C"/>
<path d="M27.3816 20.2754C27.5481 19.7733 27.7325 19.1766 27.1248 18.9122C26.6019 19.3895 26.0973 19.8922 25.6219 20.4239C25.5239 20.5368 25.4295 20.6461 25.3315 20.7589C25.6801 20.4565 26.1495 20.6266 26.3648 21.0481C26.4742 21.2625 26.5147 21.5206 26.5078 21.7824C26.5876 21.6332 26.671 21.4839 26.7544 21.3347C26.8698 20.7927 27.0822 19.5632 26.3481 19.7935C26.3154 19.8045 26.2935 19.75 26.3262 19.739C26.9075 19.4762 27.0942 20.1632 27.0661 20.7851C27.1677 20.614 27.2728 20.4465 27.3816 20.2754Z" fill="#C7D19C"/>
<path d="M28.6251 18.458C28.7519 18.207 28.8494 17.8616 28.6056 17.6585C28.3406 17.8697 28.0757 18.0846 27.818 18.3068C28.116 18.2663 28.269 18.4804 28.2622 18.7676C28.2623 18.8076 28.2587 18.8766 28.2516 18.9602C28.3749 18.7892 28.5018 18.6218 28.6251 18.458Z" fill="#C7D19C"/>
<path d="M34.0897 47.6674C33.9878 47.6167 33.8896 47.5624 33.7914 47.508C33.7914 47.5226 33.7841 47.5371 33.7733 47.5444C33.8787 47.5842 33.9842 47.624 34.0897 47.6674Z" fill="#C7D19C"/>
<path d="M37.6638 51.1417C38.7866 50.6598 39.9716 50.4105 41.2079 50.3647C41.6261 50.3495 42.0442 50.2942 42.4623 50.2317C40.7205 50.2419 38.9087 49.7432 37.2115 50.3788C36.5429 50.6309 36.0123 50.8573 35.4708 51.0073C35.4672 51.0218 35.4635 51.0364 35.4454 51.0437C34.7478 51.3867 34.1951 51.4058 33.6783 51.1994C33.6711 51.2031 33.6674 51.2067 33.6602 51.2067C33.3038 51.211 32.9076 51.2917 32.5475 51.2632C32.333 51.2963 32.1149 51.3185 31.9004 51.3297C32.9044 51.5789 33.9229 51.7445 34.9412 51.8155C35.3012 51.7894 35.6611 51.7488 36.0356 51.6718C36.6063 51.5544 37.1186 51.2917 37.6638 51.1417Z" fill="#C7D19C"/>
<path d="M38.5262 51.6237C38.37 51.7149 38.2319 51.7915 38.0902 51.8645C39.7007 51.5854 41.271 51.2081 42.8339 50.7654C42.2268 50.8756 41.6124 50.9566 40.9944 51.0595C40.2164 51.1881 39.2201 51.2189 38.5262 51.6237Z" fill="#C7D19C"/>
<path d="M17.9477 36.8695C18.0616 37.5202 17.9244 38.1204 17.8128 38.7534C17.8494 38.9024 17.8896 39.0514 17.9299 39.1968C18.0601 38.7747 18.1866 38.3491 18.1459 37.9019C18.1421 37.8546 18.2185 37.8436 18.2258 37.8908C18.314 38.4252 18.1513 38.9491 18.0067 39.4658C18.0579 39.6329 18.1127 39.8001 18.1676 39.9637C18.2944 39.6835 18.3993 39.4033 18.3879 39.0833C18.3878 39.0469 18.4387 39.0468 18.4424 39.0832C18.4831 39.4649 18.3783 39.8288 18.2407 40.1781C18.3101 40.378 18.3904 40.5742 18.4671 40.7705C18.5103 40.4867 18.7425 40.1918 19.0481 40.2749C19.3719 40.3653 19.3143 40.6854 19.1364 40.8748C19.1219 40.8893 19.0928 40.8967 19.0746 40.8821C19.0054 40.8314 19.0164 40.8422 18.9799 40.7659C18.9726 40.7514 18.9798 40.7368 18.9871 40.7259C18.9434 40.686 18.8924 40.6352 18.8159 40.5589C18.776 40.6536 18.7398 40.7482 18.7 40.8428C18.7185 41.0137 18.7879 41.1917 18.919 41.3115C19.1776 41.5474 19.5339 41.5323 19.8391 41.3863C20.1734 41.2257 20.4786 41.0506 20.8568 41.0791C20.8932 41.0827 20.8969 41.1372 20.8569 41.1373C20.2678 41.1528 19.8724 41.699 19.287 41.7327C19.1015 41.7439 18.9378 41.6642 18.803 41.5408C18.865 41.6716 18.9271 41.7988 18.9928 41.9259C19.5353 42.3323 20.1712 42.0694 20.7561 41.7229C21.2356 41.4384 21.8756 41.4119 22.3922 41.5783C23.4692 41.9255 23.4245 43.4529 22.7566 44.1413C22.1794 44.7351 21.2013 44.7622 20.9963 43.9771C20.8833 43.7918 20.8174 43.581 20.8862 43.3773C20.9911 43.0789 21.2088 42.7876 21.558 42.8197C21.7507 42.8376 21.9947 43.0263 21.9405 43.2409C21.908 43.3682 21.8245 43.4666 21.7702 43.5685C22.2669 44.8513 23.0168 43.1882 22.8267 42.6248C22.6001 41.9525 21.9924 41.6844 21.3236 41.8565C20.8729 41.9736 20.2701 42.4874 19.7864 42.4555C19.55 42.4413 19.3499 42.369 19.1715 42.2602C19.2591 42.4237 19.3539 42.5835 19.4487 42.7433C19.4777 42.6888 19.5285 42.645 19.5867 42.6122C19.6339 42.5867 19.674 42.6557 19.6304 42.6849C19.5614 42.725 19.5251 42.7832 19.518 42.8596C19.6019 42.9976 19.6821 43.132 19.7696 43.2664C19.8164 42.9936 19.976 42.7388 20.2122 42.6293C20.2376 42.6184 20.2558 42.6511 20.234 42.6656C19.958 42.8698 19.8712 43.1535 19.9008 43.4553C20.0175 43.626 20.1342 43.7967 20.2617 43.9602C20.2062 43.4148 20.4199 42.9017 20.8992 42.4572C20.9355 42.4244 20.9901 42.4752 20.9538 42.5117C20.6271 42.8395 20.3405 43.2218 20.4067 43.709C20.4362 43.9235 20.4984 44.1307 20.5642 44.3342C20.8047 44.6283 21.0561 44.9152 21.3257 45.1874C21.475 45.3399 21.6353 45.4887 21.7919 45.6376C21.6752 45.4669 21.5332 45.318 21.4201 45.1364C21.3909 45.0928 21.46 45.0563 21.4891 45.0963C21.6349 45.2887 21.8388 45.4266 21.9664 45.63C22.0138 45.7063 22.0576 45.7826 22.105 45.8589C22.1081 45.5207 22.2129 45.175 22.3979 44.9056C22.4161 44.8801 22.4561 44.9019 22.4416 44.931C22.2133 45.375 22.2249 45.7786 22.3746 46.1675C24.1592 47.7572 26.2525 49.1355 28.4979 50.1389C28.5051 50.1134 28.5196 50.0916 28.5523 50.0915C28.6069 50.0914 28.6215 50.1496 28.5998 50.186C28.7017 50.2295 28.7999 50.2729 28.9018 50.3164C28.9345 50.3091 28.9637 50.3236 28.9782 50.3453C29.7315 50.6604 30.4956 50.9282 31.2742 51.1523C31.5251 51.1665 31.7833 51.1624 32.0415 51.1474C31.7213 51.0498 31.4048 50.9412 31.0629 50.9454C31.0302 50.9455 31.0338 50.9018 31.0629 50.8982C31.55 50.8428 31.9505 51.0894 32.4269 51.0922C32.565 51.092 32.7068 51.0808 32.8486 51.066C32.9432 51.0549 33.0377 51.0402 33.1322 51.0292C32.7466 50.9644 32.3719 50.8341 32.0152 50.6674C31.473 50.4175 31.0074 50.371 30.4221 50.4556C30.2367 50.4814 30.2039 50.4596 30.0329 50.4199C29.9966 50.4127 30.011 50.3581 30.0474 50.3653C30.4221 50.4447 30.8472 50.2658 31.2327 50.2833C31.4364 50.2939 31.691 50.3589 31.8803 50.4349C32.2624 50.5906 32.6444 50.6991 33.0336 50.8075C32.8807 50.6914 32.7278 50.5608 32.5675 50.4119C31.4457 49.3702 29.9929 50.3836 28.8932 49.5128C28.8604 49.4874 28.904 49.4327 28.9367 49.4545C29.8687 50.1002 31.0165 49.2873 31.9845 49.7511C32.3994 49.9468 32.6107 50.1791 32.9349 50.4949C33.2664 50.8108 33.6122 50.992 33.9723 51.0677C35.5359 51.0141 36.7161 50.0885 38.2613 49.9004C38.7884 49.8376 39.3121 49.8331 39.8358 49.8577C38.7045 49.6378 37.5912 49.3088 36.4995 48.8888C35.1644 48.5711 33.979 48.6277 32.5426 48.6301C31.3354 48.6322 30.3242 48.503 29.2903 47.8502C29.2503 47.8248 29.2866 47.763 29.3266 47.7883C31.0666 48.8181 32.6329 48.2409 34.4802 48.2668C34.713 48.2701 34.9203 48.2842 35.113 48.3021C34.9456 48.226 34.7782 48.1427 34.6108 48.0629C34.014 47.8131 33.4136 47.5813 32.7734 47.4879C32.1296 47.3945 31.4712 47.2647 30.8852 46.9675C29.7278 46.3804 28.9482 45.5271 28.4589 44.3643C28.4444 44.3607 28.4334 44.3535 28.4225 44.3389C28.1965 44.012 28.4722 43.6443 28.3008 43.3209C28.2971 43.3137 28.3007 43.3064 28.3044 43.3027C28.2825 43.3064 28.2571 43.3028 28.2389 43.281C27.5682 42.3513 26.4971 41.1749 25.2824 41.1261C24.5769 41.0982 24.2966 40.9241 24.2626 40.2042C24.2517 40.1969 24.2408 40.186 24.2407 40.1678C24.2367 39.9351 24.1964 39.7534 24.0833 39.5645C23.9453 39.6629 23.7964 39.7504 23.6912 39.8851C23.6948 39.8997 23.6948 39.9106 23.684 39.9251C23.6694 39.9433 23.6586 39.9652 23.6513 39.9834C23.6405 40.0198 23.626 40.0598 23.6115 40.0962C23.5971 40.1544 23.5826 40.209 23.5427 40.2527C23.5354 40.2599 23.5282 40.2636 23.5209 40.2672C23.481 40.3255 23.4375 40.3765 23.3866 40.4238C23.216 40.5841 22.9214 40.5592 22.7684 40.3849C22.6445 40.2433 22.5495 40.0144 22.611 39.8252C22.6689 39.6469 22.8288 39.5848 22.9998 39.639C23.0471 39.6535 23.0363 39.7226 22.9891 39.7227C22.8363 39.723 22.7492 39.7995 22.7713 39.9594C22.786 40.0758 22.8554 40.2211 22.9682 40.2755C23.041 40.3117 23.1064 40.297 23.1609 40.2533C23.1609 40.2424 23.1608 40.2315 23.1681 40.2242C23.2153 40.1769 23.2516 40.1259 23.2878 40.0713C23.3241 39.9912 23.3603 39.9148 23.4002 39.8384C23.4327 39.7474 23.4581 39.6637 23.4762 39.6164C23.4834 39.5946 23.4979 39.58 23.5124 39.5654C23.5233 39.5254 23.5378 39.489 23.5413 39.4454C23.5736 39.1908 23.6641 38.9252 23.5 38.6963C23.4855 38.6782 23.5145 38.6563 23.5327 38.6708C23.7039 38.856 23.7189 39.1142 23.7157 39.3542C23.7122 39.4269 23.7087 39.4996 23.6979 39.5688C23.7125 39.5869 23.7234 39.6123 23.7198 39.6451C23.7199 39.6524 23.7162 39.656 23.7162 39.6633C23.7888 39.5504 23.8832 39.4521 24.0031 39.4264C24.014 39.4155 24.0213 39.4082 24.0285 39.4009C24.0467 39.3863 24.0794 39.3826 24.094 39.4008C24.1013 39.4081 24.1086 39.419 24.1158 39.4262C24.1377 39.4371 24.1522 39.4516 24.1523 39.4734C24.2981 39.6768 24.4076 39.9203 24.3353 40.1713C24.3317 40.1822 24.3244 40.1859 24.3208 40.1932C24.3914 41.1021 24.9693 40.9302 25.6205 41.0455C25.9587 41.1067 26.2681 41.2335 26.5484 41.4366C27.2256 41.9264 27.8703 42.5253 28.3515 43.2118C28.3697 43.2408 28.3625 43.2626 28.3443 43.2809C28.428 43.328 28.4609 43.4152 28.4756 43.5061C28.4793 43.5061 28.4792 43.4988 28.4829 43.4988C28.5047 43.4988 28.5048 43.5351 28.4829 43.5352C28.4793 43.5352 28.4829 43.5315 28.4793 43.5315C28.483 43.5606 28.483 43.5861 28.4831 43.6152C28.4798 43.8443 28.4148 44.0589 28.5388 44.2733C28.5424 44.2805 28.5388 44.2842 28.5424 44.2878C29.2688 45.8721 30.6961 46.9533 32.4493 47.2048C32.8967 47.2695 33.3041 47.3743 33.6935 47.5118C33.0018 47.0439 32.3282 46.5541 31.6836 46.0388C31.0828 45.5671 30.5002 45.0699 29.9392 44.5436C29.932 44.5364 29.9283 44.5254 29.9283 44.5182C26.2314 41.0335 23.7256 36.605 23.9308 31.1573C23.9482 30.7064 23.9838 30.2554 24.0303 29.8044C24.0194 29.7899 24.0084 29.7753 24.0084 29.7499C24.008 29.5426 24.0295 29.3426 24.0655 29.1425C24.0582 29.1352 24.051 29.1352 24.0473 29.1243C23.9083 28.6228 24.7085 24.5122 23.4658 25.0889C23.4331 25.1035 23.404 25.0563 23.4367 25.0417C24.1887 24.644 24.4386 26.1418 24.4154 27.451C24.4623 27.2472 24.5128 27.0471 24.5634 26.8434C24.5634 26.8398 24.5598 26.8325 24.5597 26.8289C24.7037 25.9232 24.9203 25.0319 24.9369 24.1082C24.9436 23.7373 24.9706 22.5554 24.1675 22.8768C23.6951 23.0667 23.394 23.4708 23.1583 23.9003C23.1547 23.9076 23.1475 23.9149 23.1402 23.9149C22.3028 25.4691 21.753 27.1355 21.4617 29.0524C21.5347 29.205 21.4767 29.3324 21.3424 29.449C21.3315 29.4599 21.3169 29.4599 21.3024 29.4563C21.0701 29.7367 20.6668 29.9229 20.5983 30.2684C20.5262 30.6431 20.9516 30.6133 21.1047 30.8421C21.2323 31.0346 21.2436 31.2419 21.2985 31.46C21.7067 32.0048 22.5657 32.4397 22.4978 33.1416C22.4085 34.0654 21.9406 34.8153 21.3382 35.5073C20.7248 36.2174 19.9225 36.9752 19.7023 37.921C19.3557 39.4162 20.1879 39.0475 21.18 38.693C21.9395 38.419 22.7789 38.0539 23.4962 38.5727C23.5399 38.6054 23.5036 38.6745 23.4527 38.6492C22.2333 37.9749 20.7374 39.312 19.4755 39.2669C19.4173 39.2633 19.37 39.2198 19.3699 39.1616C19.3452 37.5143 20.1909 36.5674 21.2107 35.3802C22.1071 34.335 22.8506 33.1628 21.6414 32.0558C21.3391 31.7799 21.1896 31.5547 21.0689 31.1695C21.0653 31.1549 21.0725 31.144 21.0834 31.1404C21.036 31.0386 20.9813 30.9514 20.8939 30.9043C20.7738 30.8391 20.6465 30.792 20.53 30.7195C20.3953 30.6361 20.3222 30.4362 20.3583 30.2834C20.3836 30.167 20.438 30.076 20.5069 29.9959C20.5429 29.7922 20.5935 29.5921 20.6041 29.3848C20.3667 26.7124 21.1988 24.1873 22.7078 21.9665C23.4441 20.8816 25.2231 19.2058 24.9517 17.8681C24.9333 17.7699 24.9514 17.6717 24.9948 17.5734C24.6572 17.9304 24.3888 18.3018 24.1569 18.7822C23.9358 19.2371 23.7257 19.6993 23.4137 20.0998C23.4028 20.1144 23.3773 20.0962 23.3882 20.0817C23.7436 19.5538 23.946 18.7825 24.2831 18.1419C24.2177 18.2002 24.1523 18.2585 24.087 18.3168C23.7785 18.6919 23.5356 19.1178 23.3183 19.5945C23.0538 20.1732 22.7855 20.6536 22.186 20.9274C22.1642 20.9383 22.1459 20.9056 22.1677 20.8947C22.9851 20.4169 23.2672 19.4855 23.7094 18.6775C23.4372 18.947 23.1904 19.2347 22.9946 19.5842C22.6792 20.1556 22.509 20.5705 21.8402 20.7243C21.7749 20.8081 21.7095 20.8918 21.6442 20.9756C21.7642 20.9463 21.8841 20.9279 22.0114 20.9095C22.0441 20.9058 22.0587 20.9494 22.026 20.9604C21.8298 21.0225 21.6299 21.1102 21.4592 21.2268C21.4556 21.2305 21.4519 21.2341 21.4483 21.2341C21.3794 21.3288 21.3104 21.4234 21.2452 21.5217C21.3251 21.4852 21.4123 21.4596 21.4996 21.4486C21.5614 21.4375 21.5906 21.5284 21.5252 21.5467C21.1872 21.6455 21.0094 21.8567 20.8171 22.1407C20.8135 22.1479 20.8062 22.1552 20.8026 22.1625C20.9988 22.064 21.206 22.0127 21.3879 22.0342C21.4242 22.0378 21.4425 22.096 21.3989 22.1069C21.0027 22.1949 20.7194 22.3917 20.4907 22.6685C20.7051 22.5554 20.945 22.4932 21.1852 22.5873C21.2179 22.5982 21.218 22.66 21.178 22.6528C20.8288 22.6097 20.5091 22.7885 20.2477 23.0471C20.1861 23.1527 20.1245 23.2582 20.0628 23.3638C20.339 23.2215 20.6516 23.181 20.9282 23.3078C20.9792 23.3295 20.9429 23.4059 20.892 23.3951C20.3063 23.2543 19.9251 23.644 19.6677 24.0917C19.6532 24.1209 19.6387 24.15 19.6242 24.1791C19.744 24.0771 19.8675 23.9823 20.0056 23.9166C20.3944 23.7269 20.74 23.8281 20.7844 24.2898C20.7881 24.3262 20.7372 24.3263 20.7263 24.2972C20.4524 23.6395 19.8644 24.2878 19.4615 24.7248C19.6795 24.6335 19.9232 24.6404 20.1163 24.8365C20.4441 25.1741 20.4124 25.7523 20.3113 26.1779C20.3005 26.2252 20.2277 26.2072 20.2385 26.1599C20.3107 25.8252 20.3281 25.3925 20.124 25.0983C19.8725 24.7387 19.4182 24.9176 19.1459 25.1799C18.8163 25.9114 18.5266 26.661 18.277 27.4215C18.3387 27.345 18.4077 27.2721 18.4948 27.2065C18.6764 27.0644 18.8544 26.9696 18.945 26.7403C18.9594 26.7003 19.0213 26.7147 19.0104 26.7584C18.9309 27.0349 18.6948 27.1553 18.5206 27.3665C18.2847 27.6505 18.1107 27.9781 18.0058 28.331C17.9986 28.3565 17.9914 28.3856 17.9842 28.4111C17.9842 28.4147 17.9842 28.422 17.9806 28.4256C18.1728 28.1635 18.3797 27.9231 18.6266 27.6972C18.8444 27.5005 19.0877 27.3073 19.2692 27.0743C19.636 26.8009 19.6682 26.5318 19.3696 26.2741C19.3119 26.5288 19.072 26.6019 18.8644 26.3877C18.5219 26.0428 19.1684 25.5435 19.4738 25.543C20.0993 25.5419 19.9916 26.3785 19.785 26.7425C19.2593 27.6634 18.3475 28.2432 17.8216 29.0623C17.5472 30.2155 17.3638 31.3904 17.2895 32.5723C17.2859 32.6341 17.286 32.6996 17.2825 32.7614C17.3416 33.3213 17.4262 33.8739 17.6926 34.3826C17.8896 34.7604 18.0793 35.1237 18.0873 35.5601C18.0874 35.5965 18.0328 35.5966 18.0291 35.5602C17.988 34.9057 17.518 34.3756 17.2552 33.7979C17.2515 33.7942 17.2515 33.7906 17.2515 33.7833C17.2486 34.1761 17.2565 34.5724 17.2754 34.9687C17.5056 35.612 17.8339 36.2151 17.9477 36.8695ZM28.635 47.4113C28.6605 47.4258 28.6896 47.4367 28.7151 47.4512C28.7478 47.4584 28.7334 47.513 28.7006 47.5021C28.657 47.4913 28.6315 47.4804 28.5987 47.4514C28.5696 47.426 28.6095 47.3896 28.635 47.4113ZM25.0243 47.5775C24.9007 47.5705 24.9004 47.3923 25.024 47.3884C25.344 47.377 25.6749 47.3801 25.9875 47.2922C26.3074 47.2044 26.4888 47.0005 26.754 46.8218C26.8121 46.7817 26.8849 46.8471 26.8705 46.9125C26.6574 47.7384 25.6644 47.6055 25.0243 47.5775ZM26.8401 46.1489C26.9128 46.1488 26.913 46.2579 26.8403 46.258C26.7676 46.2618 26.7674 46.1491 26.8401 46.1489ZM25.9308 48.1505C25.8507 48.107 25.8832 47.9688 25.9778 47.9723C26.196 47.9828 26.3923 47.957 26.5812 47.8403C26.7301 47.7492 26.839 47.5962 27.0025 47.5378C27.0461 47.5232 27.1007 47.5631 27.0972 47.6103C27.0794 47.8576 26.8143 48.0399 26.6108 48.1421C26.3964 48.2552 26.1456 48.2702 25.9308 48.1505ZM27.0261 48.6032C26.9898 48.5924 26.9497 48.5815 26.9206 48.5525C26.9097 48.5416 26.906 48.5343 26.9024 48.5271C26.9024 48.5307 26.8988 48.538 26.8915 48.5453C26.8624 48.5635 26.8333 48.5235 26.855 48.498C26.8877 48.4653 26.8732 48.4689 26.8876 48.4253C26.9129 48.3343 27.0402 48.2941 27.1057 48.3667C27.1167 48.3812 27.1312 48.3921 27.1422 48.4066C27.2114 48.4938 27.1426 48.643 27.0261 48.6032ZM27.2415 49.0719C27.2378 49.061 27.2342 49.0538 27.2305 49.0429C27.2086 48.9811 27.2667 48.9046 27.3321 48.9118C27.343 48.9118 27.3539 48.9117 27.3612 48.9154C27.6485 48.9367 27.3474 49.3445 27.2415 49.0719ZM27.726 49.5657C27.5914 49.5659 27.5911 49.355 27.7256 49.3548C27.8602 49.3545 27.8605 49.5654 27.726 49.5657ZM28.1921 49.9576C28.1594 49.9468 28.1412 49.9395 28.112 49.9214C28.0429 49.8779 28.0863 49.7541 28.17 49.7831C28.2027 49.7939 28.2209 49.8012 28.2464 49.823C28.312 49.8665 28.2758 49.9829 28.1921 49.9576ZM25.2923 42.6497C25.9289 42.7941 27.2311 43.0246 27.2545 43.9191C27.2623 44.2318 27.1144 44.9521 27.213 45.1883C27.3518 45.519 27.6285 45.7149 27.8544 45.9763C28.1604 46.3285 28.0704 46.8523 28.362 47.2336C28.3766 47.2554 28.3439 47.2809 28.3257 47.2628C28.0561 46.9723 28.0958 46.7868 27.9679 46.4307C27.7962 45.9618 27.3414 45.8172 27.177 45.4065C27.0382 45.0504 27.0778 44.7885 27.1317 44.4284C27.344 43.0971 26.1364 42.8919 25.2851 42.6752C25.2705 42.6716 25.2777 42.6461 25.2923 42.6497ZM24.857 45.4032C25.1702 45.6936 25.6317 45.4964 25.8821 45.216C26.2015 44.8518 26.2477 44.1826 25.7599 43.9326C25.3632 43.7296 24.4977 43.6838 24.4422 43.1203C24.4385 43.0803 24.4967 43.0838 24.5004 43.1202C24.5519 43.5164 25.0283 43.5229 25.3375 43.566C25.6176 43.6019 25.8831 43.656 26.1161 43.8229C26.6586 44.2147 26.5257 45.1458 26.0572 45.5394C25.7341 45.809 25.3598 45.9806 24.9378 45.8722C24.5885 45.7855 24.3806 45.4149 24.3873 45.0804C24.4008 44.4513 25.3928 44.0314 25.5142 44.8094C25.5326 44.9293 25.3873 45.0569 25.2889 44.9407C25.1869 44.8208 25.0375 44.6393 24.8814 44.8214C24.7399 44.9816 24.6749 45.2326 24.857 45.4032ZM25.3244 46.5188C25.8589 46.5361 26.1458 46.2738 26.4797 45.895C26.5087 45.8586 26.5851 45.8839 26.5779 45.9348C26.5061 46.4732 26.1032 46.8666 25.5468 46.8821C24.9396 46.9013 24.4518 46.6185 23.9241 46.3576C23.9131 46.3503 23.9204 46.3358 23.9313 46.3394C24.3932 46.4004 24.8625 46.5014 25.3244 46.5188ZM23.6519 42.4271C23.6336 42.3835 23.6954 42.347 23.7173 42.3906C23.9472 42.8775 24.0244 43.3537 23.8434 43.874C23.7277 44.2088 22.68 46.127 23.7997 45.9323C23.8506 45.925 23.9016 45.9867 23.8544 46.0268C23.4368 46.3766 22.9453 46.0392 22.8936 45.5484C22.8603 45.2394 23.1395 44.7916 23.2846 44.5441C23.7016 43.8343 24.0206 43.2664 23.6519 42.4271ZM23.7514 45.3324C23.6349 45.2671 23.602 45.1545 23.6309 45.0308C23.6489 44.9617 23.7508 44.9906 23.7364 45.0597C23.7329 45.1361 23.7584 45.2015 23.8094 45.2523C23.8531 45.2922 23.806 45.3614 23.7514 45.3324ZM23.6866 45.6925C23.4393 45.6893 23.4207 45.4711 23.464 45.2783C23.4749 45.2347 23.544 45.2418 23.544 45.2891C23.537 45.4491 23.5844 45.4963 23.7227 45.5615C23.7918 45.5869 23.7556 45.6924 23.6866 45.6925ZM23.7178 44.8015C23.7213 44.7615 23.7249 44.7215 23.7248 44.6815C23.7284 44.6161 23.8229 44.6159 23.8266 44.6813C23.8267 44.7213 23.8304 44.7613 23.8341 44.8013C23.8452 44.8777 23.7106 44.8779 23.7178 44.8015ZM25.3932 40.0131C25.659 40.1836 25.9538 40.314 26.2159 40.4917C26.2559 40.5208 26.2197 40.5863 26.176 40.5609C25.9066 40.3941 25.6264 40.2455 25.3606 40.0714C25.3242 40.046 25.3568 39.9914 25.3932 40.0131ZM25.1889 39.6098C25.2181 39.6825 25.2473 39.7479 25.2802 39.8133C25.2984 39.8497 25.2439 39.8825 25.2257 39.8461C25.1928 39.7735 25.1636 39.7008 25.1344 39.6245C25.127 39.5918 25.1743 39.5771 25.1889 39.6098ZM24.8569 38.9668C24.9987 38.9665 25.0245 39.141 24.9373 39.2103C24.9665 39.272 24.9921 39.3374 25.0213 39.3992C25.0286 39.4174 25.0031 39.432 24.9958 39.4138C24.9703 39.352 24.9447 39.2866 24.9191 39.2248C24.901 39.2321 24.8828 39.2394 24.8574 39.2395C24.6864 39.2398 24.686 38.967 24.8569 38.9668ZM24.4851 38.4619C24.4961 38.5274 24.5253 38.5855 24.5327 38.6509C24.5438 38.7637 24.5984 38.7708 24.7075 38.7852C24.762 38.7924 24.7658 38.8796 24.7076 38.8761C24.624 38.869 24.5476 38.8473 24.4748 38.8074C24.4602 38.7965 24.4529 38.7784 24.4565 38.7602C24.4818 38.6583 24.4489 38.5674 24.4415 38.4693C24.4378 38.4402 24.4814 38.4365 24.4851 38.4619ZM24.2222 37.8005C24.1643 38.0043 24.1501 38.208 24.1468 38.4189C24.2232 38.4369 24.296 38.4368 24.376 38.4367C24.4123 38.4366 24.4124 38.4948 24.3761 38.4948C24.2852 38.495 24.2088 38.4915 24.1251 38.4516C24.1142 38.448 24.1141 38.4371 24.1178 38.4298C24.0083 38.23 24.1461 37.9898 24.2222 37.8005C24.2185 37.8006 24.2222 37.8005 24.2222 37.8005ZM23.2116 31.664C23.2229 31.8894 23.2851 32.0784 23.3509 32.2892C23.3619 32.3292 23.3074 32.3475 23.2891 32.3148C23.1688 32.1259 23.1466 31.8823 23.1498 31.6605C23.1498 31.6277 23.2079 31.6276 23.2116 31.664ZM22.9714 31.5335C23.0295 31.5079 23.0769 31.5842 23.0225 31.617C22.9353 31.6717 22.8735 31.7082 22.7717 31.712C22.739 31.7121 22.7244 31.683 22.728 31.6539C22.7856 31.3374 23.156 31.0241 22.89 30.7263C22.8718 30.7046 22.9008 30.6754 22.9191 30.6972C23.2032 30.9949 22.9055 31.2791 22.8297 31.5992C22.8769 31.5773 22.9242 31.5554 22.9714 31.5335ZM22.4756 30.7962C21.835 30.4591 22.1834 30.0657 22.4954 29.5961C23.0068 28.8243 22.3188 28.4036 22.343 27.68C22.3672 26.9454 22.6606 26.2939 22.9067 25.6099C22.9248 25.5626 23.0012 25.5806 22.9831 25.6316C22.7154 26.4066 22.2261 27.3602 22.5657 28.1814C22.6935 28.4903 22.814 28.781 22.8255 29.1192C22.8447 29.73 21.809 30.1464 22.53 30.727C22.5664 30.7596 22.5156 30.8179 22.4756 30.7962ZM21.3964 37.6781C21.3347 37.6964 21.2655 37.6347 21.2872 37.5692C21.5224 36.907 21.9762 36.4698 22.4626 35.9781C23.3121 35.1221 23.8408 33.812 23.2497 32.6639C23.2351 32.6349 23.2787 32.6057 23.2969 32.6384C23.9171 33.7974 23.4322 35.1837 22.5646 36.0797C22.3686 36.2837 22.158 36.4841 21.9802 36.7025C21.7224 36.8884 21.61 37.1286 21.6469 37.4159C22.0394 37.2734 22.4573 37.0945 22.8864 37.1083C23.3701 37.1256 23.8172 37.0485 24.1633 37.4297C24.1998 37.4697 24.1526 37.5388 24.1053 37.5062C23.3297 36.933 22.1961 37.4476 21.3964 37.6781ZM22.0751 41.117C22.0969 41.1133 22.1151 41.1133 22.1369 41.1169C22.1987 41.1241 22.1989 41.2077 22.137 41.2151C22.1152 41.2188 22.0971 41.2188 22.0752 41.2152C22.0098 41.2117 22.0096 41.1244 22.0751 41.117ZM21.6968 41.074C21.7113 41.0667 21.7222 41.0594 21.7368 41.0521C21.8203 41.0083 21.8751 41.1355 21.7879 41.172C21.7734 41.183 21.7552 41.1903 21.7407 41.2012C21.7116 41.2267 21.6679 41.2086 21.6679 41.1723C21.6679 41.1577 21.6678 41.1432 21.6678 41.1286C21.6678 41.1068 21.6786 41.085 21.6968 41.074ZM21.4038 39.8636C21.5238 39.8634 21.5241 40.0525 21.4041 40.0527C21.2841 40.0529 21.2838 39.8638 21.4038 39.8636ZM21.2822 41.0493C21.3185 41.031 21.3331 41.0237 21.3767 41.0273C21.4131 41.0309 21.4386 41.0672 21.4205 41.1036C21.3987 41.14 21.3878 41.1509 21.3515 41.1692C21.2716 41.2057 21.2023 41.0931 21.2822 41.0493ZM20.7817 39.7228C20.8946 39.7881 20.9783 39.8207 21.0076 39.9661C21.0296 40.0788 21.0407 40.1624 20.9681 40.2534C20.9427 40.2862 20.8736 40.2791 20.8554 40.2391C20.7933 40.0974 20.8802 39.8863 20.7455 39.7702C20.7236 39.7447 20.7563 39.7047 20.7817 39.7228ZM20.109 39.7204C20.5236 39.7451 20.5829 40.3741 20.4561 40.6689C20.4199 40.7562 20.2925 40.7055 20.2887 40.6255C20.2775 40.4073 20.3748 39.9308 20.0947 39.8367C20.0328 39.815 20.0399 39.7168 20.109 39.7204ZM19.7985 41.0154C19.7404 41.0883 19.6275 40.9939 19.6747 40.9175C19.9358 40.4807 19.8692 39.8335 19.2582 39.7945C19.24 39.7946 19.2327 39.7619 19.2545 39.7582C19.9779 39.6333 20.1722 40.5348 19.7985 41.0154ZM19.6084 31.9102C19.4636 32.3177 20.18 32.3165 20.3803 32.5234C20.588 32.7412 20.571 33.4322 20.5387 33.6868C20.4777 34.1633 20.0999 34.3712 19.8351 34.7898C19.0844 35.9766 18.6683 37.1991 18.9071 38.6169C18.9181 38.6787 18.8236 38.708 18.809 38.6426C18.8089 38.6389 18.8089 38.6389 18.8089 38.6353C18.8054 38.6716 18.7836 38.7044 18.7363 38.7045C18.6381 38.7047 18.6379 38.5519 18.7361 38.5518C18.7761 38.5517 18.7979 38.5808 18.8053 38.6098C18.6145 37.6574 18.7183 36.6718 19.135 35.7838C19.4321 35.1469 21.7142 32.1102 19.4674 32.4304C19.4311 32.4341 19.4056 32.4123 19.4091 32.3723C19.4161 32.2014 19.4595 32.0413 19.5392 31.8885C19.5537 31.8484 19.6228 31.8629 19.6084 31.9102ZM19.1726 28.0127C19.1834 27.9763 19.2453 27.9907 19.2308 28.0271C18.9126 29.0604 17.9915 30.5893 19.5197 31.0776C19.5597 31.092 19.5452 31.1539 19.5016 31.1431C17.9081 30.7021 18.8435 29.0678 19.1726 28.0127ZM18.0176 33.0547C17.9876 32.5675 18.3791 31.8468 17.9748 31.4366C17.9493 31.4112 17.9892 31.3747 18.0111 31.4002C18.4955 31.8466 18.038 32.2583 18.0826 32.8255C18.0975 33.0182 18.414 33.1122 18.498 33.3121C18.8375 34.097 18.3012 35.1597 18.3207 35.9633C18.3208 35.9852 18.288 35.9852 18.288 35.9634C18.2616 35.4216 18.8613 33.0933 18.0576 33.0947C18.0358 33.0947 18.0212 33.0765 18.0176 33.0547Z" fill="#C7D19C"/>
<path d="M37.9506 51.138C37.9469 51.1453 37.9397 51.1526 37.9288 51.1562C37.4636 51.3279 37.1005 51.6631 36.6208 51.8021C36.3445 51.8826 36.061 51.9522 35.7738 52.0072C36.1266 52.0066 36.4647 51.9951 36.7593 51.9946C37.072 51.9904 37.3811 51.9681 37.6828 51.9348C38.097 51.7378 38.4493 51.4681 38.9 51.3364C39.5724 51.1389 40.2595 51.0177 40.9502 50.9074C42.1281 50.7199 43.2769 50.558 44.4036 50.196C43.5165 50.2921 42.6477 50.5045 41.7496 50.5315C40.4369 50.5701 39.1717 50.7141 37.9506 51.138Z" fill="#C7D19C"/>
<path d="M61.207 26.3012C60.4794 23.9715 59.4356 21.766 58.1085 19.7864C56.7742 17.8141 55.1857 16.0568 53.4159 14.5834C53.1974 14.3947 52.9753 14.2132 52.7459 14.0427C52.5165 13.8686 52.2944 13.6908 52.065 13.5239C51.5917 13.2047 51.1366 12.8709 50.6488 12.5845C49.6986 11.9788 48.7014 11.4787 47.7006 11.0186C47.1911 10.8049 46.6998 10.5803 46.1759 10.403C45.9176 10.3125 45.6592 10.2075 45.4045 10.128C45.1535 10.052 44.9024 9.97245 44.655 9.89651C44.1347 9.72649 43.6218 9.6219 43.1088 9.4846C42.5923 9.38366 42.0793 9.2609 41.5665 9.18542C37.4525 8.50881 33.4641 8.94836 30.0514 10.0415C26.635 11.1565 23.7761 12.8705 21.5756 14.7434C20.4718 15.6798 19.5243 16.6523 18.7187 17.6065C17.9167 18.5642 17.2273 19.4854 16.687 20.37C15.5773 22.121 14.918 23.6203 14.527 24.6538C14.3134 25.1669 14.1977 25.578 14.1036 25.8472C14.0132 26.1201 13.9661 26.2584 13.9661 26.2584C13.9661 26.2584 14.0132 26.1201 14.1072 25.8472C14.205 25.578 14.3243 25.1668 14.5379 24.6574C14.9398 23.6276 15.5882 22.1246 16.7234 20.3917C17.8514 18.6662 19.448 16.6852 21.7068 14.8995C23.9474 13.1174 26.8101 11.4762 30.2086 10.5612C31.9024 10.1038 33.7129 9.81704 35.5928 9.74473C37.4727 9.67606 39.4185 9.86546 41.3574 10.2803C41.8449 10.3777 42.3251 10.5223 42.8126 10.6451C43.2856 10.8007 43.7877 10.9307 44.2462 11.1118C44.49 11.2023 44.7374 11.2928 44.9812 11.3832C45.225 11.4774 45.447 11.5824 45.6835 11.6802C46.1493 11.8685 46.6115 12.1077 47.0738 12.3324C47.991 12.8145 48.8973 13.3366 49.7529 13.9497C50.1934 14.2398 50.6013 14.5773 51.0237 14.8966C51.4243 15.2414 51.8503 15.5643 52.2327 15.9382C53.8098 17.3755 55.1945 19.0677 56.3359 20.9276C56.9048 21.8576 57.4119 22.8349 57.8609 23.8378C58.3063 24.8443 58.6681 25.891 58.9717 26.9559C59.5572 29.0931 59.8447 31.3218 59.8194 33.5546C59.8067 34.671 59.6923 35.7876 59.5305 36.8933C59.3542 37.9991 59.0834 39.0905 58.7652 40.1638C58.5915 40.6514 58.3999 41.299 58.197 41.7648C58.0124 42.2706 57.7733 42.7801 57.5415 43.2932C57.0486 44.2977 56.5085 45.2768 55.8882 46.2088C54.6478 48.0655 53.1415 49.7372 51.453 51.1656C50.5997 51.8689 49.7099 52.5322 48.7727 53.1084C47.8318 53.6809 46.8654 54.1989 45.8661 54.6406C43.8713 55.5277 41.7741 56.1349 39.6618 56.4295C37.5496 56.7349 35.4259 56.7349 33.3709 56.4802C32.8617 56.4011 32.3488 56.3402 31.8468 56.2283C31.5958 56.1742 31.3448 56.1346 31.0938 56.0732C30.8464 56.0118 30.599 55.9468 30.3516 55.8854L29.9988 55.7951L29.6276 55.6794C29.3802 55.6034 29.1328 55.5275 28.8854 55.4515C28.416 55.2778 27.9539 55.1259 27.4954 54.9339C25.6614 54.1807 23.9506 53.2345 22.4396 52.1134C20.9322 50.9887 19.6027 49.7255 18.4659 48.3929C16.1849 45.7167 14.7507 42.7446 13.9133 40.0042C13.0649 37.2565 12.8679 34.7186 12.9152 32.6567C12.959 30.5874 13.2726 28.9796 13.5289 27.9028C13.6407 27.3608 13.7746 26.9569 13.8468 26.6768C13.9227 26.4003 13.9625 26.2584 13.9625 26.2584C13.9625 26.2584 13.9227 26.4003 13.8432 26.6768C13.7709 26.9533 13.6335 27.3572 13.518 27.8992C13.2544 28.976 12.9444 30.5838 12.868 32.6531C12.8115 33.6859 12.8571 34.8386 12.9793 36.0821C13.1014 37.3255 13.3328 38.6633 13.7134 40.0591C14.4673 42.8505 15.8506 45.8846 18.0337 48.7354C20.2277 51.5681 23.2686 54.1884 27.0426 55.9638C27.5085 56.1921 28.0106 56.3876 28.4983 56.5977C28.7384 56.6882 28.9822 56.775 29.226 56.8655L29.5899 56.9994L29.9865 57.126C30.2412 57.2056 30.4995 57.2852 30.7578 57.3647C31.0161 57.4407 31.2817 57.502 31.5436 57.5707C32.0675 57.7188 32.6059 57.8125 33.1443 57.9243C34.2282 58.1115 35.334 58.2624 36.4613 58.3041C37.0251 58.3467 37.5923 58.3276 38.1596 58.3339L39.0141 58.2924C39.3013 58.281 39.5849 58.2587 39.8722 58.2255C42.1628 58.0143 44.4673 57.4613 46.6877 56.5956C48.9007 55.7118 51.0114 54.49 52.9325 52.9776C56.7856 49.971 59.7237 45.6713 61.1993 40.916C62.6712 36.1679 62.6841 30.9606 61.207 26.3012Z" fill="#C7D19C"/>
<path d="M30.1555 38.4875C30.1555 38.4829 30.1509 38.4829 30.1509 38.4783L30.1509 38.4829C30.1509 38.4875 30.1555 38.4875 30.1555 38.4875Z" fill="#C7D19C"/>
<path d="M30.0137 34.8203C30.0065 34.8276 30.0029 34.8349 29.9992 34.8385C29.9485 34.9295 29.8978 35.0168 29.8543 35.1113C29.7674 35.3041 29.7096 35.4823 29.7026 35.6604C30.0368 35.5399 30.0942 35.1291 30.0137 34.8203Z" fill="#C7D19C"/>
<path d="M30.2535 35.0702C30.3077 34.8884 30.2566 34.7249 30.2272 34.5542C30.1909 34.6015 30.151 34.6488 30.1148 34.6925C30.2862 35.0338 30.069 35.5721 29.7058 35.6744C29.7058 35.689 29.7058 35.7035 29.7058 35.718C30.0001 35.6267 30.1704 35.3574 30.2535 35.0702Z" fill="#C7D19C"/>
<path d="M37.4518 44.5747C37.3245 44.5241 37.1936 44.4698 37.0699 44.4155C36.9826 44.3866 36.8917 44.3613 36.8044 44.3323C37.0154 44.4156 37.2299 44.4952 37.4518 44.5747Z" fill="#C7D19C"/>
<path d="M49.4793 45.3363C49.5338 45.329 49.5883 45.3216 49.6465 45.3142C49.6428 45.307 49.6428 45.2997 49.6464 45.2924C49.5883 45.3071 49.5338 45.3217 49.4793 45.3363Z" fill="#C7D19C"/>
<path d="M52.5393 29.3667C52.9099 29.2862 53.2659 29.1947 53.5892 29.0669C53.4838 29.0889 53.3821 29.1036 53.2767 29.1147C53.0333 29.2024 52.7863 29.2864 52.5393 29.3667Z" fill="#C7D19C"/>
<path d="M50.7331 45.1233C50.446 45.1528 50.1626 45.2006 49.8938 45.281C50.1736 45.2405 50.457 45.1928 50.7331 45.1233Z" fill="#C7D19C"/>
<path d="M30.3766 34.5099C30.4019 34.4372 30.42 34.3609 30.4308 34.2845C30.4054 34.3209 30.3764 34.3573 30.3474 34.3973C30.3583 34.4373 30.3693 34.4736 30.3766 34.5099Z" fill="#C7D19C"/>
<path d="M29.1436 34.2396C29.1436 34.2396 29.1399 34.2396 29.1436 34.2396C29.1327 34.2541 29.1255 34.2723 29.1146 34.2905C29.1255 34.2759 29.1327 34.2578 29.1436 34.2396Z" fill="#C7D19C"/>
<path d="M35.7332 36.5527C35.741 36.5566 35.7489 36.5606 35.7568 36.5645C35.7489 36.5566 35.741 36.5527 35.7332 36.5527C35.7332 36.5488 35.7332 36.5488 35.7332 36.5527Z" fill="#C7D19C"/>
<path d="M30.6039 22.8009C29.8932 23.9948 28.4137 26.452 30.6221 27.0809C31.1715 27.2363 31.888 27.3115 32.3722 27.6416C33.2896 28.2655 33.7273 29.0502 33.6708 30.0321C33.8228 29.57 33.9238 29.1153 33.8975 28.6099C33.8975 28.6062 33.9048 28.6026 33.9048 28.6099C33.9526 28.9116 33.9713 29.2243 33.9391 29.5262C33.9463 29.5335 33.95 29.5407 33.95 29.5553C33.9216 29.9299 33.8203 30.2319 33.6716 30.4939C33.7842 30.3883 33.8967 30.2754 33.9838 30.1479C34.2087 29.8239 34.299 29.4892 34.302 29.0965C34.3019 29.0819 34.3274 29.0819 34.3274 29.0964C34.3319 29.5801 34.1835 30.0203 33.9369 30.4098C34.3473 30.0855 34.6775 29.6886 34.833 29.1356C34.8438 29.0992 34.8947 29.1136 34.8875 29.15C34.6532 30.3286 33.6252 31.0177 32.5571 31.5613C32.5571 31.5613 32.5571 31.5613 32.5534 31.5613C32.4554 31.6269 32.35 31.6889 32.2447 31.7473C32.1974 31.7765 32.1466 31.802 32.0993 31.8312C32.0957 31.8494 32.0885 31.8676 32.0703 31.8785C31.6926 32.1592 31.1657 32.3819 30.9701 32.8404C30.8434 33.1388 30.8075 33.4443 30.7171 33.75C30.6846 33.8555 30.6339 33.9646 30.5722 34.0702C30.569 34.2993 30.5657 34.5248 30.4279 34.7105C30.4645 34.8886 30.4648 35.0631 30.3561 35.2706C30.2184 35.5327 30.0078 35.733 29.7097 35.7735C29.7244 35.8862 29.7646 35.9989 29.8339 36.1115C29.9542 36.2713 29.9072 36.475 29.8312 36.657C29.8205 36.777 29.7989 36.897 29.7773 37.0244C29.698 37.4718 29.8187 37.8752 30.0194 38.2676C30.0267 38.2712 30.034 38.2748 30.0412 38.2785C30.0375 38.2094 30.0337 38.1439 30.0373 38.0785C30.0335 37.9767 30.0478 37.8784 30.0877 37.7875C30.1347 37.6383 30.2108 37.5072 30.3088 37.3944C30.3306 37.3507 30.3487 37.307 30.3741 37.267C30.5155 37.0194 30.4788 36.8413 30.4929 36.5722C30.5105 36.2449 30.6337 36.0083 30.8333 35.7498C30.8406 35.7425 30.8515 35.7498 30.8479 35.757C30.7247 36.03 30.5798 36.3466 30.6603 36.6556L30.6603 36.6592C30.7466 36.0881 30.8621 35.5679 31.677 35.7629C33.0703 36.0951 32.4645 34.8234 33.2132 34.6075C33.4931 34.527 33.3949 34.5199 33.6423 34.585C34.3953 34.7873 34.9227 34.8119 35.3869 34.1202C35.4123 34.0837 35.4669 34.1164 35.4452 34.1528C35.2385 34.5131 34.9264 34.8519 34.4828 34.8963C34.301 34.9148 34.192 34.944 34.0209 34.868C33.4132 34.5999 33.0864 34.9132 32.8036 35.3573C32.5678 35.725 32.2918 35.9509 31.8409 35.919C30.8807 35.8515 30.816 36.288 30.7115 36.83C30.7298 36.8991 30.7408 36.9681 30.7264 37.0373C30.7228 37.0518 30.7155 37.0627 30.7119 37.0773C31.2714 36.7672 32.0676 36.6713 32.6493 36.5612C33.4199 36.4145 35.1786 35.6442 35.8853 36.3593C35.816 36.2467 35.7322 36.1487 35.6048 36.0653C35.299 35.8658 34.9827 35.8809 34.6408 35.8196C34.6117 35.8161 34.6261 35.7724 34.6516 35.776C35.0444 35.8299 35.4261 35.7528 35.7683 35.9923C35.772 35.985 35.7756 35.9813 35.7865 35.9813C35.648 35.7743 35.4659 35.6037 35.2039 35.5096C35.1748 35.4987 35.1856 35.4551 35.2183 35.4623C35.8004 35.6031 36.2049 36.1151 36.3223 36.6859C36.3588 36.7585 36.3952 36.8312 36.4245 36.9112C36.5669 37.2491 36.6475 37.5944 36.6228 38.0708C36.5946 38.6091 36.4683 39.122 36.2691 39.6133C36.1679 40.0098 36.0268 40.3919 35.791 40.745C35.5698 41.0727 34.7131 41.9905 34.7359 42.5432C34.9294 43.0193 35.3518 43.3349 35.8214 43.5959C38.3836 44.8607 41.0208 45.3725 43.9593 45.4911C46.6431 45.5993 49.0748 44.9406 51.6852 44.6197C50.7715 44.0904 48.9254 44.759 48.1148 44.9422C47.5077 45.0814 46.8607 45.2534 46.2353 45.2509C45.9662 45.2477 45.3808 45.2996 45.1804 45.0745C44.9071 44.7695 44.6665 44.3844 44.2192 44.367C44.1828 44.3671 44.1827 44.3125 44.2191 44.3125C44.6373 44.3081 44.8663 44.2605 45.0705 44.6165C45.5812 45.5211 47.0313 45.0531 47.7947 44.8809C48.6961 44.6757 50.604 43.9525 51.6594 44.4416C50.7239 43.8577 47.997 44.1024 47.2515 44.1291C45.9425 44.1714 44.7393 44.4571 43.5599 43.7609C43.5527 43.7573 43.5527 43.75 43.549 43.7463C43.3853 43.6812 43.2179 43.6269 43.0361 43.6636C42.9344 43.6856 42.887 43.6638 42.7888 43.6422C42.7597 43.635 42.7669 43.5877 42.796 43.5913C43.1379 43.6198 43.2684 43.4086 43.6141 43.5571C43.6178 43.5571 43.6178 43.5571 43.6214 43.5608C44.7088 43.6134 45.7849 43.4334 46.861 43.2825C47.41 43.2052 48.1556 43.2803 48.6751 43.0176C48.3185 42.8582 47.8422 42.9099 47.464 42.9287C46.9004 42.9551 46.3477 42.9743 45.7804 42.9607C45.7732 42.9716 45.7659 42.9789 45.7514 42.9753C45.3368 42.9506 44.7664 43.2933 44.3625 43.1413C43.733 42.906 43.3592 43.3358 42.7883 43.3367C41.9119 43.3382 41.9645 42.1854 41.2807 42.1029C41.2516 42.0993 41.2515 42.0557 41.2806 42.0593C42.1389 42.1051 42.0068 43.5344 43.2024 43.0888C43.8057 42.8623 44.5116 43.1374 45.0603 42.8965C45.2747 42.8016 45.5439 42.8666 45.7621 42.9025C45.7731 42.9025 45.7767 42.9098 45.784 42.9171C46.122 42.8365 46.464 42.8977 46.8094 42.8717C47.1075 42.8457 47.4057 42.827 47.7075 42.8119C47.8347 42.8081 47.9766 42.7969 48.1147 42.7931C46.6085 42.3302 45.0055 42.7475 43.4924 42.521C43.176 42.5106 42.8522 42.4312 42.5647 42.308C42.4555 42.2609 42.3391 42.1957 42.2226 42.1304C42.1862 42.1123 42.1498 42.0978 42.1134 42.0797C42.1061 42.0761 42.1025 42.0688 42.1025 42.0615C41.753 41.8585 41.3818 41.6628 41.0221 41.8416C40.9857 41.8598 40.9602 41.8126 40.9929 41.7907C41.0219 41.7688 41.051 41.7506 41.0801 41.7324C41.0801 41.7215 41.08 41.7105 41.0909 41.7032C41.1889 41.6013 41.2979 41.5247 41.4251 41.4627C41.4723 41.4408 41.5088 41.5062 41.4652 41.5317C41.4252 41.5536 41.3889 41.5827 41.3526 41.6082C41.5525 41.5643 41.7345 41.6331 42.0038 41.7562C42.1311 41.8142 42.2585 41.8649 42.3859 41.9156C43.2989 42.0995 44.28 41.6469 45.2177 41.3835C44.8542 41.4568 44.4907 41.5338 44.1524 41.4616C43.8213 41.3895 43.3091 41.6849 42.9163 41.6492C42.7672 41.6349 42.7307 41.5804 42.7125 41.5259C42.6797 41.5114 42.6506 41.5006 42.6142 41.4825C42.5341 41.4426 42.4614 41.4245 42.385 41.4174C42.305 41.4321 42.2032 41.4541 42.0724 41.4907C42.0397 41.498 42.0251 41.4471 42.0578 41.4398C42.1777 41.4177 42.2795 41.4067 42.3814 41.4138C42.6722 41.3624 42.676 41.4387 42.7088 41.5187C43.5021 41.8555 43.3992 41.2011 43.9739 41.2983C44.6978 41.4171 45.7551 40.9316 46.4938 41.2176C46.5047 41.2176 46.512 41.2212 46.5229 41.2248C46.239 41.0835 45.9443 40.9749 45.617 40.9682C45.1734 40.9581 44.7407 41.0315 44.2971 41.0432C43.7117 41.0588 43.1407 41.0125 42.5697 40.9443C42.4207 41.0355 42.2608 41.094 42.0863 41.087C41.8717 41.0764 41.7116 41.0294 41.5368 40.8988C41.3657 40.7719 40.9322 40.318 40.7182 40.6675C40.6965 40.7039 40.6382 40.6713 40.66 40.6349C40.8376 40.3037 41.1724 40.4631 41.4418 40.6117C41.5 40.6443 41.5583 40.6733 41.6129 40.7023C42.195 40.8723 42.7471 40.5004 43.2484 40.205C43.401 40.1138 43.5535 40.019 43.7207 39.9605C43.6735 39.9643 43.6225 39.9643 43.5716 39.9717C43.368 39.9975 43.1864 40.0778 42.9791 40.06C42.6808 40.035 42.5961 39.4243 42.2041 39.8431C41.725 40.3603 41.3525 39.4046 41.1446 39.0667C41.1373 39.0522 41.1555 39.0376 41.1664 39.0485C41.3377 39.2628 41.7756 40.193 42.1349 39.7778C42.2002 39.7013 42.3345 39.5302 42.4655 39.5554C42.6983 39.6023 42.9753 40.0018 43.1898 39.9505C43.4987 39.8736 43.8406 39.8731 44.1422 39.778C44.1386 39.7744 44.135 39.778 44.1313 39.7744C43.7126 39.4551 43.2397 39.3759 42.792 39.1112C42.3879 38.8755 42.0456 38.5852 41.7831 38.1966C41.7758 38.1857 41.794 38.1711 41.8013 38.182C42.173 38.625 42.6535 38.9369 43.2065 39.0887C42.2854 38.4721 41.5892 37.5241 41.4021 36.5281C40.912 34.918 41.9598 33.0398 43.3584 32.2338C43.3947 32.2119 43.4275 32.2664 43.3912 32.2919C42.7156 32.7258 42.2112 33.363 41.9034 34.0872C42.1717 33.6576 42.5275 33.2825 42.9416 33.0345C42.9634 33.0199 42.9853 33.0562 42.9635 33.0708C42.5603 33.3406 42.2773 33.712 42.0562 34.1269C42.205 33.9521 42.4011 33.8063 42.5462 33.6388C42.5608 33.6242 42.5863 33.646 42.5717 33.6642C42.5028 33.7371 42.4411 33.8172 42.3867 33.9009C42.4303 33.8645 42.4738 33.8244 42.521 33.7879C44.2133 32.4577 46.4158 31.7558 48.3415 30.8216C49.3443 30.3326 50.3544 29.8181 51.4083 29.4418C52.3278 29.1129 53.3093 28.9294 54.1813 28.4915C54.214 28.4624 54.2466 28.4332 54.2793 28.4005C54.2793 28.3896 54.2793 28.3786 54.2938 28.3713C54.3083 28.3604 54.3228 28.3495 54.3374 28.3422C54.3446 28.3349 54.3519 28.3276 54.3592 28.3203C54.3809 28.2948 54.4027 28.2693 54.4208 28.2402C53.8466 28.4521 53.2578 28.5986 52.6763 28.7996C51.7387 29.1248 50.812 29.4828 49.8524 29.739C49.8342 29.7426 49.8269 29.7172 49.8451 29.7135C51.2408 29.3184 52.6727 28.785 54.0134 28.1646C54.086 28.0953 54.1769 28.0479 54.2714 28.0114C54.362 27.8767 54.4782 27.7565 54.6382 27.7744C54.9943 27.6247 55.434 27.4021 55.4224 27.013C55.4042 27.0167 55.3897 27.0204 55.3715 27.024C55.0699 27.17 54.6991 27.2288 54.3865 27.2984C52.8162 27.6502 51.2864 28.3583 49.8367 29.0408C49.8076 29.0554 49.7821 29.0118 49.8112 28.9972C50.8903 28.479 51.9949 27.9971 53.1033 27.5479C53.8046 27.2631 55.3207 27.0823 55.6795 26.3617C55.6976 26.3289 55.723 26.3143 55.7521 26.3106C55.8065 26.2014 55.8099 26.1033 55.7117 26.0489C55.5697 25.9728 55.4315 25.9512 55.2897 25.9551C54.519 26.1236 53.9018 26.6738 53.1312 26.8497C53.1239 26.8497 53.1203 26.8497 53.1166 26.8461C53.0621 26.8789 53.004 26.9081 52.9495 26.9373C52.201 27.3095 51.3216 27.6382 50.5257 27.9087C48.7267 28.5191 46.9533 29.2021 45.1543 29.8125C45.1107 29.8271 45.0924 29.758 45.136 29.7434C47.3275 28.9833 49.5589 28.2049 51.6919 27.3031C52.7712 26.8467 53.6646 26.2124 54.7001 25.7051C54.7328 25.6905 54.7583 25.6832 54.7874 25.6723C54.8055 25.6577 54.8237 25.6468 54.8418 25.6358C54.7288 25.4542 54.623 25.2616 54.3757 25.2584C54.1575 25.2552 53.9613 25.3137 53.7504 25.3577C53.6668 25.376 53.5869 25.3943 53.5033 25.4163C53.0636 25.617 52.5473 25.6579 52.115 25.8878C52.0968 25.8987 52.075 25.8878 52.064 25.8733C51.7007 26.0703 51.352 26.2672 51.0213 26.4024C50.1092 26.7821 49.1861 27.1401 48.2631 27.4944C48.2377 27.5053 48.2267 27.4653 48.2521 27.4544C49.5494 26.9067 50.8721 26.3444 52.1037 25.6623C52.4415 25.4763 52.7503 25.2721 53.0809 25.1261C51.8699 25.0482 50.4713 25.876 49.4174 26.2815C48.0074 26.8221 46.601 27.3263 45.1617 27.776C43.5734 28.2733 41.8327 28.9018 40.1956 28.5227C40.2065 28.5264 40.2175 28.5336 40.2284 28.5372C40.5922 28.6566 40.9707 28.8087 41.3633 28.7462C41.3997 28.7389 41.4143 28.7934 41.3779 28.8007C40.9999 28.8705 40.6507 28.8492 40.3088 28.7735C40.6836 28.9183 41.062 29.034 41.4729 29.0478C41.5275 29.0514 41.5312 29.135 41.4731 29.1351C40.8985 29.1325 40.2619 28.9845 39.7342 28.7635C39.363 28.6078 39.1226 28.3537 38.8748 28.0741C38.6527 27.9108 38.4633 27.6966 38.3174 27.4241C38.0182 26.8573 37.9659 26.0211 37.5105 25.5637C37.4595 25.5128 37.4085 25.462 37.3575 25.4148C36.9971 25.1354 36.6184 24.8852 36.5085 24.3653C36.3508 23.6238 36.9726 23.6227 37.259 23.0659C37.2771 23.0295 37.3281 23.0621 37.3136 23.0985C37.2122 23.3314 37.056 23.4262 36.8781 23.6011C36.6893 23.7832 36.6496 23.9833 36.69 24.1868C36.8023 23.9248 36.991 23.7136 37.2307 23.5277C37.5793 23.258 37.8444 23.0539 38.0001 22.6682C37.8039 22.7267 37.5637 22.6544 37.4332 22.8728C37.4078 22.9129 37.3459 22.8766 37.3677 22.8366C37.4257 22.7237 37.5164 22.6472 37.64 22.6179C37.7491 22.5923 37.8982 22.5884 37.9962 22.5264C37.7016 22.4869 37.447 22.451 37.1272 22.5461C36.811 22.6412 36.5021 22.7835 36.2625 23.013C36.2371 23.0712 36.2154 23.1367 36.1974 23.2022C36.125 23.4351 36.0492 23.7552 35.8058 23.8647C35.7876 23.872 35.773 23.8502 35.7912 23.8393C36.1509 23.6496 35.939 23.1081 36.1531 22.8059C36.1821 22.7622 36.2147 22.7222 36.2474 22.6821C36.3852 22.4419 36.5485 22.238 36.7809 22.0667C37.1622 21.786 37.711 21.6032 38.0304 21.25C38.3571 20.893 38.5527 20.4272 38.8211 20.0195C38.5814 20.2235 38.3746 20.4748 38.1895 20.7042C38.0806 20.8353 37.9318 20.9919 37.7353 20.9305C37.3096 20.7966 37.3687 21.3093 37.0743 21.4007C36.8344 21.4775 36.3907 21.4382 36.2784 21.7039C36.1843 21.9222 36.141 22.1259 36.0941 22.3551C36.0869 22.3842 36.0469 22.3697 36.0504 22.3443C36.0973 22.0896 36.1618 21.515 36.4816 21.4199C36.7651 21.3358 37.0125 21.4117 37.19 21.015C37.2226 20.9422 37.2733 20.8076 37.3532 20.7675C37.4804 20.7018 37.524 20.6654 37.6695 20.7087C37.9023 20.7774 38.1998 20.3587 38.3705 20.2057C38.5556 20.0418 38.7807 19.8341 39.0205 19.6919C39.0205 19.6919 39.0169 19.6919 39.0169 19.6882C38.4645 19.9074 37.8974 20.0283 37.3634 20.3238C36.7385 20.6667 36.1791 21.0531 35.6709 21.5558C35.6636 21.5631 35.6564 21.5631 35.6491 21.5631C35.5692 21.6396 35.5039 21.727 35.4859 21.8289C35.4607 21.9671 35.4354 22.0653 35.3629 22.1818C35.352 22.2 35.3265 22.1855 35.3374 22.1673C35.428 21.9962 35.3404 21.7673 35.4456 21.618C35.5362 21.487 35.6524 21.374 35.7577 21.2538C35.8339 21.1664 35.9174 21.079 36.0045 20.9952C37.1116 19.8406 38.7504 19.096 39.3879 17.6585C38.9055 18.3757 38.0303 19.0608 37.3762 19.3383C36.9656 19.5136 36.6606 19.7868 36.3812 20.1219C36.2796 20.242 36.2143 20.3549 36.0435 20.3915C35.6145 20.4904 35.4397 20.3162 35.4011 21.1563C35.3835 21.4945 35.4233 21.3562 35.2638 21.6547C35.2457 21.6911 35.1947 21.6585 35.2092 21.6221C35.3179 21.3782 35.182 20.6148 35.4653 20.4216C35.8758 20.1409 36.2826 19.9075 36.642 19.5432C36.8163 19.3647 37.0999 19.3388 37.2996 19.2075C37.5539 19.0398 37.7972 18.8503 38.0406 18.6681C38.5672 18.2708 39.1047 17.8662 39.42 17.2875C39.1079 17.6153 38.61 17.7907 38.2139 17.9914C37.5636 18.3198 36.9643 18.7536 36.3796 19.2018C36.002 19.5152 35.5915 19.7996 35.2794 20.1674C35.1161 20.3567 35.0004 20.7606 34.7059 20.7756C34.6986 20.7757 34.6986 20.7647 34.7059 20.7647C34.993 20.6624 35.0252 20.3424 35.1448 20.0949C35.1375 20.0804 35.1338 20.0658 35.1447 20.0476C35.9172 18.879 36.6106 18.1651 37.7656 17.3667C38.5356 16.8345 39.3491 16.2294 39.8241 15.3923C40.0017 15.0829 40.1284 14.7517 40.2515 14.4206C39.7255 15.196 39.0324 16.0482 38.2512 16.3841C37.6153 16.6579 37.3398 17.1893 36.7476 17.4776C35.7012 17.9884 35.4335 18.7962 35.1006 19.804C35.0898 19.8368 35.0388 19.8223 35.0497 19.7896C35.1906 19.2584 35.1711 18.4875 35.5958 18.0686C36.0642 17.606 36.7985 17.4702 37.2122 16.964C37.7347 16.3268 38.411 16.2565 38.959 15.6556C39.4164 15.1529 39.8809 14.5921 40.2981 14.035C40.2981 14.0314 40.2945 14.0278 40.2945 14.0241C40.3198 13.9841 40.3416 13.9441 40.3597 13.904C39.2422 15.3714 37.3056 16.2838 35.8564 17.3154C33.757 18.7736 31.902 20.6204 30.6039 22.8009ZM43.8372 44.2804C43.8808 44.2803 43.881 44.3494 43.8373 44.3495C43.6555 44.3498 43.4737 44.3501 43.2919 44.3468C43.2519 44.3469 43.2517 44.285 43.2917 44.2813C43.4736 44.281 43.6554 44.2771 43.8372 44.2804ZM43.2508 43.7105C43.2871 43.7177 43.2908 43.7322 43.3018 43.765C43.3054 43.7795 43.2872 43.7832 43.28 43.7723C43.269 43.7614 43.2581 43.7505 43.2435 43.7396C43.2254 43.736 43.2289 43.7069 43.2508 43.7105ZM41.5932 37.7169C41.6114 37.7496 41.6297 37.7786 41.637 37.8113C41.6407 37.8295 41.6152 37.8368 41.6079 37.8187C41.5933 37.7896 41.5787 37.7605 41.5605 37.7315C41.5496 37.7133 41.5823 37.6951 41.5932 37.7169ZM48.6022 30.1375C48.8311 30.0389 49.0637 29.9403 49.3036 29.8745C49.3326 29.8671 49.3436 29.9108 49.3145 29.9217C49.0783 29.9985 48.8421 30.0752 48.6058 30.1593C48.5986 30.1593 48.5913 30.1411 48.6022 30.1375ZM37.3351 22.9021C37.3641 22.902 37.3642 22.9493 37.3351 22.9494C37.306 22.9494 37.306 22.9021 37.3351 22.9021ZM37.3024 22.9494C37.317 22.9494 37.317 22.9712 37.3024 22.9712C37.2879 22.9713 37.2879 22.9494 37.3024 22.9494ZM35.8192 33.8358C35.8047 33.8358 35.8046 33.8176 35.8192 33.8176C35.8301 33.8176 35.8301 33.8358 35.8192 33.8358ZM37.1072 36.3536C37.0999 36.3427 37.118 36.3281 37.129 36.339C37.2419 36.4697 37.2859 36.6588 37.3371 36.8187C37.3663 36.9132 37.3919 37.0186 37.4503 37.0985C37.5377 37.2183 37.6359 37.1782 37.7485 37.1162C37.7739 37.1016 37.8067 37.1379 37.7813 37.1597C37.3165 37.5787 37.2348 36.5534 37.1072 36.3536ZM37.7706 37.2907C37.7851 37.2506 37.8506 37.2651 37.8361 37.3087C37.7782 37.5052 37.7676 37.6761 37.9896 37.7558C38.0114 37.763 38.0078 37.7994 37.986 37.7958C37.6987 37.7708 37.6946 37.5126 37.7706 37.2907ZM42.2078 44.105C42.2442 44.1159 42.2297 44.1777 42.1933 44.1632C41.6767 44.0005 38.3812 43.5006 39.2409 42.2555C39.9628 41.2106 38.2318 41.1554 37.958 40.5341C37.5272 39.5493 38.853 38.6961 37.9967 37.6976C37.9822 37.683 38.004 37.6612 38.0185 37.6757C38.4411 38.1368 38.5399 38.4712 38.2573 39.0535C38 39.5885 37.6856 40.7454 38.6059 40.9148C38.715 40.9291 38.8242 40.9544 38.926 40.9979C39.0679 41.0449 39.1518 41.1502 39.2574 41.2518C39.476 41.4696 39.5785 41.8877 39.4044 42.157C38.5303 43.4931 41.5201 43.8807 42.2078 44.105ZM44.9835 29.8891C44.6857 30.0969 44.355 30.2502 44.0718 30.4798C44.0463 30.498 44.0136 30.4653 44.0353 30.4435C44.3076 30.1885 44.6346 30.0243 44.9434 29.8201C44.987 29.7946 45.0235 29.86 44.9835 29.8891ZM46.9801 27.8966C47.2091 27.8198 47.4307 27.714 47.6634 27.6481C47.7106 27.6335 47.7398 27.7025 47.6962 27.7244C47.4819 27.8412 47.2383 27.9143 47.0057 27.9838C46.944 28.0057 46.922 27.9185 46.9801 27.8966ZM42.6911 29.0167C43.5455 28.9388 44.3376 28.5884 45.1664 28.3979C45.2064 28.3869 45.2247 28.4523 45.1847 28.4597C44.3487 28.6575 43.5492 28.9716 42.6911 29.0639C42.6584 29.0713 42.6583 29.0203 42.6911 29.0167ZM39.227 29.8626C39.5614 29.7857 39.8924 29.8106 40.151 30.0683C41.109 31.0339 40.8556 31.6889 42.0586 31.3087C42.1203 31.2431 42.1711 31.1703 42.2146 31.0939C41.9926 30.9706 41.7122 30.7311 41.7917 30.4437C41.8097 30.3782 41.8819 30.0544 42.0567 30.1741C42.377 30.3918 42.3814 30.7809 42.2146 31.0939C42.2364 31.1048 42.2583 31.1193 42.2801 31.1301C42.3347 31.1555 42.3857 31.1699 42.4366 31.1771C42.5928 31.1187 42.7673 31.0457 42.9635 30.9617C43.0324 30.8852 43.0868 30.7906 43.123 30.6923C42.8428 30.5692 42.6678 30.3004 42.9292 30.0381C42.9546 30.0126 42.9946 30.0125 43.0201 30.0379C43.1949 30.2122 43.2063 30.4667 43.123 30.6923C43.2104 30.7322 43.3122 30.7574 43.4104 30.7645C43.5158 30.7171 43.6212 30.6696 43.7375 30.6149C43.7811 30.5966 43.8139 30.6511 43.7739 30.6767C43.6722 30.7459 43.5414 30.7716 43.4104 30.7645C43.2506 30.8375 43.1016 30.9033 42.9635 30.9617C42.8292 31.1146 42.6403 31.2095 42.4366 31.1771C42.2948 31.2319 42.1713 31.2758 42.0586 31.3123C41.9134 31.4653 41.7209 31.5675 41.51 31.5678C40.4008 31.5697 40.5213 29.6822 39.2453 29.9353C39.2017 29.939 39.1834 29.8736 39.227 29.8626ZM37.1029 29.6371C37.1284 29.6226 37.1503 29.6589 37.1248 29.6771C36.4238 30.1365 35.8361 30.9411 36.292 31.7767C36.365 31.9112 36.4088 32.0238 36.4164 32.1765C36.4201 32.2565 36.2496 32.4677 36.4533 32.4856C36.5151 32.4927 36.5189 32.5836 36.4534 32.5874C36.3298 32.5912 36.1662 32.6061 36.1659 32.4388C36.1655 32.1879 36.227 31.9914 36.0992 31.7225C36.0518 31.6208 36.0044 31.5336 35.9932 31.4173C35.9264 30.6319 36.4272 29.9838 37.1029 29.6371ZM37.4696 33.5166C37.9646 33.8103 38.5726 34.2165 39.1429 33.8337C39.6332 33.5056 39.8577 32.9488 39.7986 32.3635C39.7134 31.48 38.8453 29.9178 37.7593 30.6688C37.1854 31.0661 36.9907 32.0192 37.5988 32.5091C37.9411 32.7849 38.7847 32.747 38.7327 32.1289C38.7029 31.7508 38.3532 31.3623 38.0485 31.8065C38.005 31.872 37.914 31.8176 37.9466 31.7448C38.1567 31.2681 38.6623 31.3436 38.834 31.8197C39.0751 32.4775 38.5778 32.9656 37.9195 32.9413C36.3012 32.8786 36.7508 29.9687 38.3875 30.1695C39.7333 30.3345 40.5184 32.2895 39.8622 33.4252C39.496 34.0586 38.8384 34.3761 38.1361 34.1264C37.3865 33.8585 36.5117 32.6309 35.8516 33.6684C35.8226 33.7121 35.7535 33.6722 35.7788 33.6249C36.2248 32.8351 36.8253 33.1322 37.4696 33.5166ZM35.5248 31.789C35.634 31.8651 35.7287 31.9632 35.7362 32.1013C35.7475 32.2977 35.7477 32.4322 35.9043 32.5665C35.9808 32.6318 35.8828 32.7411 35.8027 32.6976C35.6753 32.6287 35.5733 32.5053 35.5876 32.3525C35.6054 32.1343 35.6997 31.9996 35.4921 31.8218C35.4739 31.8109 35.5029 31.7745 35.5248 31.789ZM35.2277 32.444C35.2462 32.5931 35.3083 32.7675 35.4973 32.7199C35.5482 32.7053 35.5846 32.7525 35.5774 32.7998C35.563 32.8835 35.6649 32.9342 35.636 33.0106C35.6215 33.0506 35.5851 33.0653 35.5451 33.0471C35.4541 33.0037 35.4176 32.9164 35.432 32.8255C35.2574 32.7785 35.1772 32.6514 35.1914 32.4477C35.195 32.4296 35.224 32.4222 35.2277 32.444ZM35.2437 33.2586C35.3746 33.2583 35.3749 33.4584 35.244 33.4586C35.1131 33.4588 35.1127 33.2588 35.2437 33.2586ZM35.0916 33.6807C35.0989 33.6697 35.1062 33.6624 35.1134 33.6515C35.1424 33.6078 35.197 33.6332 35.1971 33.6768C35.2117 33.7059 35.2081 33.7495 35.1681 33.7569C35.1645 33.7569 35.1572 33.7569 35.1536 33.7605C35.1136 33.7715 35.059 33.7243 35.0916 33.6807ZM34.852 25.3755C34.8628 25.3173 34.9501 25.3426 34.9393 25.4008C34.8672 25.7718 34.715 26.1066 34.5411 26.4378C34.4468 26.6162 34.3453 26.7945 34.2656 26.9801C34.2185 27.082 34.1751 27.1876 34.1389 27.2967C34.2735 27.3474 34.4008 27.3435 34.5243 27.2852C34.5861 27.2669 34.6081 27.3577 34.5499 27.3797C34.361 27.4491 34.2338 27.4857 34.0373 27.446C34.0082 27.4388 33.99 27.4061 33.9972 27.377C34.2142 26.6748 34.7078 26.0994 34.852 25.3755ZM34.0198 19.315C34.0416 19.2967 34.0743 19.3294 34.0526 19.3476C33.0069 20.2913 32.2927 21.558 31.7822 22.8607C31.4382 23.7376 31.6975 24.3627 32.6756 24.3501C33.152 24.3456 33.6283 24.3157 34.1047 24.3149C34.1629 24.3148 34.163 24.4057 34.1048 24.4058C33.5885 24.4212 31.4437 24.8177 31.4637 23.7849C31.477 23.003 31.9591 22.1404 32.3325 21.4743C32.793 20.6589 33.3081 19.9271 34.0198 19.315Z" fill="#C7D19C"/>
<path d="M35.2275 36.3962C35.257 36.3999 35.2827 36.4072 35.3122 36.4108C35.3122 36.4071 35.3121 36.4035 35.3121 36.3998C35.2864 36.3998 35.257 36.3999 35.2275 36.3962Z" fill="#C7D19C"/>
<path d="M53.7344 26.4739C53.6981 26.4885 53.6581 26.4994 53.6182 26.5104C53.571 26.5396 53.5274 26.5687 53.4802 26.6015C53.5673 26.5577 53.6509 26.5176 53.7344 26.4739Z" fill="#C7D19C"/>
<path d="M29.4918 33.6686L29.4954 33.6686C29.5026 33.6577 29.5099 33.6468 29.5171 33.6359C29.5099 33.6468 29.499 33.6577 29.4918 33.6686Z" fill="#C7D19C"/>
<path d="M29.655 37.7917C29.6404 37.7626 29.6295 37.7299 29.6185 37.7009C29.6185 37.6972 29.6149 37.6936 29.6149 37.69C29.476 37.3156 29.5771 36.8791 29.6382 36.4717C29.6271 36.3299 29.6159 36.1954 29.5648 36.0427C29.499 35.8392 29.4913 35.6283 29.5637 35.4246C29.6035 35.3154 29.6506 35.2135 29.705 35.1152C29.705 35.108 29.705 35.1007 29.7086 35.0934C29.7231 35.0679 29.7412 35.0461 29.7558 35.0206C29.8246 34.9005 29.8972 34.7876 29.9733 34.6747C29.9697 34.6457 29.9842 34.6238 30.0132 34.6165C30.1438 34.4199 30.2708 34.227 30.3904 34.0231C30.5971 33.67 30.5819 33.2955 30.7377 32.9352C30.7775 32.8479 30.8246 32.7642 30.8754 32.6841C29.2015 34.1124 27.9146 36.4638 29.8593 38.1368C29.7754 38.0279 29.7062 37.9116 29.655 37.7917Z" fill="#C7D19C"/>
<path d="M29.521 38.0788C29.5428 38.0969 29.5682 38.1078 29.5901 38.1259C29.5828 38.115 29.5719 38.1041 29.5646 38.0932C29.4882 38.0316 29.4154 37.9663 29.3462 37.8973C29.4008 37.9627 29.4554 38.0244 29.521 38.0788Z" fill="#C7D19C"/>
</g>
<defs>
<filter id="filter0_d" x="0" y="0" width="73.76" height="86.6094" filterUnits="userSpaceOnUse" color-interpolation-filters="sRGB">
<feFlood flood-opacity="0" result="BackgroundImageFix"/>
<feColorMatrix in="SourceAlpha" type="matrix" values="0 0 0 0 0 0 0 0 0 0 0 0 0 0 0 0 0 0 127 0"/>
<feOffset dy="4"/>
<feGaussianBlur stdDeviation="2"/>
<feColorMatrix type="matrix" values="0 0 0 0 0 0 0 0 0 0 0 0 0 0 0 0 0 0 0.25 0"/>
<feBlend mode="normal" in2="BackgroundImageFix" result="effect1_dropShadow"/>
<feBlend mode="normal" in="SourceGraphic" in2="effect1_dropShadow" result="shape"/>
</filter>
</defs>
</svg>
