<svg width="74" height="87" viewBox="0 0 74 87" fill="none" xmlns="http://www.w3.org/2000/svg">
<g filter="url(#filter0_d)">
<rect x="4.18115" y="0.146484" width="65.76" height="46.0814" fill="#F98F37"/>
<path d="M37.4722 78.7558C12.4834 68.3468 4.86615 52.7334 4.18115 46.2278H69.9412C68.2972 65.7446 42.8152 75.9096 37.4722 78.7558Z" fill="#F98F37"/>
<path d="M38.1189 18.5126C38.1377 18.6606 38.2014 18.798 38.2968 18.922C38.2911 18.6789 38.3223 18.4303 38.3536 18.1897C38.3456 18.0999 38.3401 18.0074 38.3373 17.9175C38.3188 17.9413 38.3004 17.9599 38.2846 17.9863C38.1791 18.1583 38.1371 18.3302 38.1189 18.5126Z" fill="#ED5A14"/>
<path d="M38.4685 43.5704C38.4868 40.3455 38.5262 37.1206 38.6 33.8982C38.4327 33.4703 38.3527 33.0819 37.7527 33.0829C37.499 33.0833 37.2214 33.0944 36.9837 33.1899C36.6825 33.312 36.5878 33.5369 36.4719 33.8041C36.5594 37.0605 36.6099 40.317 36.6393 43.5735C36.7439 42.8967 36.8537 42.2304 36.7891 41.5326C36.7864 41.5036 36.8287 41.5061 36.8314 41.5326C36.9363 42.595 36.724 43.6104 36.6491 44.6652C36.6593 46.0133 36.6643 47.3614 36.6666 48.7095C36.6732 52.5582 36.7538 56.4173 36.6864 60.2661C36.8005 58.9945 36.8644 57.7176 36.878 56.4329C36.878 56.4039 36.9229 56.4038 36.923 56.4329C36.9397 58.4788 36.9432 60.5168 36.6268 62.5368C36.6243 62.6452 36.6219 62.7536 36.6168 62.862C36.6301 62.8963 36.6487 62.9386 36.6169 62.9149C36.654 62.9412 36.6936 62.9729 36.7228 63.0072C36.7969 63.0864 36.879 63.1655 36.9716 63.2288C37.0087 63.2525 37.0669 63.2947 37.1304 63.3395C37.5138 63.3733 37.9154 63.3038 38.2641 63.1737C38.3301 63.1207 38.3908 63.0625 38.4462 63.0042C38.4779 62.9698 38.5175 62.9407 38.5518 62.9115C38.5201 62.9354 38.5386 62.8931 38.5517 62.8587C38.5462 62.7503 38.5434 62.6419 38.5406 62.5336C38.2173 60.5146 38.2165 58.4766 38.2235 56.4306C38.2235 56.4016 38.2684 56.4015 38.2684 56.4306C38.2839 57.7152 38.3521 58.9892 38.4732 60.2631C38.3926 56.4119 38.4601 52.5525 38.4535 48.7064C38.4512 47.3583 38.4542 46.0102 38.4571 44.6621C38.376 43.6076 38.1628 42.5929 38.2641 41.5301C38.2667 41.5037 38.309 41.501 38.3064 41.53C38.2494 42.2253 38.3616 42.8939 38.4685 43.5704ZM36.7808 41.2657C36.7726 41.1124 36.7881 40.959 36.7614 40.8084C36.7588 40.7899 36.7852 40.7793 36.7905 40.8004C36.8304 40.951 36.8466 41.1122 36.8389 41.2682C36.8363 41.3026 36.7808 41.3027 36.7808 41.2657ZM38.261 41.2631C38.2528 41.1072 38.2657 40.9459 38.3078 40.7952C38.313 40.7767 38.3421 40.7846 38.3369 40.8031C38.3107 40.9564 38.3268 41.1071 38.3192 41.2604C38.3166 41.3 38.2611 41.3001 38.261 41.2631Z" fill="#ED5A14"/>
<path d="M35.2625 14.4811C35.4529 14.5125 35.6459 14.5254 35.8362 14.5356C35.9496 14.3742 35.6057 14.2373 35.4893 14.1688C35.3649 14.0977 35.2326 14.0133 35.1452 13.8971C34.9359 13.6252 35.0491 13.329 35.0908 13.017C35.096 12.9747 35.1674 12.9852 35.1649 13.0274C35.1494 13.2627 35.0337 13.6409 35.2561 13.8124C35.4308 13.9469 35.6317 13.9915 35.8222 14.0916C35.9677 14.168 36.0948 14.2841 36.1347 14.4083C36.3431 14.1885 35.962 13.8931 35.7369 13.6767C35.5595 13.5052 35.4826 13.3653 35.4241 13.1222C35.3042 12.6149 35.7209 12.0379 35.8708 11.5803C35.8919 11.5169 35.9818 11.5431 35.9687 11.6066C35.8822 12.0746 35.2444 13.1436 35.8688 13.502C36.0884 13.6286 36.3372 13.7973 36.4539 14.0324C36.5626 14.2568 36.5471 14.4366 36.4495 14.569C36.4654 14.5716 36.4786 14.5768 36.4945 14.5821C36.6815 14.1853 36.8684 13.7726 36.5559 13.4295C36.5242 13.3952 36.5663 13.3317 36.6087 13.3607C36.9395 13.5822 37.1649 13.9783 36.9567 14.354C36.9673 14.3698 36.9779 14.3857 36.9938 14.4015C37.0441 14.4543 36.994 14.5522 36.92 14.5285C36.8988 14.5233 36.8803 14.5154 36.8618 14.5075C36.8565 14.518 36.8486 14.526 36.8433 14.5366C36.9254 14.6131 36.9679 14.7452 36.9839 14.8403C36.992 14.8958 36.9154 14.9197 36.8968 14.8643C36.8728 14.7929 36.812 14.7454 36.7537 14.698C36.7353 14.7403 36.7169 14.7826 36.7011 14.8249C36.7011 14.8276 36.7011 14.8302 36.7011 14.8329C36.9473 15.0386 36.8925 15.4696 36.8454 15.7446C36.8375 15.7869 36.7662 15.7791 36.7687 15.7341C36.7817 15.5808 36.792 15.4195 36.7441 15.2716C36.7175 15.1897 36.6831 15.1263 36.6407 15.0656C36.638 15.0682 36.6354 15.0682 36.6328 15.0709C36.5437 15.5601 36.6741 16.0621 36.6591 16.5802C36.6997 17.1326 36.706 17.6903 36.6619 18.2217C36.691 18.1978 36.7174 18.174 36.7464 18.1528C37.0975 17.8958 37.6335 17.509 38.1171 17.45C38.1858 17.4314 38.2545 17.4207 38.3232 17.4126C38.3228 17.1351 38.3355 16.8549 38.3535 16.5773C38.3368 16.0592 38.4654 15.5568 38.3747 15.0679C38.3721 15.0653 38.3694 15.0653 38.3668 15.0626C38.3246 15.1235 38.2903 15.187 38.264 15.269C38.2141 15.4171 38.2276 15.5783 38.241 15.7316C38.2438 15.7739 38.1724 15.7846 38.1644 15.7423C38.1137 15.4648 38.0601 15.0341 38.3056 14.8301C38.3056 14.8275 38.3056 14.8248 38.3056 14.8222C38.2896 14.7799 38.2737 14.7377 38.2525 14.6954C38.1971 14.7431 38.1337 14.7881 38.11 14.8622C38.0916 14.9177 38.0149 14.8941 38.0228 14.8385C38.0385 14.7433 38.0805 14.6111 38.1623 14.5343C38.157 14.5237 38.1491 14.5158 38.1438 14.5053C38.1253 14.5132 38.1068 14.5212 38.0857 14.5265C38.0117 14.5504 37.9613 14.4527 38.0114 14.3998C38.0273 14.3839 38.0378 14.368 38.0484 14.3521C37.8389 13.9771 38.0629 13.5802 38.3929 13.3576C38.4352 13.3285 38.4776 13.3918 38.4459 13.4263C38.1346 13.7704 38.323 14.1825 38.5113 14.5786C38.5272 14.5733 38.5404 14.568 38.5562 14.5654C38.4582 14.436 38.4421 14.2536 38.5501 14.0288C38.6633 13.7907 38.9141 13.6237 39.1333 13.4965C39.7565 13.1359 39.115 12.0691 39.027 11.6014C39.0136 11.538 39.1035 11.5114 39.1247 11.5748C39.2762 12.0318 39.6948 12.61 39.5767 13.1151C39.5216 13.3557 39.4426 13.4986 39.2658 13.6707C39.0415 13.8878 38.6613 14.1845 38.8705 14.4036C38.91 14.2766 39.0366 14.1627 39.1819 14.0858C39.372 13.9851 39.5729 13.9424 39.7471 13.8047C39.9688 13.6325 39.8519 13.2547 39.8356 13.0195C39.8329 12.9772 39.9016 12.9691 39.9096 13.0088C39.9551 13.3206 40.0666 13.6165 39.8583 13.8891C39.7712 14.0055 39.6392 14.0877 39.5151 14.1619C39.3989 14.2282 39.0555 14.3689 39.1694 14.5299C39.3624 14.519 39.5527 14.5055 39.743 14.4734C40.7868 14.2946 40.1867 12.7625 40.0246 12.2341C39.897 11.8219 39.7774 11.4098 39.6577 10.9976C39.6927 11.3967 39.7251 11.7931 39.7787 12.1843C39.784 12.2318 39.7127 12.2372 39.6994 12.195C39.4602 11.4367 39.4298 10.6412 39.3227 9.85626C39.1791 9.36221 39.0382 8.86815 38.8946 8.37144C38.852 8.22613 38.8042 8.08084 38.7564 7.93025C38.877 8.90543 38.9289 9.88866 39.0073 10.9062C39.01 10.9591 38.9334 10.9566 38.928 10.9063C38.7483 9.38409 38.447 7.9017 38.1934 6.40072C37.9145 5.66106 37.6436 4.90025 37.489 4.14452C37.337 4.90077 37.0687 5.66251 36.7924 6.40312C36.5438 7.90496 36.2477 9.38837 36.0732 10.9112C36.068 10.9615 35.9887 10.9642 35.9939 10.9114C36.0688 9.89355 36.1173 8.9128 36.2346 7.93456C36.1846 8.08268 36.1373 8.23078 36.0979 8.37623C35.9561 8.87078 35.8141 9.36796 35.6749 9.86251C35.5705 10.6478 35.5428 11.4434 35.3062 12.2025C35.2931 12.2448 35.2217 12.2396 35.2269 12.192C35.2764 11.8008 35.3101 11.4016 35.3438 11.005C35.2229 11.4176 35.1047 11.8328 34.9811 12.2427C34.8129 12.7743 34.2207 14.3058 35.2625 14.4811Z" fill="#ED5A14"/>
<path d="M39.7175 44.5439C39.6141 44.3484 39.434 44.1716 39.1403 44.0241C39.0716 43.9951 39.0107 43.9635 38.9604 43.9293C38.9703 45.0606 38.9749 46.1919 38.9795 47.3233C39.3585 46.3922 39.8648 45.6485 39.7123 44.5782C39.7096 44.565 39.7122 44.5544 39.7175 44.5439Z" fill="#ED5A14"/>
<path d="M36.1338 46.4243C36.1338 46.4349 36.1365 46.4428 36.1392 46.4534C36.1389 46.3054 36.1387 46.16 36.1384 46.0119C36.1228 46.1494 36.1177 46.2869 36.1338 46.4243Z" fill="#ED5A14"/>
<path d="M51.9878 35.2712C51.2573 34.683 50.7448 34.8689 49.9174 34.8835C49.7932 34.8864 49.6874 34.8575 49.5869 34.8127C49.6134 34.8391 49.6372 34.8655 49.6663 34.8892C50.1746 35.3324 50.6445 34.9801 51.1999 35.1536C51.2026 35.1536 51.2026 35.1615 51.1973 35.1589C50.7161 35.0857 50.1166 35.4277 49.6905 35.1006C49.3861 34.8659 49.1583 34.565 48.9146 34.2772C48.716 34.0688 48.5306 33.8576 48.3056 33.6915C48.1445 33.771 47.9861 33.9008 47.8332 34.102C47.7804 34.1787 47.725 34.2476 47.6723 34.2952C47.4479 34.4912 47.1993 34.4203 47.0271 34.2038C47.0139 34.188 47.0297 34.1562 47.0508 34.1668C47.2519 34.2669 47.3946 34.2243 47.508 34.0973C47.3892 34.145 47.2728 34.1347 47.1695 34.0159C47.1642 34.008 47.1721 33.9974 47.1801 34.0053C47.323 34.1108 47.4551 34.0445 47.558 33.9412C47.5606 33.9333 47.5606 33.9227 47.5632 33.9148C47.4602 33.9308 47.357 33.9125 47.2592 33.873C47.2433 33.8651 47.2512 33.8413 47.2697 33.8466C47.3834 33.8728 47.5023 33.8409 47.6 33.7773C47.6053 33.764 47.6079 33.7508 47.6131 33.7349C47.518 33.743 47.4201 33.7273 47.3276 33.6905C47.3117 33.6826 47.3196 33.6614 47.3355 33.6667C47.4783 33.714 47.576 33.6716 47.6658 33.6027C47.6737 33.5868 47.6816 33.5709 47.6895 33.5551C47.6234 33.5658 47.5547 33.5606 47.4912 33.5263C47.4753 33.5158 47.4858 33.4893 47.5043 33.4919C47.5837 33.5024 47.6603 33.4785 47.7316 33.444C47.6761 33.4335 47.6258 33.4177 47.565 33.4125C47.5544 33.4126 47.5491 33.4073 47.5386 33.4047C47.2822 33.4553 47.0525 33.5879 46.9207 33.8366C46.9102 33.8577 46.8785 33.8552 46.8758 33.8287C46.8381 33.427 47.0994 33.2177 47.4324 33.1458C47.4508 33.1088 47.4798 33.077 47.5274 33.061C47.9025 32.9414 48.2858 32.9382 48.627 33.0697C49.6949 33.0679 51.1659 33.8293 51.3404 32.3065C51.468 31.196 52.181 30.793 52.9243 31.0984C52.5563 30.7448 52.1382 30.4548 51.6304 30.2785C50.7443 29.9708 50.3246 30.3204 49.5506 30.6125C49.4344 30.6576 49.3261 30.6658 49.2177 30.658C49.2521 30.6738 49.2838 30.6896 49.3182 30.7028C49.9477 30.9475 50.2693 30.458 50.8508 30.4332C50.8535 30.4332 50.8535 30.4385 50.8508 30.4385C50.3726 30.5318 49.9268 31.0586 49.4137 30.8929C49.0487 30.7746 48.7311 30.569 48.403 30.3792C48.149 30.2501 47.903 30.1131 47.6359 30.0342C47.5092 30.164 47.4064 30.3413 47.3275 30.5846C47.3039 30.6745 47.275 30.7565 47.2407 30.8173C47.0958 31.0766 46.8394 31.0956 46.6013 30.9506C46.5827 30.9401 46.5879 30.903 46.6117 30.9083C46.8338 30.9343 46.9553 30.8469 47.0184 30.6882C46.9234 30.773 46.8098 30.8022 46.6722 30.7258C46.6643 30.7205 46.6695 30.7073 46.6801 30.7099C46.8494 30.7625 46.9523 30.654 47.0129 30.5217C47.0102 30.5138 47.0102 30.5032 47.0075 30.4953C46.9177 30.543 46.8121 30.5617 46.709 30.5592C46.6905 30.5592 46.6904 30.5328 46.7089 30.5301C46.8252 30.5167 46.9255 30.4478 46.9941 30.3525C46.9941 30.3367 46.994 30.3235 46.994 30.3103C46.9069 30.3501 46.8091 30.3687 46.7113 30.3636C46.6954 30.3636 46.6954 30.3398 46.7112 30.3372C46.8619 30.3343 46.9384 30.2601 46.9991 30.1649C47.0017 30.1463 47.0016 30.1305 47.0043 30.112C46.9462 30.1438 46.8801 30.1624 46.8087 30.152C46.7902 30.1494 46.7901 30.1176 46.8086 30.115C46.8905 30.099 46.9592 30.0433 47.0146 29.9824C46.9591 29.9905 46.901 30.0011 46.8402 30.0171C46.8323 30.0198 46.8217 30.0171 46.8138 30.0198C46.5893 30.155 46.4179 30.3562 46.3787 30.6364C46.3761 30.6602 46.3444 30.6682 46.3338 30.6444C46.1613 30.2773 46.3353 29.9942 46.6257 29.8113C46.6309 29.769 46.6467 29.7293 46.6863 29.7002C47.0005 29.4617 47.3571 29.3263 47.7246 29.3362C48.7284 28.975 50.3703 29.1916 50.0188 27.6987C49.7632 26.6101 50.2961 25.9907 51.0997 26.0237C50.6341 25.8156 50.1422 25.6843 49.603 25.6905C48.6646 25.7001 48.3879 26.171 47.7597 26.7087C47.6647 26.7882 47.567 26.8359 47.4613 26.8625C47.4983 26.8651 47.5353 26.8703 47.5723 26.8703C48.249 26.8876 48.3829 26.3191 48.9217 26.0988C48.9244 26.0988 48.927 26.104 48.9244 26.104C48.5045 26.3532 48.2624 26.9986 47.7259 27.018C47.3426 27.0319 46.975 26.9453 46.6022 26.8772C46.3193 26.8433 46.0443 26.7962 45.7668 26.8126C45.6904 26.9792 45.6485 27.1802 45.6595 27.4392C45.6676 27.5291 45.6677 27.6137 45.6573 27.6824C45.6075 27.9759 45.3725 28.0794 45.1001 28.0244C45.079 28.0191 45.071 27.9848 45.0947 27.9794C45.3141 27.9288 45.3958 27.8071 45.4034 27.6353C45.3428 27.7464 45.2451 27.8153 45.0918 27.7891C45.0812 27.7891 45.0812 27.7733 45.0917 27.7733C45.2688 27.765 45.3294 27.6301 45.3424 27.4821C45.3371 27.4741 45.3344 27.4662 45.3291 27.4583C45.2605 27.5351 45.1681 27.5881 45.0677 27.62C45.0492 27.6253 45.0412 27.6015 45.0571 27.5936C45.1627 27.5405 45.2339 27.4426 45.2655 27.3315C45.2601 27.3183 45.2549 27.3051 45.2495 27.2919C45.1809 27.3581 45.0964 27.4111 45.0013 27.4377C44.9855 27.443 44.9775 27.4193 44.9933 27.4139C45.1333 27.3608 45.1808 27.2656 45.207 27.1545C45.2017 27.136 45.199 27.1202 45.1937 27.1043C45.1488 27.1546 45.0934 27.1944 45.022 27.2077C45.0035 27.2104 44.9929 27.1813 45.0088 27.1734C45.0801 27.131 45.1249 27.0569 45.1591 26.9801C45.1089 27.0067 45.0588 27.0358 45.006 27.0729C44.9981 27.0782 44.9901 27.0809 44.9822 27.0835C44.816 27.2847 44.7239 27.5333 44.7799 27.8108C44.7852 27.8346 44.7588 27.8531 44.7403 27.8347C44.4543 27.5497 44.5225 27.2218 44.7335 26.9518C44.7229 26.9122 44.7254 26.8672 44.7518 26.8275C44.9653 26.4967 45.2583 26.2504 45.6071 26.1335C46.4306 25.4528 48.0477 25.1037 47.2129 23.8178C46.6033 22.8805 46.8954 22.1161 47.6642 21.8769C47.154 21.8381 46.6492 21.8812 46.1446 22.0698C45.2649 22.3964 45.1654 22.9332 44.7543 23.6529C44.6937 23.7614 44.6145 23.8382 44.5247 23.8991C44.5591 23.8885 44.5961 23.8805 44.6304 23.8698C45.2724 23.6573 45.2079 23.0759 45.6408 22.6866C45.6434 22.6839 45.6487 22.6892 45.6461 22.6918C45.3375 23.0677 45.3281 23.7576 44.8288 23.9567C44.4722 24.0974 44.097 24.143 43.7243 24.2045C43.4469 24.2684 43.1721 24.3164 42.9159 24.4252C42.9003 24.6077 42.9297 24.8111 43.028 25.0542C43.0651 25.136 43.0943 25.2153 43.105 25.2814C43.1583 25.5747 42.9736 25.7521 42.6962 25.7896C42.675 25.7923 42.6564 25.7632 42.6776 25.75C42.865 25.628 42.9044 25.4852 42.8513 25.3214C42.8304 25.4484 42.7618 25.5436 42.6085 25.5703C42.598 25.573 42.5953 25.5571 42.6032 25.5545C42.767 25.4855 42.7773 25.3401 42.7401 25.1974C42.7321 25.1921 42.7268 25.1842 42.7189 25.1789C42.6794 25.2742 42.6108 25.3536 42.529 25.4198C42.5158 25.4304 42.4999 25.4119 42.5104 25.3987C42.5922 25.314 42.6264 25.1976 42.6183 25.0813C42.6077 25.0707 42.5997 25.0602 42.5891 25.047C42.547 25.1343 42.4837 25.211 42.4045 25.2693C42.3913 25.2799 42.3754 25.2615 42.3886 25.2509C42.5021 25.1529 42.5151 25.0471 42.5017 24.9361C42.4911 24.9203 42.4805 24.9071 42.4726 24.8912C42.4462 24.9547 42.4093 25.0103 42.3486 25.0474C42.3327 25.058 42.3116 25.0342 42.3248 25.0184C42.3775 24.9548 42.3959 24.8702 42.401 24.7856C42.3641 24.828 42.3245 24.873 42.2902 24.9233C42.285 24.9312 42.277 24.9338 42.2718 24.9418C42.185 25.1878 42.1801 25.4521 42.3286 25.695C42.3392 25.7135 42.3207 25.7426 42.2996 25.7295C41.9345 25.5556 41.8863 25.2253 41.9941 24.9026C41.9703 24.8683 41.9597 24.826 41.9702 24.7784C42.0594 24.395 42.2517 24.0642 42.5395 23.8364C43.0824 22.9183 44.4872 22.0409 43.267 21.1152C42.3777 20.44 42.3922 19.6206 43.0337 19.1357C42.5422 19.2714 42.08 19.4836 41.6683 19.8306C40.9503 20.4345 41.0385 20.9736 40.8945 21.7906C40.8735 21.9123 40.8261 22.0128 40.7628 22.1001C40.7945 22.0789 40.8236 22.0604 40.8526 22.0365C41.3858 21.6206 41.1259 21.0951 41.4026 20.5818C41.4052 20.5791 41.4105 20.5818 41.4078 20.5844C41.2421 21.0446 41.4679 21.6972 41.0667 22.052C40.7791 22.3063 40.441 22.4734 40.1109 22.6564C39.8706 22.8101 39.625 22.9506 39.4218 23.1413C39.4697 23.3156 39.5678 23.4952 39.7373 23.6879C39.8035 23.7539 39.8591 23.8199 39.8936 23.8806C40.042 24.1394 39.9288 24.3669 39.6805 24.4969C39.662 24.5075 39.6329 24.4864 39.6488 24.4652C39.7859 24.2852 39.7724 24.1399 39.6665 24.0026C39.6905 24.1268 39.659 24.2405 39.5243 24.32C39.5164 24.3253 39.5058 24.3121 39.5137 24.3068C39.6456 24.1876 39.6058 24.045 39.521 23.9235C39.513 23.9209 39.5051 23.9183 39.4971 23.913C39.492 24.0161 39.4552 24.114 39.3998 24.2039C39.3893 24.2198 39.3681 24.2066 39.376 24.1908C39.4234 24.0823 39.4153 23.9607 39.3702 23.8551C39.3569 23.8472 39.3437 23.8419 39.3305 23.834C39.3201 23.9292 39.2858 24.0217 39.2331 24.1064C39.2252 24.1196 39.2041 24.1091 39.212 24.0932C39.2858 23.9636 39.2618 23.8579 39.2114 23.7575C39.1982 23.747 39.1823 23.7364 39.169 23.7259C39.1665 23.792 39.1481 23.8581 39.1033 23.9137C39.0901 23.9296 39.0636 23.9137 39.0715 23.8952C39.0978 23.8159 39.0871 23.7313 39.0632 23.652C39.0421 23.7049 39.0211 23.7605 39.0053 23.8187C39.0027 23.8293 38.9974 23.8345 38.9922 23.8425C38.9926 24.1042 39.0802 24.3525 39.2999 24.5319C39.3185 24.5451 39.308 24.5768 39.2842 24.5742C38.8823 24.5352 38.7258 24.2394 38.7173 23.8985C38.6829 23.8747 38.6591 23.8378 38.6537 23.7902C38.6081 23.3991 38.6762 23.0236 38.8712 22.7113C39.073 21.6642 40.099 20.362 38.6338 19.9019C37.568 19.568 37.305 18.7913 37.7453 18.1192C37.3281 18.4133 36.964 18.7708 36.6951 19.2338C36.226 20.0461 36.4885 20.5241 36.63 21.338C36.6514 21.4596 36.641 21.5706 36.6094 21.6764C36.6305 21.6473 36.6543 21.6182 36.6727 21.5864C37.0339 21.0148 36.6129 20.6058 36.6991 20.0321C36.6991 20.0294 36.7044 20.0294 36.7044 20.0321C36.7053 20.5211 37.1371 21.0569 36.8788 21.5279C36.6944 21.8639 36.4331 22.134 36.1851 22.4199C35.8924 22.801 35.5758 23.1452 35.537 23.6739C35.5873 23.6976 35.6323 23.724 35.6693 23.7504C35.8757 23.9007 35.8946 24.1068 35.7892 24.3C35.8633 24.3659 35.948 24.4239 36.0538 24.4608C36.075 24.4687 36.0777 24.5004 36.0539 24.5057C35.7183 24.5909 35.4908 24.4379 35.3529 24.1924C35.3529 24.2109 35.3503 24.2294 35.3477 24.2479C35.3451 24.2637 35.3186 24.2611 35.3186 24.2426C35.3185 24.1766 35.2999 24.1131 35.268 24.055C35.2363 24.0419 35.2098 24.0181 35.1913 23.9838C35.1833 23.9706 35.1806 23.9547 35.1727 23.9389C35.1595 23.9389 35.1463 23.9363 35.1331 23.9363C35.1623 24.0261 35.1704 24.1266 35.152 24.2244C35.1494 24.2403 35.1256 24.2377 35.1283 24.2218C35.1439 24.0738 35.0803 23.9893 34.9929 23.9154C34.9744 23.9128 34.9559 23.9075 34.94 23.9023C34.9639 23.9657 34.9773 24.0317 34.9589 24.1005C34.9536 24.119 34.9219 24.1164 34.9218 24.0953C34.9138 24.0001 34.8555 23.9183 34.7919 23.8497C34.7575 23.8339 34.7284 23.8181 34.6967 23.7996C34.7762 23.9105 34.8159 23.9924 34.766 24.1273C34.7607 24.1431 34.7343 24.1379 34.7369 24.1194C34.7604 23.966 34.4825 23.7841 34.4162 23.6441C34.3605 23.5253 34.3312 23.4064 34.3098 23.2822C33.9565 22.2625 34.5217 20.4376 32.9043 20.6228C31.7943 20.7489 31.2408 20.1445 31.3717 19.3513C31.1081 19.7905 30.9212 20.2614 30.8613 20.7981C30.7598 21.7313 31.1939 22.061 31.655 22.7501C31.7239 22.8531 31.7585 22.9561 31.7719 23.0645C31.7797 23.0275 31.7876 22.9931 31.7928 22.9561C31.8921 22.2871 31.342 22.0845 31.1877 21.5244C31.1851 21.5191 31.193 21.5191 31.193 21.5218C31.392 21.9682 32.0058 22.2843 31.9591 22.8183C31.9254 23.2017 31.7965 23.5587 31.6835 23.9211C31.6179 24.1961 31.5364 24.4632 31.521 24.7408C31.6771 24.8357 31.8728 24.9014 32.1292 24.9221C32.2191 24.9246 32.3064 24.9351 32.3725 24.9534C32.6581 25.0375 32.7326 25.2832 32.6458 25.5451C32.6405 25.5636 32.6035 25.5689 32.6008 25.5452C32.5767 25.3205 32.4655 25.2255 32.2936 25.1968C32.3968 25.2706 32.4525 25.3736 32.4105 25.5243C32.4079 25.5349 32.392 25.5323 32.3946 25.5217C32.4049 25.3446 32.2805 25.2708 32.1377 25.2393C32.1298 25.242 32.1219 25.2473 32.1113 25.2499C32.1802 25.3291 32.22 25.4269 32.2413 25.5273C32.244 25.5431 32.2202 25.5511 32.2149 25.5326C32.1751 25.4216 32.085 25.3399 31.9792 25.2925C31.966 25.2978 31.9501 25.3004 31.9369 25.3031C31.9952 25.3797 32.035 25.4695 32.0537 25.5672C32.0564 25.5831 32.0326 25.5884 32.0299 25.5726C31.9953 25.4272 31.9053 25.3692 31.7995 25.3298C31.781 25.3325 31.7625 25.3351 31.7467 25.3352C31.7917 25.3853 31.8235 25.446 31.8316 25.5174C31.8316 25.5359 31.8026 25.5439 31.7946 25.5254C31.7601 25.4488 31.6913 25.3934 31.6198 25.3539C31.6411 25.4067 31.665 25.4622 31.6941 25.515C31.6994 25.5229 31.6994 25.5308 31.7021 25.5414C31.8848 25.7288 32.1176 25.85 32.4004 25.8283C32.4216 25.8257 32.4375 25.8574 32.419 25.8706C32.0996 26.1196 31.7848 26.0144 31.5439 25.7716C31.5016 25.777 31.4593 25.7691 31.4222 25.7375C31.1178 25.4869 30.9085 25.1648 30.8338 24.8054C30.2561 23.9077 30.0999 22.2585 28.7239 22.9375C27.7203 23.4309 26.9953 23.0489 26.8512 22.2588C26.7517 22.7612 26.7367 23.2687 26.8618 23.7919C27.0828 24.7034 27.6038 24.8691 28.2681 25.3596C28.366 25.4335 28.4349 25.5179 28.4853 25.6156C28.4799 25.5786 28.4772 25.5443 28.4692 25.5073C28.3359 24.844 27.7491 24.8398 27.4152 24.3645C27.4126 24.3619 27.4179 24.3566 27.4205 24.3619C27.7595 24.7129 28.4416 24.8042 28.5799 25.3221C28.6784 25.6946 28.6764 26.0726 28.6929 26.4506C28.7225 26.7334 28.7388 27.0109 28.8159 27.2777C28.9957 27.3144 29.2019 27.3114 29.4529 27.2423C29.5374 27.2131 29.622 27.1944 29.688 27.1917C29.9867 27.1726 30.1378 27.3786 30.1435 27.6561C30.1436 27.6772 30.1118 27.6932 30.1012 27.6694C30.0004 27.466 29.8629 27.4134 29.6911 27.4481C29.8154 27.4822 29.9028 27.5614 29.9136 27.7173C29.9137 27.7279 29.9004 27.7305 29.8978 27.72C29.8499 27.5509 29.7045 27.522 29.5591 27.5408C29.5512 27.5461 29.5459 27.554 29.538 27.5593C29.628 27.6094 29.6995 27.6886 29.7551 27.7784C29.7631 27.7942 29.742 27.8075 29.7314 27.7943C29.6572 27.7045 29.5435 27.6571 29.4271 27.6494C29.4166 27.6573 29.4034 27.6653 29.3902 27.6732C29.4696 27.726 29.5384 27.7972 29.5888 27.8817C29.5968 27.8949 29.5783 27.9082 29.5677 27.895C29.4855 27.7709 29.3797 27.7473 29.2687 27.7448C29.2529 27.7528 29.237 27.7607 29.2212 27.7687C29.282 27.8003 29.3323 27.8452 29.3615 27.9112C29.3695 27.9297 29.3431 27.9456 29.3298 27.9324C29.2716 27.8743 29.1896 27.8454 29.1076 27.8297C29.1447 27.8719 29.1844 27.9168 29.2321 27.9564C29.24 27.9643 29.2427 27.9722 29.2506 27.9801C29.4834 28.096 29.7452 28.1299 30.004 28.0105C30.0251 28.0026 30.049 28.0237 30.0358 28.0449C29.8196 28.3862 29.4866 28.3947 29.1771 28.2499C29.1401 28.2684 29.0978 28.2764 29.0529 28.2606C28.6826 28.1265 28.3755 27.897 28.1847 27.5828C27.3377 26.934 26.632 25.4338 25.5686 26.5379C24.7929 27.3428 23.9811 27.2279 23.5755 26.5334C23.653 27.0381 23.8072 27.5216 24.104 27.9731C24.6208 28.7572 25.1653 28.7352 25.9587 28.9744C26.0777 29.0085 26.1677 29.0692 26.2498 29.1404C26.2339 29.1087 26.2179 29.0744 26.1967 29.0453C25.8468 28.467 25.2947 28.6609 24.8183 28.326C24.813 28.3234 24.8183 28.3181 24.821 28.3208C25.2575 28.5368 25.9339 28.3929 26.236 28.8338C26.456 29.1506 26.5808 29.5072 26.7241 29.8586C26.8488 30.1147 26.9576 30.3736 27.1246 30.598C27.3016 30.5713 27.4918 30.4969 27.703 30.3512C27.777 30.2929 27.8509 30.2452 27.9143 30.2187C28.189 30.1019 28.4033 30.2416 28.5016 30.5031C28.5096 30.5216 28.4858 30.5481 28.4673 30.5296C28.3058 30.3739 28.1577 30.3689 28.0098 30.4564C28.1367 30.4483 28.2451 30.493 28.3088 30.6356C28.3115 30.6436 28.3009 30.6515 28.293 30.6436C28.1897 30.501 28.0443 30.5224 27.9149 30.5887C27.9096 30.5967 27.907 30.6046 27.9017 30.6125C28.0049 30.6282 28.0974 30.6783 28.1795 30.7442C28.1927 30.7548 28.1769 30.776 28.1637 30.7654C28.0631 30.7048 27.9415 30.6997 27.8306 30.7316C27.8227 30.7448 27.8148 30.7554 27.8042 30.766C27.8968 30.787 27.9867 30.8318 28.0608 30.8951C28.0714 30.9057 28.0582 30.9242 28.045 30.9163C27.9259 30.8266 27.8202 30.84 27.7145 30.8772C27.7013 30.8904 27.6908 30.9037 27.6776 30.9169C27.7437 30.9274 27.8071 30.9511 27.8575 31.0038C27.8707 31.017 27.8523 31.0435 27.8337 31.0329C27.7597 30.9961 27.6724 30.9989 27.5905 31.0122C27.6408 31.0412 27.6937 31.0675 27.7492 31.0912C27.7572 31.0939 27.7625 31.1018 27.7704 31.1071C28.0295 31.1357 28.2885 31.0824 28.4917 30.8838C28.5075 30.8679 28.5392 30.8811 28.534 30.9049C28.4474 31.2989 28.1357 31.4184 27.7973 31.3872C27.7683 31.419 27.7313 31.4375 27.6837 31.4376C27.2872 31.4357 26.9223 31.3226 26.6364 31.0931C25.6208 30.7698 24.4504 29.5981 23.8211 30.9949C23.3629 32.0133 22.5596 32.1812 21.9428 31.6642C22.1868 32.1132 22.4967 32.5171 22.9255 32.8415C23.6772 33.4032 24.1817 33.1988 25.009 33.1551C25.1306 33.147 25.239 33.1706 25.3395 33.2127C25.313 33.1889 25.2866 33.1625 25.2574 33.1388C24.7333 32.7115 24.2793 33.0823 23.716 32.93C23.7107 32.93 23.7134 32.922 23.716 32.9247C24.1998 32.9794 24.786 32.6162 25.2227 32.9274C25.535 33.1515 25.7761 33.4445 26.0277 33.7243C26.2315 33.9249 26.4222 34.1307 26.6551 34.2863C26.8135 34.2014 26.9666 34.0663 27.1169 33.8572C27.167 33.7779 27.2198 33.709 27.2699 33.6614C27.489 33.4575 27.7375 33.5178 27.9176 33.729C27.9309 33.7448 27.9177 33.7766 27.8939 33.766C27.6876 33.6739 27.5476 33.7191 27.4368 33.8541C27.553 33.801 27.672 33.8087 27.7779 33.9222C27.7832 33.9301 27.7753 33.9407 27.7673 33.9354C27.6218 33.8352 27.4923 33.9042 27.3921 34.0127C27.3921 34.0207 27.3895 34.0312 27.3868 34.0392C27.4873 34.0205 27.593 34.0362 27.6909 34.0704C27.7068 34.0756 27.6989 34.0994 27.683 34.0968C27.5693 34.0732 27.4504 34.1104 27.358 34.1767C27.3554 34.1899 27.3501 34.2058 27.3475 34.219C27.4427 34.2083 27.5405 34.2187 27.6331 34.2529C27.6463 34.2581 27.641 34.2819 27.6252 34.2767C27.4823 34.2346 27.3873 34.2797 27.3002 34.3512C27.2923 34.3671 27.287 34.3856 27.2791 34.4015C27.3452 34.3882 27.4139 34.3907 27.4774 34.4223C27.4933 34.4302 27.4854 34.4619 27.4669 34.4567C27.3849 34.4489 27.303 34.4781 27.2291 34.5205C27.2846 34.531 27.3428 34.5362 27.4062 34.5414C27.4168 34.5414 27.4221 34.5466 27.4327 34.5466C27.6863 34.4854 27.9108 34.3475 28.0346 34.0936C28.0451 34.0724 28.0768 34.075 28.0795 34.0988C28.1304 34.5005 27.8797 34.7177 27.5494 34.8028C27.5336 34.8425 27.5046 34.8743 27.4597 34.8902C27.0872 35.023 26.7066 35.0395 26.3575 34.9212C25.2896 34.96 23.7923 34.2542 23.6733 35.7822C23.588 36.8978 22.8883 37.3246 22.1344 37.0483C22.5157 37.3887 22.9443 37.6629 23.4574 37.8232C24.354 38.0992 24.7604 37.7364 25.5238 37.4126C25.6374 37.3648 25.7457 37.3514 25.8541 37.3565C25.8197 37.3434 25.788 37.3276 25.7536 37.3144C25.1162 37.0908 24.813 37.5936 24.2316 37.6369C24.2263 37.6369 24.2263 37.6316 24.2316 37.6316C24.7072 37.5197 25.1345 36.9798 25.6502 37.1243C26.0204 37.2294 26.3459 37.4244 26.6819 37.6036C26.9411 37.7221 27.1898 37.8512 27.4596 37.9195C27.5809 37.7871 27.6785 37.6072 27.7468 37.3639C27.7651 37.2713 27.794 37.1867 27.8256 37.1232C27.9626 36.8586 28.2163 36.8318 28.4571 36.9688C28.4756 36.9793 28.4731 37.0137 28.4466 37.0111C28.2219 36.993 28.1058 37.0857 28.0479 37.2471C28.1403 37.1597 28.2539 37.1251 28.3914 37.1962C28.3994 37.2015 28.3941 37.2147 28.3862 37.2121C28.2143 37.1675 28.1167 37.276 28.0587 37.4109C28.0614 37.4188 28.0614 37.4294 28.0641 37.4373C28.1539 37.3843 28.2569 37.363 28.3626 37.3628C28.3811 37.3628 28.3812 37.3892 28.3627 37.3919C28.2464 37.4106 28.1488 37.4821 28.0828 37.58C28.0829 37.5959 28.0855 37.6091 28.0856 37.6223C28.1701 37.5799 28.2678 37.5559 28.3683 37.5584C28.3841 37.5584 28.3868 37.5822 28.3683 37.5849C28.2177 37.593 28.1438 37.6698 28.0858 37.7651C28.0858 37.7836 28.0832 37.8021 28.0832 37.818C28.1413 37.7835 28.2047 37.7622 28.2761 37.77C28.2946 37.7727 28.2973 37.8044 28.2788 37.807C28.1969 37.8257 28.1309 37.884 28.0782 37.9475C28.1337 37.9368 28.1918 37.9235 28.2525 37.9075C28.2605 37.9049 28.2684 37.9049 28.279 37.9048C28.4982 37.7617 28.6617 37.5553 28.6929 37.2724C28.6955 37.2512 28.7272 37.2406 28.7378 37.2617C28.9208 37.6209 28.7575 37.912 28.4749 38.1028C28.4724 38.1451 28.4566 38.1847 28.4196 38.2139C28.116 38.4655 27.7621 38.6115 27.3947 38.6148C26.4041 39.013 24.7544 38.8519 25.1614 40.3315C25.4566 41.4095 24.9449 42.05 24.1413 42.0435C24.6148 42.2356 25.112 42.3484 25.6485 42.3237C26.5868 42.2798 26.845 41.8009 27.4547 41.2395C27.5444 41.1548 27.6421 41.107 27.7478 41.0751C27.7108 41.0725 27.6738 41.07 27.6368 41.07C26.9601 41.0765 26.8474 41.6503 26.3139 41.8891C26.3112 41.8917 26.3086 41.8864 26.3112 41.8838C26.7205 41.6188 26.9388 40.9628 27.4753 40.9276C27.8612 40.9005 28.234 40.9765 28.6095 41.0313C28.8897 41.0547 29.1647 41.0912 29.4395 41.0669C29.5106 40.8976 29.5446 40.694 29.5257 40.435C29.515 40.3452 29.5122 40.2606 29.52 40.1945C29.5591 39.8984 29.7889 39.787 30.0639 39.8341C30.0851 39.8367 30.0957 39.871 30.0693 39.8764C29.8526 39.9349 29.7735 40.0619 29.7738 40.2337C29.8318 40.1199 29.9268 40.0484 30.0802 40.0693C30.0907 40.0719 30.0908 40.0851 30.0802 40.0852C29.9031 40.1013 29.8478 40.2362 29.8402 40.3843C29.8455 40.3922 29.8507 40.4001 29.8534 40.408C29.9194 40.3286 30.0091 40.273 30.1069 40.2358C30.1227 40.2305 30.1333 40.2542 30.1175 40.2622C30.0145 40.3179 29.9459 40.4211 29.9171 40.5322C29.9224 40.5454 29.9277 40.5586 29.9356 40.5718C30.0016 40.5029 30.0861 40.4499 30.1785 40.4154C30.1944 40.4101 30.2024 40.4312 30.1892 40.4392C30.0518 40.4976 30.007 40.5928 29.9861 40.7039C29.9914 40.7224 29.9967 40.7382 30.002 40.7567C30.0442 40.7038 30.0997 40.6614 30.1684 40.6454C30.1869 40.6427 30.2001 40.6718 30.1816 40.6797C30.113 40.7248 30.0682 40.8015 30.0393 40.8782C30.0894 40.8491 30.1396 40.8173 30.1898 40.7802C30.1977 40.7749 30.2056 40.7722 30.2135 40.7696C30.3718 40.5605 30.4559 40.3092 30.3894 40.0344C30.384 40.0133 30.4105 39.9921 30.429 40.0105C30.7229 40.2876 30.6679 40.6155 30.4675 40.8907C30.4781 40.9303 30.4782 40.9753 30.4545 41.015C30.2515 41.3537 29.9691 41.6106 29.6257 41.738C28.8286 42.4478 27.2222 42.855 28.1046 44.109C28.7485 45.0225 28.4828 45.8001 27.722 46.0658C28.2322 46.086 28.737 46.0244 29.2362 45.82C30.1026 45.4617 30.1863 44.9223 30.5683 44.1894C30.6263 44.0809 30.7001 43.9989 30.7873 43.9353C30.7529 43.9459 30.7159 43.9539 30.6816 43.9672C30.0476 44.2009 30.1332 44.7796 29.7136 45.1848C29.7109 45.1874 29.7056 45.1821 29.7083 45.1821C30.0037 44.7931 29.9892 44.1032 30.4805 43.8882C30.8345 43.7317 31.2097 43.6755 31.5823 43.6009C31.8571 43.529 32.1293 43.4678 32.3802 43.351C32.3878 43.1713 32.3505 42.9704 32.247 42.7354C32.2045 42.6535 32.17 42.5716 32.1567 42.5029C32.0928 42.2096 32.2722 42.0269 32.547 41.9815C32.5682 41.9762 32.5893 42.0052 32.5682 42.0211C32.3834 42.1509 32.3519 42.2937 32.4104 42.4575C32.426 42.3306 32.4893 42.2327 32.6426 42.1981C32.6531 42.1954 32.6584 42.2086 32.6479 42.2139C32.4868 42.2882 32.4817 42.4363 32.5242 42.5763C32.5322 42.5816 32.5375 42.5868 32.5454 42.5947C32.5823 42.4969 32.6482 42.4148 32.7274 42.346C32.7406 42.3354 32.7591 42.3538 32.7459 42.3671C32.6694 42.4544 32.6379 42.5734 32.6487 42.6897C32.6593 42.7003 32.6699 42.7108 32.6778 42.7214C32.7173 42.6341 32.778 42.5547 32.8545 42.4938C32.8677 42.4832 32.8836 42.5017 32.8704 42.5122C32.7596 42.6129 32.7518 42.7186 32.7679 42.8323C32.7785 42.8455 32.7891 42.8613 32.7997 42.8745C32.8233 42.811 32.8576 42.7528 32.9184 42.7131C32.9342 42.7025 32.9554 42.7262 32.9448 42.7421C32.8947 42.8083 32.879 42.8955 32.8791 42.9775C32.9161 42.9325 32.953 42.8875 32.9873 42.8345C32.9925 42.8266 33.0005 42.8213 33.0057 42.816C33.0846 42.5674 33.0789 42.3031 32.9225 42.0654C32.9093 42.047 32.9277 42.0178 32.9515 42.0284C33.3219 42.189 33.3806 42.5167 33.286 42.8446C33.3098 42.8789 33.3231 42.9212 33.3153 42.9661C33.2393 43.3522 33.0601 43.6909 32.7803 43.9266C32.2691 44.8632 30.8962 45.7907 32.1506 46.6741C33.0663 47.3175 33.0783 48.1369 32.4527 48.6429C32.9388 48.4887 33.393 48.2606 33.7942 47.9004C34.4883 47.2701 34.3843 46.7337 34.4966 45.9141C34.5123 45.7925 34.557 45.6919 34.6176 45.5993C34.5886 45.6205 34.5569 45.6417 34.5305 45.6655C34.0132 46.0999 34.2916 46.6176 34.0335 47.1387C34.0308 47.144 34.0255 47.1387 34.0282 47.1361C34.1754 46.6706 33.9285 46.0261 34.3164 45.658C34.5961 45.3905 34.9342 45.2102 35.2616 45.0114C35.5943 44.7809 35.9376 44.5767 36.1511 44.2195C36.1532 43.9076 36.1553 43.5957 36.1574 43.2838C36.1124 43.223 36.0594 43.1676 35.9932 43.1175C35.9747 43.1043 35.9826 43.0726 36.0064 43.0726C36.0619 43.0751 36.1095 43.0856 36.1571 43.0961C36.1734 40.2651 36.2108 37.4313 36.2747 34.6002C36.2266 34.2884 36.1705 33.9739 36.1885 33.662C36.2039 33.3897 36.4203 33.2016 36.5786 33.0058C36.5891 32.9925 36.605 32.9925 36.6156 33.0004C36.642 32.9792 36.6658 32.958 36.6948 32.9395C37.4948 32.3751 39.1526 32.6472 38.8693 33.9006C38.8667 33.9693 38.8642 34.038 38.8564 34.1068C38.8408 34.2496 38.8278 34.395 38.8096 34.5404C38.8861 37.551 38.9335 40.5643 38.9625 43.5777C38.9916 43.6252 39.0366 43.6648 39.0922 43.699C39.0233 43.5908 39.0099 43.4745 39.1075 43.3501C39.1127 43.3422 39.126 43.3501 39.1207 43.3606C39.0443 43.5194 39.1344 43.6382 39.2561 43.7199C39.2641 43.7199 39.2746 43.7199 39.2826 43.7199C39.248 43.6221 39.2478 43.5164 39.2662 43.4133C39.2688 43.3947 39.2952 43.4 39.2926 43.4185C39.2875 43.5348 39.3406 43.6457 39.4227 43.7275C39.4359 43.7302 39.4517 43.7301 39.465 43.7328C39.4384 43.6403 39.4356 43.5398 39.4566 43.4446C39.4592 43.4288 39.483 43.4314 39.483 43.4499C39.4621 43.598 39.523 43.6851 39.6078 43.7616C39.6236 43.7669 39.6422 43.7695 39.658 43.7747C39.6341 43.7113 39.6261 43.6426 39.6471 43.5738C39.6524 43.5553 39.6841 43.5606 39.6841 43.5791C39.6896 43.6742 39.7426 43.7587 39.8061 43.83C39.8379 43.8458 39.8696 43.8642 39.8987 43.8827C39.8219 43.7692 39.7847 43.6846 39.84 43.5524C39.8453 43.5365 39.8717 43.5444 39.8691 43.5603C39.8403 43.7136 40.1129 43.9035 40.1713 44.0461C40.2217 44.1676 40.2483 44.2865 40.2644 44.4107C40.5807 45.4411 39.9494 47.2449 41.5749 47.1205C42.6902 47.0341 43.2199 47.657 43.0627 48.4476C43.3395 48.0189 43.5449 47.5533 43.6233 47.0192C43.7591 46.0912 43.3356 45.7456 42.9009 45.0406C42.8347 44.935 42.8054 44.8293 42.7946 44.721C42.7868 44.758 42.7763 44.7924 42.7684 44.8294C42.6453 45.4931 43.1875 45.7168 43.3233 46.2823C43.3233 46.2875 43.318 46.2876 43.318 46.2849C43.1349 45.8332 42.5343 45.4933 42.5994 44.9618C42.6464 44.5785 42.7885 44.2267 42.9148 43.867C42.9909 43.5972 43.0804 43.3327 43.1063 43.0578C42.9528 42.9576 42.7597 42.8839 42.5033 42.8553C42.4134 42.8501 42.3288 42.8371 42.2653 42.8134C41.9823 42.7187 41.9158 42.473 42.0158 42.2111C42.0237 42.1926 42.0581 42.1873 42.0608 42.2137C42.077 42.4383 42.1856 42.5386 42.3548 42.5727C42.2542 42.4935 42.2012 42.3879 42.2511 42.2398C42.2538 42.2292 42.2696 42.2318 42.267 42.2424C42.2488 42.4195 42.3732 42.4986 42.516 42.5354C42.5239 42.5327 42.5318 42.5301 42.5424 42.5274C42.4762 42.4482 42.439 42.3479 42.423 42.2448C42.4203 42.2263 42.4441 42.2236 42.452 42.2394C42.4866 42.3504 42.574 42.4375 42.6798 42.4875C42.693 42.4849 42.7089 42.4822 42.7221 42.4769C42.6664 42.4003 42.6293 42.3079 42.6159 42.2075C42.6132 42.1916 42.637 42.1863 42.6396 42.2021C42.6716 42.3501 42.759 42.4107 42.8621 42.4529C42.8806 42.4502 42.8965 42.4502 42.915 42.4475C42.8726 42.3947 42.8408 42.3339 42.838 42.2626C42.838 42.2441 42.867 42.2361 42.875 42.2546C42.9068 42.3312 42.973 42.3892 43.0418 42.4314C43.0232 42.3759 43.002 42.3231 42.9755 42.2676C42.9702 42.2597 42.9701 42.2518 42.9701 42.2439C42.7953 42.0485 42.5651 41.9194 42.2823 41.9331C42.2585 41.9332 42.2453 41.9041 42.2664 41.8909C42.5938 41.6524 42.9059 41.7708 43.1389 42.0189C43.1812 42.0135 43.2235 42.024 43.2579 42.0557C43.5518 42.3195 43.7506 42.6443 43.812 43.0063C44.3581 43.9226 44.4535 45.5772 45.8533 44.9483C46.8729 44.4893 47.5846 44.8978 47.7023 45.6932C47.8178 45.1961 47.8539 44.6885 47.7473 44.16C47.5607 43.2405 47.0449 43.059 46.3964 42.542C46.2985 42.4655 46.2349 42.3757 46.1871 42.278C46.1898 42.315 46.1926 42.352 46.2005 42.389C46.3101 43.0549 46.8969 43.0804 47.215 43.5688C47.2176 43.5715 47.2123 43.5768 47.2097 43.5715C46.8839 43.2073 46.2044 43.0921 46.0845 42.5689C45.9993 42.1937 46.0145 41.8131 46.0112 41.4351C45.9922 41.1523 45.9838 40.8747 45.9173 40.6052C45.7401 40.5632 45.5313 40.5583 45.2803 40.6169C45.1931 40.6408 45.1111 40.6568 45.0424 40.6596C44.7437 40.668 44.598 40.4568 44.6028 40.1793C44.6028 40.1581 44.6345 40.1422 44.6451 40.166C44.7379 40.372 44.8729 40.4299 45.0446 40.4032C44.923 40.3637 44.8356 40.282 44.8327 40.126C44.8327 40.1154 44.8459 40.1128 44.8485 40.1233C44.8911 40.2951 45.0339 40.3292 45.1793 40.3131C45.1872 40.3078 45.1925 40.3025 45.2004 40.2945C45.1131 40.2418 45.0442 40.16 44.9912 40.0702C44.9832 40.0544 45.0044 40.0411 45.015 40.057C45.0865 40.1494 45.1976 40.202 45.3139 40.2124C45.3271 40.2045 45.3377 40.1965 45.3509 40.1886C45.2715 40.1332 45.2053 40.0593 45.1602 39.9721C45.1523 39.9589 45.1734 39.9457 45.1813 39.9589C45.2608 40.0856 45.364 40.1145 45.475 40.1196C45.4909 40.1117 45.5067 40.1037 45.5226 40.0984C45.4644 40.0641 45.414 40.0166 45.3875 39.9506C45.3795 39.9321 45.4059 39.9162 45.4192 39.932C45.4748 39.9927 45.5568 40.0243 45.6361 40.0427C45.599 39.9978 45.562 39.9529 45.517 39.9107C45.509 39.9028 45.5064 39.8949 45.5011 39.887C45.2709 39.7631 45.0117 39.7213 44.7502 39.8274C44.7291 39.8354 44.7053 39.8143 44.7185 39.7931C44.9452 39.4597 45.2783 39.4644 45.5825 39.6198C45.6195 39.6013 45.6644 39.5959 45.7094 39.6143C46.0744 39.7617 46.3736 40.0018 46.5512 40.3213C47.3744 40.9992 48.0247 42.5233 49.1304 41.4588C49.9353 40.6829 50.7418 40.8243 51.121 41.5347C51.0619 41.0273 50.9237 40.5385 50.6453 40.0764C50.1576 39.2737 49.613 39.2772 48.8275 39.0116C48.7111 38.9722 48.6185 38.9089 48.5417 38.8324C48.5576 38.8667 48.5736 38.8984 48.5921 38.9327C48.9209 39.5216 49.481 39.3488 49.9442 39.6996C49.9468 39.7022 49.9442 39.7075 49.9415 39.7049C49.5129 39.473 48.8338 39.5931 48.5449 39.1416C48.3382 38.8195 48.2239 38.4575 48.0938 38.1009C47.9796 37.8394 47.8787 37.5779 47.7224 37.3456C47.5427 37.3644 47.3498 37.4361 47.136 37.5712C47.062 37.6269 46.9855 37.6719 46.9194 37.6958C46.6421 37.8047 46.433 37.6544 46.3427 37.3928C46.3347 37.3744 46.3611 37.3479 46.377 37.3664C46.5332 37.53 46.6786 37.5377 46.8318 37.4555C46.7049 37.4583 46.5964 37.4109 46.5407 37.2656C46.538 37.2577 46.5512 37.2498 46.5565 37.2577C46.6546 37.4055 46.7999 37.3894 46.9346 37.3258C46.9399 37.3178 46.9452 37.3099 46.9478 37.3019C46.8474 37.281 46.7547 37.2283 46.6753 37.1597C46.6621 37.1465 46.6779 37.1279 46.6938 37.1385C46.7917 37.2018 46.9133 37.2121 47.0269 37.1855C47.0348 37.1723 47.0454 37.1617 47.0533 37.1511C46.9607 37.1275 46.8734 37.08 46.7993 37.0114C46.7887 37.0009 46.8019 36.9823 46.8151 36.9903C46.9316 37.0826 47.04 37.0745 47.1456 37.0426C47.1588 37.0293 47.1694 37.0161 47.1826 37.0055C47.1165 36.9924 47.053 36.9661 47.0053 36.9133C46.9921 36.9001 47.0132 36.8763 47.029 36.8842C47.1031 36.9237 47.1877 36.9262 47.2723 36.9128C47.222 36.8838 47.1718 36.8548 47.1162 36.8285C47.1083 36.8259 47.1029 36.8179 47.095 36.8127C46.8359 36.7735 46.5769 36.8188 46.3658 37.0095C46.3473 37.0254 46.3182 37.0123 46.3261 36.9884C46.4259 36.5971 46.7429 36.4881 47.0813 36.5325C47.1104 36.5034 47.15 36.4848 47.1975 36.4847C47.5914 36.4999 47.9538 36.6262 48.2291 36.8662C49.2342 37.2267 50.3623 38.4407 51.0393 37.065C51.5345 36.0623 52.3405 35.9235 52.9388 36.4643C52.7002 36.0233 52.4061 35.6088 51.9878 35.2712ZM27.9049 32.4787C27.5855 32.6934 27.221 32.8632 26.8217 32.774C26.2241 32.6402 25.6465 31.909 25.0835 31.902C23.9601 31.8907 23.5997 32.8958 22.5253 32.2368C22.5042 32.2236 22.5252 32.1839 22.5491 32.1971C23.7396 32.7978 24.0703 31.4147 25.1174 31.6244C25.4373 31.6899 25.6807 31.7768 25.9401 31.9851C26.578 32.5021 27.1067 32.5145 27.8492 32.3519C27.9179 32.3333 27.963 32.439 27.9049 32.4787ZM28.0216 35.7933C27.7922 36.1029 27.5072 36.3863 27.1028 36.4372C26.495 36.5149 25.7038 36.0219 25.1728 36.2052C24.1135 36.5744 24.1126 37.6424 22.8778 37.3854C22.8513 37.3802 22.8592 37.3352 22.8856 37.3405C24.2076 37.5021 24.0519 36.0908 25.1089 35.9304C25.434 35.8823 25.6903 35.8818 26.0051 35.9897C26.78 36.258 27.282 36.0932 27.9263 35.6903C27.987 35.6559 28.0638 35.7377 28.0216 35.7933ZM28.0923 32.2934C28.1027 32.2061 28.2402 32.2217 28.2298 32.3116C28.2193 32.3989 28.0819 32.3833 28.0923 32.2934ZM28.1375 35.5578C28.1189 35.4706 28.2536 35.4387 28.2723 35.5259C28.2936 35.6131 28.1562 35.645 28.1375 35.5578ZM29.9422 32.047C29.9318 32.1316 29.8022 32.116 29.8126 32.0314C29.8231 31.9468 29.9553 31.9598 29.9422 32.047ZM29.8025 29.1819C29.8078 29.1872 29.8131 29.1924 29.8184 29.1977C29.9111 29.2954 29.8373 29.4462 29.7025 29.4279C29.6945 29.4279 29.6892 29.4279 29.6813 29.4253C29.4434 29.3966 29.6383 29.0051 29.8025 29.1819ZM29.1549 29.2068C29.1944 29.1274 29.3188 29.188 29.2793 29.27C29.2397 29.3494 29.1154 29.2862 29.1549 29.2068ZM29.2154 32.0932C29.1971 32.2465 28.9618 32.2179 28.9801 32.0672C28.9983 31.9138 29.2336 31.9399 29.2154 32.0932ZM28.8953 35.0437C28.8607 34.8931 29.0905 34.8398 29.1252 34.9878C29.1598 35.1384 28.9299 35.1917 28.8953 35.0437ZM28.7002 35.3771C28.695 35.3824 28.6897 35.3851 28.6817 35.3877C28.4784 35.5176 28.3799 35.0922 28.6205 35.1235C28.6284 35.1235 28.6337 35.1235 28.6417 35.1261C28.7765 35.1417 28.8138 35.3055 28.7002 35.3771ZM28.6844 32.3162C28.6791 32.3188 28.6712 32.3188 28.6633 32.3215C28.4281 32.3774 28.4803 31.9411 28.6946 32.0518C28.7025 32.0544 28.7078 32.0571 28.7131 32.0623C28.8348 32.1203 28.8165 32.2842 28.6844 32.3162ZM27.7963 29.2276C27.2803 28.9007 26.9827 28.0157 26.4563 27.821C25.4036 27.4316 24.7231 28.2548 23.9363 27.2702C23.9204 27.2491 23.9547 27.22 23.9706 27.2411C24.8869 28.2096 25.6672 27.0214 26.5828 27.5697C26.8633 27.7384 27.0618 27.9046 27.2368 28.1871C27.6635 28.8895 28.1555 29.079 28.909 29.1781C28.9804 29.1886 28.9885 29.2996 28.9172 29.3182C28.542 29.4087 28.1429 29.4464 27.7963 29.2276ZM28.6074 39.7916C28.0607 40.0701 27.151 39.8734 26.7128 40.2257C25.8391 40.933 26.2003 41.9368 24.953 42.1134C24.9265 42.1161 24.9185 42.0738 24.9449 42.0685C26.245 41.7729 25.6216 40.4972 26.5618 39.9907C26.8496 39.8369 27.0927 39.7466 27.4257 39.7434C28.2478 39.7341 28.6622 39.4082 29.1317 38.8127C29.1765 38.7571 29.2771 38.8072 29.256 38.8759C29.143 39.2435 28.9718 39.606 28.6074 39.7916ZM29.282 38.6142C29.2343 38.5376 29.3505 38.4634 29.4009 38.54C29.4486 38.6139 29.3324 38.6881 29.282 38.6142ZM29.2438 34.8475C29.2119 34.7101 29.4233 34.6622 29.4552 34.7969C29.4872 34.937 29.2758 34.9849 29.2438 34.8475ZM29.3738 32.0004C29.3894 31.8603 29.6062 31.8863 29.5906 32.0265C29.5723 32.1666 29.3582 32.1405 29.3738 32.0004ZM29.7519 38.2539C29.7493 38.2592 29.744 38.2645 29.7387 38.2698C29.5937 38.4603 29.3551 38.0933 29.5903 38.0401C29.5982 38.0374 29.6035 38.0347 29.6114 38.0347C29.7436 38.0081 29.8363 38.1454 29.7519 38.2539ZM29.6666 34.7278C29.648 34.6459 29.7748 34.614 29.7934 34.6985C29.8147 34.7804 29.6852 34.8097 29.6666 34.7278ZM29.8226 37.8731C29.7405 37.7437 29.9385 37.6165 30.0207 37.7433C30.1028 37.8726 29.9048 38.0025 29.8226 37.8731ZM34.4984 25.3516C34.4984 25.3595 34.5011 25.3648 34.5011 25.3727C34.5119 25.5075 34.3587 25.5765 34.266 25.4762C34.2607 25.4709 34.2554 25.4657 34.2501 25.4604C34.0833 25.2889 34.4822 25.1111 34.4984 25.3516ZM34.4346 40.5482C34.4398 40.5429 34.4451 40.5403 34.4504 40.5376C34.4742 40.5217 34.5006 40.5296 34.5086 40.556C34.5112 40.5613 34.5112 40.5666 34.5139 40.5745C34.5484 40.6776 34.3448 40.6118 34.4346 40.5482ZM34.0989 42.0925C34.1041 42.0872 34.1067 42.0819 34.112 42.074C34.1938 41.9655 34.3525 42.0181 34.358 42.1529C34.358 42.1608 34.358 42.1661 34.358 42.174C34.369 42.4145 33.9512 42.2831 34.0989 42.0925ZM34.2242 42.7293C34.1395 42.7004 34.1816 42.5682 34.2662 42.5971C34.3535 42.6234 34.3088 42.7556 34.2242 42.7293ZM34.2407 41.59C34.3862 41.6374 34.3152 41.8622 34.1698 41.8175C34.0216 41.7675 34.0926 41.5427 34.2407 41.59ZM34.2926 40.9899C34.2106 40.9636 34.25 40.8393 34.332 40.8656C34.4114 40.8892 34.3719 41.0162 34.2926 40.9899ZM34.2453 41.2067C34.3802 41.2488 34.3145 41.4577 34.1796 41.413C34.0447 41.3736 34.1105 41.1647 34.2453 41.2067ZM33.9823 24.9586C34.0642 24.9241 34.1199 25.0483 34.038 25.0854C33.9562 25.1226 33.9004 24.9958 33.9823 24.9586ZM32.335 30.8429C32.3455 30.8217 32.3773 30.8375 32.3668 30.8587C32.3589 30.8772 32.3245 30.8614 32.335 30.8429ZM32.3424 36.6925C32.3556 36.711 32.3239 36.7322 32.3133 36.7111C32.2974 36.6926 32.3291 36.6741 32.3424 36.6925ZM31.9515 36.8915C31.9647 36.9152 31.9304 36.9364 31.9172 36.9153C31.9013 36.8915 31.9356 36.8703 31.9515 36.8915ZM31.818 26.8576C31.8207 26.8655 31.826 26.8708 31.8286 26.8761C31.8843 27.0002 31.7629 27.1167 31.6412 27.0535C31.6359 27.0509 31.628 27.0482 31.6227 27.043C31.4058 26.9376 31.7198 26.6357 31.818 26.8576ZM31.779 30.3363C31.7737 30.3389 31.7685 30.3416 31.7632 30.3442C31.7579 30.3469 31.7552 30.3469 31.75 30.3469C31.6495 30.3471 31.7418 30.2042 31.7842 30.2781C31.7869 30.2834 31.7895 30.286 31.7895 30.2887C31.7948 30.3045 31.7922 30.3257 31.779 30.3363ZM31.6378 32.7552C31.6404 32.7314 31.6748 32.7366 31.6722 32.7578C31.6722 32.7815 31.6352 32.779 31.6378 32.7552ZM31.665 34.7852C31.6704 34.809 31.636 34.817 31.6307 34.7932C31.6254 34.7694 31.6597 34.7614 31.665 34.7852ZM31.5921 36.9344C31.5921 36.9423 31.5894 36.9476 31.5894 36.9529C31.5895 36.9582 31.5868 36.9634 31.5842 36.9661C31.5315 37.0534 31.4572 36.9002 31.5418 36.9027C31.5471 36.9027 31.5523 36.9027 31.555 36.9027C31.5735 36.9027 31.592 36.9159 31.5921 36.9344ZM31.4745 29.9932C31.5008 29.9429 31.5775 29.9824 31.5512 30.0327C31.5275 30.083 31.4481 30.0434 31.4745 29.9932ZM31.1991 26.663C31.2651 26.6021 31.3605 26.7024 31.2945 26.7633C31.2285 26.8242 31.1332 26.7239 31.1991 26.663ZM31.2758 29.7503C31.2811 29.7556 31.2811 29.7609 31.2864 29.7662C31.2996 29.7899 31.2865 29.8164 31.2601 29.8217C31.2548 29.8217 31.2469 29.8244 31.2416 29.8244C31.1332 29.8431 31.2281 29.6526 31.2758 29.7503ZM31.2464 32.666C31.2412 32.6924 31.2015 32.6872 31.2041 32.6608C31.2067 32.6343 31.249 32.6369 31.2464 32.666ZM31.229 34.8388C31.2343 34.8652 31.1947 34.8732 31.1893 34.8495C31.1814 34.823 31.2236 34.8124 31.229 34.8388ZM31.2168 36.972C31.2486 37.0195 31.1747 37.0672 31.1428 37.0197C31.111 36.9722 31.185 36.9271 31.2168 36.972ZM30.067 29.2925C30.1355 29.1549 30.3472 29.2602 30.2787 29.3978C30.2102 29.5354 29.9985 29.43 30.067 29.2925ZM30.1211 34.624C30.1264 34.6266 30.1316 34.6292 30.1396 34.6319C30.1634 34.6424 30.1714 34.6688 30.1529 34.69C30.1476 34.6953 30.145 34.7006 30.1397 34.7032C30.0685 34.7879 30.0206 34.5818 30.1211 34.624ZM30.0865 37.5713C30.0096 37.4525 30.1918 37.3359 30.2686 37.4521C30.3428 37.5709 30.1607 37.6902 30.0865 37.5713ZM30.2807 32.1601C30.2755 32.1628 30.2702 32.1654 30.2649 32.1707C30.1698 32.2237 30.1933 32.0122 30.2753 32.0887C30.2806 32.094 30.2833 32.0967 30.2886 32.1019C30.3071 32.1204 30.3045 32.1468 30.2807 32.1601ZM29.9137 26.2212C29.5376 25.7381 29.5597 24.8076 29.1282 24.4435C28.2679 23.7207 27.3516 24.2642 26.9425 23.0728C26.9345 23.0463 26.9768 23.033 26.9848 23.0568C27.5208 24.2771 28.656 23.424 29.3315 24.2502C29.5381 24.5036 29.6706 24.7255 29.7373 25.0531C29.9025 25.859 30.2996 26.2046 30.9743 26.5524C31.0378 26.5867 31.0062 26.6951 30.9349 26.6873C30.5541 26.6456 30.1654 26.5432 29.9137 26.2212ZM30.8336 37.0652C30.8416 37.0652 30.8442 37.0652 30.8522 37.0651C30.8786 37.0677 30.8945 37.0915 30.884 37.1153C30.8813 37.1206 30.8787 37.1259 30.8787 37.1338C30.8392 37.237 30.7253 37.0601 30.8336 37.0652ZM30.8428 34.7126C30.8481 34.7152 30.8508 34.7152 30.8561 34.7179C30.8693 34.7231 30.8825 34.7416 30.8773 34.7575C30.8747 34.7628 30.872 34.7681 30.8694 34.7734C30.8667 34.7786 30.8641 34.7813 30.8615 34.7839C30.7823 34.8502 30.7635 34.681 30.8428 34.7126ZM30.9261 32.4128C30.9314 32.418 30.9341 32.418 30.9367 32.4233C30.9473 32.4339 30.9553 32.455 30.9421 32.4682C30.9368 32.4735 30.9342 32.4788 30.9289 32.4815C30.9263 32.4868 30.921 32.4868 30.9157 32.4894C30.8233 32.524 30.86 32.3574 30.9261 32.4128ZM30.8631 29.5422C30.8999 29.4655 31.019 29.5261 30.9795 29.6002C30.9426 29.6769 30.8262 29.6163 30.8631 29.5422ZM30.6541 29.4606C30.5909 29.585 30.3978 29.4901 30.4583 29.3632C30.5216 29.2388 30.7173 29.3363 30.6541 29.4606ZM30.5124 34.6682C30.5257 34.7237 30.4411 34.7424 30.4278 34.6869C30.4145 34.6314 30.499 34.6127 30.5124 34.6682ZM30.4429 37.3143C30.3978 37.243 30.5087 37.1715 30.5538 37.2428C30.5988 37.3141 30.4879 37.3856 30.4429 37.3143ZM30.5426 32.2495C30.5504 32.194 30.635 32.2044 30.6298 32.26C30.622 32.3155 30.5347 32.3051 30.5426 32.2495ZM31.1574 42.4385C30.7379 42.8833 29.8156 43.0065 29.5203 43.4881C28.9378 44.4486 29.6185 45.2722 28.5014 45.8583C28.4776 45.8689 28.4564 45.8319 28.4776 45.8186C29.5997 45.1004 28.583 44.1109 29.2954 43.3167C29.5143 43.0731 29.7123 42.9089 30.024 42.792C30.7927 42.5052 31.0748 42.058 31.3141 41.3386C31.3378 41.2699 31.4488 41.2855 31.4516 41.3569C31.4787 41.7428 31.4371 42.142 31.1574 42.4385ZM31.3957 41.1006C31.3242 41.0452 31.4086 40.9367 31.4801 40.9894C31.5515 41.0448 31.4671 41.156 31.3957 41.1006ZM31.7147 40.6057C31.712 40.611 31.7094 40.619 31.7068 40.6269C31.6331 40.857 31.2864 40.5906 31.4897 40.4607C31.495 40.4554 31.5003 40.4528 31.5082 40.4501C31.6244 40.3733 31.7567 40.4761 31.7147 40.6057ZM31.6506 40.2226C31.5288 40.1276 31.6712 39.9397 31.793 40.0346C31.9174 40.1269 31.7723 40.3149 31.6506 40.2226ZM31.7979 39.8496C31.6868 39.7652 31.8186 39.5932 31.9298 39.6776C32.041 39.7646 31.9091 39.934 31.7979 39.8496ZM31.9963 30.624C31.9831 30.6479 31.9461 30.6294 31.9592 30.6056C31.9698 30.5818 32.0068 30.6002 31.9963 30.624ZM32.0458 39.487C31.9796 39.4343 32.0587 39.3311 32.1249 39.3838C32.1937 39.4339 32.1146 39.5398 32.0458 39.487ZM32.1914 27.2217C32.0805 27.3277 31.9163 27.1561 32.0272 27.0502C32.138 26.9443 32.3022 27.1158 32.1914 27.2217ZM32.3968 39.1719C32.3944 39.2803 32.225 39.1537 32.3307 39.1218C32.3359 39.1191 32.3412 39.1191 32.3492 39.1165C32.3756 39.1085 32.3994 39.1269 32.3968 39.1534C32.3968 39.1587 32.3968 39.164 32.3968 39.1719ZM32.5247 27.4088C32.4218 27.5068 32.2735 27.3485 32.3738 27.2505C32.4741 27.1552 32.625 27.3135 32.5247 27.4088ZM32.6053 38.9733C32.5603 38.939 32.6131 38.8702 32.6581 38.9045C32.7057 38.9387 32.653 39.0076 32.6053 38.9733ZM32.7842 27.6489C32.7235 27.7072 32.6335 27.6122 32.6942 27.5539C32.7549 27.4957 32.8449 27.5907 32.7842 27.6489ZM32.7854 22.1693C32.2207 21.1975 31.1743 21.4002 31.1933 20.1393C31.1932 20.1129 31.2381 20.1128 31.2382 20.1392C31.3303 21.4687 32.6857 21.0487 33.0416 22.0552C33.1505 22.3643 33.1985 22.618 33.1515 22.9485C33.0339 23.7602 33.2911 24.2223 33.8102 24.7765C33.8579 24.8293 33.7919 24.9193 33.7284 24.8903C33.3819 24.7244 33.051 24.4976 32.9235 24.1093C32.7322 23.5281 33.0664 22.6578 32.7854 22.1693ZM33.6646 29.3022C33.6488 29.318 33.6223 29.2917 33.6408 29.2758C33.654 29.2599 33.6804 29.2863 33.6646 29.3022ZM33.6007 38.287C33.5822 38.2738 33.6032 38.2447 33.6218 38.2578C33.6429 38.2737 33.6192 38.3028 33.6007 38.287ZM33.3944 28.9563C33.3759 28.9749 33.3468 28.9459 33.3652 28.9247C33.3837 28.9061 33.4128 28.9378 33.3944 28.9563ZM32.9432 38.7269C32.9485 38.7242 32.9512 38.7242 32.9564 38.7216C32.9696 38.7163 32.9908 38.7215 32.9988 38.7373C33.0014 38.7426 33.0014 38.7506 33.0041 38.7558C33.0067 38.7611 33.0068 38.7664 33.0041 38.7691C32.9858 38.8722 32.8614 38.7535 32.9432 38.7269ZM32.9697 27.9526C32.9644 27.9526 32.9565 27.95 32.9512 27.95C32.8428 27.9317 32.9959 27.7834 33.0093 27.8917C33.0119 27.8997 33.0119 27.9023 33.012 27.9102C33.0173 27.9393 32.9988 27.9578 32.9697 27.9526ZM33.1764 28.2509C33.1368 28.2907 33.0759 28.2273 33.1155 28.1876C33.1551 28.1479 33.216 28.2112 33.1764 28.2509ZM33.2511 28.613C33.1558 28.5788 33.2905 28.4754 33.3065 28.56C33.3065 28.5653 33.3065 28.5706 33.3091 28.5732C33.3118 28.5891 33.3039 28.6076 33.2854 28.6103C33.2775 28.6129 33.2722 28.6129 33.2669 28.6129C33.2616 28.6129 33.2564 28.6129 33.2511 28.613ZM33.2973 38.6126C33.2761 38.5968 33.2998 38.5624 33.3236 38.5782C33.3448 38.5967 33.3184 38.6284 33.2973 38.6126ZM34.4538 44.0691C34.2089 44.6299 33.3823 45.0595 33.2696 45.6096C33.0468 46.7096 33.9649 47.2552 33.1127 48.1844C33.0943 48.203 33.0625 48.1739 33.0783 48.1554C33.8933 47.0993 32.5997 46.5147 33.0024 45.5228C33.1262 45.2212 33.258 44.9963 33.5114 44.7818C34.1396 44.252 34.2523 43.7364 34.2325 42.9778C34.2298 42.9064 34.3408 42.8824 34.3699 42.9458C34.5186 43.3051 34.617 43.6935 34.4538 44.0691ZM34.643 40.3153C34.5901 40.2995 34.6164 40.2149 34.6693 40.2333C34.7248 40.249 34.6985 40.3337 34.643 40.3153ZM34.7292 25.8217C34.5892 25.8827 34.4937 25.6688 34.6337 25.6051C34.771 25.5441 34.8692 25.758 34.7292 25.8217ZM35.305 27.1212C35.2522 27.1451 35.2177 27.0659 35.2705 27.042C35.3207 27.0181 35.3578 27.0974 35.305 27.1212ZM34.8803 39.9712C34.8829 39.9686 34.8882 39.9659 34.8909 39.9633C34.9041 39.9527 34.9252 39.9526 34.9358 39.9658C34.9384 39.9711 34.9437 39.9764 34.9464 39.9817C34.9517 39.9843 34.9517 39.9896 34.9517 39.9949C34.9677 40.0927 34.8116 40.0242 34.8803 39.9712ZM34.9781 26.1094C34.8487 26.1651 34.7612 25.967 34.8906 25.9113C35.0174 25.8529 35.1049 26.0537 34.9781 26.1094ZM35.0869 26.3048C35.1635 26.2703 35.2192 26.3892 35.1399 26.4237C35.0633 26.4582 35.0103 26.3393 35.0869 26.3048ZM35.1733 39.7434C35.1469 39.7355 35.16 39.6958 35.1865 39.7037C35.2103 39.7116 35.1997 39.7513 35.1733 39.7434ZM35.2145 26.7725C35.2093 26.7698 35.204 26.7646 35.1987 26.7619C35.1034 26.7066 35.2989 26.6217 35.2726 26.7274C35.2726 26.7354 35.27 26.738 35.27 26.7459C35.2621 26.775 35.2384 26.7883 35.2145 26.7725ZM35.2719 27.8588C35.2482 27.8694 35.2296 27.8324 35.2533 27.8192C35.2798 27.8112 35.2957 27.8482 35.2719 27.8588ZM35.2872 27.4993C35.2792 27.4993 35.274 27.4967 35.2687 27.494C35.2634 27.4914 35.2607 27.4914 35.2554 27.4861C35.1787 27.4228 35.3398 27.3697 35.3241 27.4543C35.3241 27.4596 35.3215 27.4622 35.3215 27.4675C35.3189 27.486 35.303 27.5019 35.2872 27.4993ZM35.3497 39.3334C35.3286 39.3255 35.339 39.2911 35.3602 39.299C35.3814 39.3069 35.3709 39.3413 35.3497 39.3334ZM35.4101 28.2762C35.3889 28.2868 35.3757 28.2525 35.3942 28.2445C35.4153 28.2339 35.4312 28.2682 35.4101 28.2762ZM37.6525 24.1355C37.4009 23.8426 37.1915 23.5019 37.2331 23.0948C37.2955 22.4867 37.9525 21.8274 37.8908 21.2671C37.7699 20.1492 36.728 19.9104 37.2547 18.765C37.2652 18.7412 37.3076 18.757 37.297 18.7834C36.8419 20.0371 38.2537 20.2012 38.1709 21.2666C38.1451 21.5945 38.0873 21.8457 37.9107 22.1288C37.4731 22.8248 37.5243 23.3507 37.7713 24.0666C37.7952 24.13 37.7001 24.1883 37.6525 24.1355ZM37.8589 24.2991C37.9488 24.2989 37.949 24.439 37.8592 24.4392C37.7693 24.4393 37.7691 24.2992 37.8589 24.2991ZM37.8202 27.9126C37.7964 27.9126 37.7963 27.8783 37.8201 27.8782C37.8439 27.8782 37.844 27.9125 37.8202 27.9126ZM37.8644 27.4737C37.8379 27.4738 37.8379 27.4315 37.8643 27.4314C37.8907 27.4314 37.8908 27.4737 37.8644 27.4737ZM37.9075 24.8885C37.9049 24.8832 37.9022 24.8752 37.8996 24.8673C37.8172 24.6401 38.2534 24.6394 38.1718 24.8669C38.1692 24.8748 38.1666 24.8801 38.1639 24.888C38.1192 25.0176 37.9527 25.0179 37.9075 24.8885ZM38.0753 27.1271C38.0726 27.1297 38.07 27.135 38.0673 27.1377C38.0594 27.1509 38.0383 27.1589 38.0251 27.1483C38.0198 27.1457 38.0145 27.1404 38.0092 27.1378C38.0039 27.1351 38.0039 27.1325 38.0012 27.1272C37.9535 27.0401 38.1227 27.0556 38.0753 27.1271ZM38.1908 25.1523C38.3441 25.152 38.3445 25.3899 38.1912 25.3902C38.0379 25.3905 38.0375 25.1526 38.1908 25.1523ZM38.1937 26.8123C38.1381 26.8124 38.138 26.7252 38.1935 26.7251C38.249 26.725 38.2492 26.8122 38.1937 26.8123ZM38.3225 26.442C38.3199 26.4473 38.3146 26.4526 38.312 26.4579C38.2962 26.4791 38.2671 26.4791 38.2512 26.458C38.2485 26.4527 38.2433 26.4475 38.2406 26.4422C38.1744 26.3524 38.3858 26.3521 38.3225 26.442ZM38.3246 26.109C38.24 26.1091 38.2398 25.9769 38.3244 25.9768C38.409 25.9767 38.4092 26.1088 38.3246 26.109ZM38.3029 25.7548C38.1628 25.755 38.1624 25.5383 38.3025 25.538C38.4426 25.5378 38.4403 25.7546 38.3029 25.7548ZM39.8034 28.3427C39.8246 28.3506 39.8141 28.385 39.7903 28.3771C39.7691 28.3665 39.7822 28.3348 39.8034 28.3427ZM39.4715 39.81C39.4953 39.8021 39.5112 39.839 39.4874 39.8497C39.461 39.8603 39.4451 39.8207 39.4715 39.81ZM39.4061 40.1987C39.4087 40.1829 39.4245 40.167 39.443 40.1722C39.4483 40.1749 39.4536 40.1775 39.4615 40.1775C39.4668 40.1775 39.4695 40.1801 39.4748 40.1854C39.5515 40.2513 39.3851 40.2992 39.4061 40.2146C39.4034 40.2067 39.4061 40.204 39.4061 40.1987ZM39.3598 39.4217C39.3386 39.4296 39.3254 39.3979 39.3465 39.3873C39.3677 39.3767 39.3836 39.4137 39.3598 39.4217ZM39.4093 40.5476C39.4621 40.5264 39.494 40.6083 39.4412 40.6295C39.391 40.6508 39.3591 40.5689 39.4093 40.5476ZM39.4285 40.9415C39.4311 40.9335 39.4311 40.9309 39.4337 40.9229C39.4416 40.8965 39.468 40.8859 39.4892 40.9017C39.4945 40.9043 39.4998 40.9096 39.5051 40.9123C39.5977 40.9676 39.4022 41.0472 39.4285 40.9415ZM39.5984 41.372C39.5191 41.4039 39.4714 41.2824 39.5506 41.2505C39.6299 41.2187 39.6776 41.3402 39.5984 41.372ZM39.7841 41.7709C39.6547 41.824 39.5724 41.6232 39.7018 41.5701C39.8339 41.517 39.9136 41.7204 39.7841 41.7709ZM39.9931 27.9379C40.0195 27.9485 40.0037 27.9855 39.9799 27.9776C39.9561 27.9697 39.9693 27.9301 39.9931 27.9379ZM40.0305 42.0876C39.8878 42.1434 39.8002 41.9241 39.9402 41.8684C40.0829 41.81 40.1705 42.0292 40.0305 42.0876ZM40.8686 23.641C41.132 23.0908 41.9745 22.6902 42.1057 22.1428C42.3682 21.0506 41.4711 20.4733 42.3551 19.5757C42.3736 19.5571 42.4053 19.5862 42.3895 19.6073C41.5375 20.6318 42.81 21.2666 42.3729 22.2401C42.2386 22.5391 42.0989 22.756 41.8375 22.9627C41.1908 23.4687 41.0595 23.9817 41.0502 24.7403C41.0503 24.8117 40.9393 24.833 40.9128 24.7644C40.7747 24.4025 40.6921 24.0114 40.8686 23.641ZM41.8005 29.1666C41.7794 29.1482 41.8057 29.1164 41.8269 29.1349C41.8481 29.1533 41.8217 29.1851 41.8005 29.1666ZM41.7316 39.859C41.7316 39.8538 41.7316 39.8485 41.7289 39.8405C41.7263 39.8141 41.7474 39.7956 41.7738 39.8008C41.7791 39.8035 41.787 39.8034 41.7923 39.8061C41.8981 39.827 41.7397 39.9701 41.7316 39.859ZM41.6386 39.5605C41.5963 39.5976 41.5381 39.5316 41.5803 39.4945C41.6225 39.4574 41.6808 39.5234 41.6386 39.5605ZM41.5031 39.1299C41.5083 39.1299 41.5136 39.1299 41.5163 39.1325C41.6088 39.1693 41.4716 39.27 41.4608 39.1828C41.4608 39.1775 41.4582 39.1749 41.4582 39.1696C41.4555 39.1537 41.466 39.1352 41.4819 39.1326C41.4898 39.1299 41.4951 39.1299 41.5031 39.1299ZM41.5129 29.45C41.5314 29.4632 41.5077 29.4923 41.4891 29.4764C41.4706 29.4633 41.4944 29.4341 41.5129 29.45ZM41.4153 38.8128C41.3941 38.8314 41.3677 38.7997 41.3861 38.7812C41.4073 38.7653 41.4337 38.7969 41.4153 38.8128ZM41.0476 26.3026C41.1798 26.3499 41.1062 26.5536 40.9739 26.5062C40.8417 26.4615 40.9153 26.2552 41.0476 26.3026ZM40.8741 26.8474C40.7947 26.8184 40.8394 26.6941 40.9188 26.7231C41.0008 26.752 40.9561 26.8763 40.8741 26.8474ZM41.1291 38.4274C41.1476 38.4115 41.1714 38.4379 41.153 38.4538C41.1371 38.4697 41.1107 38.4433 41.1291 38.4274ZM40.9918 26.1282C40.8489 26.0756 40.9279 25.8534 41.0707 25.906C41.2162 25.956 41.1372 26.1782 40.9918 26.1282ZM41.139 25.6469C41.0519 25.7501 40.8959 25.6949 40.8956 25.56C40.8956 25.5521 40.8956 25.5468 40.8956 25.5389C40.8952 25.2983 41.3051 25.443 41.1522 25.631C41.1469 25.6363 41.1443 25.6416 41.139 25.6469ZM41.048 24.9888C41.1326 25.0204 41.0853 25.15 41.0006 25.1211C40.9186 25.0895 40.9634 24.9572 41.048 24.9888ZM40.2966 27.7233C40.294 27.726 40.2887 27.7286 40.2861 27.7313C40.2729 27.7419 40.2518 27.7419 40.2412 27.7287C40.2385 27.7234 40.2332 27.7181 40.2305 27.7128C40.2279 27.7076 40.2253 27.7049 40.2253 27.6996C40.2119 27.5966 40.3653 27.673 40.2966 27.7233ZM40.1525 42.3438C40.1525 42.3359 40.1525 42.3306 40.1525 42.3227C40.147 42.1879 40.3028 42.1242 40.3928 42.2245C40.3981 42.2298 40.4008 42.235 40.4061 42.2403C40.5676 42.4224 40.1609 42.587 40.1525 42.3438ZM40.5419 27.3845C40.5948 27.403 40.5659 27.485 40.513 27.4665C40.4601 27.4481 40.489 27.3661 40.5419 27.3845ZM40.6554 42.758C40.5736 42.7925 40.5205 42.6604 40.605 42.6285C40.6869 42.594 40.74 42.7235 40.6554 42.758ZM40.7451 27.1727C40.7213 27.1886 40.6949 27.1781 40.6869 27.1517C40.6843 27.1464 40.6842 27.1385 40.6816 27.1332C40.6497 27.0275 40.8507 27.0985 40.7583 27.1621C40.7556 27.1648 40.7504 27.1674 40.7451 27.1727ZM43.2728 47.6727C43.2702 47.6992 43.2279 47.6992 43.2279 47.6728C43.1833 46.3406 41.8121 46.7131 41.4931 45.6906C41.3948 45.3789 41.3547 45.1226 41.4149 44.7947C41.5616 43.9882 41.3202 43.5181 40.8223 42.9427C40.7746 42.8899 40.8458 42.7999 40.9067 42.8316C41.248 43.0107 41.5709 43.2481 41.6852 43.6417C41.8527 44.2309 41.4894 45.0853 41.7546 45.5845C42.2823 46.5775 43.3367 46.4144 43.2728 47.6727ZM42.0362 40.2074C41.9728 40.2631 41.8854 40.1654 41.9488 40.1098C42.0121 40.0542 42.0995 40.1518 42.0362 40.2074ZM42.1254 28.9996C42.1227 28.9943 42.1254 28.9916 42.1254 28.9863C42.1463 28.8885 42.2681 29.0099 42.1836 29.0338C42.1783 29.0365 42.1757 29.0365 42.1704 29.0365C42.1545 29.0418 42.1334 29.0365 42.1307 29.0181C42.1307 29.0128 42.128 29.0075 42.1254 28.9996ZM42.346 40.5215C42.2431 40.6168 42.0974 40.4532 42.203 40.3605C42.3059 40.2678 42.4489 40.4288 42.346 40.5215ZM42.5321 28.8006C42.5745 28.8349 42.5191 28.9037 42.4767 28.8668C42.4317 28.8325 42.4871 28.7637 42.5321 28.8006ZM42.4799 36.9184C42.4905 36.8972 42.5222 36.9157 42.5117 36.9342C42.5011 36.9553 42.4694 36.9395 42.4799 36.9184ZM42.6847 40.735C42.5686 40.8356 42.4123 40.6588 42.5258 40.5582C42.6393 40.4575 42.7982 40.6344 42.6847 40.735ZM44.6164 35.7649C44.6111 35.7596 44.6085 35.757 44.6032 35.7517C44.5847 35.7332 44.5872 35.7041 44.6136 35.6909C44.6189 35.6882 44.6242 35.6856 44.6295 35.6829C44.7272 35.6325 44.6932 35.844 44.6164 35.7649ZM44.6365 30.5337C44.679 30.6076 44.5681 30.6739 44.523 30.6C44.4779 30.5287 44.5915 30.4624 44.6365 30.5337ZM44.5565 33.1613C44.5671 33.2168 44.4825 33.2328 44.4719 33.1773C44.4612 33.1218 44.5458 33.1058 44.5565 33.1613ZM44.1044 25.388C44.5398 24.9591 45.4674 24.8676 45.7759 24.3966C46.3928 23.4571 45.7438 22.6097 46.8795 22.0632C46.9032 22.0526 46.9244 22.0922 46.9007 22.1055C45.752 22.7815 46.7344 23.8081 45.993 24.5759C45.766 24.8116 45.5601 24.9705 45.2458 25.0742C44.4664 25.3319 44.1711 25.7685 43.9053 26.4801C43.8816 26.5462 43.768 26.5305 43.7678 26.4565C43.7592 26.0732 43.8141 25.6766 44.1044 25.388ZM44.1414 33.1197C44.1361 33.1171 44.1334 33.1171 44.1282 33.1144C44.1149 33.1092 44.1017 33.0907 44.1096 33.0748C44.1122 33.0695 44.1148 33.0642 44.1175 33.0589C44.1201 33.0537 44.1228 33.051 44.128 33.0484C44.2046 32.9848 44.2207 33.1566 44.1414 33.1197ZM44.1848 30.7168C44.1875 30.7116 44.1901 30.7063 44.1928 30.6983C44.2349 30.5978 44.3435 30.78 44.2351 30.7696C44.2299 30.7696 44.2219 30.767 44.2167 30.767C44.1876 30.7644 44.1743 30.7407 44.1848 30.7168ZM44.1424 38.3747C44.211 38.2529 44.3988 38.3557 44.3329 38.4774C44.2671 38.6018 44.0766 38.4964 44.1424 38.3747ZM44.2698 35.5804C44.2777 35.5249 44.3649 35.538 44.3571 35.5935C44.3466 35.649 44.2594 35.636 44.2698 35.5804ZM43.9761 35.4144C43.9735 35.4118 43.9708 35.4091 43.9655 35.4038C43.955 35.3933 43.9496 35.3722 43.9602 35.3589C43.9655 35.3536 43.9707 35.351 43.9734 35.3457C43.976 35.3404 43.9813 35.3404 43.9866 35.3377C44.0843 35.3085 44.0397 35.4751 43.9761 35.4144ZM43.8494 30.8496C43.8202 30.7994 43.8941 30.757 43.9233 30.8045C43.9525 30.852 43.8785 30.8971 43.8494 30.8496ZM43.9361 38.2878C43.8966 38.3619 43.7802 38.2986 43.8197 38.2245C43.8618 38.1504 43.9783 38.2137 43.9361 38.2878ZM43.8185 26.7155C43.8873 26.7735 43.8003 26.8794 43.7288 26.824C43.66 26.766 43.7497 26.6601 43.8185 26.7155ZM43.8001 32.9723C43.8055 32.9987 43.7658 33.0067 43.7579 32.9803C43.7552 32.9538 43.7948 32.9458 43.8001 32.9723ZM43.481 27.2024C43.4836 27.1945 43.4863 27.1892 43.4889 27.1813C43.5704 26.9538 43.9066 27.2308 43.7006 27.3554C43.6954 27.358 43.6874 27.3633 43.6822 27.366C43.5633 27.4349 43.4336 27.3294 43.481 27.2024ZM43.5319 27.5856C43.651 27.6832 43.5006 27.8659 43.3815 27.7683C43.2624 27.6707 43.4128 27.488 43.5319 27.5856ZM43.1102 28.3053C43.1763 28.3581 43.0919 28.4613 43.0258 28.4059C42.9596 28.3532 43.044 28.2526 43.1102 28.3053ZM43.0466 37.5174C43.044 37.5122 43.0413 37.5095 43.0413 37.5042C43.0334 37.491 43.036 37.4699 43.0518 37.4619C43.0571 37.4593 43.065 37.4566 43.0703 37.454C43.0756 37.4513 43.0782 37.4513 43.0835 37.4513C43.184 37.4538 43.0864 37.594 43.0466 37.5174ZM42.7158 31.0894C42.7052 31.0709 42.7342 31.0524 42.7475 31.0709C42.7581 31.0893 42.7264 31.1079 42.7158 31.0894ZM42.7936 28.668C42.7672 28.676 42.746 28.6575 42.7459 28.6311C42.7459 28.6231 42.7459 28.6179 42.7459 28.6126C42.7536 28.5042 42.9151 28.6387 42.8094 28.6653C42.8068 28.6653 42.8015 28.6653 42.7936 28.668ZM42.8425 37.1662C42.8557 37.1424 42.8927 37.1635 42.8795 37.1873C42.8664 37.2111 42.8293 37.19 42.8425 37.1662ZM42.886 40.9355C42.8833 40.9276 42.8806 40.9223 42.878 40.9171C42.8276 40.7929 42.9516 40.6817 43.0707 40.7449C43.0759 40.7475 43.0813 40.7528 43.0892 40.7555C43.3008 40.8688 42.9762 41.1601 42.886 40.9355ZM43.112 30.9037C43.0987 30.8799 43.133 30.8587 43.1489 30.8825C43.1622 30.9036 43.1279 30.9248 43.112 30.9037ZM43.3712 27.9533C43.4798 28.043 43.34 28.2098 43.2341 28.1201C43.1256 28.0304 43.2627 27.8636 43.3712 27.9533ZM43.2407 35.0429C43.2433 35.0192 43.2803 35.027 43.275 35.0482C43.2724 35.072 43.2381 35.0667 43.2407 35.0429ZM43.3406 37.813C43.3142 37.8633 43.2375 37.8211 43.2638 37.7708C43.2928 37.7232 43.3695 37.7654 43.3406 37.813ZM43.3218 33.0207C43.3164 32.9969 43.3534 32.9915 43.3561 33.0127C43.3614 33.0365 43.3271 33.0418 43.3218 33.0207ZM43.4996 41.1539C43.4336 41.2122 43.3409 41.1092 43.4069 41.051C43.4729 40.9901 43.5655 41.093 43.4996 41.1539ZM43.474 30.874C43.474 30.8687 43.4767 30.8608 43.4767 30.8555C43.4766 30.8502 43.4793 30.8476 43.4819 30.8423C43.5373 30.7576 43.6063 30.9134 43.5217 30.9057C43.5164 30.9057 43.5137 30.9057 43.5085 30.9057C43.49 30.9057 43.4714 30.8925 43.474 30.874ZM43.5313 38.0638C43.5286 38.0585 43.526 38.0532 43.5233 38.0479C43.5127 38.0242 43.5232 37.9977 43.5523 37.995C43.5576 37.995 43.5655 37.995 43.5708 37.9923C43.6792 37.9763 43.5764 38.1642 43.5313 38.0638ZM43.6664 35.1532C43.6717 35.1268 43.7113 35.132 43.7087 35.1585C43.7035 35.1875 43.6612 35.1797 43.6664 35.1532ZM44.7666 41.6407C45.1243 42.1371 45.0703 43.0676 45.4886 43.4449C46.3226 44.1995 47.2575 43.6877 47.6243 44.8924C47.6323 44.9189 47.59 44.9321 47.582 44.9084C47.0909 43.6695 45.9266 44.483 45.2801 43.6303C45.0814 43.3689 44.9595 43.1418 44.9034 42.8141C44.7672 42.0055 44.3833 41.644 43.7218 41.2725C43.6609 41.2382 43.6951 41.1298 43.7639 41.1402C44.1446 41.1924 44.5281 41.3081 44.7666 41.6407ZM44.7243 38.564C44.6505 38.6989 44.4415 38.5856 44.5153 38.4507C44.5891 38.3184 44.7954 38.4317 44.7243 38.564ZM46.5568 28.125C47.1114 27.8676 48.0158 28.096 48.4646 27.7569C49.3622 27.0813 49.038 26.0668 50.2907 25.9352C50.3171 25.9325 50.3225 25.9774 50.2961 25.9801C48.9854 26.2282 49.5639 27.5277 48.6051 27.9999C48.312 28.1457 48.0663 28.2255 47.7332 28.2155C46.9137 28.1957 46.486 28.5057 45.9954 29.0855C45.9505 29.141 45.85 29.0857 45.8737 29.0169C46.0026 28.6519 46.187 28.2974 46.5568 28.125ZM46.1023 32.8599C46.1316 33.0106 45.8991 33.0559 45.8697 32.9053C45.8378 32.7573 46.0703 32.712 46.1023 32.8599ZM45.8398 29.2787C45.8848 29.3553 45.766 29.4268 45.7183 29.3503C45.6758 29.2737 45.7947 29.2021 45.8398 29.2787ZM45.7431 33.043C45.7698 33.1804 45.5557 33.2204 45.5317 33.083C45.505 32.9456 45.7164 32.9055 45.7431 33.043ZM45.3566 29.6205C45.3619 29.6152 45.3645 29.6099 45.3698 29.6046C45.5228 29.4193 45.7481 29.7943 45.5103 29.8396C45.5024 29.8423 45.4971 29.8423 45.4891 29.845C45.357 29.869 45.2722 29.7264 45.3566 29.6205ZM45.2753 29.9986C45.3522 30.1307 45.1489 30.2526 45.072 30.1206C44.9951 29.9885 45.1958 29.8666 45.2753 29.9986ZM45.0738 35.8381C45.0608 35.9227 44.9312 35.9018 44.9443 35.8172C44.9573 35.7352 45.0869 35.7561 45.0738 35.8381ZM45.0009 30.2925C45.0725 30.4113 44.885 30.5227 44.8134 30.4039C44.7445 30.2824 44.9293 30.171 45.0009 30.2925ZM44.8606 33.2348C44.8553 33.2321 44.85 33.2295 44.8447 33.2269C44.8209 33.2163 44.8129 33.1873 44.834 33.1687C44.8393 33.1634 44.8419 33.1608 44.8472 33.1555C44.9184 33.0734 44.9611 33.2822 44.8606 33.2348ZM44.9835 38.6851C44.9782 38.6798 44.973 38.6746 44.9703 38.6693C44.8803 38.569 44.9593 38.4208 45.0942 38.4418C45.1021 38.4417 45.1074 38.4444 45.1153 38.4444C45.3506 38.4836 45.1425 38.8672 44.9835 38.6851ZM45.1882 33.1734C45.1722 33.0915 45.3017 33.0649 45.3177 33.1494C45.3337 33.2313 45.2042 33.258 45.1882 33.1734ZM45.2985 35.8509C45.3194 35.7134 45.5336 35.7448 45.5127 35.8849C45.4918 36.0224 45.2776 35.9884 45.2985 35.8509ZM45.6312 38.684C45.589 38.7634 45.4646 38.6949 45.5094 38.6181C45.5516 38.5388 45.676 38.6046 45.6312 38.684ZM45.6764 35.7974C45.7 35.6467 45.9327 35.6807 45.9118 35.834C45.8856 35.9847 45.6503 35.9481 45.6764 35.7974ZM46.9899 38.7108C47.4953 39.0562 47.7586 39.9492 48.2797 40.165C49.3192 40.5941 50.0263 39.7946 50.7787 40.8057C50.7946 40.8269 50.7603 40.856 50.7418 40.8349C49.8598 39.8346 49.0397 40.9937 48.1427 40.4111C47.8674 40.2318 47.6742 40.0603 47.5124 39.7698C47.1121 39.0542 46.6253 38.8462 45.877 38.718C45.8083 38.7075 45.8028 38.5938 45.8742 38.5779C46.252 38.5032 46.6538 38.4814 46.9899 38.7108ZM46.1946 35.86C46.1867 35.8573 46.1814 35.8547 46.1761 35.8494C46.0571 35.7862 46.0832 35.6196 46.2153 35.593C46.2206 35.5903 46.2285 35.5903 46.2365 35.5876C46.4717 35.5423 46.4063 35.9759 46.1946 35.86ZM46.3771 32.7881C46.3691 32.7881 46.3638 32.7855 46.3559 32.7855C46.2211 32.7646 46.1891 32.6008 46.3079 32.5318C46.3132 32.5292 46.3185 32.5239 46.3264 32.5212C46.5324 32.3993 46.615 32.8274 46.3771 32.7881ZM46.9998 32.1421C47.2398 31.8403 47.5328 31.5702 47.9424 31.5325C48.5503 31.4786 49.323 31.998 49.862 31.8332C50.9346 31.5009 50.9724 30.4356 52.1968 30.7375C52.2233 30.7427 52.2128 30.7877 52.1863 30.7824C50.8696 30.5732 50.9751 31.9899 49.9127 32.1107C49.5876 32.1482 49.3286 32.1381 49.0191 32.0197C48.2547 31.7223 47.7474 31.8712 47.0898 32.2503C47.0291 32.2821 46.955 32.1977 46.9998 32.1421ZM46.6674 35.616C46.6805 35.5287 46.8179 35.5496 46.8049 35.6369C46.7892 35.7268 46.6517 35.7059 46.6674 35.616ZM46.7385 32.3989C46.7225 32.3117 46.8573 32.2851 46.876 32.3722C46.8946 32.4621 46.7572 32.4888 46.7385 32.3989ZM52.3432 35.934C51.1763 35.2911 50.7954 36.661 49.7535 36.4143C49.4362 36.3382 49.1955 36.2434 48.944 36.0244C48.3245 35.4863 47.7984 35.4528 47.0506 35.5889C46.9819 35.6022 46.9394 35.4966 47.0002 35.4594C47.3276 35.258 47.6974 35.1014 48.0914 35.2038C48.6838 35.3588 49.2349 36.1085 49.798 36.1366C50.9215 36.1876 51.3163 35.1983 52.3669 35.8943C52.3881 35.9102 52.3643 35.9472 52.3432 35.934Z" fill="#ED5A14"/>
<path d="M35.7019 24.208C35.6911 24.1129 35.6434 24.0416 35.5693 23.9862C35.6038 24.0681 35.6463 24.1421 35.7019 24.208Z" fill="#ED5A14"/>
</g>
<defs>
<filter id="filter0_d" x="0.181152" y="0.146484" width="73.76" height="86.6093" filterUnits="userSpaceOnUse" color-interpolation-filters="sRGB">
<feFlood flood-opacity="0" result="BackgroundImageFix"/>
<feColorMatrix in="SourceAlpha" type="matrix" values="0 0 0 0 0 0 0 0 0 0 0 0 0 0 0 0 0 0 127 0"/>
<feOffset dy="4"/>
<feGaussianBlur stdDeviation="2"/>
<feColorMatrix type="matrix" values="0 0 0 0 0 0 0 0 0 0 0 0 0 0 0 0 0 0 0.25 0"/>
<feBlend mode="normal" in2="BackgroundImageFix" result="effect1_dropShadow"/>
<feBlend mode="normal" in="SourceGraphic" in2="effect1_dropShadow" result="shape"/>
</filter>
</defs>
</svg>
